<svg width="100%" height="100%" viewBox="0 0 24 24" version="1.1" xmlns="http://www.w3.org/2000/svg" xmlns:xlink="http://www.w3.org/1999/xlink" xml:space="preserve" style="fill-rule:evenodd;clip-rule:evenodd;stroke-linejoin:round;stroke-miterlimit:2;">
    <path id="Icon_83_" d="M7.774,24c0.853,-0 1.086,-0.337 1.086,-0.751c0,-0.371 -0.013,-1.354 -0.02,-2.656c-4.422,0.942 -5.355,-2.096 -5.355,-2.096c-0.723,-1.803 -1.769,-2.286 -1.769,-2.286c-1.44,-0.968 0.112,-0.948 0.112,-0.948c1.596,0.108 2.435,1.61 2.435,1.61c1.417,2.388 3.721,1.698 4.63,1.299c0.143,-1.011 0.553,-1.699 1.007,-2.089c-3.531,-0.391 -7.242,-1.734 -7.242,-7.72c0,-1.705 0.617,-3.099 1.637,-4.192c-0.179,-0.395 -0.716,-1.983 0.139,-4.135c-0,-0 1.331,-0.419 4.372,1.602c1.272,-0.347 2.623,-0.52 3.974,-0.528c1.352,0.008 2.703,0.181 3.975,0.528c3.021,-2.021 4.352,-1.602 4.352,-1.602c0.855,2.152 0.318,3.74 0.159,4.135c1.014,1.093 1.63,2.487 1.63,4.192c0,6.001 -3.716,7.322 -7.254,7.707c0.557,0.469 1.073,1.427 1.073,2.891c0,2.09 -0.019,3.77 -0.019,4.278c-0,0.409 0.177,0.741 1.092,0.741l-10.014,0.02Z" style="fill-rule:nonzero;"/>
</svg>
