<svg width="100%" height="100%" viewBox="0 0 24 24" version="1.1" xmlns="http://www.w3.org/2000/svg" xmlns:xlink="http://www.w3.org/1999/xlink" xml:space="preserve" style="fill-rule:evenodd;clip-rule:evenodd;stroke-linejoin:round;stroke-miterlimit:2;" aria-hidden="true">
    <path d="M24,1.28c0,-0.155 -0.125,-0.28 -0.28,-0.28l-20.918,0c-0.155,0 -0.28,0.125 -0.28,0.28l-0,3.44c-0,0.155 0.125,0.28 0.28,0.28l20.918,0c0.155,0 0.28,-0.125 0.28,-0.28l0,-3.44Z"/>
    <path d="M24,10.28c0,-0.155 -0.125,-0.28 -0.28,-0.28l-23.44,0c-0.155,0 -0.28,0.125 -0.28,0.28l0,3.44c0,0.155 0.125,0.28 0.28,0.28l23.44,0c0.155,0 0.28,-0.125 0.28,-0.28l0,-3.44Z"/>
    <path d="M24,19.28c0,-0.155 -0.125,-0.28 -0.28,-0.28l-17.223,0c-0.154,0 -0.28,0.125 -0.28,0.28l0,3.44c0,0.155 0.126,0.28 0.28,0.28l17.223,-0c0.155,-0 0.28,-0.125 0.28,-0.28l0,-3.44Z"/>
</svg>
