<?xml version="1.0" encoding="UTF-8" standalone="no"?>
<!DOCTYPE svg PUBLIC "-//W3C//DTD SVG 1.1//EN" "http://www.w3.org/Graphics/SVG/1.1/DTD/svg11.dtd">
<svg width="100%" height="100%" viewBox="0 0 243 213" version="1.1" xmlns="http://www.w3.org/2000/svg" xmlns:xlink="http://www.w3.org/1999/xlink" xml:space="preserve" xmlns:serif="http://www.serif.com/" style="fill-rule:evenodd;clip-rule:evenodd;stroke-linejoin:round;stroke-miterlimit:2;">
    <path d="M14.924,210.449c-0.663,-0.198 -1.324,-0.41 -1.98,-0.638c-5.756,-2 -13.33,-7.524 -12.929,-14.346c0.557,-9.457 10.558,-11.556 20.067,-11.556c5.44,-0 10.717,0.686 13.977,1.074c11.819,1.41 23.689,1.845 35.575,1.845c9.635,-0 19.28,-0.286 28.926,-0.572c9.645,-0.286 19.29,-0.573 28.918,-0.573c3.611,-0 7.219,0.041 10.825,0.136c4.408,0.118 8.846,0.184 13.292,0.184c7.524,-0 15.075,-0.19 22.57,-0.648c11.282,-0.689 22.376,-1.876 33.763,-1.883c0.515,-0.001 1.05,-0.002 1.597,-0.002c7.285,-0 17.146,0.273 20.944,7.453c1.731,3.273 1.212,6.173 -0.536,8.656c-3.798,5.393 -13.397,8.817 -18.336,9.823c-2.528,0.515 -5.122,0.857 -7.758,1.066l-0.055,0.004c-2.336,0.183 -4.708,0.261 -7.099,0.261c-2.733,-0 -5.491,-0.102 -8.257,-0.265l-0.103,-0.006c-8.75,-0.522 -17.549,-1.656 -25.726,-2.126c-18.945,-1.089 -37.906,-2.016 -56.886,-2.016c-0.784,-0 -1.565,0.002 -2.349,0.005c-16.087,0.067 -31.46,2.056 -47.203,4.143l-0.964,0.128c-2.251,0.298 -4.51,0.597 -6.78,0.893c-5.325,0.694 -10.809,1.224 -16.271,1.224c-5.815,-0 -11.605,-0.601 -17.158,-2.245l-0.064,-0.019Z" style="fill:#e3e6e8;fill-opacity:0;fill-rule:nonzero;"/>
    <path d="M242.18,44.986c0,3.466 -2.81,6.275 -6.275,6.275c-3.465,0 -6.275,-2.809 -6.275,-6.275c0,-3.466 2.81,-6.275 6.275,-6.275c3.465,-0 6.275,2.809 6.275,6.275Z" style="fill:#8964ce;fill-rule:nonzero;"/>
    <path d="M85.019,55.668c0,3.466 -2.81,6.275 -6.274,6.275c-3.465,-0 -6.275,-2.809 -6.275,-6.275c0,-3.465 2.81,-6.274 6.275,-6.274c3.464,-0 6.274,2.809 6.274,6.274Z" style="fill:#8964ce;fill-rule:nonzero;"/>
    <path d="M107.155,77.832c0,2.285 -1.854,4.139 -4.139,4.139c-2.286,-0 -4.139,-1.854 -4.139,-4.139c0,-2.286 1.853,-4.14 4.139,-4.14c2.285,0 4.139,1.854 4.139,4.14Z" style="fill:#fff;fill-rule:nonzero;"/>
    <path d="M200.412,77.832c0,2.285 -1.852,4.139 -4.138,4.139c-2.286,-0 -4.139,-1.854 -4.139,-4.139c0,-2.286 1.853,-4.14 4.139,-4.14c2.286,0 4.138,1.854 4.138,4.14Z" style="fill:#fff;fill-rule:nonzero;"/>
    <path d="M19.873,106.844c0,2.286 -1.852,4.138 -4.137,4.138c-2.286,-0 -4.139,-1.852 -4.139,-4.138c0,-2.285 1.853,-4.139 4.139,-4.139c2.285,0 4.137,1.854 4.137,4.139Z" style="fill:#fff;fill-rule:nonzero;"/>
    <path d="M16.884,101.646c-0.549,-0 -1.084,0.116 -1.589,0.342c-0.948,0.425 -1.673,1.194 -2.042,2.164c-0.37,0.971 -0.339,2.027 0.086,2.974c0.626,1.395 2.019,2.298 3.549,2.298c0.549,-0 1.084,-0.115 1.589,-0.342c1.956,-0.878 2.832,-3.183 1.956,-5.139c-0.626,-1.395 -2.019,-2.297 -3.549,-2.297Zm0.004,8.454c-1.796,-0 -3.431,-1.059 -4.166,-2.697c-0.499,-1.112 -0.535,-2.352 -0.102,-3.491c0.434,-1.14 1.286,-2.042 2.398,-2.541c0.594,-0.266 1.222,-0.401 1.866,-0.401c1.796,0 3.432,1.059 4.166,2.697c1.029,2.296 0,5.002 -2.296,6.032c-0.593,0.266 -1.22,0.401 -1.866,0.401Z" style="fill:#1a1a1a;fill-rule:nonzero;"/>
    <path d="M102.085,75.367c-0.549,0 -1.084,0.115 -1.589,0.342c-1.955,0.877 -2.832,3.183 -1.955,5.139c0.626,1.395 2.019,2.297 3.549,2.297c0.549,0 1.084,-0.116 1.589,-0.342c0.947,-0.425 1.673,-1.194 2.042,-2.164c0.369,-0.971 0.339,-2.027 -0.087,-2.974c-0.626,-1.396 -2.018,-2.298 -3.549,-2.298Zm0.005,8.454c-1.796,-0 -3.43,-1.059 -4.166,-2.696c-1.03,-2.297 0,-5.003 2.295,-6.033c0.594,-0.266 1.222,-0.401 1.866,-0.401c1.796,-0 3.432,1.059 4.166,2.697c0.499,1.112 0.535,2.352 0.102,3.491c-0.434,1.14 -1.284,2.042 -2.397,2.541c-0.593,0.266 -1.22,0.401 -1.866,0.401Z" style="fill:#1a1a1a;fill-rule:nonzero;"/>
    <path d="M76.926,48.005c-0.843,-0 -1.663,0.177 -2.439,0.525c-1.454,0.652 -2.568,1.832 -3.134,3.322c-0.567,1.489 -0.52,3.11 0.133,4.564c0.961,2.143 3.098,3.526 5.447,3.526c0.843,0 1.664,-0.176 2.44,-0.524c1.454,-0.652 2.567,-1.832 3.133,-3.321c0.568,-1.49 0.52,-3.111 -0.133,-4.565c-0.96,-2.142 -3.098,-3.527 -5.447,-3.527Zm0.007,12.55c-2.589,-0 -4.946,-1.526 -6.006,-3.888c-0.72,-1.603 -0.771,-3.391 -0.146,-5.033c0.625,-1.643 1.852,-2.944 3.456,-3.663c0.854,-0.383 1.759,-0.578 2.689,-0.578c2.59,-0 4.947,1.526 6.006,3.888c0.72,1.603 0.771,3.391 0.146,5.033c-0.625,1.642 -1.851,2.943 -3.455,3.663c-0.855,0.383 -1.76,0.578 -2.69,0.578Z" style="fill:#1a1a1a;fill-rule:nonzero;"/>
    <path d="M83.975,61.29c-0.092,-0 -0.183,-0.038 -0.249,-0.11l-2.467,-2.687c-0.126,-0.138 -0.117,-0.352 0.021,-0.478c0.136,-0.126 0.351,-0.117 0.477,0.021l2.467,2.687c0.126,0.137 0.117,0.351 -0.021,0.477l-0.228,0.09Zm4.934,5.374c-0.092,0 -0.183,-0.038 -0.249,-0.11l-2.467,-2.687c-0.126,-0.138 -0.117,-0.352 0.02,-0.478c0.137,-0.126 0.352,-0.117 0.478,0.021l2.467,2.687c0.126,0.137 0.117,0.351 -0.021,0.477l-0.228,0.09Zm4.933,5.373c-0.092,0 -0.182,-0.037 -0.249,-0.11l-2.467,-2.687c-0.126,-0.137 -0.117,-0.351 0.021,-0.477c0.137,-0.126 0.351,-0.118 0.477,0.02l2.467,2.687c0.126,0.137 0.117,0.351 -0.02,0.477l-0.229,0.09Zm4.754,5.178c-0.092,-0 -0.183,-0.037 -0.249,-0.11l-2.287,-2.491c-0.126,-0.137 -0.117,-0.352 0.02,-0.478c0.136,-0.126 0.352,-0.117 0.478,0.021l2.287,2.491c0.126,0.138 0.117,0.352 -0.02,0.478l-0.229,0.089Z" style="fill:#1a1a1a;fill-rule:nonzero;"/>
    <path d="M69.479,59.873c-0.095,0 -0.189,-0.04 -0.256,-0.117c-0.122,-0.141 -0.106,-0.355 0.034,-0.477l2.294,-1.989c0.143,-0.123 0.355,-0.108 0.478,0.033c0.122,0.141 0.106,0.355 -0.034,0.477l-2.294,1.99l-0.222,0.083Zm-5.512,4.779c-0.095,-0 -0.188,-0.04 -0.256,-0.117c-0.122,-0.141 -0.106,-0.355 0.034,-0.477l2.756,-2.39c0.142,-0.122 0.355,-0.108 0.478,0.034c0.122,0.141 0.106,0.355 -0.034,0.477l-2.756,2.39l-0.222,0.083Zm-5.512,4.779c-0.094,-0 -0.188,-0.04 -0.255,-0.117c-0.122,-0.141 -0.107,-0.355 0.034,-0.477l2.756,-2.389c0.141,-0.122 0.353,-0.108 0.477,0.033c0.122,0.142 0.107,0.355 -0.034,0.477l-2.756,2.39l-0.222,0.083Zm-5.511,4.779c-0.095,-0 -0.189,-0.04 -0.256,-0.117c-0.122,-0.141 -0.107,-0.355 0.034,-0.477l2.756,-2.389c0.142,-0.123 0.353,-0.108 0.477,0.033c0.123,0.141 0.107,0.355 -0.034,0.477l-2.756,2.39l-0.221,0.083Zm-5.512,4.779c-0.095,-0 -0.188,-0.039 -0.256,-0.116c-0.122,-0.142 -0.106,-0.355 0.034,-0.478l2.756,-2.389c0.142,-0.122 0.355,-0.108 0.478,0.034c0.122,0.141 0.106,0.355 -0.034,0.477l-2.756,2.389l-0.222,0.083Zm-5.512,4.78c-0.094,-0 -0.188,-0.04 -0.256,-0.117c-0.122,-0.141 -0.106,-0.355 0.035,-0.477l2.755,-2.39c0.142,-0.122 0.354,-0.108 0.478,0.034c0.122,0.141 0.106,0.355 -0.034,0.477l-2.756,2.39l-0.222,0.083Zm-5.51,4.778c-0.095,-0 -0.189,-0.039 -0.256,-0.116c-0.122,-0.141 -0.107,-0.355 0.034,-0.477l2.755,-2.39c0.141,-0.122 0.353,-0.108 0.477,0.034c0.122,0.141 0.107,0.355 -0.034,0.477l-2.755,2.389l-0.221,0.083Zm-5.512,4.78c-0.095,-0 -0.189,-0.04 -0.256,-0.117c-0.122,-0.141 -0.106,-0.355 0.034,-0.477l2.756,-2.39c0.142,-0.122 0.354,-0.108 0.478,0.034c0.122,0.141 0.106,0.355 -0.035,0.477l-2.755,2.39l-0.222,0.083Zm-5.512,4.779c-0.095,0 -0.188,-0.04 -0.256,-0.117c-0.122,-0.141 -0.106,-0.355 0.034,-0.477l2.756,-2.389c0.143,-0.123 0.355,-0.108 0.478,0.033c0.122,0.141 0.106,0.355 -0.034,0.477l-2.756,2.39l-0.222,0.083Zm-5.513,4.779c-0.094,-0 -0.187,-0.039 -0.254,-0.116c-0.123,-0.142 -0.108,-0.355 0.034,-0.478l2.755,-2.389c0.142,-0.122 0.353,-0.108 0.478,0.034c0.121,0.141 0.107,0.355 -0.034,0.477l-2.756,2.389l-0.223,0.083Z" style="fill:#1a1a1a;fill-rule:nonzero;"/>
    <path d="M194.967,72.491c-0.549,-0 -1.083,0.115 -1.588,0.342c-0.947,0.425 -1.673,1.193 -2.042,2.164c-0.369,0.971 -0.339,2.027 0.086,2.974c0.627,1.396 2.021,2.298 3.55,2.298c0.549,-0 1.084,-0.116 1.589,-0.342c0.947,-0.425 1.672,-1.194 2.042,-2.164c0.369,-0.971 0.338,-2.027 -0.087,-2.974c-0.626,-1.396 -2.02,-2.298 -3.55,-2.298Zm0.006,8.454c-1.796,-0 -3.432,-1.059 -4.167,-2.697c-0.499,-1.112 -0.535,-2.352 -0.101,-3.492c0.434,-1.139 1.285,-2.041 2.397,-2.54c0.593,-0.266 1.221,-0.401 1.865,-0.401c1.797,0 3.433,1.059 4.167,2.697c0.499,1.112 0.535,2.352 0.102,3.491c-0.434,1.14 -1.285,2.042 -2.397,2.541c-0.594,0.266 -1.22,0.401 -1.866,0.401Z" style="fill:#1a1a1a;fill-rule:nonzero;"/>
    <path d="M232.014,38.149c-0.843,0 -1.663,0.177 -2.438,0.525c-1.455,0.652 -2.568,1.832 -3.135,3.322c-0.567,1.489 -0.52,3.11 0.133,4.564c0.962,2.143 3.1,3.526 5.448,3.526c0.843,-0 1.663,-0.176 2.439,-0.524c3.001,-1.347 4.348,-4.885 3.001,-7.886c-0.961,-2.142 -3.099,-3.527 -5.448,-3.527Zm0.008,12.55c-2.589,-0 -4.946,-1.526 -6.007,-3.888c-0.72,-1.604 -0.771,-3.391 -0.146,-5.033c0.625,-1.643 1.852,-2.944 3.457,-3.663c0.854,-0.384 1.758,-0.578 2.688,-0.578c2.59,0 4.947,1.526 6.007,3.888c1.484,3.31 0,7.211 -3.31,8.696c-0.854,0.383 -1.759,0.578 -2.689,0.578Z" style="fill:#1a1a1a;fill-rule:nonzero;"/>
    <path d="M186.172,67.09c-0.092,-0 -0.182,-0.037 -0.249,-0.11l-2.467,-2.687c-0.126,-0.137 -0.117,-0.352 0.021,-0.478c0.137,-0.126 0.351,-0.117 0.477,0.021l2.467,2.687c0.126,0.137 0.117,0.351 -0.02,0.477l-0.229,0.09Zm4.934,5.373c-0.092,-0 -0.183,-0.037 -0.249,-0.109l-2.467,-2.688c-0.126,-0.137 -0.117,-0.351 0.021,-0.477c0.136,-0.126 0.352,-0.118 0.477,0.02l2.467,2.687c0.126,0.138 0.117,0.352 -0.021,0.478l-0.228,0.089Z" style="fill:#1a1a1a;fill-rule:nonzero;"/>
    <path d="M225.516,49.834c-0.095,-0 -0.188,-0.039 -0.256,-0.116c-0.122,-0.141 -0.106,-0.355 0.034,-0.477l1.691,-1.466c0.141,-0.123 0.353,-0.108 0.477,0.034c0.122,0.141 0.107,0.355 -0.034,0.477l-1.69,1.465l-0.222,0.083Zm-5.512,4.779c-0.094,-0 -0.188,-0.039 -0.256,-0.116c-0.122,-0.142 -0.106,-0.355 0.035,-0.478l2.755,-2.389c0.142,-0.121 0.354,-0.108 0.478,0.034c0.122,0.141 0.106,0.355 -0.034,0.477l-2.756,2.389l-0.222,0.083Zm-5.51,4.78c-0.095,-0 -0.189,-0.04 -0.256,-0.117c-0.122,-0.141 -0.107,-0.355 0.034,-0.477l2.755,-2.39c0.141,-0.122 0.353,-0.107 0.477,0.034c0.122,0.141 0.107,0.355 -0.034,0.477l-2.755,2.39l-0.221,0.083Zm-5.512,4.779c-0.095,-0 -0.189,-0.04 -0.256,-0.117c-0.122,-0.141 -0.106,-0.355 0.034,-0.477l2.756,-2.39c0.143,-0.122 0.354,-0.107 0.478,0.034c0.122,0.141 0.106,0.355 -0.035,0.477l-2.756,2.39l-0.221,0.083Zm-5.512,4.779c-0.095,0 -0.188,-0.04 -0.256,-0.117c-0.122,-0.141 -0.106,-0.355 0.034,-0.477l2.756,-2.389c0.142,-0.123 0.354,-0.108 0.478,0.033c0.122,0.142 0.106,0.355 -0.034,0.477l-2.756,2.39l-0.222,0.083Zm-5.512,4.779c-0.094,-0 -0.188,-0.04 -0.255,-0.117c-0.123,-0.141 -0.107,-0.355 0.034,-0.477l2.756,-2.389c0.141,-0.123 0.354,-0.108 0.477,0.033c0.122,0.141 0.107,0.355 -0.034,0.477l-2.756,2.39l-0.222,0.083Z" style="fill:#1a1a1a;fill-rule:nonzero;"/>
    <path d="M116.312,67.278c-0.095,-0 -0.189,-0.04 -0.256,-0.117c-0.122,-0.141 -0.106,-0.355 0.034,-0.477l0.903,-0.783c0.141,-0.122 0.353,-0.108 0.477,0.034c0.122,0.141 0.107,0.355 -0.034,0.477l-0.902,0.783l-0.222,0.083Zm-5.512,4.778c-0.095,-0 -0.188,-0.039 -0.256,-0.117c-0.122,-0.141 -0.106,-0.355 0.034,-0.477l2.756,-2.389c0.142,-0.123 0.355,-0.108 0.478,0.033c0.122,0.142 0.106,0.355 -0.034,0.477l-2.756,2.39l-0.222,0.083Zm-5.512,4.779c-0.094,-0 -0.188,-0.039 -0.255,-0.116c-0.122,-0.141 -0.107,-0.355 0.034,-0.477l2.756,-2.39c0.141,-0.122 0.353,-0.108 0.477,0.034c0.122,0.141 0.107,0.355 -0.034,0.477l-2.756,2.389l-0.222,0.083Z" style="fill:#1a1a1a;fill-rule:nonzero;"/>
    <path d="M51.628,53.871c0,0 -4.186,9.886 -7.964,11.189c0,-0 1.844,4.705 0.633,6.4l4.078,1.962l1.168,-4.287c0,-0 4.915,-0.431 4.588,-5.489c0,-0 1.339,-0.639 1.357,-1.293c0.018,-0.654 -1.971,-2.101 -1.971,-2.101c0,-0 -1.351,-5.785 -1.741,-6.381l-0.148,0Z" style="fill:#fff;fill-rule:nonzero;"/>
    <path d="M36.742,74.639c-1.889,-0 -3.88,-0.861 -5.69,-3.361c-3.553,-4.907 1.245,-9.825 4.134,-10.52c0,-0 -0.909,-7.045 1.012,-8.569c1.92,-1.523 4.057,-2.213 9.848,-2.839c0.249,-0.027 0.482,-0.04 0.701,-0.04c4.132,-0 3.095,4.561 3.095,4.561c0,0 -3.489,9.29 -8.184,11.289c0,0 2.797,5.935 0,7.776c-1.374,0.903 -3.097,1.703 -4.916,1.703Z" style="fill:#c4c4c4;fill-rule:nonzero;"/>
    <path d="M52.088,64.381c-0.093,-0.035 -0.177,0.073 -0.121,0.155c0.367,0.528 1.069,1.448 1.625,1.621l0.057,-0l0.269,-1.384c0,-0 -1.189,-0.15 -1.83,-0.392Z" style="fill-rule:nonzero;"/>
    <path d="M42.322,73.692c0,0 4.892,0.707 8.513,5.258c3.623,4.55 2.711,6.555 8.12,11.627c5.41,5.072 11.515,6.585 11.515,6.585l4.882,9.221c0,-0 -8.172,0.827 -11.852,0.1l4.84,3.076l-0.77,9.295c0,-0 -9.439,-2.047 -15.325,-6.226l0.441,9.056l-23.426,-3.038c0,-0 2.504,-20.473 2.545,-24.23c0.04,-3.757 -0.475,-10.066 0.729,-13.458c1.204,-3.391 2.521,-5.919 3.183,-6.551c0,-0 3.204,0.65 6.605,-0.715Z" style="fill:#1a1a1a;fill-rule:nonzero;"/>
    <path d="M68.26,110.536l-0.406,5.803l3.835,0.969l2.807,-3.655l-6.236,-3.117Z" style="fill:#fff;fill-rule:nonzero;"/>
    <path d="M74.496,104.58l6.561,0.07c0,-0 3.085,2.18 4.604,2.194c1.518,0.013 6.63,-3.163 6.568,-3.403c-0.064,-0.241 0.436,-1.116 -0.921,-1.061c-1.356,0.053 -2.82,0.134 -2.82,0.134l-4.042,-1.804l2.266,-2.95c0,-0 -3.033,-0.69 -7.967,2.509l-7.483,-1.612l3.234,5.923Z" style="fill:#fff;fill-rule:nonzero;"/>
    <path d="M24.833,161.844l-3.511,31.932c0,-0 9.822,2.935 14.193,2.209l-8.156,-3.056l8.156,-30.2l-10.682,-0.885Z" style="fill:#fff;fill-rule:nonzero;"/>
    <path d="M50.624,162.729l10.084,-0.885l6.265,31.14l8.487,3.117c0,-0 -4.83,0.748 -14.507,-2.325l-10.329,-31.047Z" style="fill:#fff;fill-rule:nonzero;"/>
    <path d="M21.322,193.776c0,-0 10.667,3.093 14.506,2.325c0,-0 4.503,1.255 4.389,1.907c-0.114,0.651 -1.741,0.46 -1.741,0.46l-17.858,-0.17l0.704,-4.522Z" style="fill:#3a3a3a;fill-rule:nonzero;"/>
    <path d="M60.953,193.776c0,-0 11.768,3.093 14.802,2.433c0,-0 4.398,1.4 4.078,1.925c-0.319,0.525 -2.127,0.334 -2.127,0.334l-15.147,-0l-1.606,-4.692Z" style="fill:#3a3a3a;fill-rule:nonzero;"/>
    <path d="M29.26,118.646c0,-0 -2.543,13.876 -2.646,17.115c-0.106,3.239 0.319,11.489 -0.996,14.379c-1.315,2.889 -2.687,11.46 -2.687,11.46c0,-0 12.066,1.451 19.45,1.342c7.384,-0.108 17.837,-0.785 19.91,-1.299l-9.605,-39.959l-23.426,-3.038Z" style="fill:#8964ce;fill-rule:nonzero;"/>
    <path d="M135.112,35.362l13.222,-0c0,-0 0.302,-3.382 -0.557,-5.877c0,0 0.094,-4.732 4.879,-5.078c4.783,-0.345 4.878,4.879 4.878,4.879c0,-0 -1.071,4.795 -0.557,6.076l13.351,-0l0,-13.249c0,-0 3.928,-0.457 6.077,0.556c0,-0 5.286,-0.253 4.874,-5.061c-0.411,-4.808 -4.715,-4.692 -4.715,-4.692c0,0 -4.013,1.116 -6.236,0.554l0,-13.324l-13.352,-0.146c0,-0 -0.359,3.95 0.558,6.224c0,-0 -0.241,5.133 -5.049,4.878c-4.809,-0.255 -4.708,-4.878 -4.708,-4.878c0,-0 1.103,-4.232 0.554,-6.078l-13.219,-0l0,35.216Z" style="fill:#ffc2cc;fill-rule:nonzero;"/>
    <path d="M140.423,50.728c0,-0 -0.32,6.683 -0.503,7.605c-0.183,0.92 -1.034,4.609 0.243,6.597c1.278,1.989 3.915,1.385 3.915,1.385l0.033,1.661c0,-0 -0.152,3.105 4.542,3.114c4.693,0.009 6.512,-4.508 6.512,-4.508l-0.029,-6.732c0,-0 2.975,-0.351 3.068,-3.087c0.095,-2.737 -3.545,-3.864 -4.998,-2.107c0,-0 -0.129,-4.155 -1.531,-4.96c0,-0 -9.424,-2.446 -11.252,1.032Z" style="fill:#fff;fill-rule:nonzero;"/>
    <path d="M126.653,35.362l7.829,8.012c0,-0 -6.435,7.961 -5.88,13.92c0.555,5.959 4.942,12.851 11.805,12.686l3.704,-2.746l5.165,38.539l5.898,-39.028l3.345,3.302c0,-0 7.629,0.159 11.261,-5.893c3.632,-6.053 2.906,-10.586 0.878,-14.119c-2.029,-3.535 -4.246,-6.661 -4.246,-6.661l7.83,-8.012c0,-0 7.948,9.616 9.363,17.75c1.414,8.135 0.12,21.702 -12.195,29.128l1.691,35.474c0,-0 -4.427,3.499 -23.389,3.202c-18.963,-0.296 -21.857,-2.757 -21.857,-2.757l1.627,-35.761c0,-0 -9.073,-5.593 -11.732,-16.37c-3.399,-13.78 3.054,-23.004 8.903,-30.666Z" style="fill:#1a1a1a;fill-rule:nonzero;"/>
    <path d="M153.192,54.371c-0.059,-0.951 -0.338,-3.998 -1.517,-4.675c0,-0 -0.038,-0.01 -0.11,-0.027c-0.001,-0.001 -0.001,-0.002 -0.001,-0.002c-2.515,-0.657 -4.428,-0.862 -5.837,-0.862c-0.749,-0 -1.356,0.058 -1.836,0.137c-0.524,0.061 -1.022,0.159 -1.475,0.304c0.287,-2.986 1.582,-4.743 7.061,-5.237c0.126,-0.011 0.25,-0.017 0.374,-0.017c2.923,0 5.071,3.064 5.071,3.064c4.115,2.136 1.985,7.102 1.985,7.102c-0.592,-0.262 -1.149,-0.357 -1.647,-0.357c-0.98,-0 -1.731,0.369 -2.068,0.57Z" style="fill:#c4c4c4;fill-rule:nonzero;"/>
    <path d="M152.997,54.498c0.372,-2.579 -1.372,-4.756 -1.432,-4.829c0.072,0.017 0.11,0.027 0.11,0.027c1.179,0.677 1.458,3.724 1.517,4.675c-0.126,0.076 -0.195,0.127 -0.195,0.127Zm-10.594,-5.109c0.004,-0.048 0.008,-0.096 0.013,-0.143c0.453,-0.145 0.951,-0.243 1.475,-0.304c-1.043,0.173 -1.488,0.447 -1.488,0.447Z" style="fill:#ccc;fill-rule:nonzero;"/>
    <path d="M149.786,59.751c0,-0 0.51,-1.996 -0.839,-1.873c-1.35,0.124 -0.859,2.131 -1.728,2.375c-0.87,0.244 -2.756,-0 -2.803,1.411c-0.046,1.409 2.843,1.356 3.88,0.962c0,-0 -0.822,-2.428 1.49,-2.875Z" style="fill:#3a3a3a;fill-rule:nonzero;"/>
    <path d="M173.593,189.277c-0.012,0.179 0.068,9.498 0.068,9.498l7.981,-14.537l-0.322,-1.414l1.078,0.014c0,-0 1.296,-2.068 1.16,-2.153c-0.135,-0.086 -3.361,-2.57 -3.361,-2.57l-6.604,11.162Z" style="fill:#3a3a3a;fill-rule:nonzero;"/>
    <path d="M152.455,194.486l0.127,3.959l2.586,0.018l0.42,-0.842l1.171,0.897l16.882,0.186l-7.951,-4.31l-13.235,0.092Z" style="fill:#3a3a3a;fill-rule:nonzero;"/>
    <path d="M222.658,169.083c0,0.986 -7.351,1.786 -16.417,1.786c-9.068,-0 -16.418,-0.8 -16.418,-1.786c0,-0.703 3.731,-1.312 9.157,-1.603c0.432,-0.023 0.896,0.127 1.369,0.277c0.461,0.146 0.931,0.292 1.391,0.277c1.028,-0.032 2.018,-0.722 3.12,-0.731c0.455,-0.004 0.916,-0.006 1.381,-0.006c9.066,-0 16.417,0.8 16.417,1.786Z" style="fill:#3a3a3a;fill-rule:nonzero;"/>
    <path d="M201.711,168.035c-3.082,-1.844 -5.118,-5.827 -5.681,-9.233c-0.409,-2.463 -0.193,-5.052 0.781,-7.352c0.381,-0.899 0.879,-1.766 1.037,-2.729c0.329,-1.988 -1.091,-4.032 -1.683,-5.868c-1.578,-4.894 3.678,-5.745 3.678,-5.745c0,-0 0.692,-0.2 1.6,-0.2c1.56,-0 3.76,0.593 4.184,3.817c0.251,1.911 -0.155,4.367 0.992,6.021c0.129,0.185 0.273,0.356 0.424,0.521c0.183,-0.736 0.399,-1.16 0.643,-1.835c1.263,-3.484 3.424,-6.674 6.354,-8.942c1.147,-0.887 2.421,-1.647 3.327,-2.778c1.869,-2.331 1.518,-6.008 2.085,-8.811c0.879,-4.33 3.735,-5.241 5.984,-5.241c1.635,-0 2.949,0.482 2.949,0.482c0,-0 7.693,1.797 4.856,8.88c-1.064,2.656 -3.375,5.537 -3.093,8.511c0.138,1.443 0.785,2.777 1.256,4.148c1.206,3.504 1.261,7.357 0.405,10.962c-1.298,5.463 -5.144,11.632 -10.552,13.603c-1.131,0.412 -2.331,0.641 -3.591,0.641c-0.972,-0 -1.981,-0.136 -3.02,-0.43c-0.92,-0.26 -2.081,-0.837 -2.831,-1.279c-0.271,0.491 -0.58,0.955 -0.941,1.376c-0.243,0.283 -0.508,0.548 -0.794,0.792c-1.232,-0.032 -2.517,-0.049 -3.839,-0.049c-0.465,-0 -0.926,0.002 -1.381,0.006c-1.102,0.009 -2.092,0.699 -3.12,0.731c-0.01,0.001 -0.02,0.001 -0.029,0.001Z" style="fill:#dcdcdc;fill-rule:nonzero;"/>
    <path d="M205.34,169.069c-1.327,0 -2.543,-0.384 -3.629,-1.034c0.009,-0 0.019,-0 0.029,-0.001c1.028,-0.032 2.018,-0.722 3.12,-0.731c0.455,-0.004 0.916,-0.006 1.381,-0.006c1.322,-0 2.607,0.017 3.839,0.049c-0.819,0.697 -1.818,1.223 -3.021,1.513c-0.592,0.143 -1.165,0.21 -1.719,0.21Z" style="fill:#343434;fill-rule:nonzero;"/>
    <path d="M190.781,178.903c0,-0 1.31,1.679 14.954,1.679c13.644,-0 15.901,-1.331 15.901,-1.331c0,-0 -0.831,9.206 -6.785,13.527c0,-0 -7.923,1.902 -17.138,0.058c0,-0 -5.025,-2.967 -6.932,-13.933Z" style="fill:#fff;fill-rule:nonzero;"/>
    <path d="M132.646,32.595c0,0 3.732,-5.218 1.32,-5.699c-2.091,-0.416 -5.576,9.856 -5.576,9.856l4.723,5.221c0,-0 4.851,-3.487 5.401,-5.367l-5.959,0.146l0.091,-4.157Z" style="fill:#fff;fill-rule:nonzero;"/>
    <path d="M167.96,32.519c0,-0 -3.569,-4.952 -1.418,-5.633c2.033,-0.642 5.912,10.306 5.912,10.306l-4.968,5.025c0,-0 -4.852,-3.487 -5.402,-5.366l5.779,-0.099l0.097,-4.233Z" style="fill:#fff;fill-rule:nonzero;"/>
    <path d="M120.593,115.238l-10.587,-8.135c-2.237,1.755 -3.452,4.852 -3.593,5.224c-1.569,2.013 -4.483,2.387 -6.508,0.829c-0.987,-0.759 -1.619,-1.854 -1.78,-3.088c-0.16,-1.222 0.161,-2.433 0.906,-3.415c0.322,-0.232 3.001,-2.204 4.184,-4.541c-0.062,-0.277 -10.545,-8.333 -10.545,-8.333c-0.098,-0.075 -0.237,-0.056 -0.311,0.041l-21.461,27.922c-0.074,0.098 -0.056,0.237 0.042,0.313l10.484,8.057l0.104,0.04l0.116,-0.013c2.017,-1.784 3.23,-4.879 3.372,-5.252c1.57,-2.013 4.482,-2.387 6.51,-0.828c0.986,0.757 1.618,1.854 1.779,3.086c0.159,1.223 -0.162,2.435 -0.905,3.417c-0.323,0.232 -3.001,2.203 -4.186,4.541c0.063,0.276 10.648,8.412 10.648,8.412l0.135,0.045l0.177,-0.087l8.073,-10.504l0.033,-0.067l0.01,-0.086l-0.021,-0.082c-1.777,-2.005 -4.873,-3.219 -5.245,-3.361c-0.971,-0.756 -1.593,-1.845 -1.754,-3.066c-0.161,-1.234 0.168,-2.456 0.926,-3.443c0.757,-0.985 1.854,-1.617 3.087,-1.779c1.221,-0.161 2.433,0.162 3.415,0.905c0.232,0.323 2.204,3.001 4.541,4.186l0.083,0.023c0.149,-0.046 0.164,-0.057 0.176,-0.071l8.136,-10.577l0.043,-0.164l-0.084,-0.149Z" style="fill:#ffc2cc;fill-rule:nonzero;"/>
    <path d="M173.708,191.028l-0.101,-0.025c-0.105,-0.057 -0.144,-0.187 -0.088,-0.291l2.177,-4.038c0.056,-0.105 0.187,-0.142 0.291,-0.088c0.104,0.057 0.143,0.186 0.088,0.291l-2.177,4.038l-0.19,0.113Z" style="fill:#fff;fill-rule:nonzero;"/>
    <path d="M173.745,193.421l-0.101,-0.026c-0.105,-0.056 -0.144,-0.187 -0.087,-0.291l2.178,-4.037c0.055,-0.104 0.186,-0.143 0.29,-0.087c0.104,0.056 0.143,0.187 0.087,0.29l-2.178,4.038l-0.189,0.113Z" style="fill:#fff;fill-rule:nonzero;"/>
    <path d="M166.582,195.249l-4.587,-0c-0.118,-0 -0.214,-0.097 -0.214,-0.215c0,-0.118 0.096,-0.215 0.214,-0.215l4.587,-0c0.119,-0 0.215,0.097 0.215,0.215c0,0.118 -0.096,0.215 -0.215,0.215Z" style="fill:#fff;fill-rule:nonzero;"/>
    <path d="M168.67,196.418l-4.586,-0c-0.118,-0 -0.214,-0.097 -0.214,-0.215c0,-0.118 0.096,-0.215 0.214,-0.215l4.586,-0c0.118,-0 0.215,0.097 0.215,0.215c0,0.118 -0.097,0.215 -0.215,0.215Z" style="fill:#fff;fill-rule:nonzero;"/>
    <path d="M130.866,119.365c0,-0 -1.276,18.97 -1.385,26.057c-0.11,7.087 -0.094,15.106 0.648,17.604c0.742,2.499 3.63,4.741 20.011,14.431l0.231,16.937l18.451,-0l0.41,-4.969l3.171,1.988l9.459,-16.14l-11.909,-7.936l-0.184,-48.241c0,0 -10.546,2.443 -19.335,1.839c-8.788,-0.606 -16.247,-0.219 -19.568,-1.57Z" style="fill:#fff;fill-rule:nonzero;"/>
    <path d="M59.416,26.755l-0.239,-0.099l-3.714,-3.715c-0.132,-0.132 -0.132,-0.346 0,-0.478c0.133,-0.132 0.346,-0.132 0.479,-0l3.714,3.714c0.131,0.133 0.131,0.346 0,0.479l-0.24,0.099Z" style="fill:#1a1a1a;fill-rule:nonzero;"/>
    <path d="M55.703,26.755l-0.24,-0.099c-0.132,-0.133 -0.132,-0.346 0,-0.479l3.714,-3.714c0.133,-0.132 0.346,-0.132 0.479,-0c0.131,0.132 0.131,0.346 0,0.478l-3.714,3.715l-0.239,0.099Z" style="fill:#1a1a1a;fill-rule:nonzero;"/>
    <path d="M63.824,18.62c-0.399,-0 -0.724,0.324 -0.724,0.723c0,0.399 0.325,0.723 0.724,0.723c0.398,-0 0.722,-0.324 0.722,-0.723c0,-0.399 -0.324,-0.723 -0.722,-0.723Zm0,2.123c-0.772,-0 -1.4,-0.628 -1.4,-1.4c0,-0.772 0.628,-1.4 1.4,-1.4c0.771,-0 1.398,0.628 1.398,1.4c0,0.772 -0.627,1.4 -1.398,1.4Z" style="fill:#1a1a1a;fill-rule:nonzero;"/>
    <path d="M225.744,84.596c-0.399,-0 -0.724,0.324 -0.724,0.723c0,0.398 0.325,0.722 0.724,0.722c0.398,0 0.722,-0.324 0.722,-0.722c0,-0.399 -0.324,-0.723 -0.722,-0.723Zm0,2.122c-0.772,0 -1.4,-0.628 -1.4,-1.399c0,-0.772 0.628,-1.4 1.4,-1.4c0.771,-0 1.398,0.628 1.398,1.4c0,0.771 -0.627,1.399 -1.398,1.399Z" style="fill:#1a1a1a;fill-rule:nonzero;"/>
    <path d="M208.917,114.252l-35.997,-0c-0.186,-0 -0.338,-0.151 -0.338,-0.338c0,-0.186 0.152,-0.338 0.338,-0.338l35.997,-0c0.187,-0 0.338,0.152 0.338,0.338c0,0.187 -0.151,0.338 -0.338,0.338Z" style="fill:#1a1a1a;fill-rule:nonzero;"/>
    <path d="M127.855,114.252l-9.116,-0c-0.187,-0 -0.338,-0.151 -0.338,-0.338c0,-0.186 0.151,-0.338 0.338,-0.338l9.116,-0c0.186,-0 0.338,0.152 0.338,0.338c0,0.187 -0.152,0.338 -0.338,0.338Z" style="fill:#1a1a1a;fill-rule:nonzero;"/>
    <path d="M54.285,114.252l-1.79,-0c-0.186,-0 -0.337,-0.151 -0.337,-0.338c0,-0.186 0.151,-0.338 0.337,-0.338l1.79,-0c0.186,-0 0.337,0.152 0.337,0.338c0,0.187 -0.151,0.338 -0.337,0.338Z" style="fill:#1a1a1a;fill-rule:nonzero;"/>
    <path d="M29.872,114.252l-29.308,-0c-0.187,-0 -0.338,-0.151 -0.338,-0.338c0,-0.186 0.151,-0.338 0.338,-0.338l29.308,-0c0.187,-0 0.338,0.152 0.338,0.338c0,0.187 -0.151,0.338 -0.338,0.338Z" style="fill:#1a1a1a;fill-rule:nonzero;"/>
    <path d="M141.693,55.568c-0.215,-0.011 -0.382,-0.197 -0.371,-0.413l0.057,-1.101c0.011,-0.215 0.197,-0.383 0.412,-0.371c0.215,0.011 0.384,0.196 0.371,0.411l-0.056,1.102c-0.012,0.216 -0.197,0.383 -0.413,0.372Z" style="fill-rule:nonzero;"/>
    <path d="M147.898,55.592c-0.215,-0.011 -0.382,-0.197 -0.37,-0.412l0.056,-1.102c0.012,-0.216 0.198,-0.383 0.412,-0.372c0.216,0.012 0.383,0.197 0.372,0.413l-0.058,1.102c-0.011,0.214 -0.196,0.382 -0.412,0.371Z" style="fill-rule:nonzero;"/>
    <path d="M144.083,67.367c-0.186,0 -0.338,-0.152 -0.338,-0.339l0,-0.467c0,-0.187 0.152,-0.338 0.338,-0.338c0.187,-0 0.338,0.151 0.338,0.338l0,0.467c0,0.187 -0.151,0.339 -0.338,0.339Z" style="fill:#1a1a1a;fill-rule:nonzero;"/>
    <path d="M155.342,67.083c-0.182,-0 -0.333,-0.145 -0.338,-0.329l-0.206,-7.069c-0.006,-0.186 0.142,-0.342 0.328,-0.347c0.203,-0.043 0.343,0.141 0.348,0.328l0.206,7.069c0.006,0.186 -0.142,0.342 -0.328,0.347l-0.01,0.001Z" style="fill:#1a1a1a;fill-rule:nonzero;"/>
    <path d="M144.741,66.924c-1.122,-0 -2.339,-0.169 -3.413,-0.695c-2.841,-1.391 -2.233,-5.01 -1.87,-7.172c0.063,-0.371 0.119,-0.704 0.151,-0.982c0.213,-1.866 0.473,-7.338 0.476,-7.393c0.01,-0.186 0.177,-0.316 0.354,-0.322c0.186,0.009 0.331,0.168 0.322,0.354c-0.011,0.226 -0.265,5.55 -0.48,7.438c-0.034,0.288 -0.091,0.633 -0.156,1.016c-0.353,2.105 -0.887,5.285 1.5,6.454c2.701,1.322 6.592,0.124 6.631,0.112c0.181,-0.056 0.368,0.044 0.424,0.221c0.057,0.178 -0.043,0.368 -0.221,0.424c-0.108,0.034 -1.768,0.545 -3.718,0.545Z" style="fill:#1a1a1a;fill-rule:nonzero;"/>
    <path d="M145.726,60.755c-0.386,-0 -0.723,0.142 -0.879,0.37c-0.109,0.16 -0.122,0.353 -0.036,0.575c0.142,0.368 0.917,0.902 1.944,0.902c0.65,-0 1.275,-0.216 1.809,-0.625c0.71,-0.542 1.128,-1.458 1.119,-2.449c-0.007,-0.66 -0.206,-1.1 -0.401,-1.244c-0.506,-0.369 -1.071,0.072 -1.189,0.802c-0.154,0.957 -0.28,1.18 -0.631,1.449c-0.212,0.162 -0.398,0.275 -0.872,0.275c-0.171,-0 -0.393,-0.014 -0.693,-0.045l-0.171,-0.01Zm1.029,2.523c-1.155,-0 -2.286,-0.586 -2.575,-1.335c-0.166,-0.429 -0.127,-0.856 0.109,-1.2c0.323,-0.47 0.968,-0.728 1.68,-0.651c0.269,0.029 0.468,0.042 0.621,0.042c0.282,0 0.331,-0.037 0.461,-0.136c0.164,-0.126 0.239,-0.184 0.374,-1.02c0.142,-0.878 0.758,-1.516 1.464,-1.516c0.276,-0 0.543,0.093 0.793,0.277c0.416,0.306 0.67,0.972 0.677,1.782c0.011,1.204 -0.506,2.323 -1.385,2.994c-0.652,0.499 -1.42,0.763 -2.219,0.763Z" style="fill:#1a1a1a;fill-rule:nonzero;"/>
    <path d="M148.451,62.534c-0.1,-0 -0.193,-0.063 -0.227,-0.162c-0.247,-0.722 -0.222,-1.34 0.073,-1.837c0.461,-0.775 1.408,-0.945 1.448,-0.952c0.138,-0.018 0.254,0.066 0.276,0.195c0.023,0.131 -0.065,0.254 -0.194,0.277c-0.008,0.002 -0.774,0.143 -1.12,0.728c-0.218,0.37 -0.228,0.853 -0.03,1.433c0.043,0.126 -0.023,0.262 -0.149,0.304l-0.077,0.014Z" style="fill:#1a1a1a;fill-rule:nonzero;"/>
    <path d="M149.358,52.91l-0.234,-0.093c-0.005,-0.006 -0.599,-0.565 -1.258,-0.73c-0.182,-0.046 -0.291,-0.229 -0.246,-0.41c0.044,-0.182 0.231,-0.29 0.41,-0.246c0.836,0.209 1.533,0.869 1.561,0.897c0.135,0.129 0.14,0.342 0.011,0.478l-0.244,0.104Z" style="fill:#1a1a1a;fill-rule:nonzero;"/>
    <path d="M141.737,52.815l-0.225,-0.085c-0.14,-0.124 -0.152,-0.338 -0.028,-0.478c0.501,-0.563 1.429,-0.717 1.533,-0.733c0.187,-0.026 0.356,0.1 0.385,0.284c0.028,0.184 -0.099,0.357 -0.283,0.385c-0.217,0.034 -0.843,0.191 -1.129,0.514c-0.068,0.075 -0.161,0.113 -0.253,0.113Z" style="fill:#1a1a1a;fill-rule:nonzero;"/>
    <path d="M143.068,59.764l-0.171,-0.047c-0.124,-0.073 -0.189,-0.216 -0.161,-0.357l1.053,-5.386c0.036,-0.183 0.215,-0.304 0.397,-0.267c0.184,0.036 0.304,0.214 0.267,0.397l-0.867,4.435l0.524,-0.448c0.141,-0.12 0.355,-0.105 0.476,0.038c0.122,0.142 0.105,0.356 -0.037,0.477l-1.262,1.077l-0.219,0.081Z" style="fill:#1a1a1a;fill-rule:nonzero;"/>
    <path d="M155.261,60.014c-0.637,-0 -1.254,-0.182 -1.784,-0.527c-0.156,-0.102 -0.201,-0.311 -0.099,-0.468c0.101,-0.157 0.309,-0.202 0.468,-0.099c0.42,0.273 0.909,0.417 1.415,0.417c1.437,-0 2.606,-1.168 2.606,-2.605c0,-1.436 -1.169,-2.605 -2.606,-2.605c-1.012,-0 -1.939,0.593 -2.365,1.511c-0.078,0.17 -0.276,0.244 -0.449,0.164c-0.169,-0.078 -0.244,-0.279 -0.164,-0.449c0.535,-1.156 1.704,-1.903 2.978,-1.903c1.81,-0 3.281,1.473 3.281,3.282c0,1.81 -1.471,3.282 -3.281,3.282Z" style="fill:#1a1a1a;fill-rule:nonzero;"/>
    <path d="M156.796,54.377l-0.136,-0.029c-0.171,-0.075 -0.249,-0.275 -0.173,-0.446c2.132,-4.816 -1.542,-6.575 -1.7,-6.648l-0.154,-0.143c-1.712,-3.096 -6.638,-3.321 -10.763,-2.17c-1.759,0.492 -2.926,1.356 -3.469,2.569c-0.925,2.064 0.24,4.482 0.252,4.507c0.082,0.167 0.012,0.37 -0.155,0.452c-0.17,0.084 -0.371,0.013 -0.453,-0.155c-0.053,-0.11 -1.314,-2.73 -0.261,-5.08c0.628,-1.405 1.942,-2.396 3.904,-2.944c4.341,-1.212 9.554,-0.93 11.486,2.404c0.655,0.358 4.12,2.537 1.932,7.482c-0.057,0.126 -0.18,0.201 -0.31,0.201Z" style="fill:#1a1a1a;fill-rule:nonzero;"/>
    <path d="M152.997,54.988c-0.226,-0.026 -0.358,-0.194 -0.336,-0.38c0.005,-0.034 0.393,-3.406 -1.263,-4.735c-0.82,-0.202 -8.904,-2.096 -10.682,0.994c-0.093,0.162 -0.3,0.216 -0.462,0.125c-0.161,-0.094 -0.218,-0.3 -0.124,-0.462c2.116,-3.684 11.12,-1.395 11.504,-1.295l0.119,0.058c2.029,1.534 1.599,5.241 1.58,5.397c-0.021,0.172 -0.167,0.298 -0.336,0.298Z" style="fill:#1a1a1a;fill-rule:nonzero;"/>
    <path d="M153.597,48.333c-0.1,-0 -0.199,-0.044 -0.266,-0.128c-0.115,-0.147 -0.09,-0.36 0.057,-0.476l1.325,-1.044c0.146,-0.114 0.36,-0.089 0.475,0.057c0.115,0.147 0.091,0.359 -0.057,0.475l-1.325,1.044l-0.209,0.072Z" style="fill:#1a1a1a;fill-rule:nonzero;"/>
    <path d="M140.809,85.523l7.885,18.45l-4.863,-36.278l-3.902,3.387l-2.317,8.073l4.248,0.988l0.214,0.155l0.037,0.261l-1.302,4.964Zm8.55,21.205c-0.133,-0 -0.257,-0.079 -0.311,-0.206l-8.906,-20.84l-0.017,-0.219l1.244,-4.74l-4.256,-0.99c-0.091,-0.021 -0.168,-0.078 -0.216,-0.158l-0.033,-0.264l2.442,-8.512l0.104,-0.162l4.452,-3.864c0.092,-0.081 0.225,-0.106 0.341,-0.061c0.117,0.044 0.199,0.148 0.215,0.271l5.262,39.259l0.034,0.148c0,0.188 -0.183,0.358 -0.345,0.338l-0.01,-0Z" style="fill:#1a1a1a;fill-rule:nonzero;"/>
    <path d="M155.574,67.476l-5.499,36.439l8.062,-18.394l-1.3,-4.962l0.038,-0.261l0.213,-0.155l4.249,-0.988l-2.323,-8.089l-3.44,-3.59Zm-6.215,39.252l-0.094,-0.013c-0.163,-0.048 -0.266,-0.208 -0.24,-0.376l5.983,-39.645c0.019,-0.127 0.109,-0.233 0.232,-0.272c0.124,-0.038 0.258,-0.005 0.346,0.089l3.974,4.148l0.081,0.14l2.444,8.512l-0.033,0.264c-0.048,0.08 -0.125,0.137 -0.216,0.158l-4.257,0.99l1.243,4.74l-0.018,0.222l-9.136,20.84c-0.054,0.126 -0.177,0.203 -0.309,0.203Z" style="fill:#1a1a1a;fill-rule:nonzero;"/>
    <path d="M148.262,71.439c-1.408,-0 -2.518,-0.398 -3.304,-1.184c-1.232,-1.234 -1.188,-2.96 -1.185,-3.032c0.006,-0.183 0.156,-0.327 0.338,-0.327c0.197,0.006 0.343,0.162 0.338,0.349c0,0.015 -0.033,1.515 0.993,2.537c0.693,0.691 1.719,1.02 3.048,0.977c4.275,-0.137 6.363,-4.128 6.383,-4.168c0.084,-0.167 0.286,-0.233 0.455,-0.148c0.167,0.085 0.232,0.289 0.147,0.455c-0.091,0.18 -2.294,4.387 -6.964,4.537l-0.249,0.004Z" style="fill:#1a1a1a;fill-rule:nonzero;"/>
    <path d="M50.882,60.404c0.181,-0.014 0.317,-0.173 0.302,-0.353l-0.069,-0.923c-0.015,-0.18 -0.173,-0.316 -0.353,-0.302c-0.181,0.014 -0.317,0.172 -0.304,0.353l0.071,0.922c0.013,0.181 0.173,0.316 0.353,0.303Z" style="fill-rule:nonzero;"/>
    <path d="M48.375,73.76l-0.089,-0.012c-0.18,-0.049 -0.286,-0.235 -0.237,-0.415l1.168,-4.287c0.049,-0.18 0.236,-0.289 0.415,-0.237c0.181,0.048 0.286,0.234 0.238,0.415l-1.168,4.287c-0.041,0.15 -0.177,0.249 -0.327,0.249Z" style="fill:#1a1a1a;fill-rule:nonzero;"/>
    <path d="M150.189,12.83c-2.876,0 -5.216,-2.34 -5.216,-5.217l0.015,-0.1c0.01,-0.033 1.026,-3.369 0.547,-5.914c-0.036,-0.184 0.085,-0.361 0.269,-0.395c0.182,-0.036 0.36,0.086 0.395,0.27c0.484,2.566 -0.413,5.733 -0.549,6.189c0.026,2.481 2.052,4.49 4.539,4.49c2.487,-0 4.514,-2.009 4.54,-4.49c-0.136,-0.456 -1.035,-3.623 -0.551,-6.189c0.034,-0.184 0.207,-0.306 0.395,-0.27c0.183,0.034 0.304,0.211 0.269,0.395c-0.479,2.545 0.538,5.881 0.549,5.914l0.015,0.1c0,2.877 -2.34,5.217 -5.217,5.217Z" style="fill:#1a1a1a;fill-rule:nonzero;"/>
    <path d="M154.512,37.091c-0.16,0 -0.302,-0.114 -0.332,-0.276c-0.484,-2.566 0.413,-5.734 0.549,-6.189c-0.026,-2.481 -2.053,-4.49 -4.54,-4.49c-2.486,0 -4.513,2.009 -4.539,4.49c0.136,0.455 1.035,3.623 0.551,6.189c-0.035,0.183 -0.212,0.305 -0.395,0.27c-0.184,-0.035 -0.305,-0.212 -0.27,-0.395c0.48,-2.546 -0.538,-5.881 -0.548,-5.915l-0.015,-0.1c0,-2.876 2.34,-5.216 5.216,-5.216c2.877,-0 5.217,2.34 5.217,5.216l-0.015,0.1c-0.011,0.034 -1.026,3.369 -0.547,5.915c0.035,0.183 -0.086,0.36 -0.269,0.395l-0.063,0.006Z" style="fill:#1a1a1a;fill-rule:nonzero;"/>
    <path d="M167.863,27.905c-0.187,-0 -0.338,-0.151 -0.338,-0.338l0,-4.064c0,-0.162 0.115,-0.302 0.275,-0.332c2.567,-0.482 5.733,0.414 6.188,0.55c2.481,-0.027 4.492,-2.053 4.492,-4.54c0,-2.487 -2.011,-4.514 -4.492,-4.54c-0.455,0.136 -3.617,1.036 -6.188,0.551c-0.16,-0.03 -0.275,-0.17 -0.275,-0.333l0,-12.985l-13.015,-0c-0.186,-0 -0.338,-0.151 -0.338,-0.338c0,-0.187 0.152,-0.338 0.338,-0.338l13.353,-0c0.186,-0 0.338,0.151 0.338,0.338l0,13.037c2.507,0.364 5.606,-0.583 5.637,-0.594l0.101,-0.015c2.877,0 5.217,2.34 5.217,5.217c0,2.876 -2.34,5.216 -5.217,5.216l-0.1,-0.015c-0.032,-0.009 -3.128,-0.955 -5.638,-0.592l0,3.777c0,0.187 -0.152,0.338 -0.338,0.338Z" style="fill:#1a1a1a;fill-rule:nonzero;"/>
    <path d="M167.863,37.091l-13.351,0c-0.186,0 -0.338,-0.152 -0.338,-0.339c0,-0.187 0.152,-0.338 0.338,-0.338l13.013,0l0,-3.895c0,-0.188 0.151,-0.339 0.338,-0.339c0.186,-0 0.338,0.151 0.338,0.339l0,4.233c0,0.187 -0.152,0.339 -0.338,0.339Z" style="fill:#1a1a1a;fill-rule:nonzero;"/>
    <path d="M145.869,37.091l-13.223,0c-0.187,0 -0.338,-0.152 -0.338,-0.339l0,-4.157c0,-0.187 0.151,-0.338 0.338,-0.338c0.186,0 0.338,0.151 0.338,0.338l0,3.819l12.885,0c0.186,0 0.337,0.151 0.337,0.338c0,0.187 -0.151,0.339 -0.337,0.339Z" style="fill:#1a1a1a;fill-rule:nonzero;"/>
    <path d="M132.646,27.897c-0.187,0 -0.338,-0.151 -0.338,-0.338l0,-10.42c0,-0.187 0.151,-0.339 0.338,-0.339c0.186,0 0.338,0.152 0.338,0.339l0,10.42c0,0.187 -0.152,0.338 -0.338,0.338Z" style="fill:#1a1a1a;fill-rule:nonzero;"/>
    <path d="M132.646,7.86c-0.187,0 -0.338,-0.152 -0.338,-0.339l0,-5.985c0,-0.187 0.151,-0.338 0.338,-0.338l13.221,-0c0.186,-0 0.337,0.151 0.337,0.338c0,0.187 -0.151,0.338 -0.337,0.338l-12.883,-0l0,5.647c0,0.187 -0.152,0.339 -0.338,0.339Z" style="fill:#1a1a1a;fill-rule:nonzero;"/>
    <path d="M101.88,112.018c-1.142,-0 -2.247,-0.373 -3.168,-1.081c-2.28,-1.753 -2.711,-5.035 -0.959,-7.315l0.074,-0.071c0.028,-0.02 2.867,-2.045 4.037,-4.356c0.084,-0.168 0.288,-0.235 0.454,-0.149c0.167,0.084 0.233,0.287 0.149,0.454c-1.179,2.33 -3.821,4.294 -4.207,4.573c-1.49,1.984 -1.107,4.812 0.864,6.326c0.962,0.74 2.155,1.059 3.356,0.903c1.185,-0.155 2.243,-0.757 2.98,-1.696c0.17,-0.444 1.387,-3.503 3.334,-5.244c0.14,-0.123 0.355,-0.111 0.478,0.027c0.125,0.139 0.112,0.353 -0.027,0.477c-1.934,1.729 -3.157,4.992 -3.168,5.025l-0.049,0.088c-0.85,1.105 -2.079,1.813 -3.46,1.994c-0.231,0.03 -0.46,0.045 -0.688,0.045Z" style="fill:#1a1a1a;fill-rule:nonzero;"/>
    <path d="M87.562,132.877l-0.152,-0.036c-0.167,-0.084 -0.234,-0.288 -0.15,-0.454c1.18,-2.33 3.822,-4.295 4.207,-4.574c0.718,-0.954 1.028,-2.129 0.872,-3.316c-0.158,-1.203 -0.774,-2.271 -1.735,-3.01c-0.962,-0.739 -2.151,-1.062 -3.357,-0.902c-1.185,0.154 -2.242,0.757 -2.979,1.695c-0.17,0.445 -1.388,3.503 -3.334,5.243c-0.139,0.125 -0.354,0.112 -0.478,-0.026c-0.125,-0.14 -0.112,-0.353 0.027,-0.477c1.933,-1.729 3.157,-4.992 3.169,-5.024l0.049,-0.089c0.849,-1.104 2.078,-1.812 3.459,-1.993c1.389,-0.181 2.751,0.188 3.856,1.036c1.104,0.849 1.812,2.077 1.993,3.459c0.182,1.382 -0.186,2.751 -1.035,3.856l-0.073,0.07c-0.029,0.019 -2.866,2.046 -4.037,4.356c-0.06,0.119 -0.179,0.186 -0.302,0.186Z" style="fill:#1a1a1a;fill-rule:nonzero;"/>
    <path d="M111.488,123.653l-0.206,-0.069c-0.149,-0.114 -0.176,-0.326 -0.063,-0.475l7.913,-10.295l-10.318,-7.931c-0.149,-0.114 -0.176,-0.326 -0.063,-0.475c0.115,-0.148 0.327,-0.175 0.475,-0.062l10.587,8.137c0.148,0.115 0.176,0.327 0.062,0.475l-8.119,10.563c-0.067,0.087 -0.167,0.132 -0.268,0.132Z" style="fill:#1a1a1a;fill-rule:nonzero;"/>
    <path d="M106.222,130.505c-0.093,-0 -0.186,-0.038 -0.252,-0.112c-1.725,-1.931 -4.991,-3.158 -5.023,-3.169l-0.089,-0.049c-1.106,-0.85 -1.814,-2.078 -1.994,-3.459c-0.181,-1.382 0.187,-2.751 1.036,-3.857c0.849,-1.105 2.078,-1.813 3.459,-1.994c1.387,-0.18 2.752,0.189 3.856,1.036l0.071,0.074c0.019,0.028 2.045,2.866 4.356,4.037c0.166,0.085 0.232,0.288 0.148,0.455c-0.085,0.166 -0.288,0.23 -0.455,0.148c-2.328,-1.179 -4.293,-3.822 -4.571,-4.207c-0.955,-0.718 -2.129,-1.03 -3.317,-0.872c-1.202,0.157 -2.272,0.774 -3.01,1.735c-0.739,0.962 -1.06,2.154 -0.902,3.357c0.155,1.185 0.756,2.242 1.696,2.979c0.444,0.17 3.504,1.388 5.243,3.334c0.125,0.14 0.112,0.354 -0.026,0.478l-0.226,0.086Z" style="fill:#1a1a1a;fill-rule:nonzero;"/>
    <path d="M98.147,141.012l-0.206,-0.07l-10.585,-8.134c-0.149,-0.115 -0.176,-0.327 -0.063,-0.475c0.116,-0.148 0.327,-0.176 0.475,-0.063l10.316,7.929l7.868,-10.236c0.115,-0.149 0.327,-0.176 0.474,-0.063c0.149,0.115 0.176,0.327 0.063,0.475l-8.074,10.505c-0.067,0.087 -0.167,0.132 -0.268,0.132Z" style="fill:#1a1a1a;fill-rule:nonzero;"/>
    <path d="M80.708,127.609l-0.206,-0.069l-10.484,-8.058l-0.129,-0.224l0.066,-0.25l10.88,-14.156c0.116,-0.149 0.326,-0.176 0.475,-0.063c0.148,0.114 0.176,0.326 0.062,0.475l-10.673,13.887l10.215,7.852c0.149,0.114 0.176,0.326 0.063,0.475c-0.067,0.086 -0.167,0.131 -0.269,0.131Z" style="fill:#1a1a1a;fill-rule:nonzero;"/>
    <path d="M102.165,99.686l-0.206,-0.07l-10.213,-7.851l-4.765,6.201c-0.115,0.148 -0.327,0.176 -0.475,0.062c-0.148,-0.113 -0.176,-0.326 -0.062,-0.474l4.971,-6.469l0.225,-0.129l0.25,0.067l10.481,8.057c0.149,0.113 0.176,0.326 0.063,0.474c-0.067,0.087 -0.167,0.132 -0.269,0.132Z" style="fill:#1a1a1a;fill-rule:nonzero;"/>
    <path d="M149.359,121.255c-19.481,-0 -21.682,-2.813 -21.868,-3.134l-0.046,-0.185l1.693,-35.502c-7.604,-4.262 -10.181,-11.135 -11.998,-17.252c-4.377,-14.725 9.125,-29.895 9.262,-30.046c0.062,-0.07 0.151,-0.11 0.244,-0.112c0.1,-0.005 0.183,0.035 0.249,0.102l7.829,8.012c0.116,0.119 0.129,0.305 0.028,0.439c-3.86,5.168 -7.434,10.749 -5.091,17.152c1.229,3.358 4.233,8.916 10.641,8.916c0.123,0 0.247,-0.002 0.374,-0.006c0.15,0.007 0.343,0.14 0.349,0.326c0.006,0.187 -0.14,0.344 -0.327,0.349c-0.135,0.005 -0.27,0.007 -0.403,0.007c-6.813,-0 -9.978,-5.834 -11.268,-9.36c-2.423,-6.618 1.27,-12.524 5.01,-17.557l-7.37,-7.542c-1.775,2.093 -12.828,15.839 -8.879,29.128c1.794,6.036 4.338,12.823 11.861,16.954c0.113,0.062 0.18,0.183 0.175,0.312l-1.698,35.578c0.419,0.387 3.69,2.745 21.233,2.745c17.443,-0 22.535,-2.326 23.406,-2.811l-1.693,-35.512c-0.006,-0.129 0.061,-0.25 0.174,-0.312c7.525,-4.132 10.068,-10.918 11.861,-16.954c3.951,-13.295 -7.105,-27.036 -8.88,-29.129l-7.37,7.543c3.74,5.031 7.434,10.936 5.013,17.557c-2.035,5.558 -7.82,9.609 -13.362,9.424c-0.187,-0.006 -0.333,-0.163 -0.327,-0.349c0.006,-0.183 0.156,-0.328 0.338,-0.328c5.329,0.174 10.777,-3.684 12.716,-8.979c2.343,-6.407 -1.232,-11.986 -5.093,-17.152c-0.101,-0.134 -0.088,-0.32 0.028,-0.439l7.829,-8.012c0.066,-0.067 0.135,-0.128 0.249,-0.102c0.093,0.002 0.182,0.042 0.245,0.112c0.136,0.151 13.639,15.321 9.262,30.046c-1.816,6.116 -4.391,12.989 -11.998,17.252l1.694,35.502c0.004,0.11 -0.045,0.217 -0.134,0.285c-0.163,0.124 -4.223,3.034 -23.958,3.034Z" style="fill:#1a1a1a;fill-rule:nonzero;"/>
    <path d="M48.708,69.536c-0.177,-0 -0.326,-0.139 -0.338,-0.318c-0.01,-0.186 0.131,-0.347 0.318,-0.358c1.981,-0.123 3.401,-0.732 4.221,-1.811c1.124,-1.481 0.734,-3.385 0.729,-3.405c-0.033,-0.159 0.051,-0.321 0.202,-0.383c0.642,-0.266 1.274,-0.666 1.326,-0.841c-0.051,-0.102 -0.515,-0.475 -0.822,-0.722c-0.688,-0.555 -1.111,-0.921 -1.171,-1.317c-0.526,-3.55 -1.751,-6.483 -1.763,-6.512c-0.073,-0.172 0.007,-0.371 0.179,-0.443c0.171,-0.072 0.37,0.008 0.444,0.18c0.051,0.122 1.269,3.037 1.81,6.675c0.039,0.175 0.615,0.64 0.926,0.89c0.491,0.396 0.916,0.738 1.036,1.065c0.236,0.639 -0.719,1.209 -1.46,1.543c0.081,0.646 0.156,2.285 -0.892,3.672c-0.944,1.247 -2.533,1.948 -4.724,2.084l-0.021,0.001Z" style="fill:#1a1a1a;fill-rule:nonzero;"/>
    <path d="M37.765,74.91c-1.048,0 -2.031,-0.131 -2.878,-0.391c-2.093,-0.644 -3.899,-2.271 -4.957,-4.464c-0.576,-1.198 -0.782,-3.285 0.056,-5.251c0.579,-1.358 1.893,-3.174 4.87,-4.231c-0.214,-1.135 -0.841,-5.197 0.526,-7.953c1.258,-2.539 10.953,-4.781 15.354,-2.933c1.54,0.647 3.147,2.076 2.056,5.211c-0.062,0.176 -0.256,0.268 -0.43,0.208c-0.176,-0.061 -0.27,-0.254 -0.208,-0.431c0.736,-2.118 0.172,-3.586 -1.681,-4.364c-4.22,-1.77 -13.478,0.579 -14.485,2.61c-1.463,2.95 -0.422,7.755 -0.411,7.803c0.038,0.17 -0.06,0.341 -0.225,0.395c-2.326,0.76 -3.967,2.126 -4.744,3.95c-0.751,1.762 -0.562,3.667 -0.069,4.692c0.976,2.024 2.633,3.523 4.547,4.111c1.544,0.475 3.687,0.476 5.731,0.001c1.444,-0.336 2.583,-1.101 3.122,-2.1c0.673,-1.244 0.361,-2.633 -0.047,-4.066l-0.06,-0.222c-0.374,-1.414 -0.539,-1.914 -0.611,-2.07l-0.089,-0.125c-0.072,-0.172 0.009,-0.37 0.181,-0.442c4.344,-1.818 8.01,-11.06 8.047,-11.153c0.067,-0.174 0.267,-0.258 0.437,-0.192c0.174,0.069 0.26,0.265 0.192,0.439c-0.15,0.382 -3.634,9.16 -8.079,11.376c0.12,0.329 0.292,0.916 0.577,1.994l0.055,0.208c0.449,1.574 0.786,3.107 -0.007,4.574c-0.632,1.17 -1.932,2.058 -3.566,2.438c-1.083,0.252 -2.175,0.378 -3.204,0.378Z" style="fill:#1a1a1a;fill-rule:nonzero;"/>
    <path d="M43.983,163.279c-11.684,-0 -20.963,-1.325 -21.101,-1.344c-0.095,-0.014 -0.179,-0.068 -0.233,-0.147c-0.052,-0.08 -0.07,-0.178 -0.047,-0.271c0.036,-0.138 3.483,-13.92 3.607,-21.328c0.173,-10.416 2.696,-21.507 2.721,-21.619c0.039,-0.169 0.19,-0.281 0.373,-0.258l23.56,3.037c0.138,0.017 0.252,0.119 0.285,0.255l5.337,21.875c0.045,0.182 -0.067,0.365 -0.248,0.409c-0.178,0.046 -0.366,-0.068 -0.409,-0.248l-5.282,-21.651l-23.022,-2.968c-0.402,1.836 -2.483,11.79 -2.639,21.18c-0.113,6.801 -2.986,18.862 -3.536,21.114c2.858,0.381 21.716,2.694 38.794,0.008l-2.528,-10.365c-0.045,-0.182 0.066,-0.364 0.248,-0.408c0.178,-0.047 0.364,0.067 0.408,0.248l2.616,10.722c0.023,0.091 0.006,0.188 -0.046,0.266c-0.053,0.079 -0.135,0.132 -0.228,0.148c-6.244,1.008 -12.743,1.345 -18.63,1.345Z" style="fill:#1a1a1a;fill-rule:nonzero;"/>
    <path d="M27.342,193.322l-0.088,-0.011c-0.18,-0.049 -0.287,-0.235 -0.238,-0.415l8.173,-30.254c0.048,-0.181 0.235,-0.29 0.414,-0.239c0.181,0.049 0.287,0.235 0.238,0.414l-8.173,30.255c-0.04,0.152 -0.176,0.25 -0.326,0.25Z" style="fill:#1a1a1a;fill-rule:nonzero;"/>
    <path d="M39.773,198.806l-19.155,-0c-0.096,-0 -0.189,-0.04 -0.251,-0.112c-0.065,-0.071 -0.097,-0.166 -0.085,-0.261l0.567,-5.484l3.648,-31.144c0.022,-0.186 0.193,-0.331 0.375,-0.297c0.186,0.021 0.319,0.189 0.297,0.375l-3.649,31.14l-0.527,5.107l18.78,-0l0.105,-0.089l-0.069,-0.119l-12.583,-4.62c-0.176,-0.065 -0.266,-0.259 -0.201,-0.434c0.064,-0.177 0.26,-0.266 0.433,-0.201l12.584,4.62c0.364,0.134 0.57,0.492 0.502,0.873c-0.068,0.38 -0.385,0.646 -0.771,0.646Z" style="fill:#1a1a1a;fill-rule:nonzero;"/>
    <path d="M50.377,78.816c-0.14,-0 -0.272,-0.088 -0.32,-0.229l-1.619,-4.774l-4.068,-1.677c-0.173,-0.072 -0.255,-0.269 -0.184,-0.442c0.07,-0.173 0.268,-0.256 0.441,-0.183l4.21,1.736c0.09,0.037 0.16,0.111 0.192,0.204l1.669,4.918c0.059,0.177 -0.036,0.369 -0.212,0.429l-0.109,0.018Z" style="fill:#1a1a1a;fill-rule:nonzero;"/>
    <path d="M52.82,122.021l-23.603,-3.04l-0.225,-0.128l-0.067,-0.252c0.03,-0.223 3.027,-22.377 2.564,-28.202c-0.883,-11.089 3.787,-16.024 3.986,-16.228c0.13,-0.136 0.344,-0.136 0.478,-0.007c0.133,0.13 0.136,0.344 0.007,0.478c-0.047,0.048 -4.654,4.944 -3.798,15.703c0.444,5.57 -2.129,25.087 -2.521,28.009l22.799,2.94c-0.227,-2.287 -1.174,-12.862 0.05,-18.42c0.039,-0.182 0.215,-0.298 0.402,-0.258c0.183,0.04 0.298,0.22 0.258,0.403c-1.324,6.013 -0.007,18.503 0.006,18.628c0.011,0.104 -0.026,0.206 -0.1,0.278l-0.236,0.096Z" style="fill:#1a1a1a;fill-rule:nonzero;"/>
    <path d="M68.903,107.178c-24.522,-0 -29.745,-21.205 -29.799,-21.437c-0.043,-0.182 0.07,-0.364 0.253,-0.406c0.179,-0.04 0.363,0.071 0.405,0.253c0.057,0.244 5.985,24.23 35.064,20.523l-4.588,-8.666c-1.347,-0.414 -11.872,-3.909 -16.275,-12.934c-2.926,-5.993 -6.754,-9.494 -11.38,-10.404c-0.183,-0.036 -0.302,-0.214 -0.266,-0.398c0.036,-0.183 0.207,-0.302 0.397,-0.266c4.844,0.953 8.833,4.577 11.857,10.771c4.552,9.333 15.877,12.591 15.99,12.622l0.208,0.168l4.882,9.221c0.052,0.097 0.052,0.213 0.002,0.312c-0.051,0.099 -0.146,0.166 -0.255,0.181c-2.301,0.314 -4.466,0.46 -6.495,0.46Z" style="fill:#1a1a1a;fill-rule:nonzero;"/>
    <path d="M67.57,119.192l-0.068,-0.006c-5.792,-1.183 -11.278,-3.414 -15.448,-6.28c-0.154,-0.105 -0.193,-0.316 -0.087,-0.469c0.106,-0.156 0.316,-0.195 0.47,-0.087c3.948,2.712 9.334,4.924 14.827,6.095l0.721,-8.695c-0.774,-0.426 -3.591,-2.003 -4.711,-3.016c-0.139,-0.125 -0.15,-0.339 -0.025,-0.477c0.125,-0.139 0.34,-0.15 0.478,-0.025c1.218,1.101 4.738,3.01 4.774,3.029c0.119,0.064 0.187,0.192 0.176,0.326l-0.77,9.296c-0.008,0.096 -0.057,0.184 -0.134,0.242l-0.203,0.067Z" style="fill:#1a1a1a;fill-rule:nonzero;"/>
    <path d="M35.005,196.63c-4.258,-0 -13.345,-2.413 -13.77,-2.526c-0.181,-0.049 -0.288,-0.235 -0.241,-0.415c0.05,-0.179 0.233,-0.286 0.416,-0.24c0.114,0.031 11.405,3.038 14.653,2.427c0.186,-0.029 0.36,0.088 0.394,0.271c0.034,0.184 -0.087,0.361 -0.271,0.395c-0.328,0.061 -0.728,0.088 -1.181,0.088Z" style="fill:#1a1a1a;fill-rule:nonzero;"/>
    <path d="M66.973,193.322c-0.158,-0 -0.299,-0.11 -0.332,-0.271l-6.265,-31.141c-0.036,-0.182 0.082,-0.361 0.266,-0.398c0.191,-0.032 0.36,0.083 0.398,0.265l6.265,31.141c0.036,0.183 -0.082,0.361 -0.266,0.398l-0.066,0.006Z" style="fill:#1a1a1a;fill-rule:nonzero;"/>
    <path d="M79.404,198.806l-16.845,-0c-0.148,-0 -0.277,-0.095 -0.322,-0.236l-1.743,-5.483l-10.19,-30.249c-0.059,-0.178 0.035,-0.369 0.212,-0.429c0.18,-0.061 0.369,0.035 0.429,0.212l10.191,30.255l1.67,5.254l16.598,-0l0.105,-0.089l-0.068,-0.119l-12.584,-4.62c-0.176,-0.065 -0.266,-0.259 -0.201,-0.434c0.063,-0.177 0.26,-0.266 0.433,-0.201l12.584,4.62c0.363,0.134 0.571,0.492 0.502,0.873c-0.067,0.38 -0.385,0.646 -0.771,0.646Z" style="fill:#1a1a1a;fill-rule:nonzero;"/>
    <path d="M74.636,196.63c-4.257,-0 -13.345,-2.413 -13.769,-2.526c-0.181,-0.049 -0.289,-0.235 -0.241,-0.415c0.049,-0.179 0.234,-0.286 0.414,-0.24c0.115,0.031 11.409,3.042 14.654,2.427c0.186,-0.029 0.36,0.088 0.394,0.271c0.033,0.184 -0.088,0.361 -0.271,0.395c-0.327,0.061 -0.727,0.088 -1.181,0.088Z" style="fill:#1a1a1a;fill-rule:nonzero;"/>
    <path d="M128.39,37.091l-0.116,-0.021c-0.175,-0.064 -0.266,-0.258 -0.201,-0.433c0.344,-0.947 3.429,-9.272 5.39,-10.014c0.325,-0.123 0.576,-0.049 0.73,0.035c0.421,0.229 0.686,0.586 0.787,1.06c0.391,1.832 -1.965,4.95 -2.066,5.082c-0.113,0.149 -0.324,0.176 -0.473,0.064c-0.149,-0.113 -0.177,-0.325 -0.064,-0.474c0.632,-0.83 2.213,-3.262 1.942,-4.531c-0.06,-0.28 -0.203,-0.473 -0.45,-0.608c-0.02,-0.01 -0.065,-0.032 -0.166,0.005c-1.259,0.476 -3.732,6.148 -4.996,9.612c-0.049,0.137 -0.179,0.223 -0.317,0.223Z" style="fill:#1a1a1a;fill-rule:nonzero;"/>
    <path d="M133.113,42.311c-0.117,0 -0.231,-0.061 -0.293,-0.169c-0.093,-0.162 -0.038,-0.369 0.124,-0.462c0.035,-0.02 3.537,-2.069 5.277,-5.096c0.093,-0.163 0.299,-0.217 0.462,-0.125c0.161,0.093 0.218,0.3 0.124,0.462c-1.832,3.188 -5.375,5.258 -5.525,5.345l-0.169,0.045Z" style="fill:#1a1a1a;fill-rule:nonzero;"/>
    <path d="M172.454,37.378c-0.136,-0 -0.264,-0.083 -0.316,-0.218c-1.36,-3.576 -3.997,-9.428 -5.282,-9.903c-0.098,-0.036 -0.141,-0.015 -0.16,-0.006c-0.247,0.136 -0.398,0.337 -0.457,0.617c-0.269,1.258 1.275,3.636 1.892,4.445c0.114,0.149 0.085,0.361 -0.063,0.475c-0.149,0.112 -0.361,0.084 -0.474,-0.064c-0.099,-0.129 -2.405,-3.18 -2.016,-4.997c0.101,-0.478 0.369,-0.838 0.794,-1.069c0.151,-0.083 0.398,-0.154 0.719,-0.035c1.994,0.738 5.308,9.32 5.68,10.297c0.066,0.174 -0.022,0.37 -0.196,0.436l-0.121,0.022Z" style="fill:#1a1a1a;fill-rule:nonzero;"/>
    <path d="M167.453,42.311l-0.169,-0.045c-0.151,-0.087 -3.694,-2.157 -5.526,-5.345c-0.094,-0.162 -0.037,-0.369 0.124,-0.462c0.162,-0.092 0.368,-0.038 0.462,0.125c1.74,3.027 5.242,5.076 5.277,5.096c0.163,0.093 0.217,0.3 0.124,0.462c-0.062,0.108 -0.176,0.169 -0.292,0.169Z" style="fill:#1a1a1a;fill-rule:nonzero;"/>
    <path d="M80.935,105.026l-6.295,0c-0.187,0 -0.338,-0.151 -0.338,-0.338c0,-0.186 0.151,-0.337 0.338,-0.337l6.295,-0c0.186,-0 0.338,0.151 0.338,0.337c0,0.187 -0.152,0.338 -0.338,0.338Z" style="fill:#1a1a1a;fill-rule:nonzero;"/>
    <path d="M78.745,100.607l-0.072,-0.007l-7.482,-1.612c-0.183,-0.039 -0.299,-0.219 -0.26,-0.402c0.039,-0.183 0.215,-0.303 0.402,-0.259l7.483,1.611c0.182,0.04 0.299,0.22 0.26,0.402c-0.035,0.159 -0.175,0.267 -0.331,0.267Z" style="fill:#1a1a1a;fill-rule:nonzero;"/>
    <path d="M71.689,117.645l-0.095,-0.012l-3.896,-1.135c-0.179,-0.053 -0.283,-0.24 -0.231,-0.42c0.053,-0.179 0.236,-0.279 0.42,-0.23l3.897,1.134c0.178,0.053 0.282,0.241 0.23,0.42c-0.044,0.148 -0.179,0.243 -0.325,0.243Z" style="fill:#1a1a1a;fill-rule:nonzero;"/>
    <path d="M74.496,113.991l-0.151,-0.035l-6.156,-3.077c-0.167,-0.084 -0.235,-0.287 -0.152,-0.454c0.084,-0.167 0.287,-0.238 0.455,-0.152l6.156,3.078c0.167,0.084 0.234,0.287 0.151,0.454c-0.059,0.118 -0.179,0.186 -0.303,0.186Z" style="fill:#1a1a1a;fill-rule:nonzero;"/>
    <path d="M85.715,107.178c-0.954,-0 -3.808,-1.159 -4.901,-2.293c-0.13,-0.134 -0.126,-0.349 0.009,-0.478c0.133,-0.13 0.347,-0.127 0.477,0.009c1.121,1.163 4.009,2.145 4.422,2.089c3.556,-0.997 6.232,-3.056 6.169,-3.552c-0.297,-0.381 -1.38,-0.248 -2.171,-0.151c-0.371,0.045 -0.715,0.076 -0.998,0.083c-0.953,-0.018 -4.083,-1.687 -4.436,-1.877c-0.088,-0.047 -0.15,-0.13 -0.171,-0.227c-0.021,-0.097 0.002,-0.198 0.062,-0.277l1.939,-2.523c-2.938,-0.389 -7.132,2.533 -7.176,2.564c-0.153,0.108 -0.364,0.073 -0.472,-0.081c-0.107,-0.152 -0.071,-0.363 0.081,-0.471c0.203,-0.143 4.996,-3.493 8.257,-2.558c0.107,0.031 0.192,0.113 0.228,0.219c0.035,0.107 0.014,0.223 -0.053,0.312l-2.024,2.633c1.306,0.683 3.234,1.6 3.777,1.609c0.227,0.01 0.555,-0.035 0.904,-0.078c1.056,-0.13 2.256,-0.276 2.794,0.423c0.141,0.182 0.173,0.42 0.09,0.669c-0.392,1.178 -3.611,3.09 -6.625,3.935l-0.182,0.021Z" style="fill:#1a1a1a;fill-rule:nonzero;"/>
    <path d="M49.577,58.602c-0.095,-0 -0.189,-0.039 -0.256,-0.117c-0.122,-0.141 -0.107,-0.354 0.034,-0.477c0.03,-0.025 0.739,-0.633 1.656,-0.867c0.187,-0.047 0.366,0.063 0.412,0.244c0.046,0.18 -0.063,0.364 -0.244,0.411c-0.765,0.195 -1.375,0.719 -1.381,0.724l-0.221,0.082Z" style="fill:#1a1a1a;fill-rule:nonzero;"/>
    <path d="M197.713,193.174l-0.189,-0.058c-8.008,-5.435 -8.042,-23.277 -8.039,-24.034c0,-0.187 0.151,-0.337 0.338,-0.337c0.187,-0 0.338,0.152 0.338,0.339c0,0.182 0.033,18.239 7.742,23.472c0.155,0.105 0.195,0.315 0.091,0.469c-0.066,0.097 -0.172,0.149 -0.281,0.149Z" style="fill:#1a1a1a;fill-rule:nonzero;"/>
    <path d="M214.851,193.116c-0.106,-0 -0.212,-0.051 -0.277,-0.144c-0.108,-0.154 -0.07,-0.365 0.084,-0.471c7.63,-5.304 7.662,-23.236 7.662,-23.417c-0.001,-0.187 0.15,-0.339 0.337,-0.339c0.187,-0 0.338,0.15 0.338,0.337c0.003,0.751 -0.029,18.468 -7.951,23.974l-0.193,0.06Z" style="fill:#1a1a1a;fill-rule:nonzero;"/>
    <path d="M203.358,146.571l-0.082,-0.009c-0.181,-0.045 -0.291,-0.229 -0.246,-0.411c0.131,-0.528 0.28,-0.905 0.436,-1.303c0.07,-0.176 0.142,-0.36 0.216,-0.567c1.35,-3.719 3.586,-6.864 6.466,-9.094c0.147,-0.115 0.359,-0.086 0.474,0.061c0.115,0.147 0.087,0.36 -0.06,0.475c-2.779,2.15 -4.938,5.19 -6.243,8.789c-0.077,0.213 -0.152,0.401 -0.223,0.583c-0.155,0.394 -0.289,0.734 -0.41,1.22c-0.038,0.154 -0.176,0.256 -0.328,0.256Z" style="fill:#1a1a1a;fill-rule:nonzero;"/>
    <path d="M213.98,166.19c-1.027,-0 -2.067,-0.147 -3.111,-0.442c-0.954,-0.27 -2.127,-0.852 -2.908,-1.306c-0.161,-0.093 -0.216,-0.3 -0.122,-0.462c0.093,-0.162 0.299,-0.216 0.462,-0.122c0.711,0.413 1.859,0.986 2.752,1.24c2.185,0.616 4.339,0.547 6.402,-0.204c5.419,-1.974 9.098,-8.134 10.339,-13.364c0.885,-3.726 0.749,-7.452 -0.394,-10.774c-0.12,-0.348 -0.251,-0.693 -0.382,-1.037c-0.386,-1.018 -0.785,-2.07 -0.893,-3.189c-0.208,-2.184 0.886,-4.255 1.944,-6.258c0.442,-0.838 0.86,-1.631 1.173,-2.41c0.781,-1.951 0.802,-3.659 0.064,-5.077c-1.321,-2.537 -4.65,-3.341 -4.684,-3.348c-0.072,-0.024 -3.303,-1.176 -5.794,0.218c-1.393,0.781 -2.311,2.22 -2.729,4.279c-0.166,0.821 -0.251,1.712 -0.342,2.657c-0.12,1.26 -0.245,2.562 -0.579,3.766c-0.051,0.18 -0.238,0.281 -0.417,0.236c-0.18,-0.051 -0.285,-0.237 -0.235,-0.417c0.319,-1.147 0.44,-2.419 0.558,-3.65c0.092,-0.962 0.179,-1.871 0.353,-2.727c0.458,-2.262 1.49,-3.856 3.065,-4.737c2.765,-1.542 6.171,-0.325 6.314,-0.272c0.109,0.022 3.626,0.873 5.09,3.683c0.834,1.6 0.821,3.499 -0.037,5.641c-0.325,0.812 -0.751,1.618 -1.203,2.474c-1.01,1.915 -2.056,3.895 -1.867,5.878c0.098,1.028 0.464,1.992 0.852,3.013c0.133,0.351 0.266,0.703 0.387,1.056c1.186,3.444 1.33,7.3 0.415,11.152c-1.284,5.406 -5.11,11.783 -10.766,13.841c-1.21,0.442 -2.449,0.662 -3.707,0.662Z" style="fill:#1a1a1a;fill-rule:nonzero;"/>
    <path d="M208.961,171.207l-0.098,-0.015c-0.179,-0.053 -0.28,-0.243 -0.225,-0.422l14.631,-48.051c0.054,-0.177 0.24,-0.284 0.422,-0.225c0.179,0.054 0.279,0.243 0.224,0.422l-14.63,48.052c-0.044,0.145 -0.178,0.239 -0.324,0.239Z" style="fill:#1a1a1a;fill-rule:nonzero;"/>
    <path d="M197.757,136.212c-0.844,-0 -1.499,0.185 -1.506,0.187c-0.061,0.013 -2.294,0.396 -3.269,1.995c-0.543,0.889 -0.604,2.007 -0.18,3.322c0.171,0.531 0.414,1.081 0.671,1.662c0.625,1.411 1.271,2.87 1.023,4.363c-0.125,0.76 -0.445,1.455 -0.755,2.128c-0.104,0.226 -0.207,0.451 -0.304,0.679c-0.916,2.165 -1.178,4.641 -0.759,7.164c0.687,4.146 3.925,9.984 8.977,9.984c0.537,-0 1.089,-0.067 1.639,-0.2c1.465,-0.353 2.689,-1.094 3.638,-2.198c2.506,-2.918 2.63,-7.709 1.642,-11.163c-0.704,-2.46 -2.002,-4.586 -3.756,-6.149c-0.185,-0.164 -0.375,-0.323 -0.565,-0.482c-0.568,-0.475 -1.156,-0.965 -1.595,-1.599c-0.863,-1.242 -0.906,-2.838 -0.946,-4.38c-0.016,-0.636 -0.032,-1.237 -0.105,-1.792c-0.384,-2.911 -2.305,-3.521 -3.85,-3.521Zm3.898,32.161c-5.13,-0 -8.797,-5.436 -9.645,-10.55c-0.439,-2.649 -0.162,-5.256 0.804,-7.539c0.099,-0.234 0.206,-0.466 0.312,-0.698c0.305,-0.66 0.592,-1.284 0.702,-1.955c0.215,-1.294 -0.389,-2.659 -0.973,-3.98c-0.265,-0.597 -0.515,-1.162 -0.697,-1.728c-0.488,-1.513 -0.404,-2.819 0.249,-3.886c1.141,-1.863 3.592,-2.28 3.697,-2.297c-0.01,-0 0.709,-0.205 1.653,-0.205c1.487,-0 4.05,0.534 4.52,4.11c0.078,0.589 0.094,1.208 0.111,1.862c0.038,1.443 0.077,2.936 0.824,4.013c0.389,0.558 0.916,0.999 1.475,1.465c0.195,0.163 0.391,0.327 0.58,0.495c1.851,1.649 3.219,3.886 3.957,6.469c1.038,3.628 0.891,8.681 -1.778,11.79c-1.044,1.214 -2.388,2.027 -3.993,2.415c-0.603,0.146 -1.208,0.219 -1.798,0.219Z" style="fill:#1a1a1a;fill-rule:nonzero;"/>
    <path d="M203.99,171.207c-0.156,0 -0.295,-0.106 -0.33,-0.264l-7.258,-32.249c-0.041,-0.182 0.073,-0.363 0.256,-0.404c0.187,-0.042 0.364,0.074 0.404,0.256l7.258,32.249c0.041,0.183 -0.074,0.363 -0.256,0.404l-0.074,0.008Z" style="fill:#1a1a1a;fill-rule:nonzero;"/>
    <path d="M206.241,171.207c-0.685,0 -16.756,-0.023 -16.756,-2.124c0,-0.355 0,-1.438 9.565,-1.945c0.18,-0.006 0.346,0.133 0.356,0.32c0.009,0.187 -0.134,0.346 -0.321,0.355c-5.817,0.309 -8.432,0.907 -8.883,1.271c0.727,0.611 6.623,1.447 16.039,1.447c9.42,-0 15.316,-0.837 16.039,-1.448c-0.723,-0.611 -6.619,-1.448 -16.039,-1.448c-0.462,-0 -0.918,0.002 -1.37,0.006c-0.188,-0 -0.339,-0.15 -0.34,-0.335c-0.002,-0.187 0.148,-0.34 0.335,-0.341c0.453,-0.004 0.911,-0.006 1.375,-0.006c0.684,-0 16.754,0.023 16.754,2.124c0,2.101 -16.07,2.124 -16.754,2.124Z" style="fill:#1a1a1a;fill-rule:nonzero;"/>
    <path d="M206.194,193.848c-1.813,-0 -7.794,-0.054 -8.688,-0.744c-0.147,-0.115 -0.175,-0.328 -0.06,-0.475c0.114,-0.149 0.327,-0.176 0.474,-0.061c0.302,0.234 2.815,0.604 8.274,0.604c5.601,-0 8.119,-0.393 8.444,-0.656c0.145,-0.118 0.358,-0.097 0.476,0.049c0.117,0.145 0.095,0.359 -0.05,0.476c-0.923,0.749 -7.023,0.807 -8.87,0.807Z" style="fill:#1a1a1a;fill-rule:nonzero;"/>
    <path d="M206.194,182.601c-1.577,-0 -15.409,-0.057 -15.409,-2.019c0,-0.187 0.151,-0.338 0.337,-0.338c0.187,-0 0.338,0.151 0.338,0.338c0.387,0.512 5.869,1.343 14.734,1.343c8.916,-0 14.435,-0.832 14.842,-1.406c0,-0.187 0.144,-0.307 0.331,-0.307c0.186,-0 0.33,0.183 0.33,0.37c0,1.996 -14.87,2.019 -15.503,2.019Z" style="fill:#1a1a1a;fill-rule:nonzero;"/>
    <path d="M155.559,58.404l-0.17,-0.046l-1.801,-1.048c-0.092,-0.054 -0.153,-0.146 -0.166,-0.252c-0.012,-0.105 0.025,-0.21 0.101,-0.284l2.097,-2.024c0.135,-0.13 0.348,-0.127 0.478,0.008c0.13,0.135 0.126,0.349 -0.008,0.478l-1.775,1.714l1.414,0.823c0.162,0.095 0.217,0.302 0.122,0.463c-0.063,0.108 -0.176,0.168 -0.292,0.168Z" style="fill:#1a1a1a;fill-rule:nonzero;"/>
    <path d="M173.527,199.113l-16.82,-0.271l-0.22,-0.087l-0.84,-0.76l-0.205,0.594c-0.047,0.139 -0.177,0.232 -0.325,0.227l-2.447,-0.039c-0.176,-0.003 -0.322,-0.142 -0.332,-0.319l-0.22,-4.046c-0.01,-0.186 0.132,-0.346 0.319,-0.356c0.22,-0.008 0.347,0.133 0.356,0.319l0.203,3.731l1.886,0.031l0.292,-0.846c0.036,-0.107 0.125,-0.188 0.236,-0.217c0.107,-0.031 0.226,-0 0.31,0.076l1.126,1.018l15.33,0.247l-6.743,-3.726c-0.163,-0.089 -0.223,-0.295 -0.132,-0.459c0.091,-0.164 0.295,-0.22 0.46,-0.132l7.929,4.381c0.137,0.076 0.204,0.234 0.164,0.383c-0.04,0.149 -0.174,0.251 -0.327,0.251Z" style="fill:#1a1a1a;fill-rule:nonzero;"/>
    <path d="M173.406,199.113l-0.092,-0.012c-0.15,-0.042 -0.251,-0.181 -0.246,-0.336l0.293,-9.572c0.006,-0.182 0.155,-0.327 0.338,-0.327c0.197,0.006 0.343,0.161 0.337,0.349l-0.25,8.215l7.608,-13.31l-0.3,-1.488c-0.022,-0.111 0.012,-0.226 0.093,-0.306c0.079,-0.08 0.196,-0.114 0.307,-0.092l0.875,0.18l0.935,-1.637l-3.197,-2.141c-0.155,-0.105 -0.196,-0.315 -0.093,-0.47c0.106,-0.154 0.317,-0.193 0.47,-0.093l3.459,2.318c0.147,0.098 0.193,0.295 0.105,0.449l-1.214,2.123c-0.073,0.127 -0.214,0.193 -0.362,0.163l-0.614,-0.126l0.223,1.111l-0.037,0.235l-8.344,14.597c-0.062,0.108 -0.175,0.17 -0.294,0.17Z" style="fill:#1a1a1a;fill-rule:nonzero;"/>
    <path d="M153.682,132.769l-7.914,-0c-0.187,-0 -0.338,-0.152 -0.338,-0.338c0,-0.187 0.151,-0.338 0.338,-0.338l7.914,-0c0.187,-0 0.338,0.151 0.338,0.338c0,0.186 -0.151,0.338 -0.338,0.338Z" style="fill:#1a1a1a;fill-rule:nonzero;"/>
    <path d="M170.082,167.422c-0.186,-0 -0.337,-0.152 -0.337,-0.338l0.014,-47.988c0,-0.187 0.152,-0.338 0.338,-0.338c0.187,-0 0.338,0.151 0.338,0.338l-0.015,47.988c0,0.186 -0.151,0.338 -0.338,0.338Z" style="fill:#1a1a1a;fill-rule:nonzero;"/>
    <path d="M168.822,194.731l-18.451,-0c-0.184,-0 -0.335,-0.148 -0.337,-0.333l-0.232,-16.936c-0.003,-0.188 0.147,-0.341 0.333,-0.343c0.19,-0 0.341,0.149 0.343,0.333l0.227,16.604l17.805,-0l0.385,-4.659c0.016,-0.185 0.185,-0.323 0.364,-0.309c0.187,0.016 0.325,0.179 0.31,0.364l-0.41,4.969c-0.015,0.176 -0.162,0.31 -0.337,0.31Z" style="fill:#1a1a1a;fill-rule:nonzero;"/>
    <path d="M149.863,154.093c-0.185,-0 -0.336,-0.149 -0.338,-0.333l-0.292,-21.131c-0.003,-0.187 0.146,-0.341 0.333,-0.343c0.165,-0.005 0.341,0.147 0.343,0.333l0.292,21.131c0.002,0.187 -0.147,0.341 -0.333,0.343l-0.005,-0Z" style="fill:#1a1a1a;fill-rule:nonzero;"/>
    <path d="M172.403,191.751l-0.18,-0.052l-38.786,-24.329c-0.158,-0.099 -0.206,-0.308 -0.107,-0.466c0.099,-0.159 0.309,-0.207 0.466,-0.106l38.491,24.143l9.122,-15.563l-32.026,-21.342c-0.155,-0.103 -0.197,-0.313 -0.094,-0.469c0.104,-0.155 0.313,-0.2 0.469,-0.093l32.291,21.518c0.15,0.1 0.196,0.298 0.105,0.452l-9.459,16.14l-0.212,0.157l-0.08,0.01Z" style="fill:#1a1a1a;fill-rule:nonzero;"/>
    <path d="M130.083,131.884c-0.205,-0.011 -0.347,-0.17 -0.338,-0.357c0.382,-6.84 0.78,-12.134 0.784,-12.187c0.013,-0.186 0.159,-0.33 0.362,-0.312c0.187,0.014 0.326,0.176 0.312,0.363c-0.004,0.052 -0.401,5.341 -0.782,12.173c-0.01,0.181 -0.159,0.32 -0.338,0.32Z" style="fill:#1a1a1a;fill-rule:nonzero;"/>
    <path d="M133.617,167.422l-0.208,-0.071c-2.311,-1.799 -3.153,-2.787 -3.603,-4.224c-0.764,-2.442 -0.963,-9.188 -0.591,-20.048c0.006,-0.186 0.155,-0.325 0.35,-0.326c0.186,0.006 0.333,0.163 0.326,0.35c-0.364,10.631 -0.17,17.486 0.562,19.823c0.361,1.157 0.934,1.994 3.372,3.891c0.147,0.115 0.173,0.328 0.058,0.475c-0.066,0.085 -0.166,0.13 -0.266,0.13Z" style="fill:#1a1a1a;fill-rule:nonzero;"/>
</svg>
