<?xml version="1.0" encoding="UTF-8" standalone="no"?>
<!DOCTYPE svg PUBLIC "-//W3C//DTD SVG 1.1//EN" "http://www.w3.org/Graphics/SVG/1.1/DTD/svg11.dtd">
<svg width="100%" height="100%" viewBox="0 0 243 213" version="1.1" xmlns="http://www.w3.org/2000/svg" xmlns:xlink="http://www.w3.org/1999/xlink" xml:space="preserve" xmlns:serif="http://www.serif.com/" style="fill-rule:evenodd;clip-rule:evenodd;stroke-linejoin:round;stroke-miterlimit:2;">
    <g>
        <path d="M235.709,45.943c0,3.466 -2.81,6.275 -6.275,6.275c-3.465,-0 -6.275,-2.809 -6.275,-6.275c0,-3.466 2.81,-6.275 6.275,-6.275c3.465,-0 6.275,2.809 6.275,6.275Z" style="fill:#8964ce;fill-rule:nonzero;"/>
        <path d="M193.941,78.789c0,2.285 -1.852,4.139 -4.138,4.139c-2.286,-0 -4.139,-1.854 -4.139,-4.139c0,-2.286 1.853,-4.14 4.139,-4.14c2.286,-0 4.138,1.854 4.138,4.14Z" style="fill:#fff;fill-rule:nonzero;"/>
        <path d="M188.496,73.448c-0.549,-0 -1.083,0.115 -1.588,0.342c-0.947,0.425 -1.673,1.193 -2.042,2.164c-0.369,0.971 -0.339,2.027 0.086,2.974c0.627,1.396 2.021,2.298 3.55,2.298c0.549,-0 1.084,-0.116 1.589,-0.342c0.947,-0.425 1.672,-1.194 2.042,-2.164c0.369,-0.971 0.338,-2.027 -0.087,-2.974c-0.626,-1.396 -2.02,-2.298 -3.55,-2.298Zm0.006,8.454c-1.796,-0 -3.432,-1.059 -4.167,-2.697c-0.499,-1.112 -0.535,-2.352 -0.101,-3.492c0.434,-1.139 1.285,-2.041 2.397,-2.54c0.593,-0.266 1.221,-0.401 1.865,-0.401c1.797,-0 3.433,1.059 4.167,2.697c0.499,1.112 0.535,2.352 0.102,3.491c-0.434,1.14 -1.285,2.042 -2.397,2.541c-0.594,0.266 -1.22,0.401 -1.866,0.401Z" style="fill:#1a1a1a;fill-rule:nonzero;"/>
        <path d="M225.543,39.106c-0.843,-0 -1.663,0.177 -2.438,0.525c-1.455,0.652 -2.568,1.832 -3.135,3.322c-0.567,1.489 -0.52,3.11 0.133,4.564c0.962,2.143 3.1,3.526 5.448,3.526c0.843,-0 1.663,-0.176 2.439,-0.524c3.001,-1.347 4.348,-4.885 3.001,-7.886c-0.961,-2.142 -3.099,-3.527 -5.448,-3.527Zm0.008,12.55c-2.589,-0 -4.946,-1.526 -6.007,-3.888c-0.72,-1.604 -0.771,-3.391 -0.146,-5.033c0.625,-1.643 1.852,-2.944 3.457,-3.663c0.854,-0.384 1.758,-0.578 2.688,-0.578c2.59,-0 4.947,1.526 6.007,3.888c1.484,3.31 0,7.211 -3.31,8.696c-0.854,0.383 -1.759,0.578 -2.689,0.578Z" style="fill:#1a1a1a;fill-rule:nonzero;"/>
        <path d="M179.701,68.047c-0.092,-0 -0.182,-0.037 -0.249,-0.11l-2.467,-2.687c-0.126,-0.137 -0.117,-0.352 0.021,-0.478c0.137,-0.126 0.351,-0.117 0.477,0.021l2.467,2.687c0.126,0.137 0.117,0.351 -0.02,0.477l-0.229,0.09Zm4.934,5.373c-0.092,-0 -0.183,-0.037 -0.249,-0.109l-2.467,-2.688c-0.126,-0.137 -0.117,-0.351 0.021,-0.477c0.136,-0.126 0.352,-0.118 0.477,0.02l2.467,2.687c0.126,0.138 0.117,0.352 -0.021,0.478l-0.228,0.089Z" style="fill:#1a1a1a;fill-rule:nonzero;"/>
        <path d="M219.045,50.791c-0.095,-0 -0.188,-0.039 -0.256,-0.116c-0.122,-0.141 -0.106,-0.355 0.034,-0.477l1.691,-1.466c0.141,-0.123 0.353,-0.108 0.477,0.034c0.122,0.141 0.107,0.355 -0.034,0.477l-1.69,1.465l-0.222,0.083Zm-5.512,4.779c-0.094,-0 -0.188,-0.039 -0.256,-0.116c-0.122,-0.142 -0.106,-0.355 0.035,-0.478l2.755,-2.389c0.142,-0.121 0.354,-0.108 0.478,0.034c0.122,0.141 0.106,0.355 -0.034,0.477l-2.756,2.389l-0.222,0.083Zm-5.51,4.78c-0.095,-0 -0.189,-0.04 -0.256,-0.117c-0.122,-0.141 -0.107,-0.355 0.034,-0.477l2.755,-2.39c0.141,-0.122 0.353,-0.107 0.477,0.034c0.122,0.141 0.107,0.355 -0.034,0.477l-2.755,2.39l-0.221,0.083Zm-5.512,4.779c-0.095,-0 -0.189,-0.04 -0.256,-0.117c-0.122,-0.141 -0.106,-0.355 0.034,-0.477l2.756,-2.39c0.143,-0.122 0.354,-0.107 0.478,0.034c0.122,0.141 0.106,0.355 -0.035,0.477l-2.756,2.39l-0.221,0.083Zm-5.512,4.779c-0.095,-0 -0.188,-0.04 -0.256,-0.117c-0.122,-0.141 -0.106,-0.355 0.034,-0.477l2.756,-2.389c0.142,-0.123 0.354,-0.108 0.478,0.033c0.122,0.142 0.106,0.355 -0.034,0.477l-2.756,2.39l-0.222,0.083Zm-5.512,4.779c-0.094,-0 -0.188,-0.04 -0.255,-0.117c-0.123,-0.141 -0.107,-0.355 0.034,-0.477l2.756,-2.389c0.141,-0.123 0.354,-0.108 0.477,0.033c0.122,0.141 0.107,0.355 -0.034,0.477l-2.756,2.39l-0.222,0.083Z" style="fill:#1a1a1a;fill-rule:nonzero;"/>
        <path d="M219.273,85.553c-0.399,-0 -0.724,0.324 -0.724,0.723c0,0.398 0.325,0.722 0.724,0.722c0.398,-0 0.722,-0.324 0.722,-0.722c0,-0.399 -0.324,-0.723 -0.722,-0.723Zm0,2.122c-0.772,-0 -1.4,-0.628 -1.4,-1.399c0,-0.772 0.628,-1.4 1.4,-1.4c0.771,-0 1.398,0.628 1.398,1.4c0,0.771 -0.627,1.399 -1.398,1.399Z" style="fill:#1a1a1a;fill-rule:nonzero;"/>
    </g>
    <g>
        <path d="M83.84,150.323c-0,3.466 -2.81,6.275 -6.274,6.275c-3.465,0 -6.275,-2.809 -6.275,-6.275c-0,-3.465 2.81,-6.274 6.275,-6.274c3.464,0 6.274,2.809 6.274,6.274Z" style="fill:#8964ce;fill-rule:nonzero;"/>
        <path d="M105.976,172.487c-0,2.285 -1.854,4.139 -4.139,4.139c-2.286,0 -4.139,-1.854 -4.139,-4.139c-0,-2.286 1.853,-4.14 4.139,-4.14c2.285,0 4.139,1.854 4.139,4.14Z" style="fill:#fff;fill-rule:nonzero;"/>
        <path d="M18.694,201.499c-0,2.286 -1.852,4.138 -4.137,4.138c-2.286,0 -4.139,-1.852 -4.139,-4.138c-0,-2.285 1.853,-4.139 4.139,-4.139c2.285,0 4.137,1.854 4.137,4.139Z" style="fill:#fff;fill-rule:nonzero;"/>
        <path d="M15.705,196.301c-0.549,0 -1.084,0.116 -1.589,0.342c-0.948,0.425 -1.673,1.194 -2.042,2.164c-0.37,0.971 -0.339,2.027 0.086,2.974c0.626,1.395 2.019,2.298 3.549,2.298c0.549,0 1.084,-0.115 1.589,-0.342c1.956,-0.878 2.832,-3.183 1.956,-5.139c-0.626,-1.395 -2.019,-2.297 -3.549,-2.297Zm0.004,8.454c-1.796,0 -3.431,-1.059 -4.166,-2.697c-0.499,-1.112 -0.535,-2.352 -0.102,-3.491c0.434,-1.14 1.286,-2.042 2.398,-2.541c0.594,-0.266 1.222,-0.401 1.866,-0.401c1.796,0 3.432,1.059 4.166,2.697c1.029,2.296 -0,5.002 -2.296,6.032c-0.593,0.266 -1.22,0.401 -1.866,0.401Z" style="fill:#1a1a1a;fill-rule:nonzero;"/>
        <path d="M100.906,170.022c-0.549,0 -1.084,0.115 -1.589,0.342c-1.955,0.877 -2.832,3.183 -1.955,5.139c0.626,1.395 2.019,2.297 3.549,2.297c0.549,0 1.084,-0.116 1.589,-0.342c0.947,-0.425 1.673,-1.194 2.042,-2.164c0.369,-0.971 0.339,-2.027 -0.087,-2.974c-0.626,-1.396 -2.018,-2.298 -3.549,-2.298Zm0.005,8.454c-1.796,0 -3.43,-1.059 -4.166,-2.696c-1.03,-2.297 -0,-5.003 2.295,-6.033c0.594,-0.266 1.222,-0.401 1.866,-0.401c1.796,0 3.432,1.059 4.166,2.697c0.499,1.112 0.535,2.352 0.102,3.491c-0.434,1.14 -1.284,2.042 -2.397,2.541c-0.593,0.266 -1.22,0.401 -1.866,0.401Z" style="fill:#1a1a1a;fill-rule:nonzero;"/>
        <path d="M75.747,142.66c-0.843,0 -1.663,0.177 -2.439,0.525c-1.454,0.652 -2.568,1.832 -3.134,3.322c-0.567,1.489 -0.52,3.11 0.133,4.564c0.961,2.143 3.098,3.526 5.447,3.526c0.843,0 1.664,-0.176 2.44,-0.524c1.454,-0.652 2.567,-1.832 3.133,-3.321c0.568,-1.49 0.52,-3.111 -0.133,-4.565c-0.96,-2.142 -3.098,-3.527 -5.447,-3.527Zm0.007,12.55c-2.589,0 -4.946,-1.526 -6.006,-3.888c-0.72,-1.603 -0.771,-3.391 -0.146,-5.033c0.625,-1.643 1.852,-2.944 3.456,-3.663c0.854,-0.383 1.759,-0.578 2.689,-0.578c2.59,0 4.947,1.526 6.006,3.888c0.72,1.603 0.771,3.391 0.146,5.033c-0.625,1.642 -1.851,2.943 -3.455,3.663c-0.855,0.383 -1.76,0.578 -2.69,0.578Z" style="fill:#1a1a1a;fill-rule:nonzero;"/>
        <path d="M82.796,155.945c-0.092,0 -0.183,-0.038 -0.249,-0.11l-2.467,-2.687c-0.126,-0.138 -0.117,-0.352 0.021,-0.478c0.136,-0.126 0.351,-0.117 0.477,0.021l2.467,2.687c0.126,0.137 0.117,0.351 -0.021,0.477l-0.228,0.09Zm4.934,5.374c-0.092,0 -0.183,-0.038 -0.249,-0.11l-2.467,-2.687c-0.126,-0.138 -0.117,-0.352 0.02,-0.478c0.137,-0.126 0.352,-0.117 0.478,0.021l2.467,2.687c0.126,0.137 0.117,0.351 -0.021,0.477l-0.228,0.09Zm4.933,5.373c-0.092,0 -0.182,-0.037 -0.249,-0.11l-2.467,-2.687c-0.126,-0.137 -0.117,-0.351 0.021,-0.477c0.137,-0.126 0.351,-0.118 0.477,0.02l2.467,2.687c0.126,0.137 0.117,0.351 -0.02,0.477l-0.229,0.09Zm4.754,5.178c-0.092,0 -0.183,-0.037 -0.249,-0.11l-2.287,-2.491c-0.126,-0.137 -0.117,-0.352 0.02,-0.478c0.136,-0.126 0.352,-0.117 0.478,0.021l2.287,2.491c0.126,0.138 0.117,0.352 -0.02,0.478l-0.229,0.089Z" style="fill:#1a1a1a;fill-rule:nonzero;"/>
        <path d="M68.3,154.528c-0.095,0 -0.189,-0.04 -0.256,-0.117c-0.122,-0.141 -0.106,-0.355 0.034,-0.477l2.294,-1.989c0.143,-0.123 0.355,-0.108 0.478,0.033c0.122,0.141 0.106,0.355 -0.034,0.477l-2.294,1.99l-0.222,0.083Zm-5.512,4.779c-0.095,0 -0.188,-0.04 -0.256,-0.117c-0.122,-0.141 -0.106,-0.355 0.034,-0.477l2.756,-2.39c0.142,-0.122 0.355,-0.108 0.478,0.034c0.122,0.141 0.106,0.355 -0.034,0.477l-2.756,2.39l-0.222,0.083Zm-5.512,4.779c-0.094,0 -0.188,-0.04 -0.255,-0.117c-0.122,-0.141 -0.107,-0.355 0.034,-0.477l2.756,-2.389c0.141,-0.122 0.353,-0.108 0.477,0.033c0.122,0.142 0.107,0.355 -0.034,0.477l-2.756,2.39l-0.222,0.083Zm-5.511,4.779c-0.095,0 -0.189,-0.04 -0.256,-0.117c-0.122,-0.141 -0.107,-0.355 0.034,-0.477l2.756,-2.389c0.142,-0.123 0.353,-0.108 0.477,0.033c0.123,0.141 0.107,0.355 -0.034,0.477l-2.756,2.39l-0.221,0.083Zm-5.512,4.779c-0.095,0 -0.188,-0.039 -0.256,-0.116c-0.122,-0.142 -0.106,-0.355 0.034,-0.478l2.756,-2.389c0.142,-0.122 0.355,-0.108 0.478,0.034c0.122,0.141 0.106,0.355 -0.034,0.477l-2.756,2.389l-0.222,0.083Zm-5.512,4.78c-0.094,0 -0.188,-0.04 -0.256,-0.117c-0.122,-0.141 -0.106,-0.355 0.035,-0.477l2.755,-2.39c0.142,-0.122 0.354,-0.108 0.478,0.034c0.122,0.141 0.106,0.355 -0.034,0.477l-2.756,2.39l-0.222,0.083Zm-5.51,4.778c-0.095,0 -0.189,-0.039 -0.256,-0.116c-0.122,-0.141 -0.107,-0.355 0.034,-0.477l2.755,-2.39c0.141,-0.122 0.353,-0.108 0.477,0.034c0.122,0.141 0.107,0.355 -0.034,0.477l-2.755,2.389l-0.221,0.083Zm-5.512,4.78c-0.095,0 -0.189,-0.04 -0.256,-0.117c-0.122,-0.141 -0.106,-0.355 0.034,-0.477l2.756,-2.39c0.142,-0.122 0.354,-0.108 0.478,0.034c0.122,0.141 0.106,0.355 -0.035,0.477l-2.755,2.39l-0.222,0.083Zm-5.512,4.779c-0.095,0 -0.188,-0.04 -0.256,-0.117c-0.122,-0.141 -0.106,-0.355 0.034,-0.477l2.756,-2.389c0.143,-0.123 0.355,-0.108 0.478,0.033c0.122,0.141 0.106,0.355 -0.034,0.477l-2.756,2.39l-0.222,0.083Zm-5.513,4.779c-0.094,0 -0.187,-0.039 -0.254,-0.116c-0.123,-0.142 -0.108,-0.355 0.034,-0.478l2.755,-2.389c0.142,-0.122 0.353,-0.108 0.478,0.034c0.121,0.141 0.107,0.355 -0.034,0.477l-2.756,2.389l-0.223,0.083Z" style="fill:#1a1a1a;fill-rule:nonzero;"/>
        <path d="M115.133,161.933c-0.095,0 -0.189,-0.04 -0.256,-0.117c-0.122,-0.141 -0.106,-0.355 0.034,-0.477l0.903,-0.783c0.141,-0.122 0.353,-0.108 0.477,0.034c0.122,0.141 0.107,0.355 -0.034,0.477l-0.902,0.783l-0.222,0.083Zm-5.512,4.778c-0.095,0 -0.188,-0.039 -0.256,-0.117c-0.122,-0.141 -0.106,-0.355 0.034,-0.477l2.756,-2.389c0.142,-0.123 0.355,-0.108 0.478,0.033c0.122,0.142 0.106,0.355 -0.034,0.477l-2.756,2.39l-0.222,0.083Zm-5.512,4.779c-0.094,0 -0.188,-0.039 -0.255,-0.116c-0.122,-0.141 -0.107,-0.355 0.034,-0.477l2.756,-2.39c0.141,-0.122 0.353,-0.108 0.477,0.034c0.122,0.141 0.107,0.355 -0.034,0.477l-2.756,2.389l-0.222,0.083Z" style="fill:#1a1a1a;fill-rule:nonzero;"/>
    </g>
    <g id="Puzzle">
        <path d="M97.052,46.781l11.99,-5.575c-0,0 -1.152,-3.194 -2.983,-5.094c-0,-0 -1.91,-4.331 2.283,-6.662c4.191,-2.329 6.48,2.368 6.48,2.368c0,-0 1.051,4.799 2.057,5.744l12.106,-5.629l-5.586,-12.014c0,0 3.369,-2.07 5.745,-2.058c0,0 4.687,-2.458 2.286,-6.644c-2.4,-4.187 -6.254,-2.267 -6.254,-2.267c0,0 -3.168,2.704 -5.421,3.132l-5.618,-12.082l-12.168,5.497c-0,0 1.34,3.733 3.13,5.409c-0,-0 1.945,4.756 -2.522,6.552c-4.468,1.796 -6.326,-2.439 -6.326,-2.439c0,0 -0.784,-4.302 -2.06,-5.745l-11.986,5.574l14.847,31.933Z" style="fill:#ffc2cc;fill-rule:nonzero;"/>
        <path d="M115.373,40.169l-0.007,0.003c-0.045,0.02 -0.092,0.029 -0.138,0.028c-0.095,-0 -0.188,-0.041 -0.253,-0.116c-0.009,-0.01 -0.017,-0.021 -0.025,-0.033c-1.517,-2.123 -2.038,-5.366 -2.106,-5.836c-1.07,-2.238 -3.755,-3.206 -6.01,-2.157c-2.254,1.048 -3.245,3.725 -2.223,5.985c0.315,0.355 2.466,2.849 3.109,5.38c0.019,0.076 0.011,0.152 -0.018,0.219c-0.032,0.073 -0.089,0.135 -0.167,0.171l-11.99,5.575c-0.169,0.079 -0.37,0.005 -0.449,-0.165l-1.753,-3.769c-0.079,-0.17 -0.006,-0.37 0.164,-0.449c0.169,-0.079 0.37,-0.006 0.449,0.164l1.61,3.463l11.424,-5.312c-0.728,-2.424 -2.894,-4.837 -2.916,-4.863l-0.056,-0.084c-1.213,-2.608 -0.077,-5.716 2.53,-6.929c2.609,-1.213 5.718,-0.078 6.93,2.53l0.029,0.097c0.004,0.034 0.456,3.245 1.84,5.363l11.54,-5.365l-1.642,-3.532c-0.079,-0.171 -0.006,-0.371 0.163,-0.45c0.169,-0.079 0.371,-0.006 0.45,0.165l1.785,3.838c0.078,0.17 0.005,0.372 -0.164,0.45l-12.106,5.629Zm-15.33,-32.219c-0.01,-0.142 0.07,-0.276 0.205,-0.332l12.098,-5.625c0.168,-0.078 0.37,-0.005 0.449,0.164l5.496,11.822c2.427,-0.727 4.838,-2.892 4.861,-2.915l0.086,-0.057c2.609,-1.213 5.717,-0.077 6.93,2.531c1.213,2.608 0.077,5.717 -2.532,6.93l-0.096,0.028c-0.033,0.006 -3.24,0.453 -5.362,1.841l1.592,3.424c0.079,0.17 0.005,0.371 -0.164,0.449c-0.17,0.079 -0.37,0.006 -0.449,-0.164l-1.713,-3.685c-0.069,-0.147 -0.024,-0.322 0.109,-0.417c2.124,-1.519 5.373,-2.041 5.843,-2.11c2.238,-1.07 3.208,-3.755 2.159,-6.011c-1.049,-2.255 -3.727,-3.245 -5.987,-2.222c-0.356,0.315 -2.843,2.464 -5.379,3.108c-0.158,0.04 -0.321,-0.038 -0.39,-0.186l-5.475,-11.774l-11.542,5.366c0.727,2.423 2.894,4.839 2.917,4.863l0.056,0.084c1.213,2.609 0.078,5.718 -2.531,6.931c-2.608,1.212 -5.717,0.077 -6.93,-2.532l-0.028,-0.097c-0.005,-0.033 -0.456,-3.246 -1.84,-5.363l-11.423,5.311l2.381,5.12c0.079,0.17 0.005,0.372 -0.163,0.45c-0.17,0.079 -0.371,0.005 -0.45,-0.165l-2.523,-5.427c-0.079,-0.169 -0.006,-0.37 0.164,-0.449l11.977,-5.568c0.061,-0.032 0.13,-0.043 0.196,-0.034l0.002,-0c0.017,0.002 0.034,0.006 0.051,0.011c0.07,0.02 0.134,0.064 0.18,0.127c1.521,2.123 2.042,5.373 2.111,5.844c1.07,2.239 3.754,3.206 6.009,2.158c2.255,-1.049 3.246,-3.725 2.224,-5.986c-0.315,-0.355 -2.458,-2.84 -3.106,-5.366c-0.007,-0.025 -0.012,-0.051 -0.013,-0.077Zm-8.374,33.101c-0.17,0.079 -0.37,0.006 -0.449,-0.164l-4.393,-9.448c-0.079,-0.17 -0.006,-0.371 0.163,-0.45c0.169,-0.079 0.371,-0.005 0.449,0.165l4.394,9.448c0.079,0.17 0.004,0.371 -0.164,0.449Z" style="fill:#1a1a1a;fill-rule:nonzero;"/>
    </g>
    <g id="Puzzle1" serif:id="Puzzle">
        <path d="M174.926,177.925l-10.587,-8.135c-2.237,1.755 -3.452,4.852 -3.593,5.224c-1.569,2.013 -4.483,2.387 -6.508,0.829c-0.987,-0.759 -1.619,-1.854 -1.78,-3.088c-0.16,-1.222 0.161,-2.433 0.906,-3.415c0.322,-0.232 3.001,-2.204 4.184,-4.541c-0.062,-0.277 -10.545,-8.333 -10.545,-8.333c-0.098,-0.075 -0.237,-0.056 -0.311,0.041l-21.461,27.922c-0.074,0.098 -0.056,0.237 0.042,0.313l10.484,8.057l0.104,0.04l0.116,-0.013c2.017,-1.784 3.23,-4.879 3.372,-5.252c1.57,-2.013 4.482,-2.387 6.51,-0.828c0.986,0.757 1.618,1.854 1.779,3.086c0.159,1.223 -0.162,2.435 -0.905,3.417c-0.323,0.232 -3.001,2.203 -4.186,4.541c0.063,0.276 10.648,8.412 10.648,8.412l0.135,0.045l0.177,-0.087l8.073,-10.504l0.033,-0.067l0.01,-0.086l-0.021,-0.082c-1.777,-2.005 -4.873,-3.219 -5.245,-3.361c-0.971,-0.756 -1.593,-1.845 -1.754,-3.066c-0.161,-1.234 0.168,-2.456 0.926,-3.443c0.757,-0.985 1.854,-1.617 3.087,-1.779c1.221,-0.161 2.433,0.162 3.415,0.905c0.232,0.323 2.204,3.001 4.541,4.186l0.083,0.023c0.149,-0.046 0.164,-0.057 0.176,-0.071l8.136,-10.577l0.043,-0.164l-0.084,-0.149Z" style="fill:#ffc2cc;fill-rule:nonzero;"/>
        <path d="M156.065,162.129l-9.986,-7.677l-4.765,6.201c-0.115,0.148 -0.327,0.176 -0.475,0.062c-0.148,-0.113 -0.176,-0.326 -0.062,-0.474l4.971,-6.469l0.225,-0.129l0.25,0.067l10.464,8.044c0.061,0.041 0.106,0.1 0.129,0.166l0.004,0.011c0.029,0.09 0.02,0.191 -0.031,0.277c-1.184,2.321 -3.811,4.274 -4.196,4.552c-1.49,1.984 -1.107,4.812 0.864,6.326c0.962,0.74 2.155,1.059 3.356,0.903c1.185,-0.155 2.243,-0.757 2.98,-1.696c0.17,-0.444 1.387,-3.503 3.334,-5.244l0.002,-0.001c0.119,-0.105 0.299,-0.114 0.43,-0.015l10.587,8.137c0.148,0.115 0.176,0.327 0.062,0.475l-8.119,10.563c-0.067,0.087 -0.167,0.132 -0.268,0.132l-0.008,-0.002c-0.049,-0.001 -0.098,-0.013 -0.145,-0.036c-2.328,-1.179 -4.293,-3.822 -4.571,-4.207c-0.955,-0.718 -2.129,-1.03 -3.317,-0.872c-1.202,0.157 -2.272,0.774 -3.01,1.735c-0.739,0.962 -1.06,2.154 -0.902,3.357c0.155,1.185 0.756,2.242 1.696,2.979c0.444,0.17 3.504,1.388 5.243,3.334c0.111,0.125 0.113,0.307 0.015,0.433l-0,0.001l-8.074,10.505c-0.067,0.087 -0.167,0.132 -0.268,0.132l-0.206,-0.07l-10.585,-8.134c-0.138,-0.106 -0.172,-0.296 -0.086,-0.441c1.186,-2.322 3.813,-4.276 4.197,-4.554c0.718,-0.954 1.028,-2.129 0.872,-3.316c-0.158,-1.203 -0.774,-2.271 -1.735,-3.01c-0.962,-0.739 -2.151,-1.062 -3.357,-0.902c-1.185,0.154 -2.242,0.757 -2.979,1.695c-0.17,0.444 -1.381,3.485 -3.318,5.228c-0.029,0.03 -0.064,0.054 -0.101,0.071l-0.004,0.002c-0.112,0.049 -0.244,0.034 -0.342,-0.04l-0.001,-0.001l-10.484,-8.058l-0.129,-0.224l0.066,-0.25l10.88,-14.156c0.116,-0.149 0.326,-0.176 0.475,-0.063c0.148,0.114 0.176,0.326 0.062,0.475l-10.673,13.887l9.988,7.678c1.815,-1.767 2.953,-4.802 2.965,-4.833l0.049,-0.089c0.849,-1.104 2.078,-1.812 3.459,-1.993c1.389,-0.181 2.751,0.188 3.856,1.036c1.104,0.849 1.812,2.077 1.993,3.459c0.182,1.382 -0.186,2.751 -1.035,3.856l-0.073,0.07c-0.028,0.019 -2.667,1.904 -3.906,4.11l10.089,7.754l7.695,-10.011c-1.764,-1.812 -4.801,-2.953 -4.832,-2.964l-0.089,-0.049c-1.106,-0.85 -1.814,-2.078 -1.994,-3.459c-0.181,-1.382 0.187,-2.751 1.036,-3.857c0.849,-1.105 2.078,-1.813 3.459,-1.994c1.387,-0.18 2.752,0.189 3.856,1.036l0.071,0.074c0.018,0.027 1.902,2.667 4.109,3.905l7.737,-10.066l-10.092,-7.757c-1.815,1.767 -2.953,4.802 -2.963,4.834l-0.049,0.088c-0.85,1.105 -2.079,1.813 -3.46,1.994c-0.231,0.03 -0.46,0.045 -0.688,0.045c-1.142,0 -2.247,-0.373 -3.168,-1.081c-2.28,-1.753 -2.711,-5.035 -0.959,-7.315l0.074,-0.071c0.027,-0.019 2.667,-1.902 3.905,-4.109Z" style="fill:#1a1a1a;fill-rule:nonzero;"/>
    </g>
    <path d="M50.212,37.091l-0.239,-0.099l-3.714,-3.715c-0.132,-0.132 -0.132,-0.346 -0,-0.478c0.133,-0.132 0.346,-0.132 0.479,0l3.714,3.714c0.131,0.133 0.131,0.346 -0,0.479l-0.24,0.099Z" style="fill:#1a1a1a;fill-rule:nonzero;"/>
    <path d="M46.499,37.091l-0.24,-0.099c-0.132,-0.133 -0.132,-0.346 -0,-0.479l3.714,-3.714c0.133,-0.132 0.346,-0.132 0.479,0c0.131,0.132 0.131,0.346 -0,0.478l-3.714,3.715l-0.239,0.099Z" style="fill:#1a1a1a;fill-rule:nonzero;"/>
    <path d="M54.62,28.956c-0.399,0 -0.724,0.324 -0.724,0.723c-0,0.399 0.325,0.723 0.724,0.723c0.398,0 0.722,-0.324 0.722,-0.723c-0,-0.399 -0.324,-0.723 -0.722,-0.723Zm-0,2.123c-0.772,0 -1.4,-0.628 -1.4,-1.4c-0,-0.772 0.628,-1.4 1.4,-1.4c0.771,0 1.398,0.628 1.398,1.4c-0,0.772 -0.627,1.4 -1.398,1.4Z" style="fill:#1a1a1a;fill-rule:nonzero;"/>
    <path id="Browser" d="M173.38,48.648c-0,-3.125 -2.537,-5.661 -5.661,-5.661l-148.258,0c-3.124,0 -5.66,2.536 -5.66,5.661l-0,101.893c-0,3.124 2.536,5.66 5.66,5.66l148.258,0c3.124,0 5.661,-2.536 5.661,-5.66l-0,-101.893Z" style="fill:#fff;"/>
    <clipPath id="_clip1">
        <path d="M173.38,48.648c-0,-3.125 -2.537,-5.661 -5.661,-5.661l-148.258,0c-3.124,0 -5.66,2.536 -5.66,5.661l-0,101.893c-0,3.124 2.536,5.66 5.66,5.66l148.258,0c3.124,0 5.661,-2.536 5.661,-5.66l-0,-101.893Z"/>
    </clipPath>
    <g clip-path="url(#_clip1)">
        <rect x="1.5" y="38.494" width="175.396" height="19.722" style="fill:#fff;"/>
        <path d="M177.436,58.755l0,-20.801l-176.475,0l-0,20.801l176.475,0Zm-0.54,-20.261l-175.396,-0l0,19.722l175.396,-0l0,-19.722Z"/>
        <path d="M23.239,48.93c1.029,0 1.864,0.806 1.864,1.797c0,0.991 -0.835,1.798 -1.864,1.798c-1.027,-0 -1.864,-0.807 -1.864,-1.798c0,-0.991 0.837,-1.797 1.864,-1.797Z" style="fill-rule:nonzero;"/>
        <path d="M28.907,48.93c1.029,0 1.864,0.806 1.864,1.797c-0,0.991 -0.835,1.798 -1.864,1.798c-1.027,-0 -1.864,-0.807 -1.864,-1.798c0,-0.991 0.837,-1.797 1.864,-1.797Zm0,0.493c0.752,-0 1.371,0.58 1.371,1.304c0,0.725 -0.619,1.305 -1.371,1.305c-0.75,-0 -1.371,-0.58 -1.371,-1.305c0,-0.724 0.621,-1.304 1.371,-1.304Z"/>
        <path d="M34.575,48.93c1.028,0 1.864,0.806 1.864,1.797c-0,0.991 -0.836,1.798 -1.864,1.798c-1.027,-0 -1.864,-0.807 -1.864,-1.798c0,-0.991 0.837,-1.797 1.864,-1.797Zm-0,0.493c0.752,-0 1.371,0.58 1.371,1.304c-0,0.725 -0.619,1.305 -1.371,1.305c-0.751,-0 -1.371,-0.58 -1.371,-1.305c-0,-0.724 0.62,-1.304 1.371,-1.304Z"/>
    </g>
    <path d="M173.919,48.648c0,-3.422 -2.778,-6.201 -6.2,-6.201l-148.258,0c-3.422,0 -6.2,2.779 -6.2,6.201c-0,-0 -0,101.893 -0,101.893c-0,3.422 2.778,6.2 6.2,6.2c0,-0 148.258,-0 148.258,-0c3.422,-0 6.2,-2.778 6.2,-6.2c0,-0 0,-101.893 0,-101.893Zm-0.539,-0c-0,-3.125 -2.537,-5.661 -5.661,-5.661l-148.258,0c-3.124,0 -5.66,2.536 -5.66,5.661l-0,101.893c-0,3.124 2.536,5.66 5.66,5.66l148.258,0c3.124,0 5.661,-2.536 5.661,-5.66l-0,-101.893Z"/>
    <path d="M83.177,74.6c-0,-3.403 -2.762,-6.165 -6.165,-6.165l-49.32,-0c-3.403,-0 -6.165,2.762 -6.165,6.165l-0,65.213c-0,3.402 2.762,6.165 6.165,6.165l49.32,-0c3.403,-0 6.165,-2.763 6.165,-6.165l-0,-65.213Zm-0.493,-0l0,65.213c0,3.13 -2.541,5.672 -5.672,5.672l-49.32,-0c-3.131,-0 -5.672,-2.542 -5.672,-5.672l-0,-65.213c-0,-3.131 2.541,-5.673 5.672,-5.673c-0,0 49.32,0 49.32,0c3.131,0 5.672,2.542 5.672,5.673Z"/>
    <g>
        <g>
            <path d="M148.863,76.732l-49.279,-0c-0.761,-0 -1.405,-0.615 -1.405,-1.406c-0,-0.761 0.614,-1.405 1.405,-1.405l49.279,-0c0.761,-0 1.406,0.615 1.406,1.405c-0,0.761 -0.645,1.406 -1.406,1.406Z" style="fill-rule:nonzero;"/>
        </g>
        <g>
            <path d="M148.863,84.403l-15.899,0c-0.761,0 -1.406,-0.615 -1.406,-1.405c0,-0.762 0.615,-1.406 1.406,-1.406l15.899,0c0.761,0 1.406,0.615 1.406,1.406c-0,0.79 -0.645,1.405 -1.406,1.405Z" style="fill-rule:nonzero;"/>
        </g>
        <g>
            <path d="M115.483,84.403l-15.899,0c-0.761,0 -1.405,-0.615 -1.405,-1.405c-0,-0.762 0.614,-1.406 1.405,-1.406l15.899,0c0.762,0 1.406,0.615 1.406,1.406c-0,0.79 -0.644,1.405 -1.406,1.405Z" style="fill-rule:nonzero;"/>
        </g>
        <g>
            <path d="M128.133,84.374l-6.676,-0c-0.762,-0 -1.406,-0.615 -1.406,-1.406c0,-0.761 0.615,-1.405 1.406,-1.405l6.676,-0c0.761,-0 1.405,0.615 1.405,1.405c-0.029,0.762 -0.644,1.406 -1.405,1.406Z" style="fill-rule:nonzero;"/>
        </g>
        <g>
            <path d="M148.863,91.87l-49.279,-0c-0.761,-0 -1.405,-0.615 -1.405,-1.406c-0,-0.761 0.614,-1.405 1.405,-1.405l49.279,-0c0.761,-0 1.406,0.615 1.406,1.405c-0,0.791 -0.645,1.406 -1.406,1.406Z" style="fill-rule:nonzero;"/>
        </g>
        <g>
            <path d="M148.805,99.541l-10.512,0c-0.761,0 -1.406,-0.615 -1.406,-1.405c0,-0.762 0.615,-1.406 1.406,-1.406l10.512,0c0.761,0 1.405,0.615 1.405,1.406c-0.029,0.79 -0.644,1.405 -1.405,1.405Z" style="fill-rule:nonzero;"/>
        </g>
        <g>
            <path d="M128.162,99.541l-28.578,0c-0.761,0 -1.405,-0.615 -1.405,-1.405c-0,-0.762 0.614,-1.406 1.405,-1.406l28.578,0c0.761,0 1.405,0.615 1.405,1.406c0,0.79 -0.644,1.405 -1.405,1.405Z" style="fill-rule:nonzero;"/>
        </g>
        <g>
            <path d="M148.512,137.137l-49.279,0c-0.762,0 -1.406,-0.615 -1.406,-1.405c0,-0.761 0.615,-1.406 1.406,-1.406l49.279,0c0.761,0 1.405,0.615 1.405,1.406c-0.029,0.79 -0.644,1.405 -1.405,1.405Z" style="fill-rule:nonzero;"/>
        </g>
        <g>
            <path d="M115.132,129.466l-15.899,-0c-0.762,-0 -1.406,-0.615 -1.406,-1.406c0,-0.761 0.615,-1.405 1.406,-1.405l15.899,-0c0.761,-0 1.405,0.615 1.405,1.405c-0.029,0.762 -0.644,1.406 -1.405,1.406Z" style="fill-rule:nonzero;"/>
        </g>
        <g>
            <path d="M148.512,129.466l-15.9,-0c-0.761,-0 -1.405,-0.615 -1.405,-1.406c0,-0.761 0.615,-1.405 1.405,-1.405l15.9,-0c0.761,-0 1.405,0.615 1.405,1.405c-0.029,0.762 -0.644,1.406 -1.405,1.406Z" style="fill-rule:nonzero;"/>
        </g>
        <g>
            <path d="M126.639,129.495l-6.676,0c-0.761,0 -1.405,-0.615 -1.405,-1.405c-0,-0.762 0.615,-1.406 1.405,-1.406l6.676,0c0.762,0 1.406,0.615 1.406,1.406c-0,0.79 -0.615,1.405 -1.406,1.405Z" style="fill-rule:nonzero;"/>
        </g>
        <g>
            <path d="M148.512,121.999l-49.279,0c-0.762,0 -1.406,-0.615 -1.406,-1.405c0,-0.761 0.615,-1.406 1.406,-1.406l49.279,0c0.761,0 1.405,0.615 1.405,1.406c-0.029,0.79 -0.644,1.405 -1.405,1.405Z" style="fill-rule:nonzero;"/>
        </g>
        <g>
            <path d="M109.803,114.328l-10.512,-0c-0.761,-0 -1.405,-0.615 -1.405,-1.406c-0,-0.761 0.615,-1.405 1.405,-1.405l10.512,-0c0.761,-0 1.405,0.615 1.405,1.405c-0.029,0.762 -0.644,1.406 -1.405,1.406Z" style="fill-rule:nonzero;"/>
        </g>
        <g>
            <path d="M148.512,114.328l-28.578,-0c-0.761,-0 -1.405,-0.615 -1.405,-1.406c-0,-0.761 0.614,-1.405 1.405,-1.405l28.578,-0c0.761,-0 1.405,0.615 1.405,1.405c-0.029,0.791 -0.644,1.406 -1.405,1.406Z" style="fill-rule:nonzero;"/>
        </g>
    </g>
    <g id="Color-palette" serif:id="Color palette">
        <g id="Color-palette1" serif:id="Color palette">
            <path d="M195.628,163.307l-0,6.676c-0,0.516 0.419,0.936 0.935,0.936l7.986,-0c0.517,-0 0.936,-0.42 0.936,-0.936l-0,-6.676c-0,-1.032 -0.84,-1.871 -1.872,-1.871l-6.114,-0c-1.032,-0 -1.871,0.839 -1.871,1.871Z" style="fill:#ff8e00;fill-rule:nonzero;"/>
            <path d="M200.495,161.436l3.118,-0c1.032,-0 1.872,0.839 1.872,1.871l-0,6.676c-0,0.516 -0.419,0.936 -0.936,0.936l-4.054,-0l0,-9.483Z" style="fill:#ff6326;fill-rule:nonzero;"/>
            <path d="M195.628,177.469c-0,0.517 0.419,0.936 0.935,0.936l7.986,0c0.517,0 0.936,-0.419 0.936,-0.936l-0,-8.422l-9.857,0l-0,8.422Z" style="fill:#ffd321;fill-rule:nonzero;"/>
            <path d="M200.495,169.047l4.99,0l-0,8.422c-0,0.517 -0.419,0.936 -0.936,0.936l-4.054,0l0,-9.358Z" style="fill:#ff8e00;fill-rule:nonzero;"/>
            <path d="M195.628,176.534l-0,6.987c-0,0 1.868,-0.014 1.868,1.869l0,0.003l7.053,-0c0.517,-0 0.936,-0.42 0.936,-0.936l-0,-7.923l-9.857,-0Z" style="fill:#fff16b;fill-rule:nonzero;"/>
            <path d="M200.495,185.393l0,-8.859l4.99,-0l-0,7.923c-0,0.516 -0.419,0.936 -0.936,0.936l-4.054,-0Z" style="fill:#ffd321;fill-rule:nonzero;"/>
            <path d="M208.811,164.234l-3.338,5.781c-0.258,0.448 -0.105,1.021 0.343,1.279l6.916,3.993c0.447,0.258 1.02,0.104 1.278,-0.343l3.338,-5.781c0.516,-0.894 0.208,-2.041 -0.685,-2.557l-5.295,-3.057c-0.894,-0.516 -2.041,-0.208 -2.557,0.685Z" style="fill:#bd2e4a;fill-rule:nonzero;"/>
            <path d="M213.962,165.047l2.701,1.559c0.893,0.516 1.201,1.663 0.685,2.557l-3.338,5.781c-0.258,0.448 -0.831,0.601 -1.278,0.343l-3.511,-2.027l4.741,-8.213Z" style="fill:#a3264a;fill-rule:nonzero;"/>
            <path d="M201.73,176.499c-0.258,0.447 -0.105,1.02 0.343,1.278l6.915,3.993c0.448,0.259 1.02,0.105 1.279,-0.342l4.211,-7.294l-8.537,-4.929l-4.211,7.294Z" style="fill:#dc455b;fill-rule:nonzero;"/>
            <path d="M210.157,171.639l4.321,2.495l-4.211,7.294c-0.259,0.447 -0.831,0.6 -1.279,0.342l-3.51,-2.027l4.679,-8.104Z" style="fill:#bd2e4a;fill-rule:nonzero;"/>
            <path d="M198.236,182.55c-0.258,0.448 -0.105,1.02 0.343,1.279l6.916,3.992c0.447,0.259 1.02,0.105 1.278,-0.342l3.962,-6.862l-8.537,-4.928l-3.962,6.861Z" style="fill:#e27a4e;fill-rule:nonzero;"/>
            <path d="M201.984,185.795l4.429,-7.673l4.322,2.495l-3.962,6.862c-0.258,0.447 -0.831,0.601 -1.278,0.342l-3.511,-2.026Z" style="fill:#dc455b;fill-rule:nonzero;"/>
            <path d="M205.485,185.655l-0.134,-0.077l-1.304,-0.753l-1.128,-0.651l-1.13,-0.653l-1.304,-0.753l-1.781,-1.028l-1.028,1.781l-0.753,1.304l-1.295,2.243l-0,4.278l1.203,0.695l1.16,0.669l1.157,0.668l4.219,0l0.772,-1.337l1.212,-2.1l0.134,-0.232l0.691,-1.197l1.064,-1.843l-1.755,-1.014Z" style="fill:#bebcdd;fill-rule:nonzero;"/>
            <path d="M219.772,171.633l-5.781,3.338c-0.447,0.258 -0.601,0.831 -0.343,1.278l3.993,6.916c0.259,0.447 0.831,0.601 1.279,0.342l5.781,-3.337c0.893,-0.516 1.201,-1.663 0.685,-2.557l-3.057,-5.295c-0.516,-0.894 -1.663,-1.201 -2.557,-0.685Z" style="fill:#4793ff;fill-rule:nonzero;"/>
            <path d="M223.827,174.913l1.559,2.7c0.516,0.894 0.208,2.041 -0.685,2.557l-5.781,3.337c-0.448,0.259 -1.02,0.105 -1.279,-0.342l-2.027,-3.511l8.213,-4.741Z" style="fill:#005edf;fill-rule:nonzero;"/>
            <path d="M207.507,178.714c-0.447,0.258 -0.6,0.831 -0.342,1.278l3.993,6.916c0.258,0.448 0.831,0.601 1.278,0.343l7.294,-4.211l-4.929,-8.537l-7.294,4.211Z" style="fill:#8bb9ff;fill-rule:nonzero;"/>
            <path d="M217.235,178.718l2.495,4.322l-7.294,4.211c-0.447,0.258 -1.02,0.105 -1.278,-0.343l-2.027,-3.511l8.104,-4.679Z" style="fill:#4793ff;fill-rule:nonzero;"/>
            <path d="M201.456,182.208c-0.447,0.258 -0.601,0.831 -0.342,1.278l3.992,6.916c0.259,0.447 0.831,0.601 1.279,0.342l6.861,-3.961l-4.928,-8.537l-6.862,3.962Z" style="fill:#b1d5f1;fill-rule:nonzero;"/>
            <path d="M203.079,186.891l7.673,-4.429l2.495,4.321l-6.862,3.961c-0.448,0.259 -1.02,0.105 -1.279,-0.342l-2.027,-3.511Z" style="fill:#8bb9ff;fill-rule:nonzero;"/>
            <path d="M206.176,188.512l-0.691,-1.197l-0.134,-0.232l-0.651,-1.128l-0.653,-1.13l-0.753,-1.304l-1.028,-1.781l-1.781,1.028l-1.304,0.753l-2.258,1.304l-1.295,0.747l-0,4.384l0.535,0.928l0.668,1.157l0.772,1.337l4.219,0l2.317,-1.337l1.212,-0.7l0.134,-0.078l1.71,-0.987l-1.019,-1.764Z" style="fill:#e2dff4;fill-rule:nonzero;"/>
            <path d="M225.699,183.521l-6.676,0c-0.517,0 -0.936,0.419 -0.936,0.936l0,7.986c0,0.516 0.419,0.935 0.936,0.935l6.676,0c1.031,0 1.871,-0.839 1.871,-1.871l0,-6.114c0,-1.032 -0.84,-1.872 -1.871,-1.872Z" style="fill:#5e54ac;fill-rule:nonzero;"/>
            <path d="M227.57,188.389l0,3.118c0,1.032 -0.84,1.871 -1.871,1.871l-6.676,0c-0.517,0 -0.936,-0.419 -0.936,-0.935l0,-4.054l9.483,-0Z" style="fill:#38336b;fill-rule:nonzero;"/>
            <path d="M211.536,183.521c-0.516,0 -0.935,0.419 -0.935,0.936l-0,7.986c-0,0.516 0.419,0.935 0.935,0.935l8.423,0l-0,-9.857l-8.423,0Z" style="fill:#7873d5;fill-rule:nonzero;"/>
            <path d="M219.959,188.389l-0,4.989l-8.423,0c-0.516,0 -0.935,-0.419 -0.935,-0.935l-0,-4.054l9.358,-0Z" style="fill:#5e54ac;fill-rule:nonzero;"/>
            <path d="M204.549,183.521c-0.517,0 -0.936,0.419 -0.936,0.936l0,7.986c0,0.516 0.419,0.935 0.936,0.935l7.923,0l0,-9.857l-7.923,0Z" style="fill:#b7b4e7;fill-rule:nonzero;"/>
            <path d="M203.613,188.389l8.859,-0l0,4.989l-7.923,0c-0.517,0 -0.936,-0.419 -0.936,-0.935l0,-4.054Z" style="fill:#7873d5;fill-rule:nonzero;"/>
            <path d="M205.485,183.521l-9.857,0l-0,8.922c-0,0.516 0.419,0.935 0.935,0.935l8.922,0l-0,-9.857Z" style="fill:#f4f4f6;fill-rule:nonzero;"/>
            <path d="M195.628,188.389l9.857,-0l-0,4.989l-8.922,0c-0.516,0 -0.935,-0.419 -0.935,-0.935l-0,-4.054Z" style="fill:#e2dff4;fill-rule:nonzero;"/>
            <path d="M201.493,188.389c-0,0.03 -0.002,0.06 -0.005,0.091c-0.051,0.487 -0.458,0.843 -0.932,0.843c-0.511,0 -0.935,-0.417 -0.936,-0.934l0,-0.002c0,-0.552 0.482,-0.987 1.029,-0.93c0.466,0.038 0.846,0.449 0.844,0.932Z" style="fill:#0a617d;fill-rule:nonzero;"/>
            <path d="M201.493,188.389c-0,0.03 -0.002,0.06 -0.005,0.091c-0.051,0.487 -0.458,0.843 -0.932,0.843c-0.511,0 -0.935,-0.417 -0.936,-0.934l1.873,-0Z" style="fill:#05303d;fill-rule:nonzero;"/>
        </g>
    </g>
    <g>
        <path d="M149.767,132.368l-0,-34.643c-0,-4.688 3.839,-8.528 8.528,-8.528l62.229,0c4.689,0 8.528,3.84 8.528,8.528l0,34.643c0,4.689 -3.839,8.528 -8.528,8.528l-62.229,0c-4.689,0 -8.528,-3.839 -8.528,-8.528Z" style="fill:#ffce26;fill-rule:nonzero;"/>
        <path d="M161.326,110.911c3.193,-0.894 6.512,0.972 7.407,4.165c0.895,3.194 -0.971,6.513 -4.165,7.408c-3.193,0.894 -6.512,-0.972 -7.407,-4.165c-0.895,-3.194 0.971,-6.513 4.165,-7.408Z" style="fill:#fefefe;"/>
        <path d="M215.213,151.533l-62.229,0c-4.901,0 -8.877,-3.99 -8.877,-8.877l-0,-34.642c-0,-4.902 3.991,-8.877 8.877,-8.877l62.229,-0c4.902,-0 8.877,3.99 8.877,8.877l0,34.642c0,4.902 -3.975,8.877 -8.877,8.877Zm-62.229,-51.683c-4.507,-0 -8.164,3.672 -8.164,8.164l0,34.642c0,4.507 3.672,8.164 8.164,8.164l62.229,0c4.507,0 8.164,-3.672 8.164,-8.164l0,-34.642c0,-4.507 -3.672,-8.164 -8.164,-8.164l-62.229,-0Z" style="fill-rule:nonzero;"/>
        <path d="M160.799,121.412c-3.506,0 -6.374,-2.852 -6.374,-6.373c0,-3.505 2.853,-6.373 6.374,-6.373c3.505,0 6.373,2.853 6.373,6.373c-0.015,3.521 -2.868,6.373 -6.373,6.373Zm-0,-12.018c-3.126,0 -5.66,2.535 -5.66,5.66c-0,3.126 2.534,5.66 5.66,5.66c3.125,0 5.66,-2.534 5.66,-5.66c-0,-3.125 -2.55,-5.66 -5.66,-5.66Z" style="fill-rule:nonzero;"/>
        <path d="M213.62,113.067l-38.269,-0c-0.198,-0 -0.349,-0.152 -0.349,-0.349c-0,-0.198 0.167,-0.349 0.349,-0.349l38.269,-0c0.197,-0 0.349,0.151 0.349,0.349c0.015,0.197 -0.152,0.349 -0.349,0.349Z" style="fill-rule:nonzero;"/>
        <path d="M213.62,128.924l-31.79,-0c-0.197,-0 -0.349,-0.152 -0.349,-0.349c0,-0.198 0.167,-0.349 0.349,-0.349l31.79,-0c0.197,-0 0.349,0.151 0.349,0.349c0.015,0.182 -0.152,0.349 -0.349,0.349Z" style="fill-rule:nonzero;"/>
        <path d="M171.512,128.924l-16.722,-0c-0.198,-0 -0.349,-0.152 -0.349,-0.349c-0,-0.198 0.166,-0.349 0.349,-0.349l16.722,-0c0.197,-0 0.349,0.151 0.349,0.349c-0,0.182 -0.152,0.349 -0.349,0.349Z" style="fill-rule:nonzero;"/>
    </g>
    <g>
        <g>
            <g>
                <g>
                    <path d="M72.31,75.921l-40.138,-0c-2.215,0.002 -4.011,1.798 -4.013,4.013l-0,25.688c0.002,2.216 1.798,4.011 4.013,4.014l40.138,-0c0.225,0.001 0.45,-0.019 0.671,-0.059c1.932,-0.323 3.346,-1.996 3.342,-3.955l0,-25.688c-0.002,-2.215 -1.798,-4.011 -4.013,-4.013Zm-40.138,32.109c-1.247,0 -2.288,-0.953 -2.398,-2.196l16.005,-10.465l16.276,12.661l-29.883,0Zm42.546,-2.408c0.001,1.178 -0.852,2.184 -2.015,2.374c-0.13,0.023 -0.262,0.035 -0.393,0.034l-7.64,0l-10.636,-8.277l9.511,-7.605l11.173,6.704l-0,6.77Zm-0,-8.642l-10.825,-6.495c-0.288,-0.173 -0.653,-0.149 -0.915,0.061l-10.249,8.196l-6.418,-4.992c-0.27,-0.21 -0.644,-0.225 -0.931,-0.038l-15.616,10.21l0,-23.988c0,-1.33 1.078,-2.408 2.408,-2.408l40.138,0c1.33,0 2.408,1.078 2.408,2.408l-0,17.046Z" style="fill-rule:nonzero;"/>
                    <path d="M52.241,80.737c-2.66,0 -4.816,2.156 -4.816,4.817c0.002,2.659 2.157,4.813 4.816,4.816c2.66,0 4.816,-2.156 4.816,-4.816c0,-2.661 -2.156,-4.817 -4.816,-4.817Zm0,8.028c-1.773,-0 -3.211,-1.438 -3.211,-3.211c0,-1.774 1.438,-3.211 3.211,-3.211c1.773,-0 3.211,1.437 3.211,3.211c-0,1.773 -1.438,3.211 -3.211,3.211Z" style="fill-rule:nonzero;"/>
                </g>
            </g>
        </g>
    </g>
    <g id="Type">
        <path d="M68.706,129.206c-0,-3.978 -3.229,-7.207 -7.207,-7.207l-14.412,0c-3.977,0 -7.206,3.229 -7.206,7.207l-0,14.412c-0,3.977 3.229,7.206 7.206,7.206l14.412,0c3.978,0 7.207,-3.229 7.207,-7.206l-0,-14.412Z" style="fill:#2150f6;"/>
        <path d="M50.851,139.339l-3.378,0l-0.773,1.532l-3.335,-0l5.482,-10.134l3.664,0l1.918,10.134l-3.349,-0l-0.229,-1.532Zm-0.358,-2.39l-0.415,-2.82l-1.417,2.82l1.832,-0Z" style="fill:#fff;fill-rule:nonzero;"/>
        <path d="M58.251,140.971c-0.812,-0 -1.465,-0.289 -1.961,-0.866c-0.496,-0.577 -0.745,-1.376 -0.745,-2.397c0,-0.382 0.034,-0.769 0.101,-1.16c0.143,-0.792 0.408,-1.479 0.794,-2.061c0.386,-0.582 0.854,-1.026 1.403,-1.331c0.548,-0.305 1.123,-0.458 1.724,-0.458c0.563,0 1.031,0.107 1.403,0.322c0.372,0.215 0.625,0.508 0.759,0.88l0.2,-1.102l3.163,0l-1.403,7.93c-0.21,1.183 -0.703,2.163 -1.481,2.941c-0.778,0.777 -1.853,1.166 -3.228,1.166c-1.269,0 -2.239,-0.3 -2.912,-0.901c-0.673,-0.602 -1.009,-1.427 -1.009,-2.476l3.12,-0c0.019,0.419 0.324,0.629 0.916,0.629c0.372,0 0.68,-0.095 0.923,-0.286c0.243,-0.191 0.413,-0.549 0.508,-1.073l0.172,-0.959c-0.267,0.372 -0.611,0.665 -1.03,0.88c-0.42,0.215 -0.893,0.322 -1.417,0.322Zm2.032,-5.496c-0.344,-0 -0.647,0.119 -0.909,0.358c-0.262,0.238 -0.432,0.572 -0.508,1.001c-0.019,0.086 -0.029,0.201 -0.029,0.344c0,0.324 0.086,0.575 0.258,0.751c0.172,0.177 0.406,0.265 0.701,0.265c0.344,0 0.647,-0.119 0.909,-0.358c0.263,-0.238 0.432,-0.572 0.508,-1.002c0.019,-0.085 0.029,-0.2 0.029,-0.343c-0,-0.324 -0.086,-0.575 -0.258,-0.751c-0.171,-0.177 -0.405,-0.265 -0.701,-0.265Z" style="fill:#fff;fill-rule:nonzero;"/>
    </g>
    <g id="color-palette" serif:id="color palette">
        <g>
            <path d="M168.714,16.791c-0,-1.367 -1.11,-2.477 -2.477,-2.477l-4.952,0c-1.367,0 -2.476,1.11 -2.476,2.477l-0,4.952c-0,1.367 1.109,2.476 2.476,2.476l4.952,0c1.367,0 2.477,-1.109 2.477,-2.476l-0,-4.952Z" style="fill:#ffab4a;"/>
            <path d="M182.775,16.791c0,-1.367 -1.109,-2.477 -2.476,-2.477l-4.952,0c-1.367,0 -2.477,1.11 -2.477,2.477l0,4.952c0,1.367 1.11,2.476 2.477,2.476l4.952,0c1.367,0 2.476,-1.109 2.476,-2.476l0,-4.952Z" style="fill:#8964ce;"/>
            <path d="M196.837,16.791c0,-1.367 -1.109,-2.477 -2.476,-2.477l-4.953,0c-1.366,0 -2.476,1.11 -2.476,2.477l0,4.952c0,1.367 1.11,2.476 2.476,2.476l4.953,0c1.367,0 2.476,-1.109 2.476,-2.476l0,-4.952Z" style="fill:#ffc2cc;"/>
            <path d="M210.899,16.791c-0,-1.367 -1.11,-2.477 -2.476,-2.477l-4.953,0c-1.367,0 -2.476,1.11 -2.476,2.477l-0,4.952c-0,1.367 1.109,2.476 2.476,2.476l4.953,0c1.366,0 2.476,-1.109 2.476,-2.476l-0,-4.952Z" style="fill:#2150f6;"/>
        </g>
    </g>
    <g>
        <path d="M31.306,19.267c0,2.735 -2.216,4.952 -4.951,4.952c-2.735,0 -4.951,-2.217 -4.951,-4.952c-0,-2.735 2.216,-4.953 4.951,-4.953c2.735,0 4.951,2.218 4.951,4.953Z" style="fill:#7367ae;fill-rule:nonzero;"/>
        <rect x="23.846" y="18.781" width="5.018" height="0.971" style="fill:#fff;fill-rule:nonzero;"/>
        <rect x="25.871" y="16.758" width="0.969" height="5.018" style="fill:#fff;fill-rule:nonzero;"/>
    </g>
    <path d="M166.255,47.724c-0.824,-0.824 -1.92,-1.278 -3.085,-1.278c-1.165,0 -2.26,0.454 -3.084,1.278c-0.824,0.824 -1.277,1.919 -1.277,3.084c-0,1.165 0.453,2.26 1.277,3.084c0.824,0.824 1.919,1.278 3.084,1.278c1.165,-0 2.261,-0.454 3.085,-1.278c0.823,-0.824 1.277,-1.919 1.277,-3.084c0,-1.165 -0.454,-2.26 -1.277,-3.084Zm-5.553,6.037c0.144,-1.24 1.209,-2.196 2.468,-2.196c0.664,-0 1.288,0.258 1.758,0.728c0.397,0.396 0.647,0.914 0.711,1.468c-0.669,0.56 -1.53,0.898 -2.469,0.898c-0.938,-0 -1.799,-0.338 -2.468,-0.898Zm2.468,-2.723c-0.73,0 -1.324,-0.594 -1.324,-1.325c-0,-0.73 0.594,-1.324 1.324,-1.324c0.731,-0 1.325,0.594 1.325,1.324c0,0.731 -0.594,1.325 -1.325,1.325Zm2.909,2.291c-0.13,-0.526 -0.402,-1.01 -0.79,-1.398c-0.314,-0.314 -0.685,-0.549 -1.091,-0.697c0.488,-0.331 0.808,-0.889 0.808,-1.521c0,-1.012 -0.823,-1.835 -1.836,-1.835c-1.012,-0 -1.835,0.823 -1.835,1.835c-0,0.632 0.321,1.191 0.808,1.521c-0.373,0.136 -0.718,0.346 -1.015,0.623c-0.43,0.4 -0.728,0.911 -0.867,1.471c-0.586,-0.676 -0.941,-1.557 -0.941,-2.52c-0,-2.123 1.727,-3.851 3.85,-3.851c2.124,0 3.851,1.728 3.851,3.851c-0,0.963 -0.355,1.845 -0.942,2.521Z" style="fill-rule:nonzero;"/>
</svg>
