<?xml version="1.0" encoding="UTF-8" standalone="no"?>
<!DOCTYPE svg PUBLIC "-//W3C//DTD SVG 1.1//EN" "http://www.w3.org/Graphics/SVG/1.1/DTD/svg11.dtd">
<svg width="100%" height="100%" viewBox="0 0 243 213" version="1.1" xmlns="http://www.w3.org/2000/svg" xmlns:xlink="http://www.w3.org/1999/xlink" xml:space="preserve" style="fill-rule:evenodd;clip-rule:evenodd;stroke-linecap:round;stroke-miterlimit:1.5;">
    <g>
        <path d="M233.877,48.421c0,3.466 -2.81,6.275 -6.275,6.275c-3.465,0 -6.275,-2.809 -6.275,-6.275c0,-3.466 2.81,-6.275 6.275,-6.275c3.465,0 6.275,2.809 6.275,6.275Z" style="fill:#8964ce;fill-rule:nonzero;"/>
        <path d="M192.109,81.267c0,2.285 -1.852,4.139 -4.138,4.139c-2.286,0 -4.139,-1.854 -4.139,-4.139c0,-2.286 1.853,-4.14 4.139,-4.14c2.286,0 4.138,1.854 4.138,4.14Z" style="fill:#8964ce;fill-rule:nonzero;"/>
        <path d="M186.664,75.926c-0.549,0 -1.083,0.115 -1.588,0.342c-0.947,0.425 -1.673,1.193 -2.042,2.164c-0.369,0.971 -0.339,2.027 0.086,2.974c0.627,1.396 2.021,2.298 3.55,2.298c0.549,0 1.084,-0.116 1.589,-0.342c0.947,-0.425 1.672,-1.194 2.042,-2.164c0.369,-0.971 0.338,-2.027 -0.087,-2.974c-0.626,-1.396 -2.02,-2.298 -3.55,-2.298Zm0.006,8.454c-1.796,0 -3.432,-1.059 -4.167,-2.697c-0.499,-1.112 -0.535,-2.352 -0.101,-3.492c0.434,-1.139 1.285,-2.041 2.397,-2.54c0.593,-0.266 1.221,-0.401 1.865,-0.401c1.797,0 3.433,1.059 4.167,2.697c0.499,1.112 0.535,2.352 0.102,3.491c-0.434,1.14 -1.285,2.042 -2.397,2.541c-0.594,0.266 -1.22,0.401 -1.866,0.401Z" style="fill-rule:nonzero;"/>
        <path d="M223.711,41.584c-0.843,0 -1.663,0.177 -2.438,0.525c-1.455,0.652 -2.568,1.832 -3.135,3.322c-0.567,1.489 -0.52,3.11 0.133,4.564c0.962,2.143 3.1,3.526 5.448,3.526c0.843,0 1.663,-0.176 2.439,-0.524c3.001,-1.347 4.348,-4.885 3.001,-7.886c-0.961,-2.142 -3.099,-3.527 -5.448,-3.527Zm0.008,12.55c-2.589,0 -4.946,-1.526 -6.007,-3.888c-0.72,-1.604 -0.771,-3.391 -0.146,-5.033c0.625,-1.643 1.852,-2.944 3.457,-3.663c0.854,-0.384 1.758,-0.578 2.688,-0.578c2.59,0 4.947,1.526 6.007,3.888c1.484,3.31 0,7.211 -3.31,8.696c-0.854,0.383 -1.759,0.578 -2.689,0.578Z" style="fill-rule:nonzero;"/>
        <path d="M177.869,70.525c-0.092,0 -0.182,-0.037 -0.249,-0.11l-2.467,-2.687c-0.126,-0.137 -0.117,-0.352 0.021,-0.478c0.137,-0.126 0.351,-0.117 0.477,0.021l2.467,2.687c0.126,0.137 0.117,0.351 -0.02,0.477l-0.229,0.09Zm4.934,5.373c-0.092,0 -0.183,-0.037 -0.249,-0.109l-2.467,-2.688c-0.126,-0.137 -0.117,-0.351 0.021,-0.477c0.136,-0.126 0.352,-0.118 0.477,0.02l2.467,2.687c0.126,0.138 0.117,0.352 -0.021,0.478l-0.228,0.089Z" style="fill-rule:nonzero;"/>
        <path d="M217.213,53.269c-0.095,0 -0.188,-0.039 -0.256,-0.116c-0.122,-0.141 -0.106,-0.355 0.034,-0.477l1.691,-1.466c0.141,-0.123 0.353,-0.108 0.477,0.034c0.122,0.141 0.107,0.355 -0.034,0.477l-1.69,1.465l-0.222,0.083Zm-5.512,4.779c-0.094,0 -0.188,-0.039 -0.256,-0.116c-0.122,-0.142 -0.106,-0.355 0.035,-0.478l2.755,-2.389c0.142,-0.121 0.354,-0.108 0.478,0.034c0.122,0.141 0.106,0.355 -0.034,0.477l-2.756,2.389l-0.222,0.083Zm-5.51,4.78c-0.095,0 -0.189,-0.04 -0.256,-0.117c-0.122,-0.141 -0.107,-0.355 0.034,-0.477l2.755,-2.39c0.141,-0.122 0.353,-0.107 0.477,0.034c0.122,0.141 0.107,0.355 -0.034,0.477l-2.755,2.39l-0.221,0.083Zm-5.512,4.779c-0.095,0 -0.189,-0.04 -0.256,-0.117c-0.122,-0.141 -0.106,-0.355 0.034,-0.477l2.756,-2.39c0.143,-0.122 0.354,-0.107 0.478,0.034c0.122,0.141 0.106,0.355 -0.035,0.477l-2.756,2.39l-0.221,0.083Zm-5.512,4.779c-0.095,0 -0.188,-0.04 -0.256,-0.117c-0.122,-0.141 -0.106,-0.355 0.034,-0.477l2.756,-2.389c0.142,-0.123 0.354,-0.108 0.478,0.033c0.122,0.142 0.106,0.355 -0.034,0.477l-2.756,2.39l-0.222,0.083Zm-5.512,4.779c-0.094,0 -0.188,-0.04 -0.255,-0.117c-0.123,-0.141 -0.107,-0.355 0.034,-0.477l2.756,-2.389c0.141,-0.123 0.354,-0.108 0.477,0.033c0.122,0.141 0.107,0.355 -0.034,0.477l-2.756,2.39l-0.222,0.083Z" style="fill-rule:nonzero;"/>
        <path d="M217.441,88.031c-0.399,0 -0.724,0.324 -0.724,0.723c0,0.398 0.325,0.722 0.724,0.722c0.398,0 0.722,-0.324 0.722,-0.722c0,-0.399 -0.324,-0.723 -0.722,-0.723Zm0,2.122c-0.772,0 -1.4,-0.628 -1.4,-1.399c0,-0.772 0.628,-1.4 1.4,-1.4c0.771,0 1.398,0.628 1.398,1.4c0,0.771 -0.627,1.399 -1.398,1.399Z" style="fill:#1a1a1a;fill-rule:nonzero;"/>
    </g>
    <g>
        <path d="M82.149,147.505c-0,3.466 -2.81,6.275 -6.274,6.275c-3.465,-0 -6.275,-2.809 -6.275,-6.275c-0,-3.465 2.81,-6.274 6.275,-6.274c3.464,-0 6.274,2.809 6.274,6.274Z" style="fill:#8964ce;fill-rule:nonzero;"/>
        <path d="M104.285,169.669c-0,2.285 -1.854,4.139 -4.139,4.139c-2.286,-0 -4.139,-1.854 -4.139,-4.139c-0,-2.286 1.853,-4.14 4.139,-4.14c2.285,-0 4.139,1.854 4.139,4.14Z" style="fill:#8964ce;fill-rule:nonzero;"/>
        <path d="M17.003,198.681c-0,2.286 -1.852,4.138 -4.137,4.138c-2.286,-0 -4.139,-1.852 -4.139,-4.138c-0,-2.285 1.853,-4.139 4.139,-4.139c2.285,-0 4.137,1.854 4.137,4.139Z" style="fill:#8964ce;fill-rule:nonzero;"/>
        <path d="M14.014,193.483c-0.549,-0 -1.084,0.116 -1.589,0.342c-0.948,0.425 -1.673,1.194 -2.042,2.164c-0.37,0.971 -0.339,2.027 0.086,2.974c0.626,1.395 2.019,2.298 3.549,2.298c0.549,-0 1.084,-0.115 1.589,-0.342c1.956,-0.878 2.832,-3.183 1.956,-5.139c-0.626,-1.395 -2.019,-2.297 -3.549,-2.297Zm0.004,8.454c-1.796,-0 -3.431,-1.059 -4.166,-2.697c-0.499,-1.112 -0.535,-2.352 -0.102,-3.491c0.434,-1.14 1.286,-2.042 2.398,-2.541c0.594,-0.266 1.222,-0.401 1.866,-0.401c1.796,-0 3.432,1.059 4.166,2.697c1.029,2.296 -0,5.002 -2.296,6.032c-0.593,0.266 -1.22,0.401 -1.866,0.401Z" style="fill-rule:nonzero;"/>
        <path d="M99.215,167.204c-0.549,-0 -1.084,0.115 -1.589,0.342c-1.955,0.877 -2.832,3.183 -1.955,5.139c0.626,1.395 2.019,2.297 3.549,2.297c0.549,-0 1.084,-0.116 1.589,-0.342c0.947,-0.425 1.673,-1.194 2.042,-2.164c0.369,-0.971 0.339,-2.027 -0.087,-2.974c-0.626,-1.396 -2.018,-2.298 -3.549,-2.298Zm0.005,8.454c-1.796,-0 -3.43,-1.059 -4.166,-2.696c-1.03,-2.297 -0,-5.003 2.295,-6.033c0.594,-0.266 1.222,-0.401 1.866,-0.401c1.796,-0 3.432,1.059 4.166,2.697c0.499,1.112 0.535,2.352 0.102,3.491c-0.434,1.14 -1.284,2.042 -2.397,2.541c-0.593,0.266 -1.22,0.401 -1.866,0.401Z" style="fill-rule:nonzero;"/>
        <path d="M74.056,139.842c-0.843,-0 -1.663,0.177 -2.439,0.525c-1.454,0.652 -2.568,1.832 -3.134,3.322c-0.567,1.489 -0.52,3.11 0.133,4.564c0.961,2.143 3.098,3.526 5.447,3.526c0.843,-0 1.664,-0.176 2.44,-0.524c1.454,-0.652 2.567,-1.832 3.133,-3.321c0.568,-1.49 0.52,-3.111 -0.133,-4.565c-0.96,-2.142 -3.098,-3.527 -5.447,-3.527Zm0.007,12.55c-2.589,-0 -4.946,-1.526 -6.006,-3.888c-0.72,-1.603 -0.771,-3.391 -0.146,-5.033c0.625,-1.643 1.852,-2.944 3.456,-3.663c0.854,-0.383 1.759,-0.578 2.689,-0.578c2.59,-0 4.947,1.526 6.006,3.888c0.72,1.603 0.771,3.391 0.146,5.033c-0.625,1.642 -1.851,2.943 -3.455,3.663c-0.855,0.383 -1.76,0.578 -2.69,0.578Z" style="fill:#1a1a1a;fill-rule:nonzero;"/>
        <path d="M81.105,153.127c-0.092,-0 -0.183,-0.038 -0.249,-0.11l-2.467,-2.687c-0.126,-0.138 -0.117,-0.352 0.021,-0.478c0.136,-0.126 0.351,-0.117 0.477,0.021l2.467,2.687c0.126,0.137 0.117,0.351 -0.021,0.477l-0.228,0.09Zm4.934,5.374c-0.092,-0 -0.183,-0.038 -0.249,-0.11l-2.467,-2.687c-0.126,-0.138 -0.117,-0.352 0.02,-0.478c0.137,-0.126 0.352,-0.117 0.478,0.021l2.467,2.687c0.126,0.137 0.117,0.351 -0.021,0.477l-0.228,0.09Zm4.933,5.373c-0.092,-0 -0.182,-0.037 -0.249,-0.11l-2.467,-2.687c-0.126,-0.137 -0.117,-0.351 0.021,-0.477c0.137,-0.126 0.351,-0.118 0.477,0.02l2.467,2.687c0.126,0.137 0.117,0.351 -0.02,0.477l-0.229,0.09Zm4.754,5.178c-0.092,-0 -0.183,-0.037 -0.249,-0.11l-2.287,-2.491c-0.126,-0.137 -0.117,-0.352 0.02,-0.478c0.136,-0.126 0.352,-0.117 0.478,0.021l2.287,2.491c0.126,0.138 0.117,0.352 -0.02,0.478l-0.229,0.089Z" style="fill-rule:nonzero;"/>
        <path d="M66.609,151.71c-0.095,-0 -0.189,-0.04 -0.256,-0.117c-0.122,-0.141 -0.106,-0.355 0.034,-0.477l2.294,-1.989c0.143,-0.123 0.355,-0.108 0.478,0.033c0.122,0.141 0.106,0.355 -0.034,0.477l-2.294,1.99l-0.222,0.083Zm-5.512,4.779c-0.095,-0 -0.188,-0.04 -0.256,-0.117c-0.122,-0.141 -0.106,-0.355 0.034,-0.477l2.756,-2.39c0.142,-0.122 0.355,-0.108 0.478,0.034c0.122,0.141 0.106,0.355 -0.034,0.477l-2.756,2.39l-0.222,0.083Zm-5.512,4.779c-0.094,-0 -0.188,-0.04 -0.255,-0.117c-0.122,-0.141 -0.107,-0.355 0.034,-0.477l2.756,-2.389c0.141,-0.122 0.353,-0.108 0.477,0.033c0.122,0.142 0.107,0.355 -0.034,0.477l-2.756,2.39l-0.222,0.083Zm-5.511,4.779c-0.095,-0 -0.189,-0.04 -0.256,-0.117c-0.122,-0.141 -0.107,-0.355 0.034,-0.477l2.756,-2.389c0.142,-0.123 0.353,-0.108 0.477,0.033c0.123,0.141 0.107,0.355 -0.034,0.477l-2.756,2.39l-0.221,0.083Zm-5.512,4.779c-0.095,-0 -0.188,-0.039 -0.256,-0.116c-0.122,-0.142 -0.106,-0.355 0.034,-0.478l2.756,-2.389c0.142,-0.122 0.355,-0.108 0.478,0.034c0.122,0.141 0.106,0.355 -0.034,0.477l-2.756,2.389l-0.222,0.083Zm-5.512,4.78c-0.094,-0 -0.188,-0.04 -0.256,-0.117c-0.122,-0.141 -0.106,-0.355 0.035,-0.477l2.755,-2.39c0.142,-0.122 0.354,-0.108 0.478,0.034c0.122,0.141 0.106,0.355 -0.034,0.477l-2.756,2.39l-0.222,0.083Zm-5.51,4.778c-0.095,-0 -0.189,-0.039 -0.256,-0.116c-0.122,-0.141 -0.107,-0.355 0.034,-0.477l2.755,-2.39c0.141,-0.122 0.353,-0.108 0.477,0.034c0.122,0.141 0.107,0.355 -0.034,0.477l-2.755,2.389l-0.221,0.083Zm-5.512,4.78c-0.095,-0 -0.189,-0.04 -0.256,-0.117c-0.122,-0.141 -0.106,-0.355 0.034,-0.477l2.756,-2.39c0.142,-0.122 0.354,-0.108 0.478,0.034c0.122,0.141 0.106,0.355 -0.035,0.477l-2.755,2.39l-0.222,0.083Zm-5.512,4.779c-0.095,-0 -0.188,-0.04 -0.256,-0.117c-0.122,-0.141 -0.106,-0.355 0.034,-0.477l2.756,-2.389c0.143,-0.123 0.355,-0.108 0.478,0.033c0.122,0.141 0.106,0.355 -0.034,0.477l-2.756,2.39l-0.222,0.083Zm-5.513,4.779c-0.094,-0 -0.187,-0.039 -0.254,-0.116c-0.123,-0.142 -0.108,-0.355 0.034,-0.478l2.755,-2.389c0.142,-0.122 0.353,-0.108 0.478,0.034c0.121,0.141 0.107,0.355 -0.034,0.477l-2.756,2.389l-0.223,0.083Z" style="fill-rule:nonzero;"/>
        <path d="M113.442,159.115c-0.095,-0 -0.189,-0.04 -0.256,-0.117c-0.122,-0.141 -0.106,-0.355 0.034,-0.477l0.903,-0.783c0.141,-0.122 0.353,-0.108 0.477,0.034c0.122,0.141 0.107,0.355 -0.034,0.477l-0.902,0.783l-0.222,0.083Zm-5.512,4.778c-0.095,-0 -0.188,-0.039 -0.256,-0.117c-0.122,-0.141 -0.106,-0.355 0.034,-0.477l2.756,-2.389c0.142,-0.123 0.355,-0.108 0.478,0.033c0.122,0.142 0.106,0.355 -0.034,0.477l-2.756,2.39l-0.222,0.083Zm-5.512,4.779c-0.094,-0 -0.188,-0.039 -0.255,-0.116c-0.122,-0.141 -0.107,-0.355 0.034,-0.477l2.756,-2.39c0.141,-0.122 0.353,-0.108 0.477,0.034c0.122,0.141 0.107,0.355 -0.034,0.477l-2.756,2.389l-0.222,0.083Z" style="fill-rule:nonzero;"/>
    </g>
    <g id="Puzzle">
        <path d="M97.052,46.781l11.99,-5.575c-0,0 -1.152,-3.194 -2.983,-5.094c-0,-0 -1.91,-4.331 2.283,-6.662c4.191,-2.329 6.48,2.368 6.48,2.368c0,-0 1.051,4.799 2.057,5.744l12.106,-5.629l-5.586,-12.014c0,0 3.369,-2.07 5.745,-2.058c0,0 4.687,-2.458 2.286,-6.644c-2.4,-4.187 -6.254,-2.267 -6.254,-2.267c0,0 -3.168,2.704 -5.421,3.132l-5.618,-12.082l-12.168,5.497c-0,0 1.34,3.733 3.13,5.409c-0,-0 1.945,4.756 -2.522,6.552c-4.468,1.796 -6.326,-2.439 -6.326,-2.439c0,0 -0.784,-4.302 -2.06,-5.745l-11.986,5.574l14.847,31.933Z" style="fill:#ffc2cc;fill-rule:nonzero;"/>
        <path d="M115.373,40.169l-0.007,0.003c-0.045,0.02 -0.092,0.029 -0.138,0.028c-0.095,-0 -0.188,-0.041 -0.253,-0.116c-0.009,-0.01 -0.017,-0.021 -0.025,-0.033c-1.517,-2.123 -2.038,-5.366 -2.106,-5.836c-1.07,-2.238 -3.755,-3.206 -6.01,-2.157c-2.254,1.048 -3.245,3.725 -2.223,5.985c0.315,0.355 2.466,2.849 3.109,5.38c0.019,0.076 0.011,0.152 -0.018,0.219c-0.032,0.073 -0.089,0.135 -0.167,0.171l-11.99,5.575c-0.169,0.079 -0.37,0.005 -0.449,-0.165l-1.753,-3.769c-0.079,-0.17 -0.006,-0.37 0.164,-0.449c0.169,-0.079 0.37,-0.006 0.449,0.164l1.61,3.463l11.424,-5.312c-0.728,-2.424 -2.894,-4.837 -2.916,-4.863l-0.056,-0.084c-1.213,-2.608 -0.077,-5.716 2.53,-6.929c2.609,-1.213 5.718,-0.078 6.93,2.53l0.029,0.097c0.004,0.034 0.456,3.245 1.84,5.363l11.54,-5.365l-1.642,-3.532c-0.079,-0.171 -0.006,-0.371 0.163,-0.45c0.169,-0.079 0.371,-0.006 0.45,0.165l1.785,3.838c0.078,0.17 0.005,0.372 -0.164,0.45l-12.106,5.629Zm-15.33,-32.219c-0.01,-0.142 0.07,-0.276 0.205,-0.332l12.098,-5.625c0.168,-0.078 0.37,-0.005 0.449,0.164l5.496,11.822c2.427,-0.727 4.838,-2.892 4.861,-2.915l0.086,-0.057c2.609,-1.213 5.717,-0.077 6.93,2.531c1.213,2.608 0.077,5.717 -2.532,6.93l-0.096,0.028c-0.033,0.006 -3.24,0.453 -5.362,1.841l1.592,3.424c0.079,0.17 0.005,0.371 -0.164,0.449c-0.17,0.079 -0.37,0.006 -0.449,-0.164l-1.713,-3.685c-0.069,-0.147 -0.024,-0.322 0.109,-0.417c2.124,-1.519 5.373,-2.041 5.843,-2.11c2.238,-1.07 3.208,-3.755 2.159,-6.011c-1.049,-2.255 -3.727,-3.245 -5.987,-2.222c-0.356,0.315 -2.843,2.464 -5.379,3.108c-0.158,0.04 -0.321,-0.038 -0.39,-0.186l-5.475,-11.774l-11.542,5.366c0.727,2.423 2.894,4.839 2.917,4.863l0.056,0.084c1.213,2.609 0.078,5.718 -2.531,6.931c-2.608,1.212 -5.717,0.077 -6.93,-2.532l-0.028,-0.097c-0.005,-0.033 -0.456,-3.246 -1.84,-5.363l-11.423,5.311l2.381,5.12c0.079,0.17 0.005,0.372 -0.163,0.45c-0.17,0.079 -0.371,0.005 -0.45,-0.165l-2.523,-5.427c-0.079,-0.169 -0.006,-0.37 0.164,-0.449l11.977,-5.568c0.061,-0.032 0.13,-0.043 0.196,-0.034l0.002,-0c0.017,0.002 0.034,0.006 0.051,0.011c0.07,0.02 0.134,0.064 0.18,0.127c1.521,2.123 2.042,5.373 2.111,5.844c1.07,2.239 3.754,3.206 6.009,2.158c2.255,-1.049 3.246,-3.725 2.224,-5.986c-0.315,-0.355 -2.458,-2.84 -3.106,-5.366c-0.007,-0.025 -0.012,-0.051 -0.013,-0.077Zm-8.374,33.101c-0.17,0.079 -0.37,0.006 -0.449,-0.164l-4.393,-9.448c-0.079,-0.17 -0.006,-0.371 0.163,-0.45c0.169,-0.079 0.371,-0.005 0.449,0.165l4.394,9.448c0.079,0.17 0.004,0.371 -0.164,0.449Z" style="fill:#1a1a1a;fill-rule:nonzero;"/>
    </g>
    <g id="Puzzle1">
        <path d="M189.233,174.624l-10.587,-8.135c-2.237,1.755 -3.452,4.852 -3.593,5.224c-1.569,2.013 -4.483,2.387 -6.508,0.829c-0.987,-0.759 -1.619,-1.854 -1.78,-3.088c-0.16,-1.222 0.161,-2.433 0.906,-3.415c0.322,-0.232 3.001,-2.204 4.184,-4.541c-0.062,-0.277 -10.545,-8.333 -10.545,-8.333c-0.098,-0.075 -0.237,-0.056 -0.311,0.041l-21.461,27.922c-0.074,0.098 -0.056,0.237 0.042,0.313l10.484,8.057l0.104,0.04l0.116,-0.013c2.017,-1.784 3.23,-4.879 3.372,-5.252c1.57,-2.013 4.482,-2.387 6.51,-0.828c0.986,0.757 1.618,1.854 1.779,3.086c0.159,1.223 -0.162,2.435 -0.905,3.417c-0.323,0.232 -3.001,2.203 -4.186,4.541c0.063,0.276 10.648,8.412 10.648,8.412l0.135,0.045l0.177,-0.087l8.073,-10.504l0.033,-0.067l0.01,-0.086l-0.021,-0.082c-1.777,-2.005 -4.873,-3.219 -5.245,-3.361c-0.971,-0.756 -1.593,-1.845 -1.754,-3.066c-0.161,-1.234 0.168,-2.456 0.926,-3.443c0.757,-0.985 1.854,-1.617 3.087,-1.779c1.221,-0.161 2.433,0.162 3.415,0.905c0.232,0.323 2.204,3.001 4.541,4.186l0.083,0.023c0.149,-0.046 0.164,-0.057 0.176,-0.071l8.136,-10.577l0.043,-0.164l-0.084,-0.149Z" style="fill:#ffc2cc;fill-rule:nonzero;"/>
        <path d="M170.373,158.828l-9.987,-7.677l-4.765,6.201c-0.115,0.148 -0.651,-0.264 -0.537,-0.412l4.971,-6.469l0.225,-0.129l0.25,0.067l10.465,8.044c0.061,0.041 0.105,0.1 0.129,0.166l0.004,0.01c0.029,0.09 0.02,0.192 -0.031,0.277c-1.184,2.321 -3.812,4.275 -4.197,4.553c-1.49,1.984 -1.107,4.812 0.864,6.326c0.962,0.74 2.155,1.059 3.356,0.903c1.185,-0.155 2.243,-0.757 2.98,-1.696c0.17,-0.444 1.387,-3.503 3.334,-5.244l0.002,-0.002c0.12,-0.105 0.3,-0.114 0.43,-0.014l10.587,8.137c0.148,0.115 0.176,0.327 0.062,0.475l-8.119,10.563c-0.067,0.087 -0.167,0.132 -0.268,0.132l-0.007,-0.003c-0.049,-0.001 -0.099,-0.012 -0.146,-0.035c-2.328,-1.179 -4.293,-3.822 -4.571,-4.207c-0.955,-0.718 -2.129,-1.03 -3.317,-0.872c-1.202,0.157 -2.272,0.774 -3.01,1.735c-0.739,0.962 -1.06,2.154 -0.902,3.357c0.155,1.185 0.756,2.242 1.696,2.979c0.444,0.17 3.504,1.388 5.243,3.334c0.111,0.124 0.114,0.307 0.016,0.433l-0.001,0.001l-8.074,10.505c-0.067,0.087 -0.167,0.132 -0.268,0.132l-0.206,-0.07l-10.585,-8.134c-0.138,-0.107 -0.171,-0.297 -0.085,-0.442c1.185,-2.321 3.813,-4.275 4.196,-4.553c0.718,-0.954 1.028,-2.129 0.872,-3.316c-0.158,-1.203 -0.774,-2.271 -1.735,-3.01c-0.962,-0.739 -2.151,-1.062 -3.357,-0.902c-1.185,0.154 -2.242,0.757 -2.979,1.695c-0.169,0.444 -1.38,3.485 -3.317,5.228c-0.03,0.03 -0.064,0.054 -0.101,0.07l-0.005,0.002c-0.111,0.05 -0.243,0.035 -0.341,-0.04l-0.002,-0l-10.484,-8.058l-0.129,-0.224l0.066,-0.25l10.88,-14.156c0.116,-0.149 0.623,0.3 0.537,0.412l-10.673,13.887l9.989,7.678c1.814,-1.767 2.953,-4.802 2.964,-4.833l0.049,-0.089c0.849,-1.104 2.078,-1.812 3.459,-1.993c1.389,-0.181 2.751,0.188 3.856,1.036c1.104,0.849 1.812,2.077 1.993,3.459c0.182,1.382 -0.186,2.751 -1.035,3.856l-0.073,0.07c-0.028,0.018 -2.667,1.904 -3.905,4.11l10.088,7.754l7.695,-10.011c-1.763,-1.812 -4.801,-2.954 -4.832,-2.964l-0.089,-0.049c-1.106,-0.85 -1.814,-2.078 -1.994,-3.459c-0.181,-1.382 0.187,-2.751 1.036,-3.857c0.849,-1.105 2.078,-1.813 3.459,-1.994c1.387,-0.18 2.752,0.189 3.856,1.036l0.071,0.074c0.019,0.027 1.903,2.666 4.109,3.905l7.737,-10.066l-10.091,-7.757c-1.815,1.767 -2.953,4.802 -2.964,4.834l-0.049,0.088c-0.85,1.105 -2.079,1.813 -3.46,1.994c-0.231,0.03 -0.46,0.045 -0.688,0.045c-1.142,-0 -2.247,-0.373 -3.168,-1.081c-2.28,-1.753 -2.711,-5.035 -0.959,-7.315l0.074,-0.071c0.027,-0.019 2.668,-1.903 3.906,-4.109Z" style="fill:#1a1a1a;fill-rule:nonzero;"/>
    </g>
    <path d="M50.212,37.091l-0.239,-0.099l-3.714,-3.715c-0.132,-0.132 -0.132,-0.346 -0,-0.478c0.133,-0.132 0.346,-0.132 0.479,0l3.714,3.714c0.131,0.133 0.131,0.346 -0,0.479l-0.24,0.099Z" style="fill:#1a1a1a;fill-rule:nonzero;"/>
    <path d="M46.499,37.091l-0.24,-0.099c-0.132,-0.133 -0.132,-0.346 -0,-0.479l3.714,-3.714c0.133,-0.132 0.346,-0.132 0.479,0c0.131,0.132 0.131,0.346 -0,0.478l-3.714,3.715l-0.239,0.099Z" style="fill:#1a1a1a;fill-rule:nonzero;"/>
    <path d="M54.62,28.956c-0.399,0 -0.724,0.324 -0.724,0.723c-0,0.399 0.325,0.723 0.724,0.723c0.398,0 0.722,-0.324 0.722,-0.723c-0,-0.399 -0.324,-0.723 -0.722,-0.723Zm-0,2.123c-0.772,0 -1.4,-0.628 -1.4,-1.4c-0,-0.772 0.628,-1.4 1.4,-1.4c0.771,0 1.398,0.628 1.398,1.4c-0,0.772 -0.627,1.4 -1.398,1.4Z" style="fill:#1a1a1a;fill-rule:nonzero;"/>
    <g id="Browser">
        <path id="bg" d="M173.38,48.648c-0,-3.125 -2.537,-5.661 -5.661,-5.661l-148.258,0c-3.124,0 -5.66,2.536 -5.66,5.661l-0,101.893c-0,3.124 2.536,5.66 5.66,5.66l148.258,0c3.124,0 5.661,-2.536 5.661,-5.66l-0,-101.893Z" style="fill:#fff;"/>
        <path d="M13.261,48.648c-0,-3.422 2.778,-6.201 6.2,-6.201l148.258,0c3.422,0 6.2,2.779 6.2,6.201l0,101.893c0,3.422 -2.778,6.2 -6.2,6.2c-0,-0 -148.258,-0 -148.258,-0c-3.422,-0 -6.2,-2.778 -6.2,-6.2l-0,-101.893Zm160.119,10.107l-159.579,0l-0,91.786c-0,3.124 2.536,5.66 5.66,5.66l148.258,0c3.124,0 5.661,-2.536 5.661,-5.66l-0,-91.786Zm-0,-0.539l-0,-9.568c-0,-3.125 -2.537,-5.661 -5.661,-5.661l-148.258,0c-3.124,0 -5.66,2.536 -5.66,5.661l-0,9.568l159.579,-0Z"/>
        <path d="M13.261,58.216l-0,0.539" style="fill:none;"/>
        <path d="M23.239,48.93c1.029,0 1.864,0.806 1.864,1.797c0,0.991 -0.835,1.798 -1.864,1.798c-1.027,-0 -1.864,-0.807 -1.864,-1.798c0,-0.991 0.837,-1.797 1.864,-1.797Z" style="fill-rule:nonzero;"/>
        <path d="M28.907,48.93c1.029,0 1.864,0.806 1.864,1.797c-0,0.991 -0.835,1.798 -1.864,1.798c-1.027,-0 -1.864,-0.807 -1.864,-1.798c0,-0.991 0.837,-1.797 1.864,-1.797Zm0,0.493c0.752,-0 1.371,0.58 1.371,1.304c0,0.725 -0.619,1.305 -1.371,1.305c-0.75,-0 -1.371,-0.58 -1.371,-1.305c0,-0.724 0.621,-1.304 1.371,-1.304Z"/>
        <path d="M34.575,48.93c1.028,0 1.864,0.806 1.864,1.797c-0,0.991 -0.836,1.798 -1.864,1.798c-1.027,-0 -1.864,-0.807 -1.864,-1.798c0,-0.991 0.837,-1.797 1.864,-1.797Zm-0,0.493c0.752,-0 1.371,0.58 1.371,1.304c-0,0.725 -0.619,1.305 -1.371,1.305c-0.751,-0 -1.371,-0.58 -1.371,-1.305c-0,-0.724 0.62,-1.304 1.371,-1.304Z"/>
        <path d="M83.177,74.6c-0,-3.403 -2.762,-6.165 -6.165,-6.165l-49.32,-0c-3.403,-0 -6.165,2.762 -6.165,6.165l-0,65.213c-0,3.402 2.762,6.165 6.165,6.165l49.32,-0c3.403,-0 6.165,-2.763 6.165,-6.165l-0,-65.213Zm-0.493,-0l0,65.213c0,3.13 -2.541,5.672 -5.672,5.672l-49.32,-0c-3.131,-0 -5.672,-2.542 -5.672,-5.672l-0,-65.213c-0,-3.131 2.541,-5.673 5.672,-5.673c-0,0 49.32,0 49.32,0c3.131,0 5.672,2.542 5.672,5.673Z"/>
        <path d="M76.323,79.902c0,-1.725 -1.4,-3.126 -3.125,-3.126l-41.914,0c-1.725,0 -3.125,1.401 -3.125,3.126l-0,25.003c-0,1.725 1.4,3.125 3.125,3.125l41.914,0c1.725,0 3.125,-1.4 3.125,-3.125l0,-25.003Zm-47.14,26.589c0.481,0.635 1.243,1.047 2.101,1.047l32.694,-0l-17.671,-13.455l-17.124,12.408Zm25.46,-6.732l10.088,7.681c0.035,0.027 0.061,0.06 0.079,0.098l8.388,-0c1.453,-0 2.632,-1.18 2.632,-2.633l0,-5.289l-11.15,-8.325l-10.037,8.468Zm21.187,-0.808l-11.17,-8.34l-10.452,8.817l-7.893,-6.01l-17.41,12.615c-0.162,-0.342 -0.253,-0.724 -0.253,-1.128c-0,-0 -0,-25.003 -0,-25.003c-0,-1.453 1.179,-2.633 2.632,-2.633c0,0 41.914,0 41.914,0c1.453,0 2.632,1.18 2.632,2.633l0,19.049Zm-23.322,-17.259c-2.286,-0 -4.141,1.855 -4.141,4.141c-0,2.285 1.855,4.141 4.141,4.141c2.285,-0 4.141,-1.856 4.141,-4.141c-0,-2.286 -1.856,-4.141 -4.141,-4.141Zm-0,0.533c1.991,-0 3.607,1.616 3.607,3.608c0,1.991 -1.616,3.607 -3.607,3.607c-1.992,0 -3.608,-1.616 -3.608,-3.607c-0,-1.992 1.616,-3.608 3.608,-3.608Z"/>
        <g id="Text">
            <path d="M98.516,77.962l51.753,0" style="fill:none;stroke:#000;stroke-width:0.49px;"/>
            <path d="M98.516,85.337l24.723,0" style="fill:none;stroke:#000;stroke-width:0.49px;"/>
            <path d="M129.802,85.337l20.467,0" style="fill:none;stroke:#000;stroke-width:0.49px;"/>
            <path d="M98.516,92.712l51.753,0" style="fill:none;stroke:#000;stroke-width:0.49px;"/>
            <path d="M98.516,100.087l16.126,0" style="fill:none;stroke:#000;stroke-width:0.49px;"/>
            <path d="M120.613,100.087l7.107,0" style="fill:none;stroke:#000;stroke-width:0.49px;"/>
            <path d="M132.558,100.087l17.711,0" style="fill:none;stroke:#000;stroke-width:0.49px;"/>
            <path d="M150.269,134.662l-51.753,-0" style="fill:none;stroke:#000;stroke-width:0.49px;"/>
            <path d="M150.269,127.286l-24.723,0" style="fill:none;stroke:#000;stroke-width:0.49px;"/>
            <path d="M118.983,127.286l-20.467,0" style="fill:none;stroke:#000;stroke-width:0.49px;"/>
            <path d="M150.269,119.911l-51.753,0" style="fill:none;stroke:#000;stroke-width:0.49px;"/>
            <path d="M149.456,112.536l-28.392,0" style="fill:none;stroke:#000;stroke-width:0.49px;"/>
            <path d="M115.093,112.536l-16.577,0" style="fill:none;stroke:#000;stroke-width:0.49px;"/>
        </g>
    </g>
    <g id="Type">
        <path d="M64.266,154.646c0,-3.182 -2.583,-5.765 -5.765,-5.765l-17.295,0c-3.181,0 -5.765,2.583 -5.765,5.765l0,17.295c0,3.182 2.584,5.765 5.765,5.765l17.295,0c3.182,0 5.765,-2.583 5.765,-5.765l0,-17.295Z" style="fill:#2150f6;"/>
        <path d="M66.628,156.667c-0,-3.477 -2.823,-6.299 -6.299,-6.299c0,0 -17.295,0 -17.295,0c-3.476,0 -6.298,2.822 -6.298,6.299l-0,17.295c-0,3.476 2.822,6.298 6.298,6.298l17.295,-0c3.476,-0 6.299,-2.822 6.299,-6.298c-0,-0 -0,-17.295 -0,-17.295Zm-0.534,-0c0,-3.182 -2.583,-5.765 -5.765,-5.765l-17.295,-0c-3.182,-0 -5.765,2.583 -5.765,5.765l0,17.295c0,3.181 2.583,5.765 5.765,5.765l17.295,-0c3.182,-0 5.765,-2.584 5.765,-5.765l0,-17.295Z"/>
        <path d="M47.187,165.501l-2.532,-0l-0.579,1.148l-2.499,-0l4.108,-7.595l2.746,-0l1.438,7.595l-2.511,-0l-0.171,-1.148Zm-0.268,-1.792l-0.311,-2.113l-1.062,2.113l1.373,0Z" style="fill:#fff;fill-rule:nonzero;"/>
        <path d="M52.733,166.724c-0.608,-0 -1.098,-0.217 -1.47,-0.649c-0.372,-0.433 -0.558,-1.032 -0.558,-1.797c0,-0.286 0.025,-0.576 0.075,-0.869c0.108,-0.594 0.306,-1.108 0.596,-1.545c0.289,-0.436 0.64,-0.768 1.051,-0.997c0.411,-0.229 0.842,-0.344 1.293,-0.344c0.422,0 0.772,0.081 1.051,0.242c0.279,0.161 0.468,0.381 0.568,0.66l0.151,-0.826l2.37,-0l-1.051,5.942c-0.157,0.887 -0.527,1.622 -1.11,2.205c-0.583,0.583 -1.389,0.874 -2.419,0.874c-0.951,0 -1.679,-0.225 -2.183,-0.676c-0.504,-0.45 -0.756,-1.069 -0.756,-1.856l2.338,0c0.014,0.315 0.243,0.472 0.687,0.472c0.279,0 0.509,-0.071 0.692,-0.214c0.182,-0.143 0.309,-0.411 0.38,-0.805l0.129,-0.718c-0.2,0.279 -0.458,0.498 -0.772,0.659c-0.315,0.161 -0.669,0.242 -1.062,0.242Zm1.523,-4.119c-0.257,-0 -0.485,0.089 -0.681,0.268c-0.197,0.178 -0.324,0.429 -0.381,0.751c-0.014,0.064 -0.021,0.15 -0.021,0.257c-0,0.243 0.064,0.431 0.193,0.563c0.128,0.133 0.304,0.199 0.525,0.199c0.258,-0 0.485,-0.09 0.681,-0.269c0.197,-0.178 0.324,-0.429 0.381,-0.75c0.015,-0.065 0.022,-0.151 0.022,-0.258c-0,-0.243 -0.065,-0.431 -0.193,-0.563c-0.129,-0.132 -0.304,-0.198 -0.526,-0.198Z" style="fill:#fff;fill-rule:nonzero;"/>
    </g>
    <g id="Color-Palette">
        <g>
            <path d="M169.48,18.057c0,-1.366 -1.109,-2.476 -2.476,-2.476l-4.952,-0c-1.367,-0 -2.477,1.11 -2.477,2.476l0,4.953c0,1.366 1.11,2.476 2.477,2.476l4.952,-0c1.367,-0 2.476,-1.11 2.476,-2.476l0,-4.953Z" style="fill:#ffab4a;"/>
            <path d="M171.014,19.057c-0,-1.661 -1.349,-3.009 -3.01,-3.009l-4.952,-0c-1.661,-0 -3.01,1.348 -3.01,3.009l0,4.953c0,1.661 1.349,3.009 3.01,3.009l4.952,0c1.661,0 3.01,-1.348 3.01,-3.009c-0,-0 -0,-4.953 -0,-4.953Zm-0.534,0c0,-1.366 -1.109,-2.476 -2.476,-2.476l-4.952,-0c-1.367,-0 -2.477,1.11 -2.477,2.476l0,4.953c0,1.366 1.11,2.476 2.477,2.476l4.952,-0c1.367,-0 2.476,-1.11 2.476,-2.476l0,-4.953Z"/>
        </g>
        <g>
            <path d="M185.011,18.057c0,-1.366 -1.109,-2.476 -2.476,-2.476l-4.953,-0c-1.366,-0 -2.476,1.11 -2.476,2.476l0,4.953c0,1.366 1.11,2.476 2.476,2.476l4.953,-0c1.367,-0 2.476,-1.11 2.476,-2.476l0,-4.953Z" style="fill:#8964ce;"/>
            <path d="M186.545,19.057c-0,-1.661 -1.349,-3.009 -3.01,-3.009l-4.953,-0c-1.661,-0 -3.009,1.348 -3.009,3.009l-0,4.953c-0,1.661 1.348,3.009 3.009,3.009l4.953,0c1.661,0 3.01,-1.348 3.01,-3.009c-0,-0 -0,-4.953 -0,-4.953Zm-0.534,0c0,-1.366 -1.109,-2.476 -2.476,-2.476l-4.953,-0c-1.366,-0 -2.476,1.11 -2.476,2.476l0,4.953c0,1.366 1.11,2.476 2.476,2.476l4.953,-0c1.367,-0 2.476,-1.11 2.476,-2.476l0,-4.953Z"/>
        </g>
        <g>
            <path d="M200.542,18.057c0,-1.366 -1.109,-2.476 -2.476,-2.476l-4.953,-0c-1.366,-0 -2.476,1.11 -2.476,2.476l0,4.953c0,1.366 1.11,2.476 2.476,2.476l4.953,-0c1.367,-0 2.476,-1.11 2.476,-2.476l0,-4.953Z" style="fill:#ffc2cc;"/>
            <path d="M202.075,19.057c0,-1.661 -1.348,-3.009 -3.009,-3.009l-4.953,-0c-1.661,-0 -3.009,1.348 -3.009,3.009l-0,4.953c-0,1.661 1.348,3.009 3.009,3.009l4.953,0c1.661,0 3.009,-1.348 3.009,-3.009c0,-0 0,-4.953 0,-4.953Zm-0.533,0c0,-1.366 -1.109,-2.476 -2.476,-2.476l-4.953,-0c-1.366,-0 -2.476,1.11 -2.476,2.476l0,4.953c0,1.366 1.11,2.476 2.476,2.476l4.953,-0c1.367,-0 2.476,-1.11 2.476,-2.476l0,-4.953Z"/>
        </g>
        <g>
            <path d="M216.073,18.057c-0,-1.366 -1.11,-2.476 -2.476,-2.476l-4.953,-0c-1.367,-0 -2.476,1.11 -2.476,2.476l-0,4.953c-0,1.366 1.109,2.476 2.476,2.476l4.953,-0c1.366,-0 2.476,-1.11 2.476,-2.476l-0,-4.953Z" style="fill:#2150f6;"/>
            <path d="M217.606,19.057c0,-1.661 -1.348,-3.009 -3.009,-3.009l-4.953,-0c-1.661,-0 -3.009,1.348 -3.009,3.009l-0,4.953c-0,1.661 1.348,3.009 3.009,3.009l4.953,0c1.661,0 3.009,-1.348 3.009,-3.009c0,-0 0,-4.953 0,-4.953Zm-0.533,0c-0,-1.366 -1.11,-2.476 -2.476,-2.476l-4.953,-0c-1.367,-0 -2.476,1.11 -2.476,2.476l-0,4.953c-0,1.366 1.109,2.476 2.476,2.476l4.953,-0c1.366,-0 2.476,-1.11 2.476,-2.476l-0,-4.953Z"/>
        </g>
    </g>
    <g id="Plus-Icon">
        <path d="M58.625,126.715c-0,4.33 -3.508,7.839 -7.837,7.839c-4.33,0 -7.838,-3.509 -7.838,-7.839c0,-4.329 3.508,-7.839 7.838,-7.839c4.329,0 7.837,3.51 7.837,7.839Z" style="fill:#8964ce;fill-rule:nonzero;"/>
        <path d="M60.434,127.962c0,-4.466 -3.618,-8.086 -8.083,-8.086c-4.466,0 -8.084,3.62 -8.084,8.086c0,4.465 3.618,8.085 8.084,8.085c4.465,0 8.083,-3.62 8.083,-8.085Zm-0.492,-0c-0,4.193 -3.398,7.592 -7.591,7.592c-4.193,0 -7.591,-3.399 -7.591,-7.592c0,-4.193 3.398,-7.593 7.591,-7.593c4.193,0 7.591,3.4 7.591,7.593Zm-7.838,-0.247l-3.724,0c-0.136,0 -0.247,0.111 -0.247,0.247c0,0.136 0.111,0.246 0.247,0.246l3.724,0l0,3.725c0,0.136 0.111,0.247 0.247,0.247c0.136,-0 0.246,-0.111 0.246,-0.247l0,-3.725l3.725,0c0.136,0 0.247,-0.11 0.247,-0.246c-0,-0.136 -0.111,-0.247 -0.247,-0.247l-3.725,0l0,-3.725c0,-0.135 -0.11,-0.246 -0.246,-0.246c-0.136,0 -0.247,0.111 -0.247,0.246l0,3.725Z"/>
    </g>
    <g id="Card">
        <path d="M213.413,102.478c-0,-5.734 -4.655,-10.388 -10.388,-10.388l-59.208,-0c-5.733,-0 -10.388,4.654 -10.388,10.388l0,31.163c0,5.734 4.655,10.388 10.388,10.388l59.208,0c5.733,0 10.388,-4.654 10.388,-10.388l-0,-31.163Z" style="fill:#ffab4a;"/>
        <path d="M140.56,127.582l28.948,-0" style="fill:none;stroke:#000;stroke-width:0.49px;"/>
        <path d="M177.193,127.582l23.965,-0" style="fill:none;stroke:#000;stroke-width:0.49px;"/>
        <path d="M159.963,114.176l40.781,0" style="fill:none;stroke:#000;stroke-width:0.49px;"/>
        <path d="M144.949,109.261c3.194,-0.895 6.513,0.971 7.407,4.165c0.895,3.193 -0.971,6.512 -4.164,7.407c-3.194,0.895 -6.513,-0.971 -7.408,-4.165c-0.894,-3.193 0.972,-6.512 4.165,-7.407Z" style="fill:#fefefe;"/>
        <path d="M149.192,109.79c-1.133,-1.133 -2.64,-1.757 -4.242,-1.757c-1.603,0 -3.11,0.624 -4.243,1.757c-1.133,1.134 -1.758,2.64 -1.758,4.243c0,1.603 0.625,3.11 1.758,4.243c1.133,1.133 2.64,1.757 4.243,1.757c1.602,0 3.109,-0.624 4.242,-1.757c1.133,-1.133 1.758,-2.64 1.758,-4.243c-0,-1.603 -0.625,-3.109 -1.758,-4.243Zm-7.638,8.305c0.198,-1.705 1.663,-3.021 3.396,-3.021c0.913,-0 1.771,0.356 2.417,1.001c0.546,0.546 0.89,1.259 0.979,2.02c-0.921,0.77 -2.105,1.235 -3.396,1.235c-1.292,0 -2.476,-0.465 -3.396,-1.235Zm3.396,-3.745c-1.005,-0 -1.823,-0.818 -1.823,-1.823c0,-1.005 0.818,-1.822 1.823,-1.822c1.004,-0 1.822,0.817 1.822,1.822c-0,1.005 -0.818,1.823 -1.822,1.823Zm4.001,3.15c-0.179,-0.722 -0.553,-1.388 -1.087,-1.922c-0.432,-0.432 -0.943,-0.756 -1.501,-0.959c0.671,-0.455 1.112,-1.223 1.112,-2.092c0,-1.392 -1.133,-2.525 -2.525,-2.525c-1.393,-0 -2.526,1.133 -2.526,2.525c0,0.87 0.442,1.638 1.112,2.093c-0.512,0.186 -0.987,0.476 -1.396,0.856c-0.591,0.551 -1.002,1.253 -1.192,2.024c-0.807,-0.93 -1.295,-2.142 -1.295,-3.467c-0,-2.921 2.376,-5.297 5.297,-5.297c2.92,0 5.296,2.376 5.296,5.297c0,1.325 -0.488,2.538 -1.295,3.467Z" style="fill-rule:nonzero;"/>
        <path d="M208.78,107.796c0,-6.027 -4.893,-10.921 -10.921,-10.921c0,-0 -59.208,-0 -59.208,-0c-6.027,-0 -10.921,4.894 -10.921,10.921l0,31.164c0,6.028 4.894,10.921 10.921,10.921c0,0 59.208,0 59.208,0c6.028,0 10.921,-4.893 10.921,-10.921l0,-31.164Zm-0.533,0c0,-5.733 -4.655,-10.388 -10.388,-10.388l-59.208,0c-5.733,0 -10.388,4.655 -10.388,10.388l0,31.164c0,5.733 4.655,10.388 10.388,10.388l59.208,-0c5.733,-0 10.388,-4.655 10.388,-10.388l0,-31.164Z"/>
    </g>
</svg>
