<?xml version="1.0" encoding="UTF-8" standalone="no"?>
<!DOCTYPE svg PUBLIC "-//W3C//DTD SVG 1.1//EN" "http://www.w3.org/Graphics/SVG/1.1/DTD/svg11.dtd">
<svg width="100%" height="100%" viewBox="0 0 512 512" version="1.1" xmlns="http://www.w3.org/2000/svg" xmlns:xlink="http://www.w3.org/1999/xlink" xml:space="preserve" xmlns:serif="http://www.serif.com/" style="fill-rule:evenodd;clip-rule:evenodd;stroke-linejoin:round;stroke-miterlimit:2;">
    <g>
        <path d="M45.534,341.666c-15.832,42.124 -19.979,87.426 -11.928,132.058c2.366,13.096 5.757,25.892 10.075,38.276l185.881,-85.003l-184.028,-85.331Z" style="fill:#8660cd;"/>
        <path d="M434.696,333.187l46,-21.034c4.118,-31.721 0.741,-63.627 -9.876,-93.667l-142.916,65.78l106.792,48.921Z" style="fill:#8660cd;"/>
        <path d="M121.032,189.487l11.443,5.229l98.954,-44.888l-106.379,-50.218c-8.778,25.964 -10.858,53.595 -5.928,80.856c0.542,3.035 1.197,6.028 1.91,9.021Z" style="fill:#8660cd;"/>
        <path d="M278.085,128.666l79.816,-36.21l-62.816,-84.433c-3.747,-5.045 -9.676,-8.023 -15.974,-8.023c-6.285,0 -12.213,2.978 -15.961,8.023l-62.074,83.45l77.336,36.509l-0.327,0.684Z" style="fill:#8660cd;"/>
        <path d="M280.194,262.406l156.839,-72.207c0.784,-3.22 1.496,-6.455 2.095,-9.733c4.774,-26.52 2.949,-53.41 -5.23,-78.761l-253.471,114.985l99.767,45.716Z" style="fill:#8660cd;"/>
        <path d="M277.215,405.208l109.642,-50.147l-299.256,-137.102c-10.816,30.353 -14.236,62.63 -9.99,94.693l199.604,92.556Z" style="fill:#8660cd;"/>
    </g>
</svg>
