<svg width="100%" height="100%" viewBox="0 0 500 373" version="1.1" xmlns="http://www.w3.org/2000/svg" xmlns:xlink="http://www.w3.org/1999/xlink" xml:space="preserve" style="fill-rule:evenodd;clip-rule:evenodd;stroke-linejoin:round;stroke-miterlimit:2;">
  <style type="text/css">
    :root {
      --spruce-404-black-color: hsl(196 34% 15%);
      --spruce-404-caption-color: hsl(196 34% 15%);
    }

    [data-theme-mode="dark"] {
      --spruce-404-black-color: hsl(0 0% 95%);
      --spruce-404-caption-color: hsl(210 100% 50%);
    }
  </style>
  <path d="M127.276,188.497c-28.778,-0.986 -51.313,-25.12 -50.327,-53.899c0.987,-28.813 25.121,-51.346 53.899,-50.361c28.779,0.987 51.313,25.118 50.326,53.932c-0.986,28.779 -25.12,51.314 -53.898,50.328m88.796,-42.571l0.451,-13.141l-8.068,-2.636c-0.332,-4.49 -1.082,-8.923 -2.151,-13.196l6.838,-5.042l-4.645,-12.343l-8.459,0.681c-2.015,-3.991 -4.385,-7.787 -7.04,-11.35l4.382,-7.312l-9.009,-9.611l-7.562,3.872c-3.406,-2.895 -6.996,-5.517 -10.839,-7.835l1.225,-8.394l-11.998,-5.445l-5.497,6.442c-4.188,-1.358 -8.528,-2.375 -13.017,-3.049l-2.044,-8.228l-13.176,-0.451l-2.602,8.068c-4.525,0.365 -8.923,1.083 -13.195,2.151l-5.078,-6.804l-12.342,4.611l0.682,8.46c-3.992,2.049 -7.788,4.418 -11.35,7.073l-7.279,-4.38l-9.645,8.972l3.871,7.596c-2.893,3.372 -5.516,6.998 -7.801,10.841l-8.392,-1.258l-5.479,11.995l6.477,5.499c-1.358,4.188 -2.411,8.561 -3.05,13.017l-8.264,2.077l-0.45,13.141l8.102,2.639c0.331,4.523 1.084,8.924 2.152,13.194l-6.837,5.042l4.645,12.345l8.458,-0.684c2.016,3.992 4.385,7.788 7.04,11.351l-4.382,7.312l9.009,9.613l7.561,-3.873c3.372,2.893 6.997,5.517 10.84,7.836l-1.26,8.39l11.998,5.446l5.532,-6.442c4.188,1.36 8.527,2.376 13.017,3.05l2.043,8.227l13.176,0.453l2.603,-8.07c4.524,-0.365 8.923,-1.082 13.194,-2.151l5.044,6.804l12.342,-4.612l-0.648,-8.456c3.994,-2.05 7.755,-4.421 11.351,-7.076l7.279,4.382l9.645,-8.973l-3.871,-7.595c2.893,-3.373 5.517,-6.998 7.801,-10.842l8.392,1.26l5.479,-11.998l-6.477,-5.498c1.358,-4.187 2.41,-8.526 3.049,-13.016l8.229,-2.079Z" style="fill:#ececec;fill-rule:nonzero;"/>
  <path d="M417.341,83.34c-2.438,-2.611 -2.298,-6.705 0.313,-9.144c2.615,-2.441 6.709,-2.3 9.147,0.311c2.438,2.611 2.298,6.705 -0.316,9.146c-2.612,2.439 -6.706,2.298 -9.144,-0.313m23.616,19.131l3.314,-3.095l-1.324,-2.609c1.014,-1.176 1.912,-2.441 2.693,-3.742l2.897,0.437l1.877,-4.143l-2.229,-1.895c0.482,-1.465 0.83,-2.969 1.051,-4.485l2.852,-0.714l0.147,-4.541l-2.788,-0.9c-0.125,-1.536 -0.361,-3.05 -0.733,-4.553l2.346,-1.748l-1.598,-4.253l-2.912,0.23c-0.69,-1.352 -1.5,-2.659 -2.43,-3.918l1.508,-2.505l-3.103,-3.323l-2.602,1.334c-1.193,-1.015 -2.44,-1.912 -3.742,-2.693l0.421,-2.898l-4.134,-1.886l-1.897,2.23c-1.473,-0.474 -2.976,-0.821 -4.492,-1.043l-0.707,-2.843l-4.54,-0.164l-0.908,2.796c-1.528,0.117 -3.051,0.361 -4.546,0.741l-1.739,-2.352l-4.261,1.589l0.238,2.919c-1.352,0.691 -2.675,1.5 -3.918,2.431l-2.521,-1.509l-3.314,3.095l1.332,2.619c-1.022,1.184 -1.912,2.441 -2.693,3.742l-2.896,-0.438l-1.878,4.143l2.229,1.896c-0.481,1.465 -0.83,2.969 -1.051,4.484l-2.851,0.715l-0.148,4.541l2.789,0.899c0.116,1.528 0.36,3.051 0.732,4.554l-2.353,1.739l1.598,4.254l2.919,-0.222c0.69,1.352 1.5,2.658 2.431,3.917l-1.508,2.505l3.102,3.323l2.603,-1.333c1.192,1.014 2.439,1.912 3.742,2.692l-0.43,2.889l4.134,1.886l1.904,-2.22c1.474,0.474 2.969,0.813 4.494,1.042l0.706,2.844l4.54,0.163l0.908,-2.796c1.528,-0.116 3.052,-0.36 4.546,-0.741l1.739,2.353l4.262,-1.589l-0.239,-2.92c1.352,-0.69 2.667,-1.492 3.918,-2.43l2.513,1.499Z" style="fill:#ececec;fill-rule:nonzero;"/>
  <path d="M251.537,270.773c-13.654,-0.468 -24.32,-11.931 -23.854,-25.546c0.468,-13.654 11.892,-24.321 25.546,-23.853c13.655,0.467 24.322,11.891 23.854,25.545c-0.466,13.616 -11.892,24.322 -25.546,23.854m68.452,-33.39l-10.341,-7.141c-0.003,-0.007 -0.003,-0.017 -0.006,-0.025c-1.022,-3.757 -2.434,-7.373 -4.159,-10.771l2.649,-10.398l-14.999,-16.065l-10.559,1.934c-3.269,-1.952 -6.779,-3.606 -10.454,-4.883c-0.008,-0.002 -0.018,-0.004 -0.026,-0.008l-6.42,-10.81l-21.964,-0.753l-7.142,10.341c-0.013,0.004 -0.028,0.007 -0.041,0.011c-3.753,1.022 -7.365,2.431 -10.76,4.153l-10.393,-2.649l-16.064,15.001l1.929,10.537c-0.002,0.004 -0.004,0.006 -0.006,0.01c-1.992,3.306 -3.607,6.817 -4.884,10.493l-10.808,6.417l-0.753,21.966l10.351,7.147c1.021,3.783 2.389,7.391 4.147,10.819c0.001,0.001 0.001,0.001 0.001,0.003l-2.641,10.367l14.999,16.062l10.494,-1.92c3.312,1.958 6.825,3.614 10.546,4.893c0.002,0.002 0.005,0.003 0.009,0.003l6.409,10.794l21.965,0.753l7.136,-10.334c3.798,-1.022 7.416,-2.432 10.852,-4.159c0.001,0 0.002,0 0.003,-0.002l10.345,2.636l16.064,-14.998l-1.929,-10.54c1.992,-3.305 3.608,-6.819 4.885,-10.495c0,0 0,-0.002 0.001,-0.002l10.812,-6.421l0.752,-21.966Z" style="fill:#ececec;fill-rule:nonzero;"/>
  <path d="M336.69,92.168c-14.698,0 -26.9,11.695 -27.407,26.496c-0.518,15.118 11.36,27.839 26.479,28.358c7.325,0.245 14.311,-2.369 19.668,-7.377c5.353,-5.004 8.439,-11.789 8.69,-19.102c0.517,-15.118 -11.361,-27.84 -26.479,-28.358c-0.318,-0.011 -0.636,-0.017 -0.951,-0.017m0.038,59.094c-0.37,-0 -0.739,-0.007 -1.111,-0.02c-17.446,-0.597 -31.153,-15.277 -30.555,-32.722c0.598,-17.446 15.301,-31.149 32.723,-30.556c17.446,0.598 31.153,15.277 30.555,32.724c-0.289,8.44 -3.85,16.268 -10.026,22.042c-5.911,5.525 -13.54,8.532 -21.586,8.532m15.513,-75.847l0.01,-0l-0.01,-0Zm-24.783,94.812l15.009,0.514l4.971,-7.198c0.284,-0.411 0.705,-0.709 1.189,-0.839c2.764,-0.743 5.508,-1.795 8.154,-3.126c0.005,-0.002 0.01,-0.004 0.014,-0.007c0.441,-0.216 0.955,-0.284 1.458,-0.153l7.039,1.793l10.976,-10.249l-1.313,-7.174c-0.093,-0.506 0.003,-1.028 0.268,-1.47c1.448,-2.403 2.676,-5.039 3.651,-7.834c0.16,-0.496 0.499,-0.913 0.941,-1.172l7.522,-4.468l0.515,-15.01l-7.204,-4.975c-0.376,-0.259 -0.658,-0.635 -0.803,-1.069c-0.018,-0.054 -0.034,-0.111 -0.049,-0.169c-0.753,-2.758 -1.8,-5.468 -3.114,-8.055c-0.232,-0.457 -0.289,-0.981 -0.163,-1.477l1.804,-7.078l-10.25,-10.979l-7.189,1.317c-0.504,0.092 -1.023,-0.002 -1.462,-0.264c-2.5,-1.492 -5.14,-2.725 -7.846,-3.666c-0.153,-0.053 -0.308,-0.124 -0.441,-0.205c-0.292,-0.18 -0.535,-0.427 -0.709,-0.721l-4.472,-7.529l-15.01,-0.515l-4.974,7.204c-0.296,0.429 -0.739,0.732 -1.243,0.853c-2.777,0.761 -5.478,1.805 -8.054,3.112c-0.457,0.232 -0.983,0.29 -1.477,0.163l-7.075,-1.803l-10.977,10.251l1.313,7.172c0.082,0.451 0.016,0.915 -0.189,1.325c-0.029,0.057 -0.06,0.114 -0.095,0.17c-1.451,2.412 -2.681,5.055 -3.654,7.859c-0.164,0.47 -0.489,0.868 -0.917,1.122l-7.528,4.471l-0.514,15.008l7.21,4.98c0.411,0.283 0.708,0.704 0.838,1.186c0.777,2.876 1.824,5.607 3.11,8.118c0.075,0.143 0.132,0.296 0.171,0.454c0.085,0.339 0.085,0.694 -0.002,1.033l-1.798,7.054l10.25,10.975l7.138,-1.305c0.502,-0.091 1.018,0.002 1.455,0.259c2.545,1.505 5.198,2.738 7.887,3.665c0.486,0.155 0.907,0.483 1.175,0.934l4.464,7.518Zm16.09,4.775c-0.024,0 -0.047,0 -0.072,-0.001l-17.317,-0.593c-0.719,-0.024 -1.376,-0.414 -1.743,-1.032l-4.663,-7.853c-2.479,-0.899 -4.922,-2.033 -7.282,-3.377l-7.507,1.373c-0.709,0.133 -1.432,-0.11 -1.923,-0.636l-11.826,-12.663c-0.491,-0.527 -0.68,-1.266 -0.503,-1.963l1.888,-7.41c-1.147,-2.347 -2.107,-4.854 -2.859,-7.47l-7.531,-5.201c-0.592,-0.408 -0.935,-1.091 -0.911,-1.81l0.594,-17.317c0.024,-0.719 0.413,-1.376 1.032,-1.743l7.866,-4.671c0.933,-2.554 2.064,-4.986 3.37,-7.248l-1.38,-7.533c-0.129,-0.707 0.111,-1.433 0.636,-1.923l12.665,-11.827c0.526,-0.493 1.266,-0.68 1.963,-0.503l7.435,1.895c2.405,-1.17 4.904,-2.134 7.449,-2.871l5.197,-7.525c0.408,-0.592 1.079,-0.958 1.809,-0.911l17.317,0.594c0.719,0.025 1.376,0.413 1.743,1.032l4.673,7.867c2.481,0.909 4.906,2.04 7.226,3.372l7.554,-1.384c0.709,-0.129 1.432,0.11 1.924,0.636l11.825,12.666c0.491,0.526 0.681,1.265 0.503,1.963l-1.895,7.437c1.171,2.406 2.134,4.904 2.871,7.446l7.525,5.197c0.593,0.408 0.935,1.09 0.911,1.809l-0.593,17.319c-0.025,0.718 -0.414,1.376 -1.033,1.743l-7.869,4.673c-0.932,2.552 -2.062,4.983 -3.366,7.243l1.379,7.536c0.13,0.707 -0.11,1.433 -0.636,1.923l-12.664,11.824c-0.526,0.492 -1.264,0.682 -1.963,0.503l-7.401,-1.886c-2.44,1.178 -4.952,2.141 -7.488,2.87l-5.192,7.519c-0.395,0.571 -1.045,0.911 -1.738,0.911" style="fill:#ececec;fill-rule:nonzero;"/>
  <path d="M383.439,50.371l-7.174,-1.927l-1.926,-7.173l2.809,-2.808l2.963,6.137l6.137,2.962l-2.809,2.809Z" style="fill:#e1e1e1;fill-rule:nonzero;"/>
  <path d="M383.885,45.569c1.307,-1.307 1.307,-3.437 0,-4.744c-1.308,-1.306 -3.428,-1.297 -4.734,0.01l3.567,-5.353l4.786,2.419l1.048,5.028l-4.668,2.64l0.001,0Z" style="fill:#e1e1e1;fill-rule:nonzero;"/>
  <path d="M386.127,43.327c1.307,-1.307 1.307,-3.438 0,-4.744c-1.307,-1.307 -3.427,-1.297 -4.734,0.01c-1.307,1.306 -1.307,3.418 0,4.724c1.307,1.307 3.427,1.317 4.734,0.01m-9.545,-4.298l5.256,-5.257l7.174,1.926l1.926,7.174l-5.257,5.257l-7.173,-1.927l-1.926,-7.173Z" style="fill:#f0f0f0;fill-rule:nonzero;"/>
  <path d="M90.221,241.756l3.849,-1.034l1.034,-3.849l-1.507,-1.507l-1.59,3.292l-3.293,1.591l1.507,1.507Z" style="fill:#e1e1e1;fill-rule:nonzero;"/>
  <path d="M89.982,239.18c-0.701,-0.702 -0.701,-1.845 0,-2.546c0.701,-0.701 1.839,-0.696 2.541,0.005l-1.915,-2.872l-2.568,1.298l-0.563,2.698l2.505,1.417Z" style="fill:#e1e1e1;fill-rule:nonzero;"/>
  <path d="M88.778,237.976c-0.701,-0.701 -0.701,-1.844 0,-2.545c0.701,-0.701 1.839,-0.696 2.541,0.005c0.701,0.701 0.701,1.834 0,2.535c-0.702,0.701 -1.84,0.706 -2.541,0.005m5.122,-2.306l-2.821,-2.821l-3.849,1.033l-1.034,3.85l2.821,2.821l3.85,-1.034l1.033,-3.849Z" style="fill:#f0f0f0;fill-rule:nonzero;"/>
  <path d="M76.363,30.71l3.194,3.195c0.832,0.832 2.194,0.832 3.025,0c0.832,-0.832 0.832,-2.193 0,-3.025l-3.195,-3.194c-0.832,-0.832 -2.193,-0.832 -3.025,0c-0.831,0.832 -0.831,2.193 0.001,3.024" style="fill:#f0f0f0;fill-rule:nonzero;"/>
  <path d="M74.112,22.753c2.462,-0.884 5.131,0.272 5.961,2.584c0.83,2.311 -0.493,4.9 -2.955,5.785c-2.462,0.884 -5.131,-0.272 -5.961,-2.583c-0.83,-2.311 0.493,-4.901 2.955,-5.786" style="fill:#e1e1e1;fill-rule:nonzero;"/>
  <path d="M71.092,29.288l-0.462,-1.288l9.507,-3.413l0.463,1.288l-9.508,3.413Z" style="fill:#f0f0f0;"/>
  <path d="M443.889,361.286c0,6.254 -86.807,11.323 -193.889,11.323c-107.082,0 -193.889,-5.069 -193.889,-11.323c0,-6.254 86.807,-11.323 193.889,-11.323c107.082,0 193.889,5.069 193.889,11.323" style="fill:#f5f5f5;fill-rule:nonzero;"/>
  <path d="M86.716,65.694c-1.001,-4.403 -0.554,-8.11 1.342,-11.123c1.895,-3.01 5.033,-5.013 9.413,-6.009c4.489,-1.021 8.222,-0.602 11.199,1.256c2.977,1.859 4.959,4.958 5.947,9.301c0.716,3.154 0.774,5.86 0.172,8.118c-0.603,2.26 -1.78,4.179 -3.53,5.757c-1.751,1.579 -4.123,2.707 -7.116,3.388c-3.042,0.692 -5.67,0.78 -7.884,0.265c-2.214,-0.516 -4.178,-1.682 -5.894,-3.499c-1.716,-1.816 -2.932,-4.3 -3.649,-7.454Zm61.869,7.92l-6.133,-26.976l7.011,-1.595l0.657,2.889c0.693,-1.434 1.395,-2.457 2.107,-3.071c0.961,-0.825 2.104,-1.388 3.429,-1.689c2.613,-0.595 4.861,-0.054 6.745,1.62c1.884,1.675 3.16,3.985 3.83,6.929c0.739,3.251 0.524,5.909 -0.645,7.974c-1.169,2.066 -2.944,3.37 -5.324,3.911c-1.152,0.261 -2.249,0.304 -3.289,0.128c-1.04,-0.177 -2.022,-0.566 -2.946,-1.168l2.121,9.329l-7.563,1.719Zm-29.992,-11.218c-0.678,-2.981 -0.23,-5.666 1.343,-8.056c1.572,-2.39 4.07,-3.974 7.493,-4.751c3.913,-0.89 7.127,-0.428 9.643,1.388c2.022,1.463 3.338,3.531 3.945,6.205c0.684,3.007 0.247,5.695 -1.31,8.068c-1.557,2.373 -4.096,3.96 -7.617,4.76c-3.14,0.714 -5.861,0.495 -8.161,-0.66c-2.83,-1.434 -4.608,-3.752 -5.336,-6.954Zm-23.533,1.441c0.619,2.724 1.57,4.565 2.853,5.524c1.282,0.961 2.794,1.242 4.536,0.845c1.791,-0.406 3.045,-1.304 3.761,-2.692c0.717,-1.389 0.732,-3.592 0.046,-6.61c-0.577,-2.539 -1.511,-4.278 -2.802,-5.217c-1.29,-0.938 -2.813,-1.208 -4.567,-0.809c-1.681,0.382 -2.895,1.284 -3.642,2.705c-0.748,1.422 -0.81,3.506 -0.185,6.254Zm31.037,-3.166c0.396,1.741 1.041,2.949 1.937,3.624c0.894,0.674 1.876,0.889 2.943,0.647c1.079,-0.247 1.872,-0.859 2.378,-1.838c0.507,-0.98 0.554,-2.377 0.141,-4.192c-0.385,-1.693 -1.022,-2.875 -1.909,-3.544c-0.887,-0.669 -1.846,-0.886 -2.877,-0.652c-1.092,0.248 -1.898,0.874 -2.418,1.876c-0.521,1.001 -0.586,2.361 -0.195,4.079Zm43.338,-5.324l7.275,-2.39c0.507,0.814 1.08,1.348 1.719,1.604c0.638,0.254 1.418,0.277 2.338,0.068c1.005,-0.229 1.736,-0.62 2.19,-1.175c0.357,-0.416 0.481,-0.862 0.373,-1.34c-0.123,-0.539 -0.499,-0.892 -1.13,-1.057c-0.452,-0.116 -1.585,-0.129 -3.396,-0.04c-2.704,0.139 -4.605,0.129 -5.705,-0.026c-1.101,-0.158 -2.102,-0.616 -3.003,-1.377c-0.902,-0.761 -1.487,-1.732 -1.755,-2.908c-0.292,-1.287 -0.17,-2.48 0.366,-3.582c0.537,-1.101 1.409,-2.032 2.618,-2.79c1.208,-0.758 2.916,-1.387 5.124,-1.889c2.331,-0.531 4.091,-0.743 5.283,-0.64c1.191,0.104 2.243,0.445 3.155,1.024c0.912,0.58 1.758,1.452 2.539,2.617l-6.944,2.314c-0.326,-0.585 -0.737,-0.975 -1.233,-1.171c-0.679,-0.26 -1.435,-0.295 -2.269,-0.104c-0.846,0.192 -1.428,0.482 -1.747,0.87c-0.318,0.388 -0.428,0.797 -0.331,1.225c0.109,0.478 0.436,0.784 0.983,0.916c0.546,0.135 1.663,0.112 3.352,-0.066c2.554,-0.283 4.496,-0.312 5.824,-0.086c1.329,0.226 2.421,0.732 3.277,1.517c0.856,0.785 1.41,1.735 1.664,2.85c0.256,1.128 0.165,2.302 -0.273,3.523c-0.439,1.22 -1.319,2.313 -2.642,3.278c-1.322,0.963 -3.247,1.733 -5.774,2.309c-3.569,0.811 -6.228,0.879 -7.974,0.206c-1.747,-0.674 -3.048,-1.901 -3.904,-3.68Zm-17.241,-0.59c0.351,1.546 0.937,2.619 1.757,3.22c0.821,0.6 1.727,0.787 2.721,0.561c0.871,-0.198 1.52,-0.722 1.945,-1.574c0.426,-0.852 0.444,-2.136 0.053,-3.853c-0.36,-1.583 -0.931,-2.675 -1.713,-3.278c-0.782,-0.603 -1.615,-0.804 -2.498,-0.603c-0.956,0.217 -1.669,0.774 -2.137,1.666c-0.467,0.894 -0.51,2.18 -0.128,3.861Zm42.055,-3.255l7.661,-0.043l0.039,6.773l-7.661,0.044l-0.039,-6.774Zm-0.401,-20.888l8.209,-0.047l0.035,6.304l-1.513,12.671l-5.077,0.028l-1.618,-12.653l-0.036,-6.303Z" style="fill:var(--spruce-404-caption-color);fill-rule:nonzero;"/>
  <path d="M109.268,92.796c-0.168,0.155 -0.655,0.785 -1.352,3.221c-0.919,3.213 -0.353,6.143 0.727,8.246c0.208,-0.434 0.351,-0.934 0.45,-1.403c1.038,-4.91 0.736,-9.353 0.175,-10.064m6.586,3.15c-0.258,0.486 -0.692,1.485 -1.34,3.53c-0.858,2.708 -0.863,4.883 -0.385,6.548c0.034,-0.084 0.065,-0.168 0.093,-0.251c1.177,-3.439 1.75,-8.175 1.632,-9.827m7.172,4.213c-0.003,0 -0.565,0.004 -1.827,2.347c-1.446,2.685 -1.815,4.894 -1.127,6.757c0.084,0.227 0.183,0.45 0.3,0.67c0.534,-0.229 0.991,-0.601 1.321,-1.105c1.4,-2.14 2.071,-6.538 1.55,-8.257c-0.106,-0.351 -0.216,-0.412 -0.217,-0.412m5.655,16.47c-0.06,0 -0.121,-0.011 -0.181,-0.034c-4.501,-1.743 -7.194,-3.446 -8.592,-5.492c-1.016,0.204 -2.154,0.069 -3.232,-0.445c-1.049,-0.498 -2.057,-1.369 -2.781,-2.622c-0.675,0.521 -1.509,0.663 -2.425,0.375c-1.016,-0.319 -2.073,-1.175 -2.952,-2.411c-0.559,0.404 -1.132,0.465 -1.553,0.43c-2.973,-0.242 -7.001,-6.16 -7.29,-12.467c-0.013,-0.275 0.2,-0.51 0.476,-0.521c0.27,-0.024 0.51,0.2 0.523,0.476c0.274,5.985 4.109,11.331 6.372,11.515c0.367,0.036 0.675,-0.079 0.932,-0.28c-1.358,-2.382 -2.063,-5.781 -1.023,-9.412c0.86,-3.005 1.62,-4.179 2.532,-3.962c1.723,0.429 1.497,6.972 0.585,11.288c-0.207,0.979 -0.506,1.681 -0.846,2.183c0.79,1.165 1.724,1.949 2.543,2.207c0.732,0.23 1.274,0.035 1.674,-0.346c-0.786,-1.935 -0.948,-4.574 0.118,-7.938c1.404,-4.429 1.969,-4.549 2.307,-4.62c0.238,-0.051 0.475,0.028 0.644,0.22c0.924,1.043 -0.18,7.921 -1.344,11.324c-0.151,0.442 -0.338,0.829 -0.557,1.157c0.621,1.217 1.536,2.046 2.493,2.501c0.768,0.365 1.556,0.498 2.273,0.431c-0.09,-0.19 -0.171,-0.381 -0.243,-0.577c-0.793,-2.147 -0.406,-4.625 1.184,-7.578c1.055,-1.958 1.916,-2.871 2.708,-2.872l0.001,0c0.235,0 0.675,0.087 0.986,0.662c0.872,1.61 0.241,6.919 -1.483,9.554c-0.406,0.621 -0.967,1.092 -1.617,1.399c1.339,1.761 3.883,3.314 7.948,4.889c0.258,0.1 0.386,0.389 0.286,0.647c-0.077,0.198 -0.266,0.319 -0.466,0.319" style="fill:var(--spruce-404-black-color);fill-rule:nonzero;"/>
  <path d="M169.3,157.86c0.056,0.156 0.278,0.567 1.166,1.388c1.486,1.374 2.838,1.985 4.131,1.843c0.106,-0.01 0.213,-0.026 0.32,-0.047c-0.071,-0.304 -0.216,-0.585 -0.434,-0.826c-1.408,-1.542 -4.5,-2.518 -5.183,-2.358m-3.49,4.249c0.336,0.248 0.818,0.576 1.506,1.007c1.357,0.848 2.567,1.24 3.6,1.322c-1.657,-1.027 -3.824,-1.936 -5.106,-2.329m0.888,6.936c-1.525,0 -3.129,-0.348 -4.562,-1.189c-0.238,-0.141 -0.317,-0.446 -0.178,-0.684c0.139,-0.24 0.446,-0.317 0.684,-0.179c3.568,2.095 8.179,0.633 9.128,-0.893c0.11,-0.178 0.211,-0.406 0.147,-0.671c-1.411,0.15 -3.147,-0.224 -5.131,-1.465c-2.545,-1.591 -2.741,-2.064 -2.725,-2.443c0.01,-0.223 0.137,-0.419 0.341,-0.523c0.995,-0.505 5.505,1.574 7.385,2.809c0.246,0.162 0.453,0.337 0.621,0.523c0.832,-0.202 1.475,-0.632 1.903,-1.146c0.294,-0.352 0.49,-0.737 0.588,-1.122c-0.067,0.01 -0.134,0.018 -0.201,0.025c-1.598,0.161 -3.202,-0.526 -4.911,-2.105c-1.174,-1.085 -1.63,-1.833 -1.478,-2.426c0.049,-0.188 0.207,-0.525 0.719,-0.653c1.383,-0.344 4.797,1.111 6.193,2.642c0.315,0.343 0.528,0.749 0.642,1.183c1.305,-0.613 2.685,-1.988 4.319,-4.271c0.161,-0.225 0.472,-0.277 0.698,-0.116c0.224,0.161 0.276,0.473 0.115,0.698c-1.889,2.639 -3.464,4.135 -5.046,4.746c-0.062,0.704 -0.353,1.42 -0.869,2.04c-0.507,0.607 -1.246,1.129 -2.181,1.411c0.099,0.45 0.009,0.926 -0.28,1.392c-0.843,1.357 -3.261,2.417 -5.921,2.417" style="fill:var(--spruce-404-black-color);fill-rule:nonzero;"/>
  <path d="M101.094,181.996l25.959,-45.567l7.244,39.536l-33.203,6.031Zm78.848,-14.323l-15.582,2.83l-14.146,-77.212l-30.064,5.461l-48.989,86.999l5.26,28.708l62.837,-11.414l4.303,23.48l30.063,-5.461l-4.302,-23.48l15.582,-2.831l-4.962,-27.08Z" style="fill:#8964ce;fill-rule:nonzero;"/>
  <path d="M305.43,88.039c-0.582,-5.334 -1.647,-10.073 -3.197,-14.218c-1.55,-4.144 -3.88,-8.208 -6.99,-12.189c-3.11,-3.982 -7.345,-7.437 -12.704,-10.366c-5.36,-2.928 -12.434,-4.967 -21.223,-6.113c-18.292,-2.383 -32.551,0.865 -42.781,9.74c-10.232,8.877 -16.963,25.881 -20.198,51.012c-1.316,10.221 -1.642,19.669 -0.977,28.345c0.663,8.675 2.255,15.652 4.778,20.933c3.451,7.419 8.335,13.343 14.649,17.771c6.313,4.429 14.962,7.36 25.95,8.792c19.596,2.553 34.119,-1.209 43.569,-11.288c9.448,-10.077 15.717,-27.111 18.805,-51.101c1.378,-10.701 1.483,-21.14 0.319,-31.318" style="fill:#8964ce;fill-rule:nonzero;"/>
  <path d="M251.766,171.48c-2.405,-0.082 -4.964,-0.299 -7.607,-0.644c-9.155,-1.191 -16.238,-3.508 -21.054,-6.887c-4.751,-3.332 -8.346,-7.716 -10.992,-13.406l-0.049,-0.103c-1.923,-4.023 -3.179,-9.754 -3.735,-17.028c-0.605,-7.888 -0.296,-16.67 0.919,-26.103c3.569,-27.721 10.941,-39.287 16.497,-44.107c6.478,-5.62 15.22,-8.16 26.729,-7.766c2.358,0.08 4.855,0.291 7.422,0.625c7.386,0.962 13.23,2.597 17.37,4.857c4.009,2.192 7.142,4.71 9.31,7.486c2.404,3.076 4.205,6.194 5.354,9.268c1.223,3.271 2.086,7.16 2.565,11.558c1.065,9.31 0.965,18.954 -0.293,28.722c-2.773,21.539 -8.129,36.673 -15.92,44.981c-5.779,6.165 -14.452,8.961 -26.514,8.548c-0.001,-0.001 -0.002,-0.001 -0.002,-0.001" style="fill:#1a2e35;fill-rule:nonzero;"/>
  <path d="M245.741,100.605c-8.295,-0.284 -14.791,-7.24 -14.507,-15.536c0.285,-8.305 7.241,-14.8 15.537,-14.516c8.295,0.284 14.79,7.24 14.506,15.545c-0.285,8.296 -7.241,14.791 -15.536,14.507m25.595,-12.271l0.13,-3.788l-2.326,-0.759c-0.095,-1.294 -0.312,-2.573 -0.62,-3.804l1.971,-1.453l-1.339,-3.558l-2.438,0.196c-0.581,-1.15 -1.264,-2.245 -2.029,-3.271l1.263,-2.108l-2.597,-2.77l-2.179,1.115c-0.982,-0.834 -2.017,-1.59 -3.125,-2.258l0.353,-2.419l-3.458,-1.57l-1.585,1.858c-1.207,-0.392 -2.458,-0.686 -3.751,-0.879l-0.59,-2.372l-3.798,-0.13l-0.75,2.325c-1.304,0.105 -2.572,0.312 -3.803,0.62l-1.464,-1.961l-3.557,1.329l0.196,2.439c-1.151,0.591 -2.245,1.273 -3.272,2.039l-2.098,-1.263l-2.78,2.586l1.116,2.19c-0.834,0.971 -1.59,2.016 -2.248,3.125l-2.419,-0.364l-1.58,3.458l1.867,1.585c-0.391,1.209 -0.695,2.468 -0.879,3.752l-2.382,0.6l-0.13,3.787l2.336,0.761c0.095,1.303 0.312,2.572 0.62,3.803l-1.971,1.454l1.339,3.558l2.438,-0.197c0.581,1.151 1.264,2.245 2.029,3.272l-1.263,2.108l2.597,2.769l2.18,-1.116c0.972,0.834 2.016,1.591 3.124,2.259l-0.363,2.419l3.458,1.569l1.595,-1.856c1.207,0.391 2.458,0.684 3.752,0.878l0.589,2.373l3.798,0.129l0.75,-2.326c1.304,-0.105 2.572,-0.311 3.803,-0.62l1.454,1.961l3.558,-1.329l-0.187,-2.438c1.151,-0.59 2.235,-1.274 3.272,-2.039l2.098,1.263l2.78,-2.587l-1.116,-2.188c0.834,-0.973 1.59,-2.018 2.249,-3.125l2.419,0.363l1.579,-3.459l-1.867,-1.585c0.392,-1.207 0.695,-2.457 0.879,-3.752l2.372,-0.599Z" style="fill:#8964ce;fill-rule:nonzero;"/>
  <g opacity="0.3">
    <path d="M274.249,156.922c-1.187,2.16 -3.906,2.956 -6.065,1.771c-2.159,-1.187 -2.944,-3.905 -1.758,-6.064c1.185,-2.159 3.892,-2.944 6.052,-1.759c2.159,1.186 2.956,3.893 1.77,6.052m12.874,0.991l0.275,-2.553l-1.535,-0.626c-0.006,-0.877 -0.081,-1.747 -0.227,-2.594l1.399,-0.889l-0.711,-2.47l-1.662,0.014c-0.335,-0.808 -0.73,-1.582 -1.196,-2.311l0.947,-1.361l-1.605,-1.997l-1.531,0.638c-0.612,-0.607 -1.271,-1.167 -1.991,-1.671l0.371,-1.627l-2.251,-1.235l-1.176,1.188c-0.807,-0.344 -1.641,-0.595 -2.477,-0.787l-0.283,-1.636l-2.553,-0.286l-0.626,1.534c-0.878,0.006 -1.736,0.093 -2.595,0.24l-0.887,-1.413l-2.471,0.724l0.013,1.662c-0.796,0.335 -1.57,0.731 -2.311,1.196l-1.36,-0.96l-1.998,1.606l0.639,1.531c-0.595,0.613 -1.168,1.272 -1.672,1.991l-1.615,-0.36l-1.235,2.252l1.177,1.163c-0.332,0.82 -0.594,1.643 -0.787,2.49l-1.636,0.272l-0.275,2.553l1.534,0.637c-0.005,0.866 0.083,1.736 0.228,2.583l-1.411,0.888l0.724,2.471l1.661,-0.002c0.336,0.796 0.731,1.57 1.197,2.3l-0.959,1.359l1.603,2.01l1.544,-0.65c0.612,0.606 1.272,1.167 1.992,1.671l-0.373,1.626l2.252,1.236l1.175,-1.177c0.808,0.332 1.642,0.584 2.478,0.775l0.283,1.637l2.553,0.286l0.626,-1.535c0.866,-0.005 1.735,-0.092 2.594,-0.238l0.888,1.411l2.459,-0.724l0,-1.661c0.794,-0.336 1.568,-0.731 2.31,-1.196l1.349,0.959l2.008,-1.605l-0.648,-1.532c0.606,-0.611 1.166,-1.271 1.683,-1.99l1.614,0.359l1.236,-2.251l-1.177,-1.164c0.332,-0.819 0.582,-1.642 0.775,-2.478l1.648,-0.283l-0.001,0Z" style="fill:#8964ce;fill-rule:nonzero;"/>
  </g>
  <path d="M290.129,247.295c-3.936,-0.135 -7.01,-3.438 -6.875,-7.363c0.134,-3.936 3.427,-7.011 7.363,-6.876c3.936,0.135 7.01,3.427 6.876,7.364c-0.135,3.924 -3.428,7.01 -7.364,6.875m19.731,-9.624l-2.981,-2.059c0,-0.002 -0.001,-0.005 -0.001,-0.006c-0.295,-1.083 -0.702,-2.126 -1.199,-3.106l0.763,-2.997l-4.323,-4.63l-3.044,0.557c-0.942,-0.563 -1.954,-1.039 -3.013,-1.407c-0.002,-0.001 -0.005,-0.001 -0.007,-0.002l-1.851,-3.117l-6.331,-0.216l-2.059,2.98l-0.011,0.003c-1.082,0.295 -2.123,0.701 -3.102,1.197l-2.996,-0.763l-4.63,4.324l0.556,3.037c-0.001,0.001 -0.001,0.002 -0.002,0.003c-0.574,0.953 -1.04,1.965 -1.408,3.024l-3.115,1.85l-0.217,6.332l2.983,2.059c0.295,1.091 0.689,2.131 1.196,3.12l0,0.001l-0.761,2.987l4.323,4.631l3.025,-0.554c0.955,0.564 1.968,1.042 3.04,1.41c0.001,-0 0.002,0.001 0.003,0.001l1.847,3.111l6.331,0.217l2.057,-2.978c1.095,-0.295 2.138,-0.701 3.128,-1.199l0.001,-0l2.982,0.759l4.63,-4.323l-0.555,-3.038c0.574,-0.953 1.039,-1.966 1.407,-3.025l0.001,-0l3.116,-1.852l0.217,-6.331Z" style="fill:#fff;fill-rule:nonzero;"/>
  <path d="M317.954,57.686c-0.26,-1.456 0.711,-2.845 2.162,-3.104c1.456,-0.261 2.845,0.706 3.105,2.162c0.261,1.455 -0.706,2.843 -2.162,3.104c-1.452,0.26 -2.845,-0.707 -3.105,-2.162m5.088,6.486l0.521,-1.256c0.001,-0.001 0.002,-0.001 0.003,-0.001c0.374,-0.194 0.725,-0.425 1.045,-0.685l1.161,0.045l1.36,-1.953l-0.445,-1.074c0.133,-0.39 0.228,-0.798 0.28,-1.217l0,-0.002l0.998,-0.926l-0.418,-2.342l-1.257,-0.52c-0.001,-0.002 -0.002,-0.003 -0.002,-0.004c-0.194,-0.374 -0.425,-0.725 -0.684,-1.045l0.044,-1.16l-1.952,-1.36l-1.072,0.444c0,0 0,-0.001 -0.001,-0.001c-0.395,-0.136 -0.803,-0.227 -1.221,-0.279l-0.925,-0.998l-2.342,0.419l-0.521,1.258c-0.377,0.193 -0.728,0.421 -1.051,0.685l-1.158,-0.044l-1.359,1.952l0.441,1.066c-0.132,0.396 -0.227,0.805 -0.278,1.228l0,0.001l-0.997,0.924l0.419,2.341l1.256,0.521c0.194,0.379 0.425,0.729 0.686,1.054l0,0.001l-0.044,1.154l1.953,1.36l1.071,-0.444c0.395,0.137 0.804,0.227 1.222,0.279l0.925,0.998l2.342,-0.419Z" style="fill:#007cff;fill-rule:nonzero;"/>
  <path d="M295.607,57.537l-0.764,-0.645c1.328,-1.572 3.211,-3.564 6.008,-5.029l0.464,0.887c-2.982,1.56 -4.892,3.822 -5.708,4.787" style="fill:#007cff;fill-rule:nonzero;"/>
  <path d="M303.591,51.85l-0.395,-0.92c3.783,-1.62 7.735,-2.252 11.739,-1.88l-0.093,0.996c-3.839,-0.366 -7.624,0.248 -11.251,1.804" style="fill:#007cff;fill-rule:nonzero;"/>
  <path d="M301.703,58.768l-0.826,-0.562c2.054,-3.017 6.113,-5.644 9.871,-6.389l0.194,0.98c-3.521,0.7 -7.321,3.155 -9.239,5.971" style="fill:#007cff;fill-rule:nonzero;"/>
  <path d="M224.366,127.712c-1.818,2.743 -2.458,6.031 -1.803,9.258c0.655,3.225 2.527,6.004 5.271,7.822c5.667,3.754 13.329,2.201 17.081,-3.462c3.754,-5.664 2.201,-13.33 -3.462,-17.087c-5.662,-3.753 -13.327,-2.197 -17.087,3.469m10.258,20.128c-2.528,0 -5.082,-0.716 -7.342,-2.214c-2.967,-1.966 -4.991,-4.97 -5.699,-8.457c-0.709,-3.488 -0.016,-7.043 1.95,-10.01c4.065,-6.125 12.352,-7.806 18.473,-3.75c6.122,4.063 7.801,12.35 3.743,18.474c-2.56,3.863 -6.803,5.957 -11.125,5.957m-4.918,3.235c0.048,0 0.095,0.007 0.141,0.021c1.071,0.314 2.185,0.522 3.311,0.616c0.121,0.01 0.234,0.063 0.318,0.15l2.036,2.099l5.901,-1.197l1.06,-2.733c0.044,-0.113 0.128,-0.207 0.235,-0.262c1.003,-0.523 1.95,-1.145 2.816,-1.851c0.091,-0.074 0.194,-0.125 0.323,-0.112l3.471,0.052l3.326,-5.019l-1.404,-3.184c-0.047,-0.107 -0.055,-0.228 -0.022,-0.341c0.316,-1.091 0.523,-2.206 0.616,-3.311c0.01,-0.121 0.063,-0.233 0.15,-0.318l2.099,-2.036l-1.196,-5.902l-2.728,-1.057c-0.116,-0.045 -0.21,-0.131 -0.266,-0.243c-0.52,-1 -1.143,-1.943 -1.851,-2.805c-0.075,-0.092 -0.115,-0.207 -0.114,-0.326l0.054,-3.473l-5.02,-3.327l-3.176,1.4c-0.107,0.047 -0.228,0.055 -0.341,0.024c-1.084,-0.316 -2.202,-0.523 -3.323,-0.617c-0.12,-0.009 -0.233,-0.063 -0.317,-0.149l-2.033,-2.097l-5.902,1.197l-1.057,2.727c-0.044,0.113 -0.128,0.207 -0.236,0.263c-0.996,0.518 -1.944,1.142 -2.816,1.854c-0.092,0.074 -0.213,0.127 -0.326,0.115l-3.469,-0.054l-3.327,5.02l1.402,3.179c0.06,0.137 0.056,0.293 -0.01,0.426c-0.282,0.999 -0.489,2.114 -0.582,3.233c-0.01,0.12 -0.063,0.233 -0.15,0.318l-2.099,2.035l1.197,5.901l2.725,1.057c0.122,0.047 0.22,0.139 0.274,0.257c0.518,0.992 1.139,1.933 1.844,2.791c0.075,0.091 0.117,0.209 0.115,0.327l-0.053,3.471l5.019,3.329l3.184,-1.405c0.064,-0.028 0.132,-0.043 0.201,-0.043m5.637,3.93c-0.134,0 -0.264,-0.054 -0.359,-0.152l-2.097,-2.162c-1.067,-0.1 -2.124,-0.296 -3.145,-0.585l-3.268,1.441c-0.155,0.071 -0.335,0.053 -0.478,-0.04l-5.475,-3.63c-0.142,-0.095 -0.226,-0.254 -0.223,-0.425l0.054,-3.563c-0.665,-0.828 -1.258,-1.727 -1.766,-2.677l-2.805,-1.088c-0.159,-0.061 -0.276,-0.199 -0.31,-0.366l-1.305,-6.438c-0.034,-0.167 0.02,-0.339 0.142,-0.459l2.161,-2.095c0.1,-1.063 0.296,-2.12 0.584,-3.15l-1.439,-3.263c-0.069,-0.157 -0.054,-0.336 0.04,-0.479l3.629,-5.475c0.094,-0.142 0.228,-0.23 0.425,-0.224l3.561,0.055c0.836,-0.668 1.736,-1.261 2.679,-1.765l1.088,-2.807c0.062,-0.159 0.201,-0.275 0.367,-0.309l6.438,-1.306c0.167,-0.032 0.339,0.021 0.458,0.142l2.094,2.159c1.064,0.099 2.123,0.297 3.153,0.585l3.263,-1.439c0.155,-0.068 0.335,-0.052 0.478,0.041l5.475,3.629c0.142,0.095 0.226,0.254 0.224,0.425l-0.055,3.565c0.666,0.83 1.259,1.728 1.765,2.675l2.807,1.089c0.159,0.062 0.275,0.199 0.309,0.366l1.305,6.438c0.034,0.167 -0.02,0.34 -0.142,0.459l-2.162,2.097c-0.098,1.05 -0.295,2.106 -0.585,3.143l1.442,3.269c0.069,0.156 0.053,0.337 -0.041,0.478l-3.629,5.475c-0.094,0.141 -0.243,0.213 -0.424,0.223l-3.563,-0.053c-0.83,0.662 -1.729,1.253 -2.675,1.758l-1.091,2.813c-0.062,0.159 -0.2,0.275 -0.367,0.31l-6.437,1.305c-0.034,0.007 -0.067,0.01 -0.1,0.01" style="fill:#fff;fill-rule:nonzero;"/>
  <path d="M346.408,165.979l38.758,-35.328l-5.315,39.842l-33.443,-4.514Zm79.419,10.718l-15.695,-2.118l10.38,-77.809l-30.281,-4.086l-73.453,67.626l-3.859,28.93l63.291,8.542l-3.156,23.662l30.281,4.086l3.156,-23.661l15.695,2.117l3.641,-27.289Z" style="fill:#8964ce;fill-rule:nonzero;"/>
  <path d="M394.134,224.789c-0.03,-0 -0.06,-0.003 -0.09,-0.008c-0.272,-0.05 -0.452,-0.31 -0.402,-0.582l23.326,-127.93c0.049,-0.27 0.312,-0.44 0.582,-0.402c0.271,0.05 0.451,0.311 0.401,0.582l-23.326,127.93c-0.044,0.241 -0.254,0.41 -0.491,0.41" style="fill:#1a2e35;fill-rule:nonzero;"/>
  <path d="M414.831,98.418c-0.016,0.452 -0.395,0.806 -0.847,0.791c-0.452,-0.016 -0.807,-0.395 -0.791,-0.848c0.015,-0.452 0.395,-0.806 0.847,-0.791c0.452,0.016 0.806,0.396 0.791,0.848" style="fill:#1a2e35;fill-rule:nonzero;"/>
  <path d="M411.499,115.719c-0.016,0.452 -0.395,0.806 -0.847,0.791c-0.452,-0.016 -0.807,-0.395 -0.791,-0.848c0.015,-0.452 0.395,-0.806 0.847,-0.791c0.452,0.016 0.806,0.396 0.791,0.848" style="fill:#1a2e35;fill-rule:nonzero;"/>
  <path d="M408.166,133.02c-0.015,0.452 -0.395,0.806 -0.847,0.791c-0.452,-0.016 -0.807,-0.395 -0.791,-0.848c0.015,-0.452 0.395,-0.805 0.847,-0.791c0.452,0.016 0.807,0.396 0.791,0.848" style="fill:#1a2e35;fill-rule:nonzero;"/>
  <path d="M401.613,151.029c-0.016,0.453 -0.395,0.807 -0.847,0.791c-0.453,-0.016 -0.807,-0.395 -0.791,-0.847c0.015,-0.452 0.395,-0.806 0.847,-0.791c0.452,0.016 0.806,0.395 0.791,0.847" style="fill:#1a2e35;fill-rule:nonzero;"/>
  <path d="M401.501,167.621c-0.015,0.452 -0.395,0.807 -0.847,0.791c-0.452,-0.016 -0.806,-0.395 -0.791,-0.848c0.016,-0.452 0.395,-0.806 0.847,-0.791c0.452,0.016 0.807,0.396 0.791,0.848" style="fill:#1a2e35;fill-rule:nonzero;"/>
  <path d="M398.169,184.922c-0.016,0.452 -0.395,0.807 -0.847,0.791c-0.452,-0.016 -0.807,-0.395 -0.791,-0.848c0.015,-0.452 0.395,-0.806 0.847,-0.791c0.452,0.016 0.806,0.396 0.791,0.848" style="fill:#1a2e35;fill-rule:nonzero;"/>
  <path d="M394.836,202.223c-0.016,0.452 -0.395,0.807 -0.847,0.791c-0.452,-0.016 -0.806,-0.395 -0.791,-0.848c0.016,-0.452 0.395,-0.806 0.847,-0.791c0.452,0.016 0.806,0.396 0.791,0.848" style="fill:#1a2e35;fill-rule:nonzero;"/>
  <path d="M391.504,219.523c-0.015,0.452 -0.395,0.807 -0.847,0.791c-0.452,-0.016 -0.806,-0.395 -0.791,-0.848c0.016,-0.452 0.395,-0.805 0.847,-0.791c0.452,0.016 0.806,0.396 0.791,0.848" style="fill:#1a2e35;fill-rule:nonzero;"/>
  <path d="M400.794,151.502c-0.23,0 -0.438,-0.16 -0.488,-0.396c-0.058,-0.269 0.113,-0.535 0.384,-0.593l2.483,-0.533c0.274,-0.054 0.536,0.113 0.594,0.384c0.058,0.27 -0.114,0.535 -0.384,0.594l-2.484,0.533c-0.035,0.007 -0.07,0.011 -0.105,0.011" style="fill:#1a2e35;fill-rule:nonzero;"/>
  <path d="M409.085,142.289c-0,-0 -2.238,5.829 -2.991,9.36c-0.753,3.533 -0.799,11.425 -0.799,11.425" style="fill:#1a2e35;fill-rule:nonzero;"/>
  <path d="M405.295,163.574l-0.003,0c-0.276,-0.002 -0.498,-0.227 -0.497,-0.503c0.002,-0.324 0.054,-7.984 0.81,-11.526c0.753,-3.53 2.921,-9.196 3.013,-9.436c0.099,-0.257 0.387,-0.385 0.646,-0.287c0.258,0.099 0.387,0.389 0.288,0.646c-0.023,0.058 -2.233,5.834 -2.969,9.286c-0.734,3.442 -0.788,11.245 -0.788,11.323c-0.001,0.275 -0.225,0.497 -0.5,0.497" style="fill:#1a2e35;fill-rule:nonzero;"/>
  <path d="M222.452,249.889c1.389,-22.402 -1.166,-63.126 40.945,-57.735c45.135,5.777 32.222,58.555 32.222,58.555l-73.167,-0.82Z" style="fill:#1a2e35;fill-rule:nonzero;"/>
  <path d="M269.889,218.048c0,10.148 -8.227,18.375 -18.375,18.375c-10.149,0 -18.376,-8.227 -18.376,-18.375c0,-10.148 8.227,-18.375 18.376,-18.375c10.148,0 18.375,8.227 18.375,18.375" style="fill:#fff;fill-rule:nonzero;"/>
  <path d="M253.927,199.701c-8.704,-1.486 -18.01,4.93 -18.927,11.43l34.507,3.173c-1.216,-7.41 -8.674,-13.423 -15.58,-14.603" style="fill:#1a2e35;fill-rule:nonzero;"/>
  <path d="M265.576,217.591c-0.247,4.804 -2.865,8.574 -5.848,8.421c-2.983,-0.153 -5.201,-4.172 -4.954,-8.976c0.246,-4.803 2.864,-8.574 5.847,-8.421c2.983,0.153 5.202,4.171 4.955,8.976" style="fill:#1a2e35;fill-rule:nonzero;"/>
  <path d="M251.514,200.673c-9.581,0 -17.375,7.794 -17.375,17.375c0,9.581 7.794,17.375 17.375,17.375c9.581,0 17.375,-7.794 17.375,-17.375c0,-9.581 -7.794,-17.375 -17.375,-17.375m0,36.75c-10.684,0 -19.375,-8.691 -19.375,-19.375c0,-10.684 8.691,-19.375 19.375,-19.375c10.684,0 19.375,8.691 19.375,19.375c0,10.684 -8.691,19.375 -19.375,19.375" style="fill:#007cff;fill-rule:nonzero;"/>
  <g opacity="0.3">
    <path d="M290.485,249.325c-0.039,-0 -0.078,-0.005 -0.118,-0.014c-0.268,-0.064 -0.433,-0.335 -0.369,-0.603c0.033,-0.135 3.219,-13.695 -0.09,-27.404c-0.065,-0.268 0.1,-0.538 0.369,-0.603c0.265,-0.061 0.538,0.1 0.603,0.369c3.368,13.95 0.124,27.734 0.09,27.872c-0.055,0.23 -0.259,0.383 -0.485,0.383" style="fill:#fff;fill-rule:nonzero;"/>
  </g>
  <g opacity="0.3">
    <path d="M287.698,213.807c-0.19,-0 -0.371,-0.108 -0.455,-0.292c-1.286,-2.806 -2.881,-5.382 -4.742,-7.657c-0.175,-0.214 -0.143,-0.529 0.071,-0.703c0.213,-0.176 0.528,-0.145 0.704,0.07c1.914,2.341 3.555,4.99 4.876,7.874c0.115,0.251 0.005,0.548 -0.246,0.662c-0.068,0.031 -0.139,0.046 -0.208,0.046" style="fill:#fff;fill-rule:nonzero;"/>
  </g>
  <path d="M128.735,354.966c-0.125,0 -0.248,-0.001 -0.372,-0.005c-2.76,-0.076 -4.937,-2.375 -4.861,-5.136c0.075,-2.759 2.349,-4.894 5.135,-4.86c0.032,0.001 0.064,0.001 0.096,0.001c2.889,0 9.839,-3.51 24.378,-26.43c0.782,-1.23 2.061,-2.059 3.504,-2.269c1.445,-0.205 2.905,0.222 4.005,1.179c17.941,15.643 36.953,25.38 37.143,25.477c2.462,1.25 3.444,4.26 2.195,6.721c-1.25,2.462 -4.259,3.447 -6.72,2.196c-0.755,-0.383 -17.373,-8.88 -34.798,-23.146c-12.185,18.319 -21.228,26.272 -29.705,26.272" style="fill:#1a2e35;fill-rule:nonzero;"/>
  <path d="M159.67,316.548c-0.142,0 -0.284,-0.01 -0.428,-0.03c-1.64,-0.235 -2.78,-1.754 -2.546,-3.395c0.711,-4.976 -0.17,-23.626 -6.474,-38.126c-0.575,-1.321 -0.129,-2.864 1.061,-3.676c13.699,-9.335 42.877,-10.451 44.113,-10.494c1.647,-0.036 3.044,1.239 3.102,2.894c0.057,1.655 -1.238,3.045 -2.893,3.102c-0.271,0.01 -25.781,0.989 -38.889,8.203c5.584,14.438 6.85,32.436 5.92,38.947c-0.214,1.496 -1.497,2.575 -2.966,2.575" style="fill:#1a2e35;fill-rule:nonzero;"/>
  <path d="M164.71,312.664c-1.996,-4.706 -10.988,-4.172 -16.268,-0.139c-2.822,2.156 -6.641,8.641 -7.043,10.992c-0.401,2.35 1.228,4.48 4.024,4.238c3.447,-0.299 8.181,-5.309 8.181,-5.309c-3.149,3.088 0.914,5.267 6.977,0.801c3.363,-2.477 6.363,-5.313 4.129,-10.583" style="fill:#007cff;fill-rule:nonzero;"/>
  <path d="M346.727,229.687c0.451,0.168 0.961,0.267 1.437,0.323c4.983,0.59 9.382,-0.107 10.04,-0.728c-0.17,-0.155 -0.841,-0.582 -3.329,-1.058c-3.282,-0.625 -6.15,0.198 -8.148,1.463m-1.261,5.622c0.086,0.025 0.173,0.049 0.258,0.07c3.531,0.865 8.298,1.012 9.933,0.744c-0.506,-0.214 -1.54,-0.556 -3.635,-1.018c-2.774,-0.611 -4.942,-0.421 -6.556,0.204m-3.334,6.568c0.276,0.512 0.687,0.934 1.219,1.217c2.257,1.201 6.696,1.476 8.362,0.804c0.34,-0.138 0.391,-0.252 0.391,-0.253c-0,-0.003 -0.055,-0.562 -2.501,-1.609c-2.803,-1.2 -5.038,-1.368 -6.831,-0.518c-0.219,0.105 -0.432,0.224 -0.64,0.359m-5.426,9.331c-0.045,0 -0.092,-0.005 -0.138,-0.019c-0.265,-0.076 -0.419,-0.354 -0.342,-0.618c1.332,-4.64 2.787,-7.475 4.699,-9.051c-0.293,-0.996 -0.26,-2.14 0.153,-3.259c0.402,-1.089 1.179,-2.171 2.362,-3.005c-0.579,-0.626 -0.795,-1.445 -0.59,-2.381c0.226,-1.042 0.984,-2.17 2.136,-3.157c-0.453,-0.52 -0.564,-1.088 -0.567,-1.508c-0.025,-2.982 5.507,-7.525 11.762,-8.378c0.275,-0.051 0.526,0.153 0.563,0.427c0.037,0.274 -0.154,0.526 -0.428,0.563c-5.938,0.81 -10.917,5.109 -10.897,7.38c0.003,0.368 0.139,0.664 0.362,0.903c2.251,-1.567 5.574,-2.575 9.282,-1.863c3.069,0.587 4.317,1.235 4.173,2.167c-0.272,1.753 -6.809,2.115 -11.19,1.593c-0.993,-0.118 -1.72,-0.352 -2.25,-0.645c-1.09,0.891 -1.787,1.891 -1.969,2.73c-0.163,0.749 0.078,1.272 0.495,1.636c1.856,-0.957 4.469,-1.357 7.916,-0.595c4.536,1.001 4.706,1.554 4.808,1.883c0.072,0.236 0.014,0.477 -0.161,0.662c-0.956,1.013 -7.907,0.533 -11.398,-0.323c-0.455,-0.111 -0.857,-0.263 -1.203,-0.451c-1.157,0.728 -1.901,1.713 -2.267,2.708c-0.295,0.798 -0.362,1.593 -0.226,2.303c0.18,-0.108 0.364,-0.205 0.552,-0.295c2.069,-0.982 4.571,-0.818 7.654,0.501c2.044,0.876 3.031,1.65 3.103,2.439c0.021,0.234 -0.025,0.68 -0.571,1.042c-1.525,1.013 -6.87,0.86 -9.648,-0.62c-0.655,-0.35 -1.175,-0.865 -1.538,-1.486c-1.635,1.493 -2.953,4.166 -4.157,8.355c-0.063,0.22 -0.262,0.362 -0.48,0.362" style="fill:var(--spruce-404-black-color);fill-rule:nonzero;"/>
  <path d="M206.528,353.296c0.658,-0.211 0.438,-0.847 -0.297,-0.847l-13.539,0c-25.781,-2.73 -43.794,0.929 -32.444,1.791c11.35,0.864 -0.8,0.682 -9.088,3.818c-8.289,3.135 61.654,3.926 68.015,0c5.867,-3.62 -21.782,-1.834 -12.647,-4.762" style="fill:#1a2e35;fill-rule:nonzero;"/>
  <path d="M303.469,357.286l-117.802,-3.905l-4.889,-114.222l139.111,3.111l-16.42,115.016Z" style="fill:#2150f6;fill-rule:nonzero;"/>
  <path d="M222.452,355.101c-0.258,0 -0.477,-0.197 -0.498,-0.459l-9.443,-114.721c-0.023,-0.275 0.182,-0.516 0.457,-0.539c0.283,-0.015 0.517,0.182 0.54,0.457l9.443,114.721c0.022,0.275 -0.182,0.517 -0.457,0.539c-0.015,0.001 -0.028,0.002 -0.042,0.002" style="fill:#1a2e35;fill-rule:nonzero;"/>
  <path d="M303.469,357.286l31.663,-4.82l9.972,-106.21l-25.215,-3.986l-16.42,115.016Z" style="fill:#007cff;fill-rule:nonzero;"/>
  <path d="M195.735,331.363l-2.905,-67.861c-0.303,-7.083 5.444,-12.949 12.532,-12.79l88.059,1.968c7.354,0.165 12.911,6.719 11.871,14l-9.763,68.392c-0.885,6.198 -6.295,10.735 -12.552,10.528l-75.391,-2.499c-6.411,-0.213 -11.577,-5.328 -11.851,-11.738" style="fill:#1a2e35;fill-rule:nonzero;"/>
  <path d="M283.999,318.206c-0.356,0 -0.71,-0.144 -0.97,-0.427l-8.56,-9.369l-9.237,8.44c-0.535,0.49 -1.365,0.451 -1.855,-0.083l-8.56,-9.37l-9.237,8.44c-0.535,0.489 -1.366,0.451 -1.854,-0.083l-8.561,-9.369l-9.237,8.44c-0.256,0.235 -0.602,0.359 -0.944,0.343c-0.348,-0.016 -0.675,-0.169 -0.91,-0.426l-8.561,-9.369l-9.237,8.439c-0.534,0.49 -1.365,0.451 -1.854,-0.083c-0.489,-0.535 -0.451,-1.366 0.084,-1.854l10.205,-9.325c0.535,-0.491 1.366,-0.452 1.855,0.083l8.56,9.369l9.237,-8.441c0.257,-0.235 0.601,-0.356 0.945,-0.342c0.347,0.015 0.675,0.169 0.91,0.425l8.56,9.37l9.237,-8.44c0.534,-0.49 1.365,-0.452 1.855,0.083l8.56,9.369l9.237,-8.439c0.535,-0.491 1.365,-0.453 1.854,0.083l9.447,10.338c0.489,0.535 0.451,1.366 -0.084,1.854c-0.252,0.231 -0.569,0.344 -0.885,0.344Zm-8.092,-27.953l0.524,-16.452l8.473,0.269c1.571,0.051 2.767,0.223 3.589,0.52c0.822,0.295 1.476,0.816 1.961,1.561c0.486,0.747 0.712,1.643 0.679,2.69c-0.029,0.913 -0.249,1.694 -0.659,2.344c-0.411,0.65 -0.963,1.17 -1.657,1.559c-0.443,0.248 -1.045,0.447 -1.806,0.594c0.599,0.222 1.033,0.438 1.304,0.648c0.182,0.142 0.444,0.439 0.785,0.892c0.341,0.453 0.568,0.801 0.68,1.045l2.31,4.846l-5.744,-0.184l-2.558,-5.114c-0.323,-0.661 -0.617,-1.094 -0.88,-1.297c-0.358,-0.266 -0.77,-0.406 -1.233,-0.421l-0.449,-0.015l-0.213,6.678l-5.106,-0.163Zm-19.591,-8.846c0.086,-2.686 0.9,-4.753 2.444,-6.202c1.544,-1.448 3.652,-2.131 6.323,-2.046c2.738,0.087 4.824,0.89 6.259,2.407c1.434,1.517 2.109,3.6 2.025,6.249c-0.061,1.922 -0.435,3.489 -1.121,4.699c-0.687,1.21 -1.652,2.138 -2.897,2.784c-1.245,0.646 -2.78,0.939 -4.606,0.881c-1.855,-0.059 -3.381,-0.403 -4.578,-1.033c-1.198,-0.63 -2.153,-1.596 -2.868,-2.9c-0.715,-1.303 -1.042,-2.917 -0.981,-4.839Zm-17.038,7.681l0.523,-16.452l8.473,0.269c1.571,0.05 2.768,0.223 3.589,0.519c0.822,0.296 1.476,0.816 1.962,1.561c0.485,0.747 0.711,1.643 0.678,2.691c-0.029,0.913 -0.249,1.693 -0.659,2.344c-0.41,0.649 -0.963,1.169 -1.657,1.559c-0.442,0.248 -1.045,0.446 -1.806,0.594c0.599,0.222 1.033,0.437 1.304,0.648c0.183,0.141 0.444,0.438 0.786,0.891c0.34,0.453 0.567,0.802 0.679,1.045l2.31,4.846l-5.744,-0.183l-2.557,-5.114c-0.324,-0.661 -0.617,-1.094 -0.88,-1.297c-0.359,-0.267 -0.77,-0.407 -1.234,-0.422l-0.449,-0.015l-0.212,6.678l-5.106,-0.162Zm-17.878,-0.569l0.524,-16.452l8.473,0.269c1.571,0.051 2.767,0.224 3.589,0.52c0.822,0.295 1.476,0.816 1.961,1.561c0.486,0.747 0.712,1.643 0.679,2.69c-0.029,0.913 -0.249,1.694 -0.659,2.344c-0.411,0.65 -0.963,1.17 -1.657,1.559c-0.443,0.248 -1.045,0.447 -1.806,0.595c0.599,0.222 1.033,0.437 1.304,0.647c0.182,0.142 0.444,0.439 0.785,0.892c0.341,0.453 0.568,0.801 0.68,1.045l2.31,4.846l-5.744,-0.184l-2.558,-5.114c-0.323,-0.661 -0.616,-1.094 -0.88,-1.297c-0.358,-0.266 -0.769,-0.406 -1.233,-0.421l-0.449,-0.015l-0.212,6.678l-5.107,-0.163Zm-16.153,-16.983l13.624,0.434l-0.112,3.512l-8.529,-0.271l-0.083,2.614l7.912,0.252l-0.107,3.355l-7.912,-0.25l-0.103,3.243l8.776,0.279l-0.119,3.726l-13.871,-0.442l0.524,-16.452Zm56.152,10.055c-0.053,1.661 0.218,2.864 0.812,3.609c0.594,0.745 1.422,1.135 2.485,1.169c1.092,0.035 1.949,-0.294 2.57,-0.985c0.621,-0.691 0.961,-1.958 1.019,-3.799c0.05,-1.548 -0.227,-2.689 -0.828,-3.424c-0.602,-0.734 -1.438,-1.119 -2.508,-1.153c-1.026,-0.032 -1.86,0.305 -2.504,1.011c-0.644,0.706 -0.993,1.896 -1.046,3.572Zm19.926,-0.961l2.143,0.068c0.232,0.007 0.683,-0.053 1.354,-0.181c0.339,-0.057 0.619,-0.22 0.842,-0.491c0.222,-0.269 0.338,-0.584 0.349,-0.943c0.018,-0.531 -0.138,-0.944 -0.466,-1.239c-0.327,-0.295 -0.955,-0.458 -1.883,-0.487l-2.233,-0.072l-0.106,3.345Zm-36.63,-1.166l2.144,0.068c0.231,0.008 0.683,-0.052 1.353,-0.181c0.339,-0.056 0.62,-0.22 0.842,-0.49c0.222,-0.27 0.338,-0.584 0.35,-0.944c0.017,-0.531 -0.138,-0.944 -0.466,-1.239c-0.328,-0.295 -0.956,-0.457 -1.883,-0.486l-2.234,-0.072l-0.106,3.344Zm-17.877,-0.568l2.143,0.068c0.232,0.007 0.683,-0.053 1.354,-0.181c0.339,-0.057 0.619,-0.22 0.842,-0.491c0.222,-0.269 0.338,-0.584 0.35,-0.943c0.017,-0.531 -0.139,-0.944 -0.466,-1.239c-0.328,-0.295 -0.956,-0.458 -1.884,-0.487l-2.233,-0.072l-0.106,3.345Z" style="fill:#fff;fill-rule:nonzero;"/>
  <path d="M125.75,359.715l-6.258,-2.985l-5.583,-27.167l3.03,-3.337l8.811,33.489Z" style="fill:#007cff;fill-rule:nonzero;"/>
  <path d="M125.75,359.715l8.305,-4.852l-7.12,-22.383l-9.996,-6.254l8.811,33.489Z" style="fill:#007cff;fill-rule:nonzero;"/>
  <g opacity="0.2">
    <path d="M125.75,359.715l8.305,-4.852l-7.12,-22.383l-9.996,-6.254l8.811,33.489Z" style="fill-rule:nonzero;"/>
  </g>
  <path d="M261.949,364.653c-0.236,0 -0.467,-0.004 -0.691,-0.01c-2.761,-0.076 -4.937,-2.375 -4.861,-5.136c0.075,-2.758 2.356,-4.928 5.135,-4.86c7.703,0.252 24.006,-4.48 33.319,-13.52c0.576,-0.559 1.277,-0.971 2.046,-1.202c15.788,-4.738 21.664,4.834 21.906,5.245l-8.607,5.089c0,0 0.033,0.07 0.115,0.183c-0.095,-0.132 -2.331,-3.039 -9.451,-1.24c-11.687,10.668 -29.627,15.451 -38.911,15.451" style="fill:#1a2e35;fill-rule:nonzero;"/>
  <path d="M261.395,371.3l-18.213,-1.147l-1.437,-33.577l24.477,0.915l-4.827,33.809Z" style="fill:#007cff;fill-rule:nonzero;"/>
  <path d="M261.395,371.3l4.257,-4.236l2.639,-20.937l-2.069,-8.636l-4.827,33.809Z" style="fill:#007cff;fill-rule:nonzero;"/>
  <g opacity="0.2">
    <path d="M261.395,371.3l4.257,-4.236l2.639,-20.937l-2.069,-8.636l-4.827,33.809Z" style="fill-rule:nonzero;"/>
  </g>
  <path d="M366.91,358.585c-0.632,0 -1.27,-0.199 -1.813,-0.611c-10.395,-7.901 -24.445,-21.926 -29.837,-35.457c-0.079,-0.198 -0.136,-0.404 -0.171,-0.614c-2.629,-15.632 -5.141,-48.541 -5.247,-49.934c-0.125,-1.652 1.112,-3.093 2.764,-3.218c1.648,-0.121 3.094,1.112 3.219,2.765c0.025,0.336 2.562,33.566 5.127,49.073c5.378,13.156 19.958,26.666 27.776,32.607c1.319,1.003 1.576,2.885 0.573,4.204c-0.59,0.777 -1.485,1.185 -2.391,1.185" style="fill:#1a2e35;fill-rule:nonzero;"/>
  <path d="M380.778,360.101c-2.319,0 -4.949,-1.052 -7.814,-3.125c-1.343,-0.972 -1.644,-2.847 -0.672,-4.189c0.972,-1.342 2.847,-1.643 4.189,-0.672c2.477,1.793 3.83,1.986 4.297,1.986c1.657,0 3,1.343 3,3c0,1.657 -1.343,3 -3,3" style="fill:#1a2e35;fill-rule:nonzero;"/>
  <path d="M373.804,356.891c3.21,-9.536 16.37,-7.651 20.902,-6.235c4.531,1.416 8.615,3.197 11.069,4.802c2.455,1.605 2.494,4.286 -0.779,5.817c-4.036,1.887 -14.161,0.212 -14.161,0.212c5.241,2.295 -0.01,5.972 -9.205,2.36c-2.993,-1.176 -8.959,-3.463 -7.826,-6.956" style="fill:#007cff;fill-rule:nonzero;"/>
  <path d="M341.862,276.084c-1.191,8.102 -7.9,14.076 -13.357,13.274c-5.458,-0.802 -5.685,-8.038 -4.494,-16.139c1.191,-8.103 3.349,-14.002 8.807,-13.199c5.457,0.801 10.235,7.962 9.044,16.064" style="fill:#1a2e35;fill-rule:nonzero;"/>
  <path d="M210.694,242.923c-0,0.452 -0.367,0.819 -0.819,0.819c-0.453,0 -0.82,-0.367 -0.82,-0.819c-0,-0.452 0.367,-0.819 0.82,-0.819c0.452,0 0.819,0.367 0.819,0.819" style="fill:#1a2e35;fill-rule:nonzero;"/>
  <path d="M218.208,248.825c0,0.453 -0.367,0.82 -0.819,0.82c-0.453,-0 -0.82,-0.367 -0.82,-0.82c0,-0.452 0.367,-0.819 0.82,-0.819c0.452,-0 0.819,0.367 0.819,0.819" style="fill:#1a2e35;fill-rule:nonzero;"/>
  <path d="M219.125,345.73c0,0.453 -0.367,0.819 -0.819,0.819c-0.453,0 -0.82,-0.366 -0.82,-0.819c0,-0.452 0.367,-0.819 0.82,-0.819c0.452,0 0.819,0.367 0.819,0.819" style="fill:#1a2e35;fill-rule:nonzero;"/>
  <path d="M226.639,351.634c0,0.452 -0.367,0.819 -0.82,0.819c-0.452,0 -0.819,-0.367 -0.819,-0.819c0,-0.453 0.367,-0.82 0.819,-0.82c0.453,0 0.82,0.367 0.82,0.82" style="fill:#1a2e35;fill-rule:nonzero;"/>
  <path d="M93.508,351.449l-0.002,0c-0.002,0.001 -0.375,0.19 -0.52,1.86c-0.146,1.683 0.159,2.824 0.934,3.485c0.175,0.15 0.376,0.276 0.599,0.379c0.282,-0.313 0.476,-0.663 0.543,-1.029c0.268,-1.449 -0.422,-3.571 -1.196,-4.429c-0.201,-0.224 -0.33,-0.266 -0.358,-0.266m-6.291,0.868c-0.006,0.376 0.028,1.008 0.177,2.059c0.203,1.427 0.73,2.524 1.519,3.222c-0.234,-2.007 -1.125,-4.333 -1.696,-5.281m-5.571,0.872c-0.058,0.154 -0.163,0.659 0.084,2.044c0.329,1.84 1.52,3.063 2.84,3.708c-0.007,-0.213 -0.046,-0.449 -0.117,-0.708c-0.785,-2.858 -2.278,-4.828 -2.807,-5.044m0.864,8.278c-2.379,0 -5.597,-1.443 -7.333,-3.95c-0.157,-0.226 -0.101,-0.538 0.126,-0.695c0.227,-0.158 0.538,-0.101 0.696,0.127c1.866,2.694 5.979,4.131 7.805,3.28c0.192,-0.09 0.348,-0.203 0.468,-0.339c-1.632,-0.754 -3.124,-2.23 -3.526,-4.481c-0.227,-1.268 -0.407,-2.981 0.639,-3.217c1.434,-0.322 3.31,3.147 4.032,5.776c0.134,0.486 0.176,0.936 0.131,1.342c0.632,0.173 1.253,0.218 1.786,0.141c0.433,-0.063 1.049,-0.241 1.375,-0.745c-1.215,-0.821 -2.033,-2.269 -2.305,-4.19c-0.388,-2.734 -0.097,-3.211 0.206,-3.444c0.197,-0.151 0.447,-0.18 0.688,-0.078c1.069,0.455 2.365,4.334 2.613,6.529c0.027,0.242 0.027,0.474 0.002,0.694c0.409,0.163 0.861,0.252 1.349,0.261c0.867,0.05 1.724,-0.225 2.41,-0.629c-0.142,-0.088 -0.276,-0.187 -0.402,-0.295c-1.038,-0.886 -1.456,-2.303 -1.281,-4.331c0.136,-1.567 0.493,-2.423 1.123,-2.693c0.221,-0.098 0.671,-0.189 1.208,0.239c1.08,0.864 2.088,3.598 1.726,5.557c-0.076,0.405 -0.25,0.794 -0.503,1.151c1.835,0.317 4.417,-0.199 6.644,-0.749c0.267,-0.065 0.539,0.097 0.605,0.366c0.067,0.268 -0.097,0.539 -0.365,0.605c-2.71,0.67 -5.627,1.215 -7.688,0.617c-0.916,0.729 -2.205,1.171 -3.498,1.162c-0.589,-0.011 -1.138,-0.117 -1.639,-0.307c-0.394,0.671 -1.127,1.125 -2.124,1.27c-0.664,0.099 -1.446,0.035 -2.238,-0.191c-0.225,0.375 -0.565,0.676 -1.013,0.886c-0.478,0.222 -1.066,0.33 -1.717,0.331" style="fill:#1a2e35;fill-rule:nonzero;"/>
  <path d="M228.873,369.025l2.71,-4.7l-2.71,-4.699l-2.901,-0l1.639,4.7l-1.639,4.699l2.901,-0Z" style="fill:#1a2e35;fill-rule:nonzero;"/>
  <path d="M226.163,366.775c-1.35,-0 -2.45,-1.1 -2.45,-2.45c0,-1.35 1.1,-2.44 2.45,-2.44l-4.607,-0.922l-1.223,3.721l2.056,3.139l3.774,-1.048Z" style="fill:#1a2e35;fill-rule:nonzero;"/>
  <path d="M223.847,366.775c-1.35,-0 -2.45,-1.1 -2.45,-2.45c0,-1.35 1.1,-2.44 2.45,-2.44c1.35,-0 2.44,1.09 2.44,2.44c0,1.35 -1.09,2.45 -2.44,2.45m2.71,-7.149l-5.43,-0l-2.71,4.699l2.71,4.7l5.43,-0l2.71,-4.7l-2.71,-4.699Z" style="fill:#007cff;fill-rule:nonzero;"/>
  <path d="M417.889,359.312l-2.013,-3.49l2.013,-3.49l2.155,0l-1.218,3.49l1.218,3.49l-2.155,0Z" style="fill:#007cff;fill-rule:nonzero;"/>
  <path d="M419.902,357.642c1.003,0 1.82,-0.816 1.82,-1.819c0,-1.002 -0.817,-1.813 -1.82,-1.813l3.422,-0.684l0.908,2.763l-1.527,2.331l-2.803,-0.778Z" style="fill:#007cff;fill-rule:nonzero;"/>
  <path d="M421.623,357.642c1.002,0 1.82,-0.816 1.82,-1.819c0,-1.002 -0.818,-1.813 -1.82,-1.813c-1.002,0 -1.812,0.811 -1.812,1.813c0,1.003 0.81,1.819 1.812,1.819m-2.013,-5.31l4.033,0l2.013,3.491l-2.013,3.49l-4.033,0l-2.012,-3.49l2.012,-3.491Z" style="fill:#1a2e35;fill-rule:nonzero;"/>
  <path d="M342.948,363.946l4.518,0c1.177,0 2.139,-0.963 2.139,-2.14c0,-1.175 -0.962,-2.138 -2.139,-2.138l-4.518,0c-1.177,0 -2.139,0.963 -2.139,2.138c0,1.177 0.962,2.14 2.139,2.14" style="fill:#1a2e35;fill-rule:nonzero;"/>
  <path d="M335.73,359.911c1.116,-2.366 3.821,-3.436 6.042,-2.389c2.221,1.048 3.117,3.815 2.001,6.181c-1.116,2.366 -3.82,3.436 -6.041,2.388c-2.221,-1.047 -3.117,-3.814 -2.002,-6.18" style="fill:#007cff;fill-rule:nonzero;"/>
  <path d="M338.211,366.666l-1.233,-0.583l4.313,-9.135l1.234,0.582l-4.314,9.136Z" style="fill:#1a2e35;"/>
</svg>
