<svg id="Capa_1" enable-background="new 0 0 510 510" height="512" viewBox="0 0 510 510" width="512" xmlns="http://www.w3.org/2000/svg" xmlns:xlink="http://www.w3.org/1999/xlink"><linearGradient id="lg1"><stop offset="0" stop-color="#f8f6f7"/><stop offset=".1788" stop-color="#f8f6f7"/><stop offset="1" stop-color="#e7e6f5"/></linearGradient><linearGradient id="SVGID_1_" gradientUnits="userSpaceOnUse" x1="0" x2="510" xlink:href="#lg1" y1="230.3" y2="230.3"/><linearGradient id="lg2"><stop offset="0" stop-color="#f8f6f7"/><stop offset="1" stop-color="#d1ceeb"/></linearGradient><linearGradient id="SVGID_2_" gradientUnits="userSpaceOnUse" x1="-6" x2="303.584" xlink:href="#lg2" y1="292.56" y2="292.56"/><linearGradient id="lg3"><stop offset="0" stop-color="#fe646f"/><stop offset=".1209" stop-color="#fe556d"/><stop offset=".3524" stop-color="#fe2e69"/><stop offset=".5725" stop-color="#fe0364"/><stop offset="1" stop-color="#d2024e"/></linearGradient><linearGradient id="SVGID_3_" gradientUnits="userSpaceOnUse" x1="112.662" x2="397.338" xlink:href="#lg3" y1="317.262" y2="317.262"/><linearGradient id="SVGID_4_" gradientUnits="userSpaceOnUse" x1="42" x2="360.057" xlink:href="#lg3" y1="317.262" y2="317.262"/><linearGradient id="SVGID_5_" gradientUnits="userSpaceOnUse" x1="-210.833" x2="495.657" xlink:href="#lg2" y1="230.299" y2="230.299"/><linearGradient id="lg4"><stop offset="0" stop-color="#b5adb6"/><stop offset=".5106" stop-color="#918291"/><stop offset="1" stop-color="#554e56"/></linearGradient><linearGradient id="SVGID_6_" gradientUnits="userSpaceOnUse" x1="0" x2="560.013" xlink:href="#lg4" y1="87.33" y2="87.33"/><linearGradient id="SVGID_7_" gradientUnits="userSpaceOnUse" x1="30" x2="117.144" xlink:href="#lg3" y1="87.33" y2="87.33"/><linearGradient id="SVGID_8_" gradientUnits="userSpaceOnUse" x1="93.5" x2="162.22" y1="87.33" y2="87.33"><stop offset="0" stop-color="#fff3be"/><stop offset=".5725" stop-color="#ffd15b"/><stop offset="1" stop-color="#eca026"/></linearGradient><linearGradient id="SVGID_9_" gradientUnits="userSpaceOnUse" x1="160" x2="243.793" y1="87.33" y2="87.33"><stop offset="0" stop-color="#fff3be"/><stop offset=".5725" stop-color="#bbec6c"/><stop offset="1" stop-color="#81b823"/></linearGradient><linearGradient id="SVGID_10_" gradientUnits="userSpaceOnUse" x1="323" x2="477.013" xlink:href="#lg4" y1="87.33" y2="87.33"/><linearGradient id="SVGID_11_" gradientUnits="userSpaceOnUse" x1="154.125" x2="370.874" xlink:href="#lg1" y1="316.892" y2="316.892"/><linearGradient id="SVGID_12_" gradientUnits="userSpaceOnUse" x1="154.125" x2="370.874" xlink:href="#lg1" y1="317.262" y2="317.262"/><g><path d="m493.024 410.197h-476.048c-9.376 0-16.976-7.601-16.976-16.976v-325.842c0-9.376 7.6-16.976 16.976-16.976h476.048c9.376 0 16.976 7.6 16.976 16.976v325.841c0 9.376-7.6 16.977-16.976 16.977z" fill="url(#SVGID_1_)"/><path d="m230.136 174.923c-78.611 0-142.338 63.727-142.338 142.338 0 35.52 13.013 67.999 34.528 92.935h215.62c21.515-24.937 34.528-57.416 34.528-92.935 0-78.611-63.727-142.338-142.338-142.338z" fill="url(#SVGID_2_)"/><circle cx="255" cy="317.262" fill="url(#SVGID_3_)" r="142.338"/><path d="m255 174.923c-6.864 0-13.611.496-20.216 1.436 69.035 9.817 122.122 69.155 122.122 140.903s-53.087 131.085-122.122 140.903c6.605.939 13.352 1.436 20.216 1.436 78.611 0 142.338-63.727 142.338-142.338s-63.727-142.34-142.338-142.34z" fill="url(#SVGID_4_)"/><path d="m493.024 50.403-476.044-.003c-9.38 0-16.98 7.6-16.98 16.98v81.74h432.184c20.63 0 37.354 16.724 37.354 37.354v206.747c0 9.376-7.6 16.976-16.976 16.976h40.462c9.376 0 16.976-7.6 16.976-16.976v-325.842c0-9.375-7.6-16.976-16.976-16.976z" fill="url(#SVGID_5_)"/><path d="m493.024 50.403h-476.048c-9.376 0-16.976 7.601-16.976 16.976v56.877h510v-56.876c0-9.376-7.6-16.977-16.976-16.977z" fill="url(#SVGID_6_)"/><circle cx="49.392" cy="87.33" fill="url(#SVGID_7_)" r="25.212"/><circle cx="122.121" cy="87.33" fill="url(#SVGID_8_)" r="25.212"/><circle cx="194.85" cy="87.33" fill="url(#SVGID_9_)" r="25.212"/><path d="m510 124.256v-56.877c0-9.376-7.601-16.976-16.976-16.976h-40.461c9.376 0 16.976 7.6 16.976 16.976v56.877z" fill="url(#SVGID_10_)"/><g><path d="m213.609 325.219h-5.306v-8.635c0-4.071-4.811-5.799-9.622-5.799s-9.623 1.728-9.623 5.799v8.635h-10.609l21.836-43.795c.37-.863.617-1.604.617-2.344 0-4.441-6.292-7.279-9.623-7.279-3.084 0-6.168 1.357-8.019 4.936l-28.498 55.885c-.74 1.357-.987 2.715-.987 3.701 0 4.318 2.838 6.662 6.415 6.662h28.868v13.077c0 3.947 4.812 5.921 9.623 5.921s9.622-1.974 9.622-5.921v-13.077h5.306c2.96 0 5.921-4.441 5.921-8.883s-1.973-8.883-5.921-8.883z" fill="url(#SVGID_11_)"/><path d="m255.062 271.801c-17.024 0-30.225 7.896-30.225 29.115v32.692c0 21.22 13.2 29.114 30.225 29.114s30.349-7.895 30.349-29.114v-32.692c-.001-21.219-13.324-29.115-30.349-29.115zm11.103 61.807c0 8.513-4.194 12.337-11.104 12.337-6.908 0-10.979-3.824-10.979-12.337v-32.692c0-8.512 4.071-12.336 10.979-12.336 6.909 0 11.104 3.824 11.104 12.336z" fill="url(#SVGID_12_)"/><path d="m350.303 325.219h-5.305v-8.635c0-4.071-4.811-5.799-9.622-5.799s-9.623 1.728-9.623 5.799v8.635h-10.609l21.836-43.795c.37-.863.617-1.604.617-2.344 0-4.441-6.292-7.279-9.623-7.279-3.084 0-6.168 1.357-8.019 4.936l-28.498 55.885c-.74 1.357-.987 2.715-.987 3.701 0 4.318 2.838 6.662 6.415 6.662h28.868v13.077c0 3.947 4.812 5.921 9.623 5.921s9.622-1.974 9.622-5.921v-13.077h5.305c2.961 0 5.922-4.441 5.922-8.883s-1.974-8.883-5.922-8.883z" fill="url(#SVGID_11_)"/></g></g></svg>