<?xml version="1.0" encoding="UTF-8" standalone="no"?>
<!DOCTYPE svg PUBLIC "-//W3C//DTD SVG 1.1//EN" "http://www.w3.org/Graphics/SVG/1.1/DTD/svg11.dtd">
<svg width="100%" height="100%" viewBox="0 0 10256 788" version="1.1" xmlns="http://www.w3.org/2000/svg" xmlns:xlink="http://www.w3.org/1999/xlink" xml:space="preserve" xmlns:serif="http://www.serif.com/" style="fill-rule:evenodd;clip-rule:evenodd;stroke-linejoin:round;stroke-miterlimit:2;">
    <path d="M2249.76,474.884c-38.792,28.709 -27.292,54.213 -27.292,77.496c-0.208,195.059 -5.375,211.434 -206.749,223.308c-572.042,33.542 -1139.54,1.418 -1692.63,-150.999c-167.333,-46.042 -276.708,-157.479 -316.667,-322.517c-20.374,-83.862 6.084,-119.517 102.501,-117.684c301.417,5.739 602.958,8.826 904.291,8.504c732.958,-0.608 1465.75,-0.487 2198.75,-6.737c1172.46,-9.85 2345.5,-10.645 3517.42,-42.525c733.333,-19.82 1466.29,-42.007 2199.92,-47.704c110.875,-0.917 221.334,-2.062 323.999,-63.321c82.916,-49.571 185,-29.571 279.417,-23.995c163.709,9.891 327.043,25.738 490.875,32.97c98.208,4.346 158.458,44.442 198.208,128.071c66.292,139.679 38.584,197.279 -129.167,198.817c-586.541,5.183 -1172.75,53.833 -1759.83,8.529c-102.501,-7.908 -206.792,2.496 -310.083,7.637c-783.25,38.451 -1567.59,22.259 -2351.29,36.359c-957.666,17.221 -1915.21,32.308 -2872.79,45.479c-187.708,2.483 -376.292,-24.6 -548.875,8.312Z" style="fill:#0cb3cc;"/>
</svg>
