<svg width="100%" height="100%" viewBox="0 0 24 24" version="1.1" xmlns="http://www.w3.org/2000/svg" xmlns:xlink="http://www.w3.org/1999/xlink" xml:space="preserve" style="fill-rule:evenodd;clip-rule:evenodd;stroke-linejoin:round;stroke-miterlimit:2;">
    <path id="_x30_4.Twitter" d="M24,4.545c-0.9,0.39 -1.83,0.66 -2.82,0.78c1.02,-0.6 1.8,-1.56 2.16,-2.73c-0.96,0.57 -2.01,0.96 -3.12,1.2c-0.9,-0.96 -2.19,-1.56 -3.6,-1.56c-2.73,0 -4.92,2.22 -4.92,4.92c0,0.39 0.03,0.75 0.12,1.11c-4.08,-0.18 -7.68,-2.16 -10.11,-5.13c-1.74,3.12 0.21,5.7 1.5,6.57c-0.78,0 -1.56,-0.24 -2.22,-0.6c0,2.43 1.71,4.44 3.93,4.89c-0.48,0.15 -1.56,0.24 -2.22,0.09c0.63,1.95 2.46,3.39 4.59,3.42c-1.68,1.32 -4.14,2.37 -7.29,2.04c2.19,1.41 4.77,2.22 7.56,2.22c9.06,0 13.98,-7.5 13.98,-13.98c-0,-0.21 -0,-0.42 -0.03,-0.63c1.02,-0.75 1.86,-1.62 2.49,-2.61Z" style="fill-rule:nonzero;"/>
</svg>
