<svg width="100%" height="100%" viewBox="0 0 493 493" version="1.1" xmlns="http://www.w3.org/2000/svg" xmlns:xlink="http://www.w3.org/1999/xlink" xml:space="preserve" style="fill-rule:evenodd;clip-rule:evenodd;stroke-linejoin:round;stroke-miterlimit:2;" aria-hidden="true">
    <path d="M7.864,265.118l177.68,177.684c5.072,5.072 11.832,7.856 19.04,7.856c7.216,0 13.972,-2.788 19.044,-7.856l16.132,-16.136c5.068,-5.064 7.86,-11.828 7.86,-19.04c0,-7.208 -2.792,-14.2 -7.86,-19.264l-103.656,-103.884l329.32,0c14.848,0 26.58,-11.624 26.58,-26.476l0,-22.812c0,-14.852 -11.732,-27.648 -26.58,-27.648l-330.496,-0l104.828,-104.464c5.068,-5.072 7.86,-11.652 7.86,-18.864c0,-7.204 -2.792,-13.88 -7.86,-18.948l-16.132,-16.084c-5.072,-5.072 -11.828,-7.836 -19.044,-7.836c-7.208,0 -13.968,2.8 -19.04,7.872l-177.68,177.68c-5.084,5.088 -7.88,11.88 -7.86,19.1c-0.016,7.244 2.776,14.04 7.864,19.12Z" style="fill:currentColor;"/>
</svg>
