<svg id="Capa_1" enable-background="new 0 0 512 512" height="512" viewBox="0 0 512 512" width="512" xmlns="http://www.w3.org/2000/svg"><g><path d="m431.267 69.405h-345.076c2.574-2.419 5.199-4.785 7.871-7.097.896-.775-3.66-1.544-2.753-2.307 44.516-37.444 101.969-60.001 164.691-60.001 67.811 0 129.464 26.366 175.267 69.405z" fill="#4bcd5c"/><path d="m452.43 185.083c0 92.001-74.582 166.583-166.583 166.583s-166.583-74.582-166.583-166.583 74.581-166.583 166.583-166.583 166.583 74.582 166.583 166.583z" fill="#74d579"/><path d="m512 256c0 50.59-14.675 97.753-40 137.464-.892 1.399-9.437 2.789-10.356 4.17-1.837 2.76-3.725 5.483-5.665 8.166h-273.979v-345.8h98l11.213 9.405h129.477c47.414 39.881 80.15 87.247 88.942 151.638l2.365 28.957v4.915c.002.362.003.723.003 1.085z" fill="#4f66d1"/><path d="m512 70v180h-232v-190h222c5.523 0 10 4.477 10 10z" fill="#6c7fd9"/><path d="m214 77v91c0 17.673-14.327 32-32 32-17.673 0-32-14.327-32-32v-41.173h-104.219c4.774-8.153 9.987-16.019 15.605-23.564 1.067-1.432-8.702-2.853-7.606-4.263 11.106-14.285 23.693-27.362 37.53-39h63.575c5.661-9.01 15.689-15 27.115-15 17.673 0 32 14.327 32 32z" fill="#314dca"/><path d="m202 119v367.304c0 10.349-9.966 17.857-19.876 14.875-2.19-.659-4.368-1.347-6.534-2.062-8.112-2.682-13.59-10.267-13.59-18.812v-360.826c0-10.845 8.433-20.081 19.271-20.466 11.378-.405 20.729 8.699 20.729 19.987z" fill="#b6c4cf"/><path d="m472 393.464c-45.451 71.269-125.206 118.536-216 118.536-25.73 0-50.573-3.796-74-10.858v-362.142c0-22.091 17.909-40 40-40h236.22c4.886 6.285 9.486 12.803 13.78 19.536z" fill="#d9e7ec"/><path d="m182 139v362.142c-13.375-4.032-26.288-9.128-38.641-15.191-.879-.431-.307-1.831-1.18-2.272-6.366-3.216-12.579-6.689-18.626-10.407-.952-.585-3.347-.212-4.29-.81-29.222-18.498-54.441-42.75-74.063-71.164-1.246-1.804 3.383-3.106 2.183-4.944-20.048-30.685-33.688-65.936-39.021-103.854-.326-2.317-6.474-5.163-6.737-7.5-.743-6.594-1.236-13.264-1.469-20-.019-.553 1.9-.989 1.884-1.543-.069-2.438-.103-4.885-.103-7.339 0-1.528.013-3.052.04-4.574.008-.476-1.918-1.068-1.907-1.543.142-6.168.502-12.281 1.072-18.333.051-.545 2.936-1 2.99-1.544.379-3.76.839-7.497 1.379-11.208.105-.721-2.619-1.529-2.508-2.248.954-6.187 2.13-12.301 3.518-18.333.189-.82 2.212-1.533 2.408-2.35.833-3.461 1.736-6.895 2.708-10.299.214-.749-1.399-1.604-1.178-2.35 1.836-6.213 3.901-12.327 6.186-18.333.398-1.046 4.08-1.942 4.491-2.981 1.203-3.042 2.463-6.055 3.778-9.038.418-.948-2.436-2.039-2.007-2.981 8.312-18.248 18.703-35.349 30.872-51h88.221c22.091-.003 40 17.906 40 39.997z" fill="#b6c4cf"/><path d="m217 157.5c0-4.142 3.358-7.5 7.5-7.5h205c4.142 0 7.5 3.358 7.5 7.5s-3.358 7.5-7.5 7.5h-205c-4.142 0-7.5-3.358-7.5-7.5zm212.5 25.833h-205c-4.142 0-7.5 3.358-7.5 7.5s3.358 7.5 7.5 7.5h205c4.142 0 7.5-3.358 7.5-7.5s-3.358-7.5-7.5-7.5zm0 33.334h-205c-4.142 0-7.5 3.358-7.5 7.5 0 4.142 3.358 7.5 7.5 7.5h205c4.142 0 7.5-3.358 7.5-7.5 0-4.142-3.358-7.5-7.5-7.5zm0 33.333h-205c-4.142 0-7.5 3.358-7.5 7.5s3.358 7.5 7.5 7.5h205c4.142 0 7.5-3.358 7.5-7.5s-3.358-7.5-7.5-7.5zm0 35h-205c-4.142 0-7.5 3.358-7.5 7.5s3.358 7.5 7.5 7.5h205c4.142 0 7.5-3.358 7.5-7.5s-3.358-7.5-7.5-7.5zm0 33.333h-205c-4.142 0-7.5 3.358-7.5 7.5s3.358 7.5 7.5 7.5h205c4.142 0 7.5-3.358 7.5-7.5s-3.358-7.5-7.5-7.5zm0 33.334h-205c-4.142 0-7.5 3.358-7.5 7.5 0 4.142 3.358 7.5 7.5 7.5h205c4.142 0 7.5-3.358 7.5-7.5 0-4.142-3.358-7.5-7.5-7.5zm-86.25 33.333h-118.75c-4.142 0-7.5 3.358-7.5 7.5s3.358 7.5 7.5 7.5h118.75c4.142 0 7.5-3.358 7.5-7.5s-3.358-7.5-7.5-7.5zm-92.463 93.5c0-4.142-3.358-7.5-7.5-7.5h-18.787c-4.142 0-7.5 3.358-7.5 7.5s3.358 7.5 7.5 7.5h18.787c4.142 0 7.5-3.358 7.5-7.5z" fill="#b6c4cf"/><path d="m472 250h-152c-14.107 0-26.508-7.302-33.629-18.333-.352-.545 1.072-1.069.747-1.631-1.893-3.272-3.337-6.837-4.245-10.61-.216-.898-2.165-1.838-2.319-2.759-.365-2.168-.554-4.396-.554-6.667v-11.667l1.596-1.716v-10.468l-1.596-2.816v-18.333l1.936-2.436v-10.128l-1.936-2.436v-51h192z" fill="#fff5f5"/><path d="m437 224.167c0 4.142-3.358 7.5-7.5 7.5h-143.129c-2.884-4.468-4.903-9.547-5.818-15h148.947c4.142 0 7.5 3.358 7.5 7.5zm0-66.667c0-4.142-3.358-7.5-7.5-7.5h-149.5v15h149.5c4.142 0 7.5-3.358 7.5-7.5zm-7.5 25.833h-149.5v15h149.5c4.142 0 7.5-3.358 7.5-7.5s-3.358-7.5-7.5-7.5z" fill="#d9e7ec"/><path d="m150 157.5c0-4.142-3.358-7.5-7.5-7.5h-119.592c-2.24 4.919-4.33 9.921-6.262 15h125.854c4.142 0 7.5-3.358 7.5-7.5zm-26.827 25.833h-112.713c-1.46 4.939-2.774 9.941-3.939 15h116.651c4.142 0 7.5-3.358 7.5-7.5s-3.357-7.5-7.499-7.5z" fill="#8d9ca8"/><path d="m150 478.5c0 3.852-2.904 7.025-6.641 7.451-8.294-4.071-16.336-8.577-24.096-13.488 1.245-.919 2.784-1.462 4.449-1.462h18.788c4.142-.001 7.5 3.357 7.5 7.499zm-7.5-228.5h-142.431c-.046 1.994-.069 3.995-.069 6 0 3.012.052 6.013.155 9h142.345c4.142 0 7.5-3.358 7.5-7.5s-3.358-7.5-7.5-7.5zm0-33.333h-139.497c-.764 4.955-1.386 9.956-1.862 15h141.359c4.142 0 7.5-3.358 7.5-7.5 0-4.142-3.358-7.5-7.5-7.5z" fill="#9facba"/><path d="m150 423.798c0 4.142-3.358 7.5-7.5 7.5h-36.915c-4.142 0-7.5-3.358-7.5-7.5s3.358-7.5 7.5-7.5h36.915c4.142 0 7.5 3.358 7.5 7.5z" fill="#fff5f5"/><path d="m140 285h-138.375c.869 7.709 2.081 15.315 3.619 22.801.704 3.424 8.546 7.159 9.385 10.532 4.831 19.423 11.88 37.969 20.863 55.354 1.656 3.204-3.693 6.034-1.908 9.158 3.615 6.325 7.492 12.481 11.616 18.453h94.8c5.523 0 10-4.477 10-10v-96.298c0-5.523-4.477-10-10-10z" fill="#fff5f5"/><path d="m56.115 369.374c12.892-14.669 12.71-38.374-.354-52.875-.002.003-.005.006-.007.008-11.423-14.046-34.686-18.28-50.51-8.707 5.503 26.778 15.187 52.03 28.341 75.044 8.771-1.85 16.492-6.538 22.172-13.052.002.002.003.004.005.005.12-.137.234-.282.353-.423z" fill="#d9e7ec"/><path d="m86.352 302.578c-22.37 0-40.571 18.201-40.571 40.571s18.201 40.571 40.571 40.571 40.571-18.201 40.571-40.571-18.201-40.571-40.571-40.571zm0 65.834c-13.93 0-25.263-11.333-25.263-25.263s11.333-25.263 25.263-25.263 25.263 11.333 25.263 25.263-11.333 25.263-25.263 25.263z" fill="#b6c4cf"/><path d="m440 60v240l-32-10-32 10v-240c0-5.523 4.477-10 10-10h44c5.523 0 10 4.477 10 10z" fill="#ff3980"/><path d="m440 60v165.266c0 9.665-7.835 17.5-17.5 17.5s-17.5-7.835-17.5-17.5v-174.404c0-.289.007-.576.021-.862h24.979c5.523 0 10 4.477 10 10z" fill="#ff5e95"/></g></svg>