<svg id="Capa_1" enable-background="new 0 0 512 512" height="512" viewBox="0 0 512 512" width="512" xmlns="http://www.w3.org/2000/svg"><g><path d="m62.279 423.362c-38.703-44.758-62.155-103.069-62.279-166.855-.272-140.673 111.877-254.626 252.539-256.484 142.97-1.889 259.461 113.44 259.461 255.977 0 64.145-23.592 122.779-62.572 167.7-4.029 4.643-11.142 4.883-15.563.612-46.056-44.501-108.763-71.88-177.865-71.88-68.957 0-131.546 27.264-177.576 71.601-4.597 4.428-11.97 4.157-16.145-.671z" fill="#a88ac8"/><path d="m401.654 10.423 10.391 89.398-318.293 36.994c-14.071 1.635-26.972-9.893-28.815-25.75l-3.716-31.976c-1.843-15.857 8.07-30.037 22.141-31.672z" fill="#2b3894"/><path d="m435.249 18.694 10.39 89.398-318.293 36.994c-14.071 1.635-26.972-9.893-28.815-25.75l-3.716-31.976c-1.843-15.857 8.07-30.037 22.141-31.672z" fill="#b4e7fd"/><path d="m440.494 45.594 5.145 84.837-302.054 18.319c-13.353.81-24.918-10.732-25.83-25.78l-1.84-30.345c-.913-15.048 9.173-27.903 22.526-28.712z" fill="#72d1fb"/><path d="m451 72.755v349.117c-46.956 55.148-116.893 90.128-195 90.128s-148.044-34.98-195-90.128v-349.117c0-5.5 4.5-10 10-10h370c5.5 0 10 4.5 10 10z" fill="#3d4ec6"/><path d="m277 511.151c-6.926.562-13.929.849-21 .849-78.107 0-148.044-34.98-195-90.128v-349.117c0-5.5 4.5-10 10-10h32.109c-.036.043-.073.085-.109.128v320.826c0 27.67 12.46 53.886 33.959 71.304 38.889 31.508 87.196 51.847 140.041 56.138z" fill="#3342ae"/><path d="m152 244.5c0 4.142-3.358 7.5-7.5 7.5h-20c-4.142 0-7.5-3.358-7.5-7.5s3.358-7.5 7.5-7.5h20c4.142 0 7.5 3.358 7.5 7.5zm-7.5 82.5h-20c-4.142 0-7.5 3.358-7.5 7.5s3.358 7.5 7.5 7.5h20c4.142 0 7.5-3.358 7.5-7.5s-3.358-7.5-7.5-7.5zm0-60h-4c-4.142 0-7.5 3.358-7.5 7.5s3.358 7.5 7.5 7.5h4c4.142 0 7.5-3.358 7.5-7.5s-3.358-7.5-7.5-7.5zm-4-45h4c4.142 0 7.5-3.358 7.5-7.5s-3.358-7.5-7.5-7.5h-4c-4.142 0-7.5 3.358-7.5 7.5s3.358 7.5 7.5 7.5zm4 135h-4c-4.142 0-7.5 3.358-7.5 7.5s3.358 7.5 7.5 7.5h4c4.142 0 7.5-3.358 7.5-7.5s-3.358-7.5-7.5-7.5zm0-60h-4c-4.142 0-7.5 3.358-7.5 7.5s3.358 7.5 7.5 7.5h4c4.142 0 7.5-3.358 7.5-7.5s-3.358-7.5-7.5-7.5z" fill="#8c96dd"/><path d="m222.327 169.139-33.022-13.244c-.956-.383-2.022-.383-2.978 0l-33.022 13.244c-2.628 1.054-5.489-.881-5.489-3.713v-103.66c0-2.209 1.791-4 4-4h72c2.209 0 4 1.791 4 4v103.661c0 2.831-2.861 4.767-5.489 3.712z" fill="#ffb52d"/><path d="m227.816 61.766v21.853c0 22.091-17.909 40-40 40-22.091 0-40-17.908-40-40v-21.853c0-2.209 1.791-4 4-4h72c2.21 0 4 1.791 4 4z" fill="#ffc14f"/><path d="m345.829 294.638-36.005 62.361c-1.34 2.32-3.815 3.75-6.495 3.75h-72.009c-2.68 0-5.155-1.43-6.495-3.75l-36.004-62.361c-1.34-2.32-1.34-5.18 0-7.5l36.004-62.361c1.34-2.32 3.815-3.75 6.495-3.75h72.009c4.143 0 7.5 3.357 7.5 7.5s-3.357 7.5-7.5 7.5h-67.679l-31.674 54.861 31.674 54.861h63.349l33.84-58.611c2.069-3.589 6.655-4.815 10.245-2.745 3.587 2.071 4.816 6.658 2.745 10.245zm44-41.5-36.005-62.361c-2.071-3.588-6.659-4.815-10.245-2.745-3.587 2.071-4.816 6.658-2.745 10.245l36.005 62.361c1.39 2.406 3.91 3.751 6.502 3.751 1.272 0 2.563-.324 3.743-1.006 3.587-2.071 4.816-6.658 2.745-10.245z" fill="#07a9f0"/><path d="m211.627 298.57c-3.108 6.935-10.294 11.644-18.508 11.075-9.268-.642-16.776-8.15-17.418-17.418-.569-8.218 4.146-15.408 11.088-18.513.628-.281 1.318.275 1.155.943-.451 1.847-.63 3.801-.49 5.816.642 9.277 8.142 16.777 17.42 17.419 2.011.139 3.96-.038 5.803-.487.673-.163 1.234.533.95 1.165zm144.782-2.104c-1.843.449-3.792.626-5.803.487-9.277-.642-16.777-8.142-17.419-17.419-.139-2.016.039-3.969.49-5.816.163-.668-.527-1.224-1.155-.943-6.942 3.105-11.657 10.295-11.088 18.513.642 9.268 8.15 16.776 17.418 17.418 8.213.569 15.4-4.14 18.508-11.075.283-.634-.277-1.329-.951-1.165zm-108.124-60.174c-1.843.449-3.792.626-5.803.487-9.277-.642-16.777-8.142-17.419-17.419-.14-2.016.039-3.969.49-5.816.163-.668-.527-1.224-1.155-.943-6.942 3.105-11.657 10.295-11.088 18.513.642 9.268 8.15 16.776 17.418 17.418 8.213.569 15.399-4.14 18.508-11.075.283-.633-.277-1.329-.951-1.165zm70.516 0c-1.843.449-3.792.626-5.803.487-9.277-.642-16.777-8.142-17.419-17.419-.14-2.016.039-3.969.49-5.816.163-.668-.527-1.224-1.155-.943-6.942 3.105-11.657 10.295-11.088 18.513.642 9.268 8.15 16.776 17.418 17.418 8.213.569 15.399-4.14 18.507-11.075.284-.633-.277-1.329-.95-1.165zm78.608 19.174c-1.843.449-3.792.626-5.803.487-9.277-.642-16.777-8.142-17.419-17.419-.139-2.016.039-3.969.49-5.816.163-.668-.527-1.224-1.155-.943-6.942 3.105-11.657 10.295-11.088 18.513.642 9.268 8.15 16.776 17.418 17.418 8.213.569 15.4-4.14 18.508-11.075.283-.634-.277-1.329-.951-1.165zm-37.608-60.174c-1.843.449-3.792.626-5.803.487-9.277-.642-16.777-8.142-17.419-17.419-.14-2.016.039-3.969.49-5.816.163-.668-.527-1.224-1.155-.943-6.942 3.105-11.657 10.295-11.088 18.513.642 9.268 8.15 16.776 17.418 17.418 8.213.569 15.399-4.14 18.507-11.075.284-.633-.277-1.329-.95-1.165zm-111.516 163.228c-1.843.449-3.792.626-5.803.487-9.277-.642-16.777-8.142-17.419-17.419-.14-2.016.039-3.969.49-5.816.163-.668-.527-1.224-1.155-.943-6.942 3.105-11.657 10.295-11.088 18.513.642 9.268 8.15 16.776 17.418 17.418 8.213.569 15.399-4.14 18.508-11.075.283-.634-.277-1.33-.951-1.165zm70.516 0c-1.843.449-3.792.626-5.803.487-9.277-.642-16.777-8.142-17.419-17.419-.14-2.016.039-3.969.49-5.816.163-.668-.527-1.224-1.155-.943-6.942 3.105-11.657 10.295-11.088 18.513.642 9.268 8.15 16.776 17.418 17.418 8.213.569 15.399-4.14 18.507-11.075.284-.634-.277-1.33-.95-1.165z" fill="#d5f1fe"/><path d="m322.5 427.5c0 4.142-3.358 7.5-7.5 7.5h-118c-4.142 0-7.5-3.358-7.5-7.5s3.358-7.5 7.5-7.5h118c4.142 0 7.5 3.358 7.5 7.5zm-37.9 22.5h-57.2c-4.142 0-7.5 3.358-7.5 7.5s3.358 7.5 7.5 7.5h57.2c4.142 0 7.5-3.358 7.5-7.5s-3.358-7.5-7.5-7.5zm124.411-351.026h-24.85c-4.142 0-7.5 3.358-7.5 7.5s3.358 7.5 7.5 7.5h24.85c4.142 0 7.5-3.358 7.5-7.5s-3.358-7.5-7.5-7.5zm-195.748 191.914c0 2.759-.594 5.38-1.662 7.74-2.361 1.068-4.981 1.662-7.74 1.662-10.385 0-18.804-8.419-18.804-18.804 0-2.759.594-5.38 1.662-7.74 2.361-1.068 4.981-1.662 7.74-1.662 10.385-.001 18.804 8.418 18.804 18.804zm126.928-19.745c-2.759 0-5.38.594-7.74 1.662-1.068 2.361-1.662 4.981-1.662 7.74 0 10.385 8.419 18.804 18.804 18.804 2.759 0 5.38-.594 7.74-1.662 1.068-2.361 1.662-4.981 1.662-7.74 0-10.385-8.418-18.804-18.804-18.804zm-108.124-60.173c-2.759 0-5.38.594-7.74 1.662-1.068 2.361-1.662 4.981-1.662 7.74 0 10.385 8.419 18.804 18.804 18.804 2.759 0 5.38-.594 7.74-1.662 1.068-2.361 1.662-4.981 1.662-7.74.001-10.385-8.418-18.804-18.804-18.804zm70.516 0c-2.759 0-5.38.594-7.74 1.662-1.068 2.361-1.662 4.981-1.662 7.74 0 10.385 8.419 18.804 18.804 18.804 2.759 0 5.38-.594 7.74-1.662 1.068-2.361 1.662-4.981 1.662-7.74 0-10.385-8.419-18.804-18.804-18.804zm78.608 19.173c-2.759 0-5.38.594-7.74 1.662-1.068 2.361-1.662 4.981-1.662 7.74 0 10.385 8.419 18.804 18.804 18.804 2.759 0 5.38-.594 7.74-1.662 1.068-2.361 1.662-4.981 1.662-7.74 0-10.385-8.418-18.804-18.804-18.804zm-37.608-60.173c-2.759 0-5.38.594-7.74 1.662-1.068 2.361-1.662 4.981-1.662 7.74 0 10.385 8.419 18.804 18.804 18.804 2.759 0 5.38-.594 7.74-1.662 1.068-2.361 1.662-4.981 1.662-7.74 0-10.385-8.419-18.804-18.804-18.804zm-111.516 163.227c-2.759 0-5.38.594-7.74 1.662-1.068 2.361-1.662 4.981-1.662 7.74 0 10.385 8.419 18.804 18.804 18.804 2.759 0 5.38-.594 7.74-1.662 1.068-2.361 1.662-4.981 1.662-7.74.001-10.385-8.418-18.804-18.804-18.804zm70.516 0c-2.759 0-5.38.594-7.74 1.662-1.068 2.361-1.662 4.981-1.662 7.74 0 10.385 8.419 18.804 18.804 18.804 2.759 0 5.38-.594 7.74-1.662 1.068-2.361 1.662-4.981 1.662-7.74 0-10.385-8.419-18.804-18.804-18.804z" fill="#fff5f5"/></g></svg>