<svg width="100%" height="100%" viewBox="0 0 24 24" version="1.1" xmlns="http://www.w3.org/2000/svg" xmlns:xlink="http://www.w3.org/1999/xlink" xml:space="preserve" xmlns:serif="http://www.serif.com/" style="fill-rule:evenodd;clip-rule:evenodd;stroke-linejoin:round;stroke-miterlimit:2;">
    <path d="M12,24c-0.66,-0 -1.225,-0.235 -1.695,-0.705c-0.47,-0.47 -0.705,-1.035 -0.705,-1.695l4.8,-0c0,0.66 -0.235,1.225 -0.705,1.695c-0.47,0.47 -1.035,0.705 -1.695,0.705Zm-3.6,-3.6c-0.34,-0 -0.625,-0.115 -0.855,-0.345c-0.23,-0.23 -0.345,-0.515 -0.345,-0.855c0,-0.34 0.115,-0.625 0.345,-0.855c0.23,-0.23 0.515,-0.345 0.855,-0.345l7.2,-0c0.34,-0 0.625,0.115 0.855,0.345c0.23,0.23 0.345,0.515 0.345,0.855c0,0.34 -0.115,0.625 -0.345,0.855c-0.23,0.23 -0.515,0.345 -0.855,0.345l-7.2,-0Zm-0.9,-3.6c-1.38,-0.82 -2.475,-1.92 -3.285,-3.3c-0.81,-1.38 -1.215,-2.88 -1.215,-4.5c0,-2.5 0.875,-4.625 2.625,-6.375c1.75,-1.75 3.875,-2.625 6.375,-2.625c2.5,0 4.625,0.875 6.375,2.625c1.75,1.75 2.625,3.875 2.625,6.375c0,1.62 -0.405,3.12 -1.215,4.5c-0.81,1.38 -1.905,2.48 -3.285,3.3l-9,0Zm0.72,-2.4l7.56,0c0.9,-0.64 1.595,-1.43 2.085,-2.37c0.49,-0.94 0.735,-1.95 0.735,-3.03c0,-1.84 -0.64,-3.4 -1.92,-4.68c-1.28,-1.28 -2.84,-1.92 -4.68,-1.92c-1.84,0 -3.4,0.64 -4.68,1.92c-1.28,1.28 -1.92,2.84 -1.92,4.68c0,1.08 0.245,2.09 0.735,3.03c0.49,0.94 1.185,1.73 2.085,2.37Z" style="fill:currentColor;"/>
</svg>
