<svg id="Capa_1" enable-background="new 0 0 512 512" height="512" viewBox="0 0 512 512" width="512" xmlns="http://www.w3.org/2000/svg"><g><path d="m512 256c0 141.385-114.615 256-256 256-96.398 0-180.352-53.281-224.018-132-.454-.818 4.484-3.028 4.039-3.851-1.812-3.353-3.314-5.304-4.979-8.746-.331-.684-6.284-1.428-6.609-2.115-15.669-33.144-24.433-70.193-24.433-109.288 0-18.598 1.983-36.734 5.75-54.206.188-.873 7.638-.89 7.835-1.759.746-3.292 1.555-6.559 2.427-9.801.214-.795-6.826-2.442-6.605-3.234 30.119-107.869 129.115-187 246.593-187 141.385 0 256 114.615 256 256z" fill="#865cb2"/><path d="m483.468 240.789c0 117.226-95.031 212.257-212.257 212.257s-212.257-95.031-212.257-212.257 95.031-212.257 212.257-212.257 212.257 95.031 212.257 212.257z" fill="#9773bd"/><path d="m353.5 224.204h69.296c5.523 0 10-4.477 10-10v-40.704h65.619c-1.726-5.073-3.607-10.075-5.637-15h-59.982v-126.296c0-5.523-4.477-10-10-10h-69.296v-2.982c-4.925-2.03-9.927-3.911-15-5.637v8.619h-97.704c-5.523 0-10 4.477-10 10v126.296h-57.296v-144.916c-5.073 1.726-10.075 3.607-15 5.637v139.279h-139.279c-2.03 4.925-3.911 9.927-5.637 15h144.916v165h-144.916c1.726 5.073 3.607 10.075 5.637 15h139.279v139.279c4.925 2.03 9.927 3.911 15 5.637v-144.916h165v144.916c5.073-1.726 10.075-3.607 15-5.637v-139.279h139.279c2.03-4.925 3.911-9.927 5.637-15h-144.916zm-180 114.296v-165h57.296v40.704c0 5.523 4.477 10 10 10h97.704v114.296z" fill="#865cb2"/><path d="m49.108 120.602c-.942-.938-1.472-2.214-1.472-3.544v-9.821c3.195-4.467 6.531-8.828 10-13.075v17.874c5.398-.022 13.612-.055 16.649-.055 6.661 0 12.079-5.418 12.079-12.078s-5.418-12.079-12.079-12.079h-10.006c-.429.001-.862.003-1.298.005 3.007-3.449 6.105-6.816 9.29-10.098 4.284-.539 7.697-3.911 8.3-8.174 2.912-2.741 5.889-5.415 8.927-8.019.756 2.083 1.168 4.329 1.168 6.669 0 4.927-1.827 9.434-4.839 12.881 6.317 3.889 10.537 10.869 10.537 18.815 0 12.174-9.905 22.078-22.079 22.078-4.673 0-21.626.076-21.627.076h-.022c-1.322.001-2.591-.523-3.528-1.455zm381.97 153.133c-2.916 0-8.57.028-12.667.051v22.588c0 2.762-2.238 5-5 5s-5-2.238-5-5v-63.45c0-.014 0-.028 0-.042 0-.026 0-.051.001-.077 0-.023.001-.046.002-.069.001-.018.001-.035.002-.052.002-.036.004-.072.006-.108 0-.003 0-.007.001-.01.072-1.017.448-1.949 1.037-2.708.023-.03.047-.06.071-.089.002-.003.005-.006.008-.009.022-.026.044-.053.066-.079.005-.006.01-.012.015-.017.019-.022.038-.043.057-.064.009-.01.018-.021.027-.031.016-.018.032-.035.049-.053.012-.013.023-.025.035-.037.017-.018.034-.035.051-.052.01-.011.021-.022.031-.032.001-.001.002-.002.003-.003.026-.027.053-.053.081-.079.002-.002.004-.004.006-.005.841-.803 1.962-1.315 3.202-1.376.015-.001.03-.001.045-.002.026-.001.052-.002.078-.003.042-.001.084-.002.127-.002h17.667c12.824 0 23.257 10.275 23.257 22.905-.001 12.63-10.434 22.905-23.258 22.905zm13.257-22.906c0-6.995-6.071-12.905-13.257-12.905h-12.652c.014 4.385.029 10.426.029 12.905 0 2.96.028 8.75.051 12.956 4.1-.022 9.679-.05 12.572-.05 7.186 0 13.257-5.91 13.257-12.906zm-360.332 50.546c-2.021.001-3.923-1.233-4.679-3.235l-4.659-12.346h-31.379l-4.707 12.359c-.982 2.581-3.871 3.874-6.452 2.894-2.581-.983-3.875-3.872-2.893-6.452l23.825-62.557c.014-.039.029-.077.045-.115.994-2.427 3.331-3.997 5.954-3.999h.005c2.62 0 4.957 1.564 5.954 3.988.019.046.037.091.054.137l23.609 62.56c.975 2.584-.329 5.469-2.912 6.443-.582.219-1.179.323-1.765.323zm-13.112-25.581-11.844-31.384-11.953 31.384zm39.203 25.58c2.761 0 5-2.238 5-5v-62.373c0-2.762-2.239-5-5-5s-5 2.238-5 5v62.373c0 2.762 2.239 5 5 5zm139.094-40.917c-8.276-3.052-15.944-6.388-17.752-7.183-2.267-1.628-3.372-4.253-2.964-7.093.501-3.491 3.157-6.285 7.103-7.475 10.527-3.169 19.972 4.419 20.167 4.579 2.115 1.764 5.259 1.485 7.029-.623 1.777-2.113 1.504-5.268-.61-7.044-.549-.462-13.635-11.259-29.471-6.486-7.655 2.306-13.064 8.294-14.117 15.628-.978 6.811 1.971 13.359 7.695 17.092.221.144.453.271.694.378.364.162 9.016 4.013 18.766 7.609 7.343 2.708 11.058 7.047 10.19 11.903-.833 4.669-6.013 9.631-13.97 9.631-7.121 0-14.001-2.902-18.406-7.763-1.854-2.046-5.017-2.201-7.063-.348-2.046 1.854-2.202 5.017-.348 7.063 6.269 6.918 15.92 11.048 25.816 11.048 11.757 0 21.995-7.684 23.814-17.873 1.373-7.678-2.261-17.764-16.573-23.043zm41.309-12.287c-2.762 0-5 2.238-5 5v43.204c0 2.762 2.238 5 5 5s5-2.238 5-5v-43.204c0-2.762-2.238-5-5-5zm-.024-8.691c3.695 0 6.69-2.995 6.69-6.69s-2.995-6.69-6.69-6.69-6.69 2.995-6.69 6.69 2.995 6.69 6.69 6.69zm-151.977 167.536v52.866c0 2.762-2.239 5-5 5s-5-2.238-5-5v-4.848c-4.945 4.205-11.347 6.746-18.331 6.746-2.787 0-5.481-.405-8.027-1.158-5.896-4.44-11.594-9.129-17.078-14.052-2.06-3.925-3.226-8.39-3.226-13.121 0-15.622 12.709-28.331 28.331-28.331 6.984 0 13.386 2.541 18.331 6.746v-4.849c0-2.762 2.239-5 5-5s5 2.239 5 5.001zm-10 26.433c0-10.107-8.223-18.331-18.331-18.331-10.107 0-18.331 8.224-18.331 18.331s8.223 18.331 18.331 18.331c10.107 0 18.331-8.223 18.331-18.331zm330.62-29.295c-6.591 1.985-11.251 7.158-12.161 13.499-.392 2.732-.055 5.416.91 7.833 6.286-7.11 12.182-14.573 17.656-22.354-2.046.048-4.194.355-6.405 1.022zm-206.387 17.938h-18.981c-2.761 0-5 2.238-5 5s2.239 5 5 5h13.657c-1.428 10.91-7.741 21.726-22.063 21.726-14.736 0-26.725-11.989-26.725-26.726s11.989-26.726 26.725-26.726c5.357 0 10.522 1.577 14.939 4.562 2.289 1.544 5.396.944 6.942-1.345 1.546-2.288.944-5.396-1.344-6.942-6.076-4.104-13.178-6.274-20.538-6.274-20.25 0-36.725 16.475-36.725 36.726s16.475 36.726 36.725 36.726c19.069 0 32.387-15.103 32.387-36.726.001-2.763-2.238-5.001-4.999-5.001zm158.675-27.601 18.599 49.285c-2.617 2.427-5.286 4.799-8.003 7.116l-1.002-2.654h-31.379l-4.707 12.359c-.982 2.581-3.876 3.874-6.452 2.894-2.581-.983-3.876-3.872-2.894-6.452l23.826-62.558c.015-.038.029-.075.044-.111.992-2.429 3.328-3.999 5.951-4.003h.009c2.62 0 4.956 1.564 5.954 3.987.019.045.037.091.054.137zm5.82 43.746-11.844-31.384-11.953 31.384zm-347.607-16.145h-8.43c4.049 4.745 8.269 9.34 12.649 13.776.513-2.778.781-5.711.781-8.776 0-2.762-2.239-5-5-5zm253.767 8.726v3.623c0 1.328-.528 2.601-1.468 3.539-.938.936-2.208 1.461-3.532 1.461h-.01l-40.744-.08c2.528 8.8 10.65 15.257 20.252 15.257 4.373 0 8.067-1.315 10.98-3.909.567-.506 1.108-1.064 1.607-1.659 1.772-2.116 4.928-2.396 7.043-.623 2.117 1.772 2.396 4.927.623 7.043-.809.967-1.69 1.877-2.621 2.706-4.734 4.215-10.831 6.442-17.633 6.442-17.13 0-31.066-13.936-31.066-31.065 0-.006 0-.013 0-.019l-.09-2.5c-.002-.06-.003-.12-.003-.18 0-15.643 12.709-28.368 28.33-28.368 15.623.001 28.332 12.71 28.332 28.332zm-10.052-1.386c-.711-9.463-8.638-16.944-18.279-16.944-9.605 0-17.509 7.441-18.27 16.873zm-249.221-25.849c1.546-2.288.944-5.396-1.344-6.942-6.076-4.104-13.178-6.274-20.537-6.274-1.365 0-2.712.075-4.038.221 2.073 3.347 4.22 6.643 6.441 9.886 4.491.4 8.784 1.919 12.536 4.455 2.288 1.543 5.396.943 6.942-1.346z" fill="#533672"/><path d="m189 28.5c0-4.142 3.358-7.5 7.5-7.5h20c4.142 0 7.5 3.358 7.5 7.5s-3.358 7.5-7.5 7.5h-20c-4.142 0-7.5-3.358-7.5-7.5zm107.5 67.5h-81c-4.142 0-7.5 3.358-7.5 7.5s3.358 7.5 7.5 7.5h81c4.142 0 7.5-3.358 7.5-7.5s-3.358-7.5-7.5-7.5zm-85 269h-20c-4.142 0-7.5 3.358-7.5 7.5s3.358 7.5 7.5 7.5h20c4.142 0 7.5-3.358 7.5-7.5s-3.358-7.5-7.5-7.5zm0-178h-20c-4.142 0-7.5 3.358-7.5 7.5s3.358 7.5 7.5 7.5h20c4.142 0 7.5-3.358 7.5-7.5s-3.358-7.5-7.5-7.5zm-165 178h-20c-.717 0-1.41.101-2.066.288 2.361 4.995 4.879 9.901 7.548 14.712h14.518c4.142 0 7.5-3.358 7.5-7.5s-3.358-7.5-7.5-7.5zm-11.5-170.5c0-4.142-3.358-7.5-7.5-7.5h-18.093c-1.361 4.874-2.581 9.807-3.656 14.794.561.135 1.146.206 1.749.206h20c4.142 0 7.5-3.358 7.5-7.5zm360.5 170.5h-20c-4.142 0-7.5 3.358-7.5 7.5s3.358 7.5 7.5 7.5h20c4.142 0 7.5-3.358 7.5-7.5s-3.358-7.5-7.5-7.5zm-118-239h-43c-4.142 0-7.5 3.358-7.5 7.5s3.358 7.5 7.5 7.5h43c4.142 0 7.5-3.358 7.5-7.5s-3.358-7.5-7.5-7.5z" fill="#b9a1d3"/><path d="m323.384 10v182c0 5.523-4.477 10-10 10h-50.384c-5.523 0-10-4.477-10-10v-182c0-5.523 4.477-10 10-10h50.384c5.523 0 10 4.477 10 10z" fill="#93dcfc"/><path d="m455 10v182c0 5.523-4.477 10-10 10h-158.217c-5.523 0-10-4.477-10-10v-182c0-5.523 4.477-10 10-10h158.217c5.523 0 10 4.477 10 10z" fill="#b4e7fd"/><path d="m306 27.5c0 4.142-3.358 7.5-7.5 7.5h-20c-4.142 0-7.5-3.358-7.5-7.5s3.358-7.5 7.5-7.5h20c4.142 0 7.5 3.358 7.5 7.5z" fill="#fff5f5"/><path d="m402.792 144.854c-1.566 1.866-3.264 3.617-5.046 5.204-9.098 8.103-20.846 12.386-33.975 12.386-33.259 0-60.317-27.058-60.317-60.316s27.059-60.317 60.317-60.317c12.086 0 23.749 3.563 33.729 10.305 3.433 2.318 4.335 6.98 2.017 10.413s-6.98 4.335-10.413 2.017c-7.49-5.06-16.25-7.734-25.332-7.734-24.988 0-45.317 20.329-45.317 45.317 0 24.987 20.329 45.316 45.317 45.316 9.526 0 17.601-2.89 23.999-8.588 1.242-1.106 2.43-2.331 3.529-3.643 2.662-3.173 7.393-3.588 10.566-.926 3.173 2.661 3.588 7.392.926 10.566z" fill="#232e7a"/></g></svg>