<svg width="100%" height="100%" viewBox="0 0 24 24" version="1.1" xmlns="http://www.w3.org/2000/svg" xmlns:xlink="http://www.w3.org/1999/xlink" xml:space="preserve" style="fill-rule:evenodd;clip-rule:evenodd;stroke-linejoin:round;stroke-miterlimit:2;">
    <path d="M12,0c-6.624,0 -12,5.376 -12,12c0,6.624 5.376,12 12,12c6.624,0 12,-5.376 12,-12c0,-6.624 -5.376,-12 -12,-12Zm-3.252,17.148l-4.308,-4.308c-0.468,-0.468 -0.468,-1.224 0,-1.692c0.468,-0.468 1.224,-0.468 1.692,-0l3.468,3.456l8.256,-8.256c0.468,-0.468 1.224,-0.468 1.692,0c0.468,0.468 0.468,1.224 -0,1.692l-9.108,9.108c-0.456,0.468 -1.224,0.468 -1.692,0Z" style="fill:currentColor;"/>
</svg>
