<svg width="100%" height="100%" viewBox="0 0 24 24" version="1.1" xmlns="http://www.w3.org/2000/svg" xmlns:xlink="http://www.w3.org/1999/xlink" xml:space="preserve" style="fill-rule:evenodd;clip-rule:evenodd;stroke-linejoin:round;stroke-miterlimit:2;" aria-hidden="true" focusable="false">
    <path d="M12,0c-6.624,0 -12,5.376 -12,12c0,6.624 5.376,12 12,12c6.624,0 12,-5.376 12,-12c0,-6.624 -5.376,-12 -12,-12Zm-2.425,16.034l-3.218,-3.218c-0.349,-0.35 -0.349,-0.915 0,-1.264c0.35,-0.35 0.915,-0.35 1.264,-0l2.591,2.581l6.167,-6.167c0.349,-0.349 0.914,-0.349 1.264,0c0.349,0.35 0.349,0.915 -0,1.264l-6.804,6.804c-0.34,0.349 -0.914,0.349 -1.264,-0Z" style="fill:currentColor;"/>
</svg>
