<svg id="Capa_1" enable-background="new 0 0 512 512" height="512" viewBox="0 0 512 512" width="512" xmlns="http://www.w3.org/2000/svg"><g><path d="m512 256c0 141.385-114.615 256-256 256s-256-114.615-256-256 114.615-256 256-256 256 114.615 256 256z" fill="#40c1fa"/><path d="m490.002 214.88c0 106.526-86.356 192.882-192.882 192.882s-192.882-86.356-192.882-192.882 86.356-192.882 192.882-192.882 192.882 86.356 192.882 192.882z" fill="#72d1fb"/><path d="m511.187 235.447c-.508-6.399-1.252-12.732-2.223-18.99l-28.937 28.937-64.069-64.069 58.635-58.635c-2.668-4.365-5.463-8.645-8.38-12.833l-60.861 60.861-64.069-64.069 60.861-60.861c-4.188-2.917-8.467-5.712-12.833-8.38l-58.635 58.635-64.069-64.069 28.937-28.937c-6.258-.97-12.591-1.714-18.99-2.223l-20.554 20.552-20.553-20.553c-6.399.509-12.732 1.252-18.99 2.223l28.937 28.937-64.069 64.069-58.635-58.635c-4.365 2.668-8.645 5.463-12.833 8.38l60.861 60.861-64.069 64.069-60.861-60.861c-2.917 4.188-5.712 8.467-8.38 12.833l58.635 58.635-64.069 64.069-28.938-28.936c-.97 6.258-1.714 12.591-2.223 18.99l20.553 20.553-20.553 20.553c.508 6.399 1.252 12.732 2.223 18.99l28.937-28.937 64.069 64.069-58.635 58.635c2.668 4.365 5.463 8.645 8.38 12.833l60.861-60.861 64.069 64.069-60.861 60.861c4.188 2.917 8.467 5.712 12.833 8.38l58.635-58.635 64.069 64.069-28.937 28.937c6.258.97 12.591 1.714 18.99 2.223l20.554-20.552 20.553 20.553c6.399-.509 12.732-1.252 18.99-2.223l-28.937-28.937 64.069-64.069 58.635 58.635c4.365-2.668 8.645-5.463 12.833-8.38l-60.861-60.861 64.069-64.069 60.861 60.861c2.917-4.188 5.712-8.467 8.38-12.833l-58.635-58.635 64.069-64.069 28.937 28.937c.97-6.258 1.714-12.591 2.223-18.99l-20.552-20.554zm-116.442-54.123-64.069 64.069-64.069-64.069 64.069-64.069zm-74.676 74.676-64.069 64.069-64.069-64.069 64.069-64.069zm-64.069-213.421 64.069 64.069-64.069 64.07-64.069-64.069zm-74.676 74.676 64.069 64.069-64.069 64.069-64.069-64.069zm-138.745 138.745 64.069-64.069 64.07 64.069-64.069 64.069zm74.676 74.676 64.069-64.069 64.069 64.069-64.069 64.069zm138.745 138.745-64.069-64.069 64.069-64.07 64.069 64.069zm74.676-74.676-64.069-64.069 64.069-64.069 64.069 64.069zm74.676-74.676-64.07-64.069 64.069-64.069 64.07 64.069z" fill="#07a9f0"/><path d="m117.81 399.01c-2.446 5.458-8.102 9.164-14.565 8.716-7.294-.505-13.203-6.414-13.708-13.708-.448-6.468 3.263-12.126 8.726-14.57.494-.221 1.038.216.909.742-.355 1.453-.496 2.991-.386 4.577.505 7.301 6.408 13.203 13.709 13.709 1.583.109 3.117-.03 4.567-.383.53-.129.971.418.748.917zm49.751 95.583c-1.45.353-2.984.493-4.567.383-7.301-.506-13.203-6.408-13.709-13.709-.11-1.586.031-3.124.386-4.577.129-.526-.415-.963-.909-.742-5.463 2.444-9.174 8.102-8.726 14.57.505 7.294 6.414 13.203 13.708 13.708 6.464.448 12.119-3.258 14.565-8.716.224-.499-.217-1.046-.748-.917zm-136.5-122.5c-1.45.353-2.984.493-4.567.383-7.301-.506-13.203-6.408-13.709-13.709-.11-1.586.031-3.124.386-4.577.129-.526-.415-.963-.909-.742-5.463 2.444-9.174 8.102-8.726 14.57.505 7.294 6.414 13.203 13.708 13.708 6.464.448 12.119-3.258 14.565-8.716.224-.499-.217-1.046-.748-.917z" fill="#3d4ec6"/><path d="m119.097 392.963c0 2.172-.468 4.234-1.308 6.092-1.858.84-3.92 1.308-6.091 1.308-8.173 0-14.799-6.625-14.799-14.799 0-2.171.468-4.234 1.308-6.092 1.858-.84 3.92-1.308 6.091-1.308 8.174.001 14.799 6.627 14.799 14.799zm35.702 81.702c-2.171 0-4.234.468-6.091 1.308-.84 1.858-1.308 3.92-1.308 6.092 0 8.173 6.625 14.799 14.799 14.799 2.171 0 4.234-.468 6.091-1.308.84-1.858 1.308-3.92 1.308-6.092-.001-8.173-6.626-14.799-14.799-14.799zm-136.5-122.5c-2.171 0-4.234.468-6.091 1.308-.84 1.858-1.308 3.92-1.308 6.092 0 8.173 6.625 14.799 14.799 14.799 2.171 0 4.234-.468 6.091-1.308.84-1.858 1.308-3.92 1.308-6.092-.001-8.173-6.626-14.799-14.799-14.799z" fill="#5766ce"/><path d="m54.39 265.259c-4.193 9.355-13.887 15.708-24.966 14.94-12.503-.866-22.631-10.994-23.497-23.497-.768-11.086 5.593-20.785 14.957-24.973.847-.379 1.779.37 1.558 1.272-.609 2.491-.85 5.127-.661 7.846.866 12.514 10.984 22.632 23.498 23.498 2.713.188 5.342-.052 7.828-.657.91-.221 1.666.718 1.283 1.571zm74.718 74.43c-2.486.605-5.116.845-7.828.657-12.514-.867-22.632-10.984-23.498-23.498-.188-2.719.053-5.355.661-7.846.22-.902-.711-1.651-1.558-1.272-9.364 4.188-15.725 13.887-14.957 24.973.866 12.502 10.994 22.631 23.497 23.497 11.079.768 20.773-5.585 24.966-14.94.382-.854-.374-1.793-1.283-1.571zm74.5 74.5c-2.486.605-5.116.845-7.828.657-12.514-.867-22.632-10.984-23.498-23.498-.188-2.719.053-5.355.661-7.846.22-.902-.711-1.651-1.558-1.272-9.364 4.188-15.725 13.887-14.957 24.973.866 12.502 10.994 22.631 23.497 23.497 11.079.768 20.773-5.585 24.966-14.94.382-.854-.374-1.793-1.283-1.571zm75.5 75.5c-2.486.605-5.116.845-7.828.657-12.514-.867-22.632-10.984-23.498-23.498-.188-2.719.053-5.355.661-7.846.22-.902-.711-1.651-1.558-1.272-9.364 4.188-15.725 13.887-14.957 24.973.866 12.502 10.994 22.631 23.497 23.497 11.079.768 20.773-5.585 24.966-14.94.382-.854-.374-1.793-1.283-1.571zm-100.684-358.49c11.079.768 20.773-5.585 24.966-14.94.383-.854-.373-1.792-1.282-1.571-2.486.605-5.116.845-7.828.657-12.514-.867-22.632-10.984-23.498-23.498-.188-2.719.053-5.355.661-7.846.22-.902-.711-1.651-1.558-1.272-9.364 4.188-15.725 13.887-14.957 24.973.865 12.503 10.994 22.631 23.496 23.497zm-36.316-76.51c-2.486.605-5.116.845-7.828.657-12.514-.867-22.632-10.984-23.498-23.498-.188-2.719.053-5.355.661-7.846.22-.902-.711-1.651-1.558-1.272-9.364 4.188-15.725 13.887-14.957 24.973.866 12.502 10.994 22.631 23.497 23.497 11.079.768 20.773-5.585 24.966-14.94.382-.854-.374-1.793-1.283-1.571zm112.316 152.51c11.079.768 20.773-5.585 24.966-14.94.383-.854-.373-1.792-1.282-1.571-2.486.605-5.116.845-7.828.657-12.514-.867-22.632-10.984-23.498-23.498-.188-2.719.053-5.355.661-7.846.22-.902-.711-1.651-1.558-1.272-9.364 4.188-15.725 13.887-14.957 24.973.865 12.503 10.994 22.631 23.496 23.497zm98.184 57.99c-2.486.605-5.116.845-7.828.657-12.514-.867-22.632-10.984-23.498-23.498-.188-2.719.053-5.355.661-7.846.22-.902-.711-1.651-1.558-1.272-9.364 4.188-15.725 13.887-14.957 24.973.866 12.502 10.994 22.631 23.497 23.497 11.079.768 20.773-5.585 24.966-14.94.382-.854-.374-1.793-1.283-1.571zm65.282-211.43c.383-.854-.373-1.792-1.282-1.571-2.486.605-5.116.845-7.828.657-12.514-.867-22.632-10.984-23.498-23.498-.188-2.719.053-5.355.661-7.846.22-.902-.711-1.651-1.558-1.272-9.364 4.188-15.725 13.887-14.957 24.973.866 12.502 10.994 22.631 23.497 23.497 11.078.768 20.773-5.585 24.965-14.94zm49.534 89.44c11.079.768 20.773-5.585 24.966-14.94.383-.854-.373-1.792-1.282-1.571-2.486.605-5.116.845-7.828.657-12.514-.867-22.632-10.984-23.498-23.498-.188-2.719.053-5.355.661-7.846.22-.902-.711-1.651-1.558-1.272-9.364 4.188-15.725 13.887-14.957 24.973.865 12.503 10.994 22.631 23.496 23.497zm23.684 260.49c-2.486.605-5.116.845-7.828.657-12.514-.867-22.632-10.984-23.498-23.498-.188-2.719.053-5.355.661-7.846.22-.902-.711-1.651-1.558-1.272-9.364 4.188-15.725 13.887-14.957 24.973.866 12.502 10.994 22.631 23.497 23.497 11.079.768 20.773-5.585 24.966-14.94.382-.854-.374-1.793-1.283-1.571zm-63-63c-2.486.605-5.116.845-7.828.657-12.514-.867-22.632-10.984-23.498-23.498-.188-2.719.053-5.355.661-7.846.22-.902-.711-1.651-1.558-1.272-9.364 4.188-15.725 13.887-14.957 24.973.866 12.502 10.994 22.631 23.497 23.497 11.079.768 20.773-5.585 24.966-14.94.382-.854-.374-1.793-1.283-1.571z" fill="#2b3894"/><path d="m56.597 254.896c0 3.722-.802 7.257-2.242 10.441-3.184 1.44-6.719 2.242-10.441 2.242-14.009 0-25.366-11.357-25.366-25.366 0-3.722.802-7.257 2.242-10.441 3.184-1.44 6.719-2.242 10.441-2.242 14.009 0 25.366 11.356 25.366 25.366zm50.634 50.634c-3.722 0-7.257.802-10.441 2.242-1.44 3.184-2.242 6.719-2.242 10.441 0 14.009 11.357 25.366 25.366 25.366 3.722 0 7.257-.802 10.441-2.242 1.44-3.184 2.242-6.719 2.242-10.441 0-14.01-11.357-25.366-25.366-25.366zm74.5 74.5c-3.722 0-7.257.802-10.441 2.242-1.44 3.184-2.242 6.719-2.242 10.441 0 14.009 11.357 25.366 25.366 25.366 3.722 0 7.257-.802 10.441-2.242 1.44-3.184 2.242-6.719 2.242-10.441 0-14.01-11.357-25.366-25.366-25.366zm75.5 75.5c-3.722 0-7.257.802-10.441 2.242-1.44 3.184-2.242 6.719-2.242 10.441 0 14.009 11.357 25.366 25.366 25.366 3.722 0 7.257-.802 10.441-2.242 1.44-3.184 2.242-6.719 2.242-10.441 0-14.01-11.357-25.366-25.366-25.366zm-64.317-336.951c3.722 0 7.257-.802 10.441-2.242 1.44-3.184 2.242-6.719 2.242-10.441 0-14.01-11.357-25.366-25.366-25.366-3.722 0-7.257.802-10.441 2.242-1.44 3.184-2.242 6.719-2.242 10.441 0 14.009 11.357 25.366 25.366 25.366zm-72.683-98.049c-3.722 0-7.257.802-10.441 2.242-1.44 3.184-2.242 6.719-2.242 10.441 0 14.009 11.357 25.366 25.366 25.366 3.722 0 7.257-.802 10.441-2.242 1.44-3.184 2.242-6.719 2.242-10.441 0-14.01-11.357-25.366-25.366-25.366zm148.683 174.049c3.722 0 7.257-.802 10.441-2.242 1.44-3.184 2.242-6.719 2.242-10.441 0-14.01-11.357-25.366-25.366-25.366-3.722 0-7.257.802-10.441 2.242-1.44 3.184-2.242 6.719-2.242 10.441 0 14.009 11.357 25.366 25.366 25.366zm61.817 36.451c-3.722 0-7.257.802-10.441 2.242-1.44 3.184-2.242 6.719-2.242 10.441 0 14.009 11.357 25.366 25.366 25.366 3.722 0 7.257-.802 10.441-2.242 1.44-3.184 2.242-6.719 2.242-10.441 0-14.01-11.357-25.366-25.366-25.366zm87.124-177.193c1.44-3.184 2.242-6.719 2.242-10.441 0-14.01-11.357-25.366-25.366-25.366-3.722 0-7.257.802-10.441 2.242-1.44 3.184-2.242 6.719-2.242 10.441 0 14.009 11.357 25.366 25.366 25.366 3.722 0 7.257-.802 10.441-2.242zm64.059 76.742c3.722 0 7.257-.802 10.441-2.242 1.44-3.184 2.242-6.719 2.242-10.441 0-14.01-11.357-25.366-25.366-25.366-3.722 0-7.257.802-10.441 2.242-1.44 3.184-2.242 6.719-2.242 10.441 0 14.009 11.357 25.366 25.366 25.366zm-12.683 238.951c-3.722 0-7.257.802-10.441 2.242-1.44 3.184-2.242 6.719-2.242 10.441 0 14.009 11.357 25.366 25.366 25.366 3.722 0 7.257-.802 10.441-2.242 1.44-3.184 2.242-6.719 2.242-10.441 0-14.01-11.357-25.366-25.366-25.366zm-63-63c-3.722 0-7.257.802-10.441 2.242-1.44 3.184-2.242 6.719-2.242 10.441 0 14.009 11.357 25.366 25.366 25.366 3.722 0 7.257-.802 10.441-2.242 1.44-3.184 2.242-6.719 2.242-10.441 0-14.01-11.357-25.366-25.366-25.366z" fill="#3d4ec6"/><path d="m128.39 191.259c-4.193 9.355-13.887 15.708-24.966 14.94-12.503-.866-22.631-10.994-23.497-23.497-.768-11.086 5.593-20.785 14.957-24.973.847-.379 1.779.37 1.558 1.272-.609 2.491-.85 5.127-.661 7.846.866 12.514 10.984 22.632 23.498 23.498 2.713.188 5.342-.052 7.828-.657.91-.221 1.666.718 1.283 1.571zm73.218 72.93c-2.486.605-5.116.845-7.828.657-12.514-.867-22.632-10.984-23.498-23.498-.188-2.719.053-5.355.661-7.846.22-.902-.711-1.651-1.558-1.272-9.364 4.188-15.725 13.887-14.957 24.973.866 12.502 10.994 22.631 23.497 23.497 11.079.768 20.773-5.585 24.966-14.94.382-.854-.374-1.793-1.283-1.571zm76.5 76.5c-2.486.605-5.116.845-7.828.657-12.514-.867-22.632-10.984-23.498-23.498-.188-2.719.053-5.355.661-7.846.22-.902-.711-1.651-1.558-1.272-9.364 4.188-15.725 13.887-14.957 24.973.866 12.502 10.994 22.631 23.497 23.497 11.079.768 20.773-5.585 24.966-14.94.382-.854-.374-1.793-1.283-1.571zm74 74c-2.486.605-5.116.845-7.828.657-12.514-.867-22.632-10.984-23.498-23.498-.188-2.719.053-5.355.661-7.846.22-.902-.711-1.651-1.558-1.272-9.364 4.188-15.725 13.887-14.957 24.973.866 12.502 10.994 22.631 23.497 23.497 11.079.768 20.773-5.585 24.966-14.94.382-.854-.374-1.793-1.283-1.571zm-99.684-357.49c11.079.768 20.773-5.585 24.966-14.94.383-.854-.373-1.792-1.282-1.571-2.486.605-5.116.845-7.828.657-12.514-.867-22.632-10.984-23.498-23.498-.188-2.719.053-5.355.661-7.846.22-.902-.711-1.651-1.558-1.272-9.364 4.188-15.725 13.887-14.957 24.973.865 12.503 10.994 22.631 23.496 23.497zm74.5 74.5c11.079.768 20.773-5.585 24.966-14.94.383-.854-.373-1.792-1.282-1.571-2.486.605-5.116.845-7.828.657-12.514-.867-22.632-10.984-23.498-23.498-.188-2.719.053-5.355.661-7.846.22-.902-.711-1.651-1.558-1.272-9.364 4.188-15.725 13.887-14.957 24.973.865 12.503 10.994 22.631 23.496 23.497zm100.184 59.99c-2.486.605-5.116.845-7.828.657-12.514-.867-22.632-10.984-23.498-23.498-.188-2.719.053-5.355.661-7.846.22-.902-.711-1.651-1.558-1.272-9.364 4.188-15.725 13.887-14.957 24.973.866 12.502 10.994 22.631 23.497 23.497 11.079.768 20.773-5.585 24.966-14.94.382-.854-.374-1.793-1.283-1.571zm74 74c-2.486.605-5.116.845-7.828.657-12.514-.867-22.632-10.984-23.498-23.498-.188-2.719.053-5.355.661-7.846.22-.902-.711-1.651-1.558-1.272-9.364 4.188-15.725 13.887-14.957 24.973.866 12.502 10.994 22.631 23.497 23.497 11.079.768 20.773-5.585 24.966-14.94.382-.854-.374-1.793-1.283-1.571zm-437-139c-2.486.605-5.116.845-7.828.657-12.514-.867-22.632-10.984-23.498-23.498-.188-2.719.053-5.355.661-7.846.22-.902-.711-1.651-1.558-1.272-9.364 4.188-15.725 13.887-14.957 24.973.866 12.502 10.994 22.631 23.497 23.497 11.079.768 20.773-5.585 24.966-14.94.382-.854-.374-1.793-1.283-1.571zm352 352c-2.486.605-5.116.845-7.828.657-12.514-.867-22.632-10.984-23.498-23.498-.188-2.719.053-5.355.661-7.846.22-.902-.711-1.651-1.558-1.272-9.364 4.188-15.725 13.887-14.957 24.973.866 12.502 10.994 22.631 23.497 23.497 11.079.768 20.773-5.585 24.966-14.94.382-.854-.374-1.793-1.283-1.571z" fill="#ff9100"/><path d="m130.597 180.896c0 3.722-.802 7.257-2.242 10.441-3.184 1.44-6.719 2.242-10.441 2.242-14.009 0-25.366-11.357-25.366-25.366 0-3.722.802-7.257 2.242-10.441 3.184-1.44 6.719-2.242 10.441-2.242 14.009 0 25.366 11.356 25.366 25.366zm49.134 49.134c-3.722 0-7.257.802-10.441 2.242-1.44 3.184-2.242 6.719-2.242 10.441 0 14.009 11.357 25.366 25.366 25.366 3.722 0 7.257-.802 10.441-2.242 1.44-3.184 2.242-6.719 2.242-10.441 0-14.01-11.357-25.366-25.366-25.366zm76.5 76.5c-3.722 0-7.257.802-10.441 2.242-1.44 3.184-2.242 6.719-2.242 10.441 0 14.009 11.357 25.366 25.366 25.366 3.722 0 7.257-.802 10.441-2.242 1.44-3.184 2.242-6.719 2.242-10.441 0-14.01-11.357-25.366-25.366-25.366zm74 74c-3.722 0-7.257.802-10.441 2.242-1.44 3.184-2.242 6.719-2.242 10.441 0 14.009 11.357 25.366 25.366 25.366 3.722 0 7.257-.802 10.441-2.242 1.44-3.184 2.242-6.719 2.242-10.441 0-14.01-11.357-25.366-25.366-25.366zm-63.317-335.951c3.722 0 7.257-.802 10.441-2.242 1.44-3.184 2.242-6.719 2.242-10.441 0-14.01-11.357-25.366-25.366-25.366-3.722 0-7.257.802-10.441 2.242-1.44 3.184-2.242 6.719-2.242 10.441 0 14.009 11.357 25.366 25.366 25.366zm74.5 74.5c3.722 0 7.257-.802 10.441-2.242 1.44-3.184 2.242-6.719 2.242-10.441 0-14.01-11.357-25.366-25.366-25.366-3.722 0-7.257.802-10.441 2.242-1.44 3.184-2.242 6.719-2.242 10.441 0 14.009 11.357 25.366 25.366 25.366zm63.817 38.451c-3.722 0-7.257.802-10.441 2.242-1.44 3.184-2.242 6.719-2.242 10.441 0 14.009 11.357 25.366 25.366 25.366 3.722 0 7.257-.802 10.441-2.242 1.44-3.184 2.242-6.719 2.242-10.441 0-14.01-11.357-25.366-25.366-25.366zm74 74c-3.722 0-7.257.802-10.441 2.242-1.44 3.184-2.242 6.719-2.242 10.441 0 14.009 11.357 25.366 25.366 25.366 3.722 0 7.257-.802 10.441-2.242 1.44-3.184 2.242-6.719 2.242-10.441 0-14.01-11.357-25.366-25.366-25.366zm-437-139c-3.722 0-7.257.802-10.441 2.242-1.44 3.184-2.242 6.719-2.242 10.441 0 14.009 11.357 25.366 25.366 25.366 3.722 0 7.257-.802 10.441-2.242 1.44-3.184 2.242-6.719 2.242-10.441 0-14.01-11.357-25.366-25.366-25.366zm352 352c-3.722 0-7.257.802-10.441 2.242-1.44 3.184-2.242 6.719-2.242 10.441 0 14.009 11.357 25.366 25.366 25.366 3.722 0 7.257-.802 10.441-2.242 1.44-3.184 2.242-6.719 2.242-10.441 0-14.01-11.357-25.366-25.366-25.366z" fill="#ffb52d"/></g></svg>