<?xml version="1.0" encoding="UTF-8" standalone="no"?>
<!DOCTYPE svg PUBLIC "-//W3C//DTD SVG 1.1//EN" "http://www.w3.org/Graphics/SVG/1.1/DTD/svg11.dtd">
<svg width="100%" height="100%" viewBox="0 0 24 24" version="1.1" xmlns="http://www.w3.org/2000/svg" xmlns:xlink="http://www.w3.org/1999/xlink" xml:space="preserve" style="fill-rule:evenodd;clip-rule:evenodd;stroke-linejoin:round;stroke-miterlimit:2;">
    <path d="M19.636,2.182l-4.56,-0c-0.458,-1.266 -1.658,-2.182 -3.076,-2.182c-1.418,0 -2.618,0.916 -3.076,2.182l-4.56,-0c-1.2,-0 -2.182,0.982 -2.182,2.182l-0,17.454c-0,1.2 0.982,2.182 2.182,2.182l15.272,0c1.2,0 2.182,-0.982 2.182,-2.182l0,-17.454c0,-1.2 -0.982,-2.182 -2.182,-2.182Zm-7.636,-0c0.6,-0 1.091,0.491 1.091,1.091c-0,0.6 -0.491,1.091 -1.091,1.091c-0.6,-0 -1.091,-0.491 -1.091,-1.091c0,-0.6 0.491,-1.091 1.091,-1.091Zm7.636,19.636l-15.272,0l-0,-17.454l2.181,-0l0,3.272l10.91,0l-0,-3.272l2.181,-0l0,17.454Z" style="fill:currentColor;"/>
</svg>
