<svg width="100%" height="100%" viewBox="0 0 24 24" version="1.1" xmlns="http://www.w3.org/2000/svg" xmlns:xlink="http://www.w3.org/1999/xlink" xml:space="preserve" style="fill-rule:evenodd;clip-rule:evenodd;stroke-linejoin:round;stroke-miterlimit:2;" aria-hidden="true" focusable="false">
    <path d="M12,0c-6.636,0 -12,5.364 -12,12c0,6.636 5.364,12 12,12c6.636,0 12,-5.364 12,-12c0,-6.636 -5.364,-12 -12,-12Zm5.16,17.16c-0.468,0.468 -1.224,0.468 -1.692,0l-3.468,-3.468l-3.468,3.468c-0.468,0.468 -1.224,0.468 -1.692,0c-0.468,-0.468 -0.468,-1.224 -0,-1.692l3.468,-3.468l-3.468,-3.468c-0.468,-0.468 -0.468,-1.224 0,-1.692c0.468,-0.468 1.224,-0.468 1.692,-0l3.468,3.468l3.468,-3.468c0.468,-0.468 1.224,-0.468 1.692,-0c0.468,0.468 0.468,1.224 0,1.692l-3.468,3.468l3.468,3.468c0.456,0.456 0.456,1.224 0,1.692Z" style="fill:currentColor;"/>
</svg>
