<?xml version="1.0" encoding="UTF-8" standalone="no"?>
<!DOCTYPE svg PUBLIC "-//W3C//DTD SVG 1.1//EN" "http://www.w3.org/Graphics/SVG/1.1/DTD/svg11.dtd">
<svg width="100%" height="100%" viewBox="0 0 512 512" version="1.1" xmlns="http://www.w3.org/2000/svg" xmlns:xlink="http://www.w3.org/1999/xlink" xml:space="preserve" style="fill-rule:evenodd;clip-rule:evenodd;stroke-linejoin:round;stroke-miterlimit:2;">
    <g>
        <path d="M512,102.4c0,-56.516 -45.884,-102.4 -102.4,-102.4l-307.2,0c-56.516,0 -102.4,45.884 -102.4,102.4l-0,307.2c-0,56.516 45.884,102.4 102.4,102.4l307.2,0c56.516,0 102.4,-45.884 102.4,-102.4l0,-307.2Z" style="fill:#3d4ec6;"/>
        <path d="M459.351,228.698c0,100.486 -81.46,181.946 -181.946,181.946c-100.486,0 -181.947,-81.46 -181.947,-181.946c0,-100.486 81.46,-181.946 181.946,-181.946c100.486,0 181.947,81.459 181.947,181.946Z" style="fill:#5766ce;fill-rule:nonzero;"/>
        <path d="M418.626,252.25l-44.589,-77.23c-1.34,-2.32 -3.815,-3.75 -6.495,-3.75l-85.038,0l-42.372,-73.391c-1.34,-2.32 -3.815,-3.75 -6.495,-3.75l-89.179,0c-2.68,0 -5.155,1.43 -6.495,3.75l-44.589,77.23c-1.34,2.32 -1.34,5.18 -0,7.5l42.372,73.391l-42.372,73.391c-1.34,2.32 -1.34,5.18 -0,7.5l44.589,77.23c1.34,2.32 3.815,3.75 6.495,3.75l89.179,0c2.68,0 5.155,-1.43 6.495,-3.75l42.372,-73.391l85.038,0c2.68,0 5.155,-1.43 6.495,-3.75l44.589,-77.23c1.34,-2.32 1.34,-5.18 -0,-7.5Zm-269.838,-143.121l80.519,0l40.259,69.73l-40.156,69.551l-80.726,0l-40.155,-69.551l40.259,-69.73Zm80.519,293.742l-80.519,0l-40.259,-69.73l40.155,-69.551l80.726,0l40.155,69.551l-40.258,69.73Zm133.905,-77.141l-80.519,0l-40.258,-69.73l40.259,-69.73l80.519,0l40.258,69.73l-40.259,69.73Z" style="fill:#232e7a;fill-rule:nonzero;"/>
        <path d="M374.394,114.473c0,4.142 -3.358,7.5 -7.5,7.5l-46.473,0c-4.142,0 -7.5,-3.358 -7.5,-7.5c0,-4.142 3.358,-7.5 7.5,-7.5l46.473,0c4.142,0 7.5,3.358 7.5,7.5Zm-53.973,-52.5l4,0c4.142,0 7.5,-3.358 7.5,-7.5c0,-4.142 -3.358,-7.5 -7.5,-7.5l-4,0c-4.142,0 -7.5,3.358 -7.5,7.5c0,4.142 3.357,7.5 7.5,7.5Zm0,30l23.805,0c4.142,0 7.5,-3.358 7.5,-7.5c0,-4.142 -3.358,-7.5 -7.5,-7.5l-23.805,0c-4.142,0 -7.5,3.358 -7.5,7.5c0,4.142 3.357,7.5 7.5,7.5Z" style="fill:#fff5f5;fill-rule:nonzero;"/>
        <path d="M83.715,270.694c-2.446,5.458 -8.102,9.164 -14.565,8.716c-7.294,-0.505 -13.203,-6.414 -13.708,-13.708c-0.448,-6.468 3.263,-12.126 8.726,-14.57c0.494,-0.221 1.038,0.216 0.909,0.742c-0.355,1.454 -0.496,2.991 -0.386,4.578c0.506,7.301 6.408,13.203 13.709,13.709c1.583,0.109 3.116,-0.03 4.567,-0.384c0.53,-0.129 0.971,0.419 0.748,0.917Zm211.586,67.108c-1.94,0.473 -3.993,0.659 -6.11,0.513c-9.768,-0.676 -17.664,-8.573 -18.341,-18.34c-0.147,-2.123 0.041,-4.18 0.516,-6.124c0.172,-0.704 -0.555,-1.289 -1.216,-0.993c-7.309,3.27 -12.273,10.84 -11.674,19.492c0.676,9.758 8.581,17.664 18.339,18.339c8.647,0.599 16.214,-4.359 19.486,-11.661c0.3,-0.666 -0.29,-1.399 -1,-1.226Zm3.774,-152.17c-1.94,0.473 -3.993,0.66 -6.11,0.513c-9.768,-0.676 -17.664,-8.573 -18.341,-18.341c-0.147,-2.123 0.041,-4.18 0.516,-6.124c0.172,-0.704 -0.555,-1.289 -1.216,-0.993c-7.309,3.269 -12.273,10.839 -11.674,19.492c0.676,9.758 8.581,17.663 18.339,18.339c8.647,0.599 16.214,-4.359 19.486,-11.661c0.3,-0.665 -0.29,-1.398 -1,-1.225Zm130.907,223.528c-1.45,0.353 -2.985,0.493 -4.567,0.383c-7.301,-0.506 -13.203,-6.408 -13.709,-13.709c-0.11,-1.586 0.031,-3.124 0.386,-4.577c0.129,-0.526 -0.415,-0.963 -0.909,-0.742c-5.463,2.443 -9.174,8.102 -8.726,14.569c0.505,7.294 6.414,13.203 13.708,13.708c6.464,0.448 12.119,-3.258 14.565,-8.716c0.223,-0.498 -0.218,-1.046 -0.748,-0.916Z" style="fill:#ffb52d;fill-rule:nonzero;"/>
        <path d="M301.799,178.769c0,2.905 -0.626,5.665 -1.75,8.15c-2.485,1.124 -5.244,1.75 -8.149,1.75c-10.935,0 -19.799,-8.864 -19.799,-19.798c0,-2.905 0.626,-5.664 1.75,-8.15c2.485,-1.124 5.244,-1.75 8.149,-1.75c10.935,0 19.799,8.864 19.799,19.798Zm-23.573,132.372c-2.905,0 -5.664,0.625 -8.149,1.75c-1.124,2.485 -1.75,5.245 -1.75,8.149c0,10.935 8.864,19.799 19.799,19.799c2.905,0 5.664,-0.626 8.15,-1.75c1.124,-2.485 1.75,-5.244 1.75,-8.149c-0.001,-10.935 -8.865,-19.799 -19.8,-19.799Zm-208.022,-61.291c-2.171,0 -4.234,0.467 -6.091,1.308c-0.84,1.858 -1.308,3.92 -1.308,6.091c0,8.173 6.625,14.799 14.798,14.799c2.172,0 4.234,-0.468 6.092,-1.308c0.84,-1.857 1.308,-3.92 1.308,-6.091c-0.001,-8.174 -6.626,-14.799 -14.799,-14.799Zm347.015,139.381c-2.171,0 -4.234,0.468 -6.091,1.308c-0.84,1.858 -1.308,3.92 -1.308,6.092c0,8.173 6.626,14.798 14.799,14.798c2.171,0 4.233,-0.468 6.091,-1.308c0.84,-1.857 1.308,-3.92 1.308,-6.091c-0.001,-8.173 -6.626,-14.799 -14.799,-14.799Z" style="fill:#ffc14f;fill-rule:nonzero;"/>
        <path d="M171.912,420.735c-4.193,9.355 -13.887,15.708 -24.966,14.94c-12.502,-0.866 -22.631,-10.994 -23.497,-23.497c-0.768,-11.086 5.593,-20.785 14.957,-24.974c0.847,-0.379 1.779,0.371 1.558,1.272c-0.609,2.492 -0.85,5.127 -0.661,7.846c0.866,12.515 10.984,22.632 23.498,23.499c2.713,0.188 5.342,-0.052 7.828,-0.657c0.91,-0.221 1.665,0.717 1.283,1.571Zm56.79,-296.714c8.647,0.599 16.214,-4.359 19.486,-11.661c0.299,-0.666 -0.291,-1.398 -1.001,-1.226c-1.94,0.472 -3.993,0.659 -6.11,0.513c-9.768,-0.677 -17.664,-8.573 -18.341,-18.341c-0.147,-2.123 0.041,-4.18 0.516,-6.124c0.172,-0.704 -0.555,-1.289 -1.216,-0.993c-7.309,3.269 -12.273,10.839 -11.674,19.492c0.676,9.759 8.582,17.665 18.34,18.34Zm-155.088,-18.967c6.464,0.448 12.119,-3.258 14.565,-8.716c0.223,-0.498 -0.218,-1.045 -0.748,-0.917c-1.45,0.353 -2.984,0.493 -4.567,0.383c-7.301,-0.504 -13.204,-6.407 -13.709,-13.708c-0.11,-1.586 0.031,-3.124 0.386,-4.577c0.128,-0.526 -0.415,-0.963 -0.909,-0.742c-5.463,2.443 -9.174,8.102 -8.726,14.569c0.505,7.294 6.414,13.203 13.708,13.708Zm62.787,90.031c0.598,-1.336 -0.584,-2.805 -2.006,-2.457c-3.929,0.959 -8.085,1.339 -12.373,1.042c-19.734,-1.366 -35.688,-17.32 -37.054,-37.054c-0.296,-4.278 0.081,-8.424 1.036,-12.345c0.349,-1.433 -1.131,-2.625 -2.477,-2.022c-14.752,6.611 -24.769,21.898 -23.559,39.369c1.365,19.715 17.337,35.687 37.052,37.052c17.481,1.211 32.776,-8.818 39.381,-23.585Zm293.888,65.673c-2.486,0.605 -5.116,0.845 -7.828,0.657c-12.514,-0.867 -22.632,-10.984 -23.498,-23.498c-0.188,-2.719 0.053,-5.355 0.661,-7.846c0.22,-0.901 -0.711,-1.651 -1.558,-1.272c-9.364,4.188 -15.725,13.887 -14.957,24.973c0.866,12.503 10.994,22.631 23.497,23.497c11.079,0.767 20.773,-5.585 24.966,-14.94c0.382,-0.854 -0.374,-1.793 -1.283,-1.571Zm-174.638,-0c-2.486,0.605 -5.116,0.845 -7.828,0.657c-12.514,-0.867 -22.632,-10.984 -23.498,-23.498c-0.188,-2.719 0.053,-5.355 0.661,-7.846c0.22,-0.901 -0.711,-1.651 -1.558,-1.272c-9.364,4.188 -15.725,13.887 -14.957,24.973c0.866,12.503 10.994,22.631 23.497,23.497c11.079,0.767 20.773,-5.585 24.966,-14.94c0.382,-0.854 -0.374,-1.793 -1.283,-1.571Zm80.199,163.155c-2.486,0.605 -5.116,0.845 -7.828,0.657c-12.514,-0.867 -22.632,-10.984 -23.498,-23.499c-0.188,-2.719 0.053,-5.354 0.661,-7.846c0.22,-0.901 -0.711,-1.651 -1.558,-1.272c-9.364,4.188 -15.725,13.888 -14.957,24.974c0.866,12.502 10.994,22.631 23.497,23.497c11.079,0.768 20.773,-5.585 24.966,-14.94c0.382,-0.854 -0.374,-1.792 -1.283,-1.571Z" style="fill:#93dcfc;fill-rule:nonzero;"/>
        <path d="M174.119,410.372c0,3.722 -0.802,7.257 -2.242,10.441c-3.184,1.44 -6.719,2.242 -10.441,2.242c-14.01,0 -25.366,-11.357 -25.366,-25.366c0,-3.722 0.802,-7.257 2.242,-10.441c3.184,-1.44 6.719,-2.242 10.441,-2.242c14.009,-0.001 25.366,11.356 25.366,25.366Zm-34.25,-231.603c0,-22.091 -17.908,-40 -40,-40c-5.869,0 -11.443,1.264 -16.465,3.535c-2.271,5.021 -3.535,10.596 -3.535,16.465c0,22.091 17.909,40 40,40c5.87,0 11.444,-1.264 16.465,-3.535c2.271,-5.021 3.535,-10.595 3.535,-16.465Zm-51.711,-82.385c0.84,-1.858 1.308,-3.92 1.308,-6.092c0,-8.173 -6.625,-14.798 -14.798,-14.798c-2.172,0 -4.234,0.468 -6.092,1.308c-0.84,1.858 -1.308,3.92 -1.308,6.092c0,8.173 6.625,14.798 14.799,14.798c2.172,-0.001 4.234,-0.468 6.091,-1.308Zm145.616,130.215c-3.722,0 -7.257,0.802 -10.441,2.242c-1.44,3.185 -2.242,6.719 -2.242,10.441c0,14.009 11.357,25.366 25.366,25.366c3.722,0 7.257,-0.802 10.441,-2.242c1.44,-3.185 2.242,-6.719 2.242,-10.441c0,-14.009 -11.357,-25.366 -25.366,-25.366Zm174.638,0c-3.722,0 -7.257,0.802 -10.441,2.242c-1.44,3.185 -2.242,6.719 -2.242,10.441c0,14.009 11.357,25.366 25.366,25.366c3.722,0 7.257,-0.802 10.441,-2.242c1.44,-3.185 2.242,-6.719 2.242,-10.441c0,-14.009 -11.356,-25.366 -25.366,-25.366Zm-168.401,-112.428c2.905,0 5.664,-0.625 8.149,-1.75c1.124,-2.486 1.75,-5.245 1.75,-8.15c0,-10.934 -8.864,-19.798 -19.799,-19.798c-2.905,0 -5.664,0.625 -8.149,1.75c-1.124,2.485 -1.75,5.245 -1.75,8.15c0.001,10.934 8.865,19.798 19.799,19.798Zm73.962,275.583c-3.722,0 -7.257,0.802 -10.441,2.242c-1.44,3.185 -2.242,6.719 -2.242,10.441c0,14.009 11.357,25.366 25.366,25.366c3.722,0 7.257,-0.802 10.441,-2.242c1.44,-3.184 2.242,-6.719 2.242,-10.441c0,-14.009 -11.357,-25.366 -25.366,-25.366Z" style="fill:#b4e7fd;fill-rule:nonzero;"/>
    </g>
</svg>
