<svg id="Capa_1" enable-background="new 0 0 512 512" height="512" viewBox="0 0 512 512" width="512" xmlns="http://www.w3.org/2000/svg"><g><path d="m512 256c0 141.385-114.615 256-256 256s-256-114.615-256-256 114.615-256 256-256 256 114.615 256 256z" fill="#6354b2"/><path d="m468.915 225c0 108.118-87.647 195.766-195.766 195.766s-195.766-87.648-195.766-195.766 87.648-195.766 195.766-195.766 195.766 87.648 195.766 195.766z" fill="#6e61b7"/><path d="m22.718 150.419c16.185-35.705 40.326-67.034 70.161-91.728 8.264 2.751 15.744 7.219 22.016 12.981h217.675l40 45-40 45h-217.679c-11.706 10.756-27.621 17.004-44.992 15.988-19.579-1.143-36.823-11.742-47.181-27.241zm92.173 167.35h277.582l40-45-40-45h-277.579c-10.877-9.994-25.389-16.096-41.325-16.096-11.122 0-21.548 2.973-30.531 8.166l-.014.007c-.034.02-.069.04-.103.06-.018.01-.036.021-.053.031-19.156 11.156-31.693 32.43-30.287 56.499 1.789 30.62 26.699 55.531 57.319 57.321 17.37 1.015 33.285-5.233 44.991-15.988zm301.582 66.095h-301.579c-10.877-9.994-25.389-16.096-41.325-16.096-11.122 0-21.548 2.973-30.531 8.166l-.014.007c-.034.02-.069.04-.103.06-.018.01-.036.021-.053.031-3.329 1.939-6.459 4.184-9.35 6.696 21.255 37.235 51.589 68.619 87.986 91.136h268.992c22.633-14.002 42.922-31.433 60.14-51.566z" fill="#54469d"/><path d="m279.133 118.801c-8.54 9.607-20.78 15.104-33.633 15.104h-159.5v-90h159.5c12.854 0 25.094 5.497 33.633 15.104 15.156 17.049 15.156 42.742 0 59.792z" fill="#fa0"/><path d="m403.143 92.226-35.556 40c-.949 1.067-2.309 1.678-3.737 1.678h-127.637c-24.853 0-45-20.147-45-45s20.147-45 45-45h127.637c1.428 0 2.788.611 3.737 1.678l35.556 40c1.684 1.895 1.684 4.75 0 6.644z" fill="#ffb509"/><path d="m159.934 119.595c-11.154 19.162-32.432 31.705-56.508 30.298-30.62-1.79-55.53-26.701-57.319-57.321-1.41-24.135 11.199-45.459 30.443-56.59.335-.194.711.175.532.517-5.19 9.951-7.723 21.508-6.65 33.732 2.561 29.197 26.128 52.769 55.324 55.336 12.167 1.07 23.675-1.432 33.595-6.572.387-.201.802.223.583.6z" fill="#ffea00"/><path d="m168.192 88.904c0 11.192-3.01 21.68-8.264 30.701-9.021 5.253-19.509 8.264-30.701 8.264-33.742 0-61.096-27.354-61.096-61.096 0-11.192 3.01-21.68 8.264-30.701 9.021-5.254 19.509-8.264 30.701-8.264 33.742.001 61.096 27.354 61.096 61.096z" fill="#ffef31"/><path d="m312.793 108.904c0 5.523-4.477 10-10 10h-106.687c-5.523 0-10-4.477-10-10s4.477-10 10-10h106.687c5.523 0 10 4.477 10 10zm19.611-50h-136.298c-5.523 0-10 4.477-10 10s4.477 10 10 10h136.298c5.523 0 10-4.477 10-10s-4.477-10-10-10z" fill="#ffcd6b"/><path d="m294.548 274.896c-8.54 9.607-20.78 15.104-33.633 15.104h-174.915v-90h174.915c12.854 0 25.094 5.497 33.633 15.104 15.156 17.05 15.156 42.742 0 59.792z" fill="#ff2aaa"/><path d="m463.047 248.322-35.556 40c-.949 1.067-2.309 1.678-3.737 1.678h-179.945c-24.853 0-45-20.147-45-45s20.147-45 45-45h179.946c1.428 0 2.788.611 3.737 1.678l35.556 40c1.683 1.895 1.683 4.749-.001 6.644z" fill="#ff4fb8"/><path d="m159.934 275.69c-11.154 19.162-32.432 31.705-56.508 30.298-30.62-1.79-55.53-26.701-57.319-57.321-1.41-24.135 11.199-45.459 30.443-56.59.335-.194.711.175.532.517-5.19 9.951-7.723 21.508-6.65 33.732 2.561 29.197 26.128 52.769 55.324 55.336 12.167 1.07 23.675-1.432 33.595-6.572.387-.2.802.224.583.6z" fill="#ff4fb8"/><path d="m168.192 245c0 11.192-3.01 21.68-8.264 30.701-9.021 5.253-19.509 8.264-30.701 8.264-33.742 0-61.096-27.354-61.096-61.096 0-11.191 3.01-21.68 8.264-30.701 9.021-5.254 19.509-8.264 30.701-8.264 33.742 0 61.096 27.353 61.096 61.096z" fill="#ff73c6"/><path d="m360.192 265c0 5.523-4.477 10-10 10h-154.086c-5.523 0-10-4.477-10-10s4.477-10 10-10h154.086c5.523 0 10 4.477 10 10zm19.611-50h-183.697c-5.523 0-10 4.477-10 10s4.477 10 10 10h183.696c5.523 0 10-4.477 10-10s-4.476-10-9.999-10z" fill="#ff73c6"/><path d="m340.146 430.992c-8.54 9.607-20.78 15.104-33.633 15.104h-220.513v-90h220.513c12.854 0 25.094 5.497 33.633 15.104 15.155 17.049 15.155 42.742 0 59.792z" fill="#00aaf2"/><path d="m487.047 404.418-35.556 40c-.949 1.067-2.309 1.678-3.737 1.678h-201.202c-24.853 0-45-20.147-45-45s20.147-45 45-45h201.202c1.428 0 2.788.611 3.737 1.678l35.556 40c1.684 1.894 1.684 4.749 0 6.644z" fill="#00c1fb"/><path d="m159.934 431.786c-11.154 19.162-32.432 31.705-56.508 30.298-30.62-1.79-55.53-26.701-57.319-57.321-1.41-24.135 11.199-45.459 30.443-56.59.335-.194.711.175.532.517-5.19 9.951-7.723 21.509-6.65 33.732 2.561 29.197 26.128 52.769 55.324 55.336 12.167 1.07 23.675-1.432 33.595-6.572.387-.2.802.224.583.6z" fill="#00aaf2"/><path d="m168.192 401.095c0 11.192-3.01 21.68-8.264 30.701-9.021 5.253-19.509 8.264-30.701 8.264-33.742 0-61.096-27.354-61.096-61.096 0-11.191 3.01-21.68 8.264-30.701 9.021-5.253 19.509-8.263 30.701-8.263 33.742 0 61.096 27.353 61.096 61.095z" fill="#00d1fc"/><path d="m127.5 384.454c0 5.53-2.056 10.59-5.443 14.454 3.387 3.864 5.443 8.924 5.443 14.454 0 12.106-9.849 21.955-21.954 21.955-10.892 0-20.239-8.126-21.743-18.901-.14-1.01-.211-2.036-.211-3.054 0-4.143 3.358-7.5 7.5-7.5s7.5 3.357 7.5 7.5c0 .328.023.658.068.982.475 3.404 3.436 5.973 6.887 5.973 3.834 0 6.954-3.12 6.954-6.955s-3.12-6.954-6.954-6.954c-4.142 0-7.5-3.357-7.5-7.5s3.358-7.5 7.5-7.5c3.834 0 6.954-3.119 6.954-6.954s-3.12-6.954-6.954-6.954c-3.317 0-6.187 2.354-6.824 5.598-.799 4.064-4.742 6.713-8.805 5.914-4.064-.799-6.712-4.74-5.914-8.805 2.016-10.261 11.075-17.707 21.542-17.707 12.105 0 21.954 9.849 21.954 21.954zm-29.574-316.294h4.574v48.988c0 4.143 3.358 7.5 7.5 7.5s7.5-3.357 7.5-7.5v-56.488c0-4.143-3.358-7.5-7.5-7.5h-12.074c-4.142 0-7.5 3.357-7.5 7.5s3.358 7.5 7.5 7.5zm24.598 196.594c-.032 0-.064 0-.096.001-4.887.061-10.043.104-14.572.121 3.016-4.065 6.991-9.538 12.132-16.883 3.69-5.272 6.102-10.275 7.167-14.869.057-.245.102-.494.133-.743l.279-2.186c.041-.315.061-.633.061-.951 0-12.105-9.849-21.954-21.955-21.954-10.467 0-19.527 7.447-21.542 17.708-.798 4.064 1.85 8.007 5.914 8.805s8.006-1.85 8.805-5.914c.637-3.244 3.507-5.599 6.823-5.599 3.703 0 6.74 2.909 6.944 6.563l-.155 1.209c-.677 2.62-2.318 5.836-4.764 9.33-8.934 12.766-14.265 19.745-17.128 23.494-3.66 4.792-5.497 7.197-4.24 11.286.746 2.428 2.58 4.289 5.037 5.109 1.003.334 1.853.617 12.896.617 4.336 0 10.247-.043 18.354-.146 4.142-.052 7.457-3.451 7.405-7.593-.052-4.109-3.399-7.405-7.498-7.405z" fill="#fff"/><path d="m379.997 421.096c0 5.523-4.477 10-10 10h-173.891c-5.523 0-10-4.477-10-10s4.477-10 10-10h173.891c5.523 0 10 4.477 10 10zm19.611-50h-203.502c-5.523 0-10 4.477-10 10s4.477 10 10 10h203.502c5.523 0 10-4.477 10-10s-4.477-10-10-10z" fill="#64dcfc"/></g></svg>