<?xml version="1.0" encoding="UTF-8" standalone="no"?>
<!DOCTYPE svg PUBLIC "-//W3C//DTD SVG 1.1//EN" "http://www.w3.org/Graphics/SVG/1.1/DTD/svg11.dtd">
<svg width="100%" height="100%" viewBox="0 0 512 512" version="1.1" xmlns="http://www.w3.org/2000/svg" xmlns:xlink="http://www.w3.org/1999/xlink" xml:space="preserve" xmlns:serif="http://www.serif.com/" style="fill-rule:evenodd;clip-rule:evenodd;stroke-linejoin:round;stroke-miterlimit:2;">
    <g>
        <path d="M511.656,243l-1.056,-1l-345.6,0c-4.963,0 -9,-4.037 -9,-9l0,-62c0,-4.963 4.037,-9 9,-9l327.231,0l0.665,-1c-37.107,-88.127 -124.274,-150 -225.896,-150c-135.31,0 -245,109.69 -245,245c0,135.31 109.69,245 245,245c50.832,0 98.067,-15.496 137.209,-42l-0.307,-1l-147.902,0c-4.962,0 -9,-4.037 -9,-9l0,-62c0,-4.963 4.038,-9 9,-9l222.345,0l1.727,-1c4.768,-8.373 9.054,-17.046 12.824,-26l-0.665,-1l-92.231,0c-4.962,0 -9,-4.037 -9,-9l0,-62c0,-4.963 4.038,-9 9,-9l110.601,0l1.056,-1c0.225,-4.305 0.344,-8.639 0.344,-13c0,-4.361 -0.12,-8.695 -0.345,-13Z" style="fill:#fee45a;fill-rule:nonzero;"/>
        <g>
            <g>
                <circle cx="267" cy="256" r="188" style="fill:#fed402;"/>
            </g>
        </g>
        <g>
            <g>
                <path d="M340,135l-330,0c-5.523,0 -10,-4.477 -10,-10l0,-62c0,-5.523 4.477,-10 10,-10l330,0c5.523,0 10,4.477 10,10l0,62c0,5.523 -4.477,10 -10,10Z" style="fill:#6e61b6;fill-rule:nonzero;"/>
                <path d="M25,105l0,-22c0,-2.761 2.239,-5 5,-5l290,0c2.761,0 5,2.239 5,5l0,22c0,2.761 -2.239,5 -5,5l-290,0c-2.761,0 -5,-2.239 -5,-5Z" style="fill:#8379c1;fill-rule:nonzero;"/>
                <circle cx="413" cy="94" r="41" style="fill:#fe9901;"/>
                <path d="M404,94c0,-16.967 10.307,-31.526 25,-37.76c-4.916,-2.086 -10.323,-3.24 -16,-3.24c-22.644,0 -41,18.356 -41,41c0,22.644 18.356,41 41,41c5.677,0 11.084,-1.155 16,-3.24c-14.693,-6.234 -25,-20.793 -25,-37.76Z" style="fill:#fb8801;fill-rule:nonzero;"/>
            </g>
            <g>
                <path d="M492.896,161l-327.896,0c-5.523,0 -10,4.477 -10,10l0,62c0,5.523 4.477,10 10,10l346.656,0c-1.513,-28.95 -8.052,-56.568 -18.76,-82Z" style="fill:#fd3581;fill-rule:nonzero;"/>
                <path d="M180,213l0,-22c0,-2.761 2.239,-5 5,-5l287.002,0c2.166,0 4.104,1.389 4.759,3.453c2.349,7.407 4.298,14.931 5.843,22.549c0.628,3.099 -1.748,5.998 -4.909,5.998l-292.695,0c-2.761,0 -5,-2.239 -5,-5Z" style="fill:#fe5694;fill-rule:nonzero;"/>
                <g>
                    <circle cx="92" cy="202" r="41" style="fill:#0ed290;"/>
                </g>
                <path d="M83,202c0,-16.967 10.307,-31.526 25,-37.76c-4.916,-2.086 -10.323,-3.24 -16,-3.24c-22.644,0 -41,18.356 -41,41c0,22.644 18.356,41 41,41c5.677,0 11.084,-1.155 16,-3.24c-14.693,-6.234 -25,-20.793 -25,-37.76Z" style="fill:#00c285;fill-rule:nonzero;"/>
            </g>
            <g>
                <path d="M260,351l-250,0c-5.523,0 -10,-4.477 -10,-10l0,-62c0,-5.523 4.477,-10 10,-10l250,0c5.523,0 10,4.477 10,10l0,62c0,5.523 -4.477,10 -10,10Z" style="fill:#6e61b6;fill-rule:nonzero;"/>
                <path d="M25,321l0,-22c0,-2.761 2.239,-5 5,-5l210,0c2.761,0 5,2.239 5,5l0,22c0,2.761 -2.239,5 -5,5l-210,0c-2.761,0 -5,-2.239 -5,-5Z" style="fill:#8379c1;fill-rule:nonzero;"/>
                <path d="M511.656,269l-111.656,0c-5.523,0 -10,4.477 -10,10l0,62c0,5.523 4.477,10 10,10l92.896,0c10.708,-25.432 17.247,-53.05 18.76,-82Z" style="fill:#6e61b6;fill-rule:nonzero;"/>
                <path d="M415,321l0,-22c0,-2.761 2.239,-5 5,-5l57.694,0c3.162,0 5.538,2.9 4.909,5.998c-1.545,7.618 -3.494,15.141 -5.843,22.549c-0.655,2.065 -2.593,3.453 -4.759,3.453l-52.001,0c-2.761,0 -5,-2.239 -5,-5Z" style="fill:#8379c1;fill-rule:nonzero;"/>
                <circle cx="329" cy="310" r="41" style="fill:#fe9901;"/>
                <path d="M320,310c0,-16.967 10.307,-31.526 25,-37.76c-4.916,-2.086 -10.323,-3.24 -16,-3.24c-22.644,0 -41,18.356 -41,41c0,22.644 18.356,41 41,41c5.677,0 11.084,-1.155 16,-3.24c-14.693,-6.234 -25,-20.793 -25,-37.76Z" style="fill:#fb8801;fill-rule:nonzero;"/>
            </g>
            <g>
                <path d="M246,387l0,62c0,5.523 4.477,10 10,10l148.209,0c31.154,-21.098 57.186,-49.183 75.862,-82l-224.071,0c-5.523,0 -10,4.477 -10,10Z" style="fill:#fd3581;fill-rule:nonzero;"/>
                <path d="M271,429l0,-22c0,-2.761 2.239,-5 5,-5l144.002,0c4.419,0 6.691,5.338 3.589,8.485c-8.054,8.169 -16.736,15.717 -25.948,22.536c-0.863,0.639 -1.912,0.979 -2.986,0.979l-118.657,0c-2.761,0 -5,-2.239 -5,-5Z" style="fill:#fe5694;fill-rule:nonzero;"/>
                <circle cx="187" cy="418" r="41" style="fill:#0ed290;"/>
                <path d="M178,418c0,-16.967 10.307,-31.526 25,-37.76c-4.916,-2.086 -10.323,-3.24 -16,-3.24c-22.644,0 -41,18.356 -41,41c0,22.644 18.356,41 41,41c5.677,0 11.084,-1.155 16,-3.24c-14.693,-6.234 -25,-20.793 -25,-37.76Z" style="fill:#00c285;fill-rule:nonzero;"/>
            </g>
        </g>
    </g>
</svg>
