<?xml version="1.0" encoding="UTF-8" standalone="no"?>
<!DOCTYPE svg PUBLIC "-//W3C//DTD SVG 1.1//EN" "http://www.w3.org/Graphics/SVG/1.1/DTD/svg11.dtd">
<svg width="100%" height="100%" viewBox="0 0 512 512" version="1.1" xmlns="http://www.w3.org/2000/svg" xmlns:xlink="http://www.w3.org/1999/xlink" xml:space="preserve" style="fill-rule:evenodd;clip-rule:evenodd;stroke-linejoin:round;stroke-miterlimit:2;">
    <g>
        <path d="M512,102.4c0,-56.516 -45.884,-102.4 -102.4,-102.4l-307.2,0c-56.516,0 -102.4,45.884 -102.4,102.4l-0,307.2c-0,56.516 45.884,102.4 102.4,102.4l307.2,0c56.516,0 102.4,-45.884 102.4,-102.4l0,-307.2Z" style="fill:#3d4ec6;"/>
        <path d="M443.426,210.319c0,103.512 -83.913,187.426 -187.426,187.426c-103.513,0 -187.426,-83.914 -187.426,-187.426c0,-103.512 83.914,-187.426 187.426,-187.426c103.512,0 187.426,83.914 187.426,187.426Z" style="fill:#5766ce;fill-rule:nonzero;"/>
        <path d="M107.498,206.964c1.884,1.884 1.884,4.939 0,6.822l-25.925,25.925c-1.884,1.884 -4.938,1.884 -6.822,0l-27.289,-27.289c-1.884,-1.884 -1.884,-4.939 0,-6.822l25.925,-25.925c1.884,-1.884 4.938,-1.884 6.822,0l27.289,27.289Zm357.04,-1.364l-25.925,-25.925c-1.884,-1.884 -4.938,-1.884 -6.822,0l-27.289,27.289c-1.884,1.884 -1.884,4.939 0,6.822l25.925,25.925c1.884,1.884 4.938,1.884 6.822,0l27.289,-27.289c1.884,-1.884 1.884,-4.938 0,-6.822Z" style="fill:#ff9100;fill-rule:nonzero;"/>
        <path d="M107.498,206.964c1.884,1.884 1.884,4.939 0,6.822l-14.566,14.566c-1.884,1.884 -4.938,1.884 -6.822,0l-27.29,-27.288c-1.884,-1.883 -1.884,-4.938 0,-6.822l14.566,-14.566c1.884,-1.884 4.938,-1.884 6.822,0l27.29,27.288Zm357.04,-1.364l-16.568,-16.568c-1.884,-1.884 -4.938,-1.884 -6.822,0l-27.289,27.289c-1.884,1.884 -1.884,4.939 0,6.822l16.568,16.568c1.884,1.884 4.938,1.884 6.822,0l27.289,-27.289c1.884,-1.884 1.884,-4.938 0,-6.822Z" style="fill:#ffb52d;fill-rule:nonzero;"/>
        <path d="M396.746,292.89c6.244,16.525 9.661,34.438 9.661,53.15c0,83.067 -67.339,150.407 -150.407,150.407c-83.068,0 -150.407,-67.34 -150.407,-150.407c0,-18.712 3.417,-36.625 9.661,-53.15l-50.252,-50.252l45.423,-45.423l40.859,40.859c19.746,-19.155 44.73,-32.942 72.597,-39.004l0,-119.422l64.237,0l0,119.422c27.867,6.062 52.851,19.848 72.597,39.004l40.859,-40.859l45.423,45.423l-50.251,50.252Z" style="fill:#93dcfc;fill-rule:nonzero;"/>
        <path d="M446.998,242.638l-50.252,50.252c6.244,16.525 9.661,34.438 9.661,53.149c0,32.235 -10.141,62.101 -27.406,86.583c-101.186,-28.779 -181.752,-106.532 -214.445,-206.007c17.22,-13.206 37.379,-22.771 59.326,-27.545l0,-119.422l64.237,0l0,119.422c27.867,6.062 52.851,19.849 72.597,39.004l40.859,-40.859l45.423,45.423Z" style="fill:#b4e7fd;fill-rule:nonzero;"/>
        <path d="M388.508,341.143c0,23.27 -18.864,42.134 -42.134,42.134c-0.23,-0 -0.46,-0.003 -0.689,-0.006c-8.75,41.502 -45.579,72.654 -89.685,72.654c-35.857,-0 -66.904,-20.59 -81.965,-50.591c-1.432,0.142 -2.885,0.216 -4.355,0.216c-23.978,-0 -43.417,-19.438 -43.417,-43.417c0,-14.868 7.474,-27.99 18.87,-35.815c-3.477,-6.244 -5.458,-13.436 -5.458,-21.09c0,-23.978 19.438,-43.417 43.417,-43.417c7.279,0 14.14,1.792 20.166,4.958c1.442,-20.993 18.928,-37.575 40.287,-37.575c13.682,0 25.774,6.805 33.079,17.214c3.826,-8.676 12.502,-14.732 22.593,-14.732c13.63,0 24.68,11.049 24.68,24.68c0,2.187 -0.285,4.308 -0.819,6.327c0.398,-0.013 0.798,-0.02 1.199,-0.02c19.969,0 36.157,16.188 36.157,36.157c0,0.861 -0.031,1.715 -0.09,2.561c16.403,5.762 28.164,21.388 28.164,39.762Zm-127.663,-160.19c9.387,-0 16.997,7.61 16.997,16.997c0,9.387 -7.61,16.997 -16.997,16.997c-9.387,-0 -16.997,-7.61 -16.997,-16.997c-0.001,-9.387 7.609,-16.997 16.997,-16.997Zm-12.025,-39.906c7.463,-0 13.512,-6.05 13.512,-13.513c0,-7.463 -6.05,-13.513 -13.512,-13.513c-7.462,-0 -13.513,6.05 -13.513,13.513c0.001,7.463 6.051,13.513 13.513,13.513Zm-109.044,120.764c-0,-7.463 -6.05,-13.513 -13.512,-13.513c-7.463,-0 -13.512,6.05 -13.512,13.513c-0,7.463 6.05,13.513 13.512,13.513c7.462,-0 13.512,-6.05 13.512,-13.513Z" style="fill:#40c1fa;fill-rule:nonzero;"/>
        <path d="M388.508,341.143c0,23.27 -18.864,42.134 -42.134,42.134c-0.23,-0 -0.46,-0.003 -0.689,-0.006c-6.965,33.034 -31.72,59.512 -63.775,68.94c-24.454,-12.786 -44.537,-32.791 -57.418,-57.187c-7.038,7.97 -17.332,12.996 -28.8,12.996c-21.213,-0 -38.41,-17.196 -38.41,-38.409c0,-12.853 6.313,-24.23 16.007,-31.203c-2.315,-4.941 -3.608,-10.457 -3.608,-16.274c0,-21.213 17.197,-38.409 38.41,-38.409c3.107,-0 6.127,0.369 9.02,1.065c7.703,-21.005 20.438,-39.581 36.746,-54.268c9.345,2.461 17.366,8.188 22.767,15.885c3.826,-8.676 12.502,-14.732 22.593,-14.732c13.63,-0 24.68,11.049 24.68,24.679c0,2.188 -0.285,4.308 -0.819,6.328c0.398,-0.013 0.798,-0.021 1.199,-0.021c19.969,-0 36.157,16.188 36.157,36.157c0,0.861 -0.031,1.715 -0.09,2.561c16.403,5.764 28.164,21.391 28.164,39.764Zm-7.278,-92.845c-7.463,0 -13.512,6.05 -13.512,13.513c0,7.462 6.05,13.513 13.512,13.513c7.463,0 13.513,-6.05 13.513,-13.513c0,-7.463 -6.05,-13.513 -13.513,-13.513Z" style="fill:#72d1fb;fill-rule:nonzero;"/>
        <path d="M288.31,70.845c-2.446,5.458 -8.102,9.164 -14.565,8.716c-7.294,-0.505 -13.203,-6.414 -13.708,-13.708c-0.448,-6.467 3.263,-12.126 8.726,-14.569c0.494,-0.221 1.038,0.216 0.909,0.742c-0.355,1.453 -0.496,2.991 -0.386,4.577c0.505,7.301 6.408,13.203 13.709,13.709c1.583,0.11 3.117,-0.03 4.567,-0.383c0.53,-0.13 0.971,0.418 0.748,0.916Zm-40.435,-42.555c-3.272,7.302 -10.839,12.26 -19.486,11.661c-9.758,-0.676 -17.664,-8.581 -18.339,-18.339c-0.599,-8.653 4.365,-16.223 11.674,-19.492c0.661,-0.296 1.388,0.289 1.216,0.993c-0.475,1.945 -0.663,4.002 -0.516,6.124c0.676,9.768 8.573,17.664 18.341,18.341c2.117,0.147 4.17,-0.04 6.11,-0.513c0.708,-0.173 1.298,0.559 1,1.225Z" style="fill:#07a9f0;fill-rule:nonzero;"/>
        <path d="M289.597,64.799c0,2.171 -0.468,4.234 -1.308,6.091c-1.858,0.84 -3.92,1.308 -6.091,1.308c-8.173,0 -14.799,-6.626 -14.799,-14.799c0,-2.171 0.468,-4.234 1.308,-6.091c1.858,-0.84 3.92,-1.308 6.091,-1.308c8.174,0 14.799,6.626 14.799,14.799Zm-59.798,-64.396c-2.905,0 -5.664,0.626 -8.15,1.75c-1.124,2.485 -1.75,5.244 -1.75,8.15c0,10.934 8.864,19.799 19.799,19.799c2.905,0 5.664,-0.626 8.15,-1.75c1.124,-2.485 1.75,-5.244 1.75,-8.15c-0.001,-10.935 -8.865,-19.799 -19.799,-19.799Z" style="fill:#72d1fb;fill-rule:nonzero;"/>
        <path d="M300.381,77.236c-0,3.996 -3.24,7.236 -7.236,7.236l-74.291,0c-3.996,0 -7.236,-3.24 -7.236,-7.236c-0,-3.996 3.24,-7.236 7.236,-7.236l74.291,0c3.997,0 7.236,3.24 7.236,7.236Zm-193.224,109.603l-52.531,52.531c-2.826,2.826 -2.826,7.408 -0,10.233c2.826,2.826 7.408,2.826 10.233,0l52.531,-52.531c2.826,-2.826 2.826,-7.408 -0,-10.233c-2.826,-2.826 -7.407,-2.826 -10.233,0Zm350.217,52.531l-52.531,-52.531c-2.826,-2.826 -7.408,-2.826 -10.233,0c-2.826,2.826 -2.826,7.408 -0,10.233l52.531,52.531c2.826,2.826 7.408,2.826 10.233,0c2.826,-2.825 2.826,-7.407 -0,-10.233Z" style="fill:#fff5f5;fill-rule:nonzero;"/>
        <path d="M387.085,351.929c-3.08,69.735 -60.59,125.326 -131.085,125.326c-63.854,-0 -117.054,-45.61 -128.8,-106.029l65.775,-0c12.399,-0 24.767,-1.225 36.925,-3.656l59.918,-11.984c12.158,-2.431 24.526,-3.656 36.925,-3.656l60.342,-0l0,-0.001Z" style="fill:#9773bd;fill-rule:nonzero;"/>
        <path d="M271.04,476.401c-4.935,0.563 -9.954,0.854 -15.04,0.854c-63.854,0 -117.054,-45.611 -128.8,-106.03l30.081,0c10.811,55.606 56.734,98.668 113.759,105.176Z" style="fill:#865cb2;fill-rule:nonzero;"/>
        <path d="M195.612,343.089c-3.272,7.302 -10.839,12.26 -19.486,11.661c-9.758,-0.676 -17.664,-8.581 -18.339,-18.339c-0.599,-8.653 4.365,-16.223 11.674,-19.492c0.661,-0.296 1.388,0.289 1.216,0.993c-0.475,1.945 -0.663,4.002 -0.516,6.124c0.676,9.768 8.573,17.664 18.341,18.341c2.117,0.147 4.17,-0.04 6.11,-0.513c0.709,-0.174 1.299,0.558 1,1.225Zm141.174,-39.744c-2.446,5.458 -8.102,9.164 -14.565,8.716c-7.294,-0.505 -13.203,-6.414 -13.708,-13.708c-0.448,-6.467 3.263,-12.126 8.726,-14.569c0.494,-0.221 1.038,0.216 0.909,0.742c-0.355,1.453 -0.496,2.991 -0.386,4.577c0.505,7.301 6.408,13.203 13.709,13.709c1.583,0.11 3.117,-0.03 4.567,-0.383c0.53,-0.13 0.971,0.418 0.748,0.916Zm-17.275,64.912c-2.446,5.458 -8.102,9.164 -14.565,8.716c-7.294,-0.505 -13.203,-6.414 -13.708,-13.708c-0.448,-6.467 3.263,-12.126 8.726,-14.569c0.494,-0.221 1.038,0.216 0.909,0.742c-0.355,1.453 -0.496,2.991 -0.386,4.577c0.505,7.301 6.408,13.203 13.709,13.709c1.583,0.11 3.117,-0.03 4.567,-0.383c0.53,-0.13 0.971,0.418 0.748,0.916Z" style="fill:#a88ac8;fill-rule:nonzero;"/>
        <path d="M197.335,335c0,2.905 -0.626,5.664 -1.75,8.15c-2.485,1.124 -5.244,1.75 -8.15,1.75c-10.934,0 -19.799,-8.864 -19.799,-19.799c0,-2.905 0.626,-5.664 1.75,-8.15c2.485,-1.124 5.244,-1.75 8.15,-1.75c10.935,0 19.799,8.865 19.799,19.799Zm125.94,-52.5c-2.171,0 -4.234,0.468 -6.091,1.308c-0.84,1.858 -1.308,3.92 -1.308,6.091c0,8.173 6.626,14.799 14.799,14.799c2.171,0 4.234,-0.468 6.091,-1.308c0.84,-1.858 1.308,-3.92 1.308,-6.091c-0.001,-8.173 -6.626,-14.799 -14.799,-14.799Zm-17.275,64.912c-2.171,0 -4.234,0.468 -6.091,1.308c-0.84,1.858 -1.308,3.92 -1.308,6.091c0,8.173 6.626,14.799 14.799,14.799c2.171,0 4.234,-0.468 6.091,-1.308c0.84,-1.858 1.308,-3.92 1.308,-6.091c0,-8.173 -6.626,-14.799 -14.799,-14.799Z" style="fill:#b9a1d3;fill-rule:nonzero;"/>
        <path d="M218.467,417.5c-3.272,7.302 -10.839,12.26 -19.486,11.661c-9.758,-0.676 -17.664,-8.582 -18.339,-18.339c-0.599,-8.653 4.365,-16.223 11.674,-19.492c0.661,-0.296 1.388,0.289 1.216,0.993c-0.475,1.944 -0.663,4.001 -0.516,6.124c0.676,9.768 8.573,17.665 18.341,18.341c2.117,0.146 4.17,-0.041 6.11,-0.513c0.708,-0.173 1.298,0.559 1,1.225Zm69.509,36.538c-1.45,0.353 -2.984,0.493 -4.567,0.383c-7.301,-0.505 -13.203,-6.408 -13.709,-13.708c-0.11,-1.586 0.031,-3.124 0.386,-4.578c0.128,-0.526 -0.415,-0.963 -0.909,-0.742c-5.463,2.444 -9.174,8.102 -8.726,14.57c0.505,7.294 6.414,13.203 13.708,13.708c6.464,0.448 12.119,-3.258 14.565,-8.716c0.223,-0.499 -0.218,-1.046 -0.748,-0.917Zm61.632,-44.446c-1.45,0.354 -2.984,0.493 -4.567,0.383c-7.301,-0.505 -13.203,-6.408 -13.709,-13.709c-0.11,-1.586 0.031,-3.124 0.386,-4.577c0.128,-0.526 -0.415,-0.963 -0.909,-0.742c-5.463,2.443 -9.174,8.102 -8.726,14.569c0.505,7.294 6.414,13.203 13.708,13.708c6.464,0.448 12.119,-3.258 14.565,-8.716c0.223,-0.498 -0.218,-1.045 -0.748,-0.916Z" style="fill:#07a9f0;fill-rule:nonzero;"/>
        <path d="M220.189,409.411c0,2.905 -0.626,5.665 -1.75,8.15c-2.485,1.124 -5.244,1.75 -8.15,1.75c-10.934,0 -19.799,-8.864 -19.799,-19.798c0,-2.905 0.626,-5.664 1.75,-8.15c2.485,-1.124 5.244,-1.75 8.15,-1.75c10.935,0 19.799,8.864 19.799,19.798Zm55.024,24.698c-2.171,0 -4.234,0.468 -6.091,1.308c-0.84,1.858 -1.308,3.92 -1.308,6.091c0,8.173 6.626,14.799 14.799,14.799c2.171,0 4.234,-0.468 6.091,-1.308c0.84,-1.858 1.308,-3.92 1.308,-6.091c-0.001,-8.173 -6.626,-14.799 -14.799,-14.799Zm61.632,-44.446c-2.171,0 -4.234,0.468 -6.091,1.308c-0.84,1.857 -1.308,3.92 -1.308,6.091c0,8.173 6.626,14.798 14.799,14.798c2.172,0 4.234,-0.468 6.091,-1.308c0.84,-1.858 1.308,-3.92 1.308,-6.092c0,-8.171 -6.626,-14.797 -14.799,-14.797Z" style="fill:#72d1fb;fill-rule:nonzero;"/>
        <path d="M238.5,267.627c0,-4.142 3.358,-7.5 7.5,-7.5l20,0c4.142,0 7.5,3.358 7.5,7.5c0,4.142 -3.358,7.5 -7.5,7.5l-20,0c-4.142,0 -7.5,-3.358 -7.5,-7.5Zm27.5,82.5l-20,0c-4.142,0 -7.5,3.358 -7.5,7.5c0,4.142 3.358,7.5 7.5,7.5l20,0c4.142,0 7.5,-3.358 7.5,-7.5c0,-4.142 -3.358,-7.5 -7.5,-7.5Zm-8,-60l-4,0c-4.142,0 -7.5,3.358 -7.5,7.5c0,4.142 3.358,7.5 7.5,7.5l4,0c4.142,0 7.5,-3.358 7.5,-7.5c0,-4.142 -3.358,-7.5 -7.5,-7.5Zm-4,-45l4,0c4.142,0 7.5,-3.358 7.5,-7.5c0,-4.142 -3.358,-7.5 -7.5,-7.5l-4,0c-4.142,0 -7.5,3.358 -7.5,7.5c0,4.142 3.358,7.5 7.5,7.5Zm4,135l-4,0c-4.142,0 -7.5,3.358 -7.5,7.5c0,4.142 3.358,7.5 7.5,7.5l4,0c4.142,0 7.5,-3.358 7.5,-7.5c0,-4.142 -3.358,-7.5 -7.5,-7.5Zm0,-60l-4,0c-4.142,0 -7.5,3.358 -7.5,7.5c0,4.142 3.358,7.5 7.5,7.5l4,0c4.142,0 7.5,-3.358 7.5,-7.5c0,-4.142 -3.358,-7.5 -7.5,-7.5Z" style="fill:#d5f1fe;fill-rule:nonzero;"/>
        <path d="M389.254,74.092c0,1.28 -0.488,2.559 -1.464,3.536c-1.953,1.953 -5.119,1.953 -7.071,0l-10.556,-10.556l0,96.38c0,2.761 -2.239,5 -5,5c-2.761,0 -5,-2.239 -5,-5l0,-96.38l-10.556,10.556c-1.953,1.953 -5.119,1.953 -7.071,0c-1.952,-1.953 -1.952,-5.118 0,-7.071l19.092,-19.092c1.953,-1.953 5.119,-1.953 7.071,0l19.092,19.092c0.974,0.976 1.463,2.255 1.463,3.535Z" style="fill:#fff5f5;fill-rule:nonzero;"/>
        <path d="M171.788,431.243c2.929,2.929 2.929,7.678 0,10.607l-38.744,38.744c-4.536,-2.489 -8.989,-5.111 -13.352,-7.861l41.489,-41.489c2.929,-2.93 7.678,-2.93 10.607,-0.001Zm179.031,-0c-2.929,-2.929 -7.678,-2.929 -10.607,-0c-2.929,2.929 -2.929,7.678 0,10.607l38.744,38.744c4.536,-2.489 8.989,-5.111 13.352,-7.861l-41.489,-41.49Z" style="fill:#a6aee5;fill-rule:nonzero;"/>
        <path d="M408.454,434.059c0,4.142 -3.358,7.5 -7.5,7.5l-289.908,0c-4.142,0 -7.5,-3.358 -7.5,-7.5c0,-4.142 3.358,-7.5 7.5,-7.5l289.907,0c4.143,0 7.501,3.358 7.501,7.5Z" style="fill:#e1ebf0;fill-rule:nonzero;"/>
    </g>
</svg>
