<?xml version="1.0" encoding="UTF-8" standalone="no"?>
<!DOCTYPE svg PUBLIC "-//W3C//DTD SVG 1.1//EN" "http://www.w3.org/Graphics/SVG/1.1/DTD/svg11.dtd">
<svg width="100%" height="100%" viewBox="0 0 24 24" version="1.1" xmlns="http://www.w3.org/2000/svg" xmlns:xlink="http://www.w3.org/1999/xlink" xml:space="preserve" style="fill-rule:evenodd;clip-rule:evenodd;stroke-linejoin:round;stroke-miterlimit:2;">
    <path d="M21.6,4.8l-9.6,0l-1.692,-1.692c-0.456,-0.456 -1.068,-0.708 -1.704,-0.708l-6.204,0c-1.32,0 -2.388,1.08 -2.388,2.4l-0.012,14.4c-0,1.32 1.08,2.4 2.4,2.4l19.2,0c1.32,0 2.4,-1.08 2.4,-2.4l0,-12c0,-1.32 -1.08,-2.4 -2.4,-2.4Zm-1.2,14.4l-16.8,0c-0.66,0 -1.2,-0.54 -1.2,-1.2l-0,-9.6c-0,-0.66 0.54,-1.2 1.2,-1.2l16.8,0c0.66,0 1.2,0.54 1.2,1.2l0,9.6c0,0.66 -0.54,1.2 -1.2,1.2Z" style="fill:currentColor;"/>
</svg>
