<svg width="100%" height="100%" viewBox="0 0 24 24" version="1.1" xmlns="http://www.w3.org/2000/svg" xmlns:xlink="http://www.w3.org/1999/xlink" xml:space="preserve" style="fill-rule:evenodd;clip-rule:evenodd;stroke-linejoin:round;stroke-miterlimit:2;">
  <path d="M12,0c-6.624,0 -12,5.376 -12,12c0,6.624 5.376,12 12,12c6.624,0 12,-5.376 12,-12c0,-6.624 -5.376,-12 -12,-12Zm-0,18c-0.66,0 -1.2,-0.54 -1.2,-1.2l-0,-4.8c-0,-0.66 0.54,-1.2 1.2,-1.2c0.66,-0 1.2,0.54 1.2,1.2l0,4.8c0,0.66 -0.54,1.2 -1.2,1.2Zm1.2,-9.6l-2.4,-0l0,-2.4l2.4,0l0,2.4Z" style="fill:currentColor;"/>
</svg>
