<svg width="100%" height="100%" viewBox="0 0 24 24" version="1.1" xmlns="http://www.w3.org/2000/svg" xmlns:xlink="http://www.w3.org/1999/xlink" xml:space="preserve" style="fill-rule:evenodd;clip-rule:evenodd;stroke-linejoin:round;stroke-miterlimit:2;">
    <path d="M22.203,1.813c-1.135,-1.136 -2.725,-1.8 -4.331,-1.813c-1.648,-0.013 -3.26,0.658 -4.431,1.813l-2.937,2.937c0.417,-0.069 0.841,-0.106 1.269,-0.106c0.837,0 1.661,0.136 2.451,0.404c0.216,0.073 0.427,0.155 0.633,0.246l1.033,-1.032c0.482,-0.484 1.151,-0.773 1.832,-0.798c0.752,-0.028 1.502,0.266 2.033,0.798c1.066,1.065 1.066,2.799 0,3.865l-2.118,2.117l-3.446,3.446c-0.67,0.67 -1.688,0.949 -2.606,0.716c-0.8,-0.204 -1.493,-0.791 -1.826,-1.546c-0.04,-0.09 -0.074,-0.181 -0.103,-0.274l-2.564,2.58c0.24,0.357 0.517,0.689 0.824,0.99c0.687,0.675 1.528,1.197 2.445,1.497c0.165,0.054 0.332,0.1 0.502,0.139c1.974,0.457 4.156,-0.129 5.634,-1.516c0.048,-0.045 5.706,-5.701 5.706,-5.701c2.416,-2.416 2.416,-6.346 0,-8.762Zm-12.394,17.14c-0.216,-0.074 -0.427,-0.156 -0.634,-0.247c0,-0 -1.033,1.033 -1.033,1.033c-0.484,0.485 -1.155,0.774 -1.84,0.798c-0.747,0.025 -1.497,-0.267 -2.025,-0.798c-1.065,-1.066 -1.065,-2.8 0,-3.866l5.835,-5.775c0.121,-0.122 0.268,-0.216 0.422,-0.293c0.7,-0.354 1.556,-0.387 2.281,-0.088c0.748,0.308 1.363,0.973 1.581,1.756c0.001,0.006 0.003,0.013 0.005,0.019c0,0 2.59,-2.589 2.591,-2.591c0.069,-0.069 -0.749,-0.946 -0.833,-1.029c-0.327,-0.325 -0.691,-0.614 -1.082,-0.86c-0.781,-0.492 -1.67,-0.815 -2.587,-0.922c-1.847,-0.215 -3.786,0.45 -5.097,1.771l-5.564,5.564c-2.416,2.416 -2.416,6.346 -0,8.762c1.142,1.143 2.744,1.807 4.359,1.813c1.631,0.006 3.25,-0.66 4.403,-1.813l2.937,-2.937c-0.416,0.07 -0.84,0.106 -1.269,0.106c-0.836,-0 -1.661,-0.136 -2.45,-0.403Z" style="fill:currentColor;"/>
</svg>
