<svg width="100%" height="100%" viewBox="0 0 24 24" version="1.1" xmlns="http://www.w3.org/2000/svg" xmlns:xlink="http://www.w3.org/1999/xlink" xml:space="preserve" style="fill-rule:evenodd;clip-rule:evenodd;stroke-linejoin:round;stroke-miterlimit:2;" aria-hidden="true" focusable="false">
    <path d="M24,19.8c0,-0.442 -0.358,-0.8 -0.8,-0.8l-16.183,0c-0.442,0 -0.8,0.358 -0.8,0.8l0,2.4c0,0.442 0.358,0.8 0.8,0.8l16.183,0c0.442,0 0.8,-0.358 0.8,-0.8l0,-2.4Zm0,-9c0,-0.442 -0.358,-0.8 -0.8,-0.8l-22.4,0c-0.442,0 -0.8,0.358 -0.8,0.8l0,2.4c0,0.442 0.358,0.8 0.8,0.8l22.4,-0c0.442,-0 0.8,-0.358 0.8,-0.8l0,-2.4Zm0,-9c0,-0.442 -0.358,-0.8 -0.8,-0.8l-19.878,-0c-0.442,-0 -0.8,0.358 -0.8,0.8l0,2.4c0,0.442 0.358,0.8 0.8,0.8l19.878,-0c0.442,-0 0.8,-0.358 0.8,-0.8l0,-2.4Z" style="fill:currentColor;"/>
</svg>
