<?xml version="1.0" encoding="UTF-8" standalone="no"?>
<!DOCTYPE svg PUBLIC "-//W3C//DTD SVG 1.1//EN" "http://www.w3.org/Graphics/SVG/1.1/DTD/svg11.dtd">
<svg width="100%" height="100%" viewBox="0 0 24 24" version="1.1" xmlns="http://www.w3.org/2000/svg" xmlns:xlink="http://www.w3.org/1999/xlink" xml:space="preserve" style="fill-rule:evenodd;clip-rule:evenodd;stroke-linejoin:round;stroke-miterlimit:2;">
    <path d="M12.147,14.331c-0.413,0.19 -0.865,0.437 -1.77,0.934c-0.343,0.193 -0.702,0.386 -1.036,0.568c-0.023,-0.023 -0.047,-0.053 -0.07,-0.077c-1.791,-1.913 -5.103,-3.264 -4.962,-5.834c0.053,-0.936 0.374,-3.393 6.361,-6.378c4.926,-2.428 8.846,-1.755 9.523,-0.263c0.973,2.127 -2.101,6.085 -7.189,6.659c-1.14,0.231 -2.325,-0.068 -3.218,-0.813c-0.27,-0.293 -0.31,-0.31 -0.409,-0.252c-0.164,0.086 -0.059,0.351 -0,0.503c0.391,0.71 1.055,1.231 1.837,1.445c2.001,0.433 4.09,0.226 5.968,-0.591c3.083,-1.194 5.491,-4.512 4.786,-7.293c-0.708,-2.821 -5.389,-3.751 -9.818,-2.177c-2.774,0.935 -5.337,2.406 -7.542,4.33c-2.44,2.283 -2.826,4.266 -2.669,5.097c0.568,2.949 4.634,4.868 6.264,6.29c-0.086,0.047 -0.158,0.086 -0.222,0.123c-0.814,0.404 -3.915,2.024 -4.688,3.739c-0.877,1.942 0.141,3.335 0.814,3.522c2.073,0.496 4.246,-0.384 5.389,-2.183c0.962,-1.479 1.142,-3.34 0.479,-4.976c0.193,-0.154 0.399,-0.291 0.615,-0.41c0.415,-0.245 0.811,-0.487 1.161,-0.674c1.202,-0.563 2.513,-0.853 3.84,-0.849c2.785,0.328 3.335,2.066 3.23,2.798c-0.1,0.525 -0.423,0.982 -0.884,1.251c-0.193,0.123 -0.258,0.164 -0.24,0.252c0.023,0.128 0.116,0.122 0.28,0.099c0.855,-0.27 1.459,-1.042 1.515,-1.936c0.086,-1.716 -1.55,-3.599 -4.447,-3.582c-0.867,0.002 -1.726,0.173 -2.527,0.504c-0.129,0.053 -0.254,0.111 -0.375,0.172l0.004,0.002Zm-4.14,6.726c-0.925,1.007 -2.212,1.387 -2.768,1.065c-0.6,-0.343 -0.363,-1.832 0.772,-2.897c0.673,-0.605 1.399,-1.148 2.171,-1.62c0.135,-0.086 0.334,-0.199 0.573,-0.344c0.042,-0.023 0.065,-0.035 0.065,-0.035l0.14,-0.086c0.412,1.381 0.047,2.881 -0.953,3.917Z" style="fill:currentColor;"/>
</svg>
