<svg width="100%" height="100%" viewBox="0 0 512 512" version="1.1" xmlns="http://www.w3.org/2000/svg" xmlns:xlink="http://www.w3.org/1999/xlink" xml:space="preserve" style="fill-rule:evenodd;clip-rule:evenodd;stroke-linejoin:round;stroke-miterlimit:2;" aria-hidden="true" focusable="false">
    <path id="_x30_4.Twitter" d="M512,96.96c-19.2,8.32 -39.04,14.08 -60.16,16.64c21.76,-12.8 38.4,-33.28 46.08,-58.24c-20.48,12.16 -42.88,20.48 -66.56,25.6c-19.2,-20.48 -46.72,-33.28 -76.8,-33.28c-58.24,0 -104.96,47.36 -104.96,104.96c0,8.32 0.64,16 2.56,23.68c-87.04,-3.84 -163.84,-46.08 -215.68,-109.44c-37.12,66.56 4.48,121.6 32,140.16c-16.64,0 -33.28,-5.12 -47.36,-12.8c0,51.84 36.48,94.72 83.84,104.32c-10.24,3.2 -33.28,5.12 -47.36,1.92c13.44,41.6 52.48,72.32 97.92,72.96c-35.84,28.16 -88.32,50.56 -155.52,43.52c46.72,30.08 101.76,47.36 161.28,47.36c193.28,-0 298.24,-160 298.24,-298.24c0,-4.48 0,-8.96 -0.64,-13.44c21.76,-16 39.68,-34.56 53.12,-55.68Z" style="fill:currentColor;"/>
</svg>
