<?xml version="1.0" encoding="UTF-8" standalone="no"?>
<!DOCTYPE svg PUBLIC "-//W3C//DTD SVG 1.1//EN" "http://www.w3.org/Graphics/SVG/1.1/DTD/svg11.dtd">
<svg width="100%" height="100%" viewBox="0 0 454 112" version="1.1" xmlns="http://www.w3.org/2000/svg" xmlns:xlink="http://www.w3.org/1999/xlink" xml:space="preserve" xmlns:serif="http://www.serif.com/" style="fill-rule:evenodd;clip-rule:evenodd;stroke-linejoin:round;stroke-miterlimit:2;">
    <g id="UI">
        <g>
            <path d="M123.906,78.593c0,-1.512 -0.544,-2.822 -1.631,-3.927c-1.089,-1.106 -2.441,-2.125 -4.055,-3.055c-1.618,-0.931 -3.381,-1.864 -5.292,-2.795c-1.91,-0.931 -3.674,-2.022 -5.291,-3.272c-1.615,-1.251 -2.967,-2.722 -4.056,-4.409c-1.086,-1.687 -1.631,-3.753 -1.631,-6.196c0,-1.748 0.412,-3.332 1.236,-4.759c0.824,-1.424 1.94,-2.631 3.35,-3.622c1.411,-0.989 3.1,-1.76 5.071,-2.313c1.968,-0.552 4.1,-0.829 6.391,-0.829c3.174,0 6.127,0.247 8.861,0.743c2.734,0.493 5.128,1.177 7.185,2.049c-0.235,1.864 -0.705,3.856 -1.41,5.98c-0.705,2.125 -1.382,4.058 -2.029,5.806l-2.997,-0l-3.702,-8.905c-0.707,-0.291 -1.44,-0.479 -2.206,-0.568c-0.763,-0.086 -1.614,-0.13 -2.557,-0.13c-1.761,0 -3.099,0.51 -4.011,1.529c-0.91,1.017 -1.366,2.166 -1.366,3.446c-0,1.456 0.544,2.722 1.631,3.797c1.087,1.078 2.439,2.08 4.056,3.013c1.617,0.931 3.381,1.862 5.291,2.793c1.91,0.93 3.672,1.991 5.289,3.185c1.617,1.194 2.969,2.604 4.056,4.235c1.086,1.629 1.631,3.579 1.631,5.847c-0,4.016 -1.645,7.172 -4.938,9.471c-3.29,2.298 -7.699,3.448 -13.226,3.448c-2.82,-0 -5.731,-0.291 -8.728,-0.873c-2.997,-0.581 -5.584,-1.396 -7.76,-2.445c0.119,-2.094 0.619,-4.219 1.501,-6.371c0.882,-2.152 1.822,-4.074 2.82,-5.761l3,-0l4.318,9.514c0.647,0.466 1.368,0.742 2.162,0.828c0.793,0.089 1.543,0.133 2.248,0.133c1.703,0 3.262,-0.495 4.672,-1.484c1.41,-0.989 2.117,-2.357 2.117,-4.103Z" style="fill-rule:nonzero;"/>
            <path d="M164.551,105.564l-24.334,-0l0,-3.316c1.999,-0.933 3.937,-1.633 5.82,-2.101l-0,-49.571l-5.82,-0.7l0,-3.318c0.94,-0.408 2.102,-0.785 3.481,-1.134c1.383,-0.349 2.809,-0.656 4.277,-0.916c1.471,-0.263 2.895,-0.48 4.277,-0.654c1.382,-0.177 2.543,-0.321 3.483,-0.438l2.997,0l0,9.775l0.088,0c0.999,-2.792 2.572,-5.119 4.717,-6.983c2.145,-1.861 5.128,-2.792 8.949,-2.792c2.587,0 4.924,0.421 7.011,1.266c2.085,0.845 3.848,2.152 5.289,3.928c1.44,1.775 2.557,4.044 3.35,6.808c0.794,2.764 1.192,6.066 1.192,9.908c-0,3.665 -0.515,6.983 -1.543,9.949c-1.029,2.969 -2.499,5.471 -4.409,7.507c-1.911,2.038 -4.233,3.609 -6.967,4.714c-2.732,1.105 -5.833,1.659 -9.3,1.659c-1.999,-0 -3.572,-0.13 -4.717,-0.393c-1.147,-0.261 -2.366,-0.712 -3.66,-1.352l0,12.73c0.94,0.119 1.88,0.337 2.823,0.658c0.94,0.324 1.938,0.805 2.996,1.45l0,3.316Zm2.823,-55.165c-1.999,0 -3.779,0.698 -5.335,2.094c-1.557,1.399 -2.66,3.551 -3.307,6.46l0,23.219c0.94,0.698 1.941,1.208 2.997,1.526c1.059,0.322 2.441,0.482 4.144,0.482c3.351,0 5.82,-1.601 7.406,-4.802c1.587,-3.2 2.381,-7.884 2.381,-14.052c-0,-4.773 -0.603,-8.454 -1.806,-11.043c-1.205,-2.59 -3.367,-3.884 -6.48,-3.884Z" style="fill-rule:nonzero;"/>
            <path d="M217.629,54.501c-0.705,0.352 -1.529,0.933 -2.469,1.75c-0.94,0.819 -1.792,2.159 -2.557,4.028l-0,22.412c1.177,0.116 2.352,0.335 3.527,0.656c1.175,0.321 2.351,0.801 3.528,1.443l-0,3.318l-25.57,-0l0,-3.318c1.059,-0.584 2.057,-1.022 2.997,-1.315c0.94,-0.293 1.883,-0.556 2.823,-0.791l-0,-32.106l-5.82,-0.702l0,-3.318c0.94,-0.408 2.101,-0.785 3.484,-1.134c1.379,-0.349 2.806,-0.656 4.274,-0.916c1.471,-0.263 2.897,-0.48 4.277,-0.654c1.382,-0.177 2.543,-0.321 3.483,-0.438l2.997,0l-0,11.609l0.354,-0c0.47,-1.28 1.161,-2.618 2.071,-4.014c0.912,-1.398 1.984,-2.678 3.218,-3.842c1.235,-1.163 2.587,-2.094 4.055,-2.792c1.471,-0.7 3,-1.019 4.586,-0.961c0.647,0.815 1.206,1.964 1.676,3.449c0.47,1.482 0.851,2.894 1.145,4.232l-0,3.404l-12.079,0Z" style="fill-rule:nonzero;"/>
            <path d="M236.32,70.785c0,-3.677 0.089,-7.088 0.266,-10.236c0.176,-3.151 0.265,-6.473 0.265,-9.973l-5.819,-0.7l-0,-3.318c0.94,-0.35 2.101,-0.699 3.483,-1.048c1.38,-0.349 2.806,-0.653 4.274,-0.916c1.471,-0.261 2.895,-0.494 4.277,-0.698c1.382,-0.203 2.543,-0.363 3.483,-0.48l2.997,0c0,4.365 -0.088,8.656 -0.265,12.875c-0.175,4.218 -0.263,8.365 -0.263,12.439c-0,4.772 0.484,8.204 1.454,10.299c0.971,2.096 2.778,3.143 5.422,3.143c1.824,0 3.513,-0.686 5.07,-2.057c1.559,-1.37 2.836,-3.574 3.837,-6.608l-0,-22.931l-5.731,-0.7l-0,-3.318c0.879,-0.35 1.982,-0.699 3.304,-1.048c1.324,-0.349 2.706,-0.653 4.144,-0.916c1.44,-0.261 2.867,-0.494 4.277,-0.698c1.41,-0.203 2.645,-0.363 3.704,-0.48l2.997,0l0,38.493l5.819,0.698l0,3.055c-0.823,0.349 -1.852,0.701 -3.085,1.05c-1.235,0.349 -2.529,0.681 -3.881,1.003c-1.352,0.321 -2.688,0.581 -4.012,0.786c-1.321,0.202 -2.512,0.363 -3.569,0.479l-2.999,0l-0.617,-10.387l-0.351,0c-0.296,1.222 -0.824,2.458 -1.589,3.709c-0.764,1.252 -1.748,2.388 -2.953,3.405c-1.205,1.019 -2.629,1.847 -4.277,2.487c-1.645,0.64 -3.467,0.961 -5.466,0.961c-2.233,-0 -4.218,-0.277 -5.952,-0.831c-1.733,-0.554 -3.218,-1.531 -4.451,-2.932c-1.235,-1.4 -2.175,-3.28 -2.822,-5.642c-0.647,-2.362 -0.971,-5.35 -0.971,-8.965Z" style="fill-rule:nonzero;"/>
            <path d="M325.108,81.037c-0.412,1.163 -1.087,2.226 -2.029,3.185c-0.94,0.961 -2.071,1.82 -3.393,2.576c-1.324,0.756 -2.822,1.338 -4.498,1.745c-1.675,0.407 -3.422,0.612 -5.247,0.612c-3.878,-0 -7.213,-0.538 -10.005,-1.615c-2.792,-1.077 -5.1,-2.618 -6.922,-4.626c-1.822,-2.008 -3.174,-4.423 -4.056,-7.245c-0.882,-2.823 -1.322,-5.95 -1.322,-9.385c0,-7.39 2.041,-13.048 6.127,-16.976c4.086,-3.928 9.889,-5.892 17.414,-5.892c2.881,0 5.524,0.305 7.935,0.917c2.41,0.61 4.409,1.324 5.996,2.138c-0.119,0.989 -0.279,2.081 -0.487,3.274c-0.204,1.192 -0.439,2.385 -0.705,3.579c-0.262,1.191 -0.572,2.357 -0.926,3.49c-0.351,1.136 -0.705,2.08 -1.056,2.837l-4.321,-0l-3.702,-10.387c-0.412,-0.291 -0.854,-0.508 -1.324,-0.654c-0.47,-0.147 -1.175,-0.219 -2.115,-0.219c-1.529,0 -2.85,0.277 -3.967,0.831c-1.117,0.551 -2.073,1.498 -2.867,2.836c-0.793,1.338 -1.382,3.113 -1.764,5.324c-0.381,2.21 -0.572,4.947 -0.572,8.204c-0,2.388 0.265,4.584 0.793,6.592c0.529,2.006 1.338,3.753 2.425,5.236c1.087,1.484 2.455,2.648 4.1,3.492c1.645,0.845 3.585,1.266 5.819,1.266c2.057,0 3.851,-0.291 5.378,-0.873c1.528,-0.581 2.822,-1.279 3.881,-2.096l1.41,1.834Z" style="fill-rule:nonzero;"/>
            <path d="M369.104,80.776c-0.47,0.989 -1.22,1.992 -2.248,3.011c-1.029,1.019 -2.292,1.92 -3.791,2.706c-1.5,0.784 -3.234,1.426 -5.202,1.92c-1.969,0.495 -4.1,0.742 -6.392,0.742c-3.646,-0 -6.878,-0.538 -9.698,-1.615c-2.823,-1.077 -5.173,-2.618 -7.055,-4.626c-1.88,-2.008 -3.307,-4.409 -4.277,-7.201c-0.968,-2.795 -1.454,-5.936 -1.454,-9.429c-0,-7.448 1.968,-13.121 5.907,-17.02c3.937,-3.898 9.406,-5.848 16.4,-5.848c2.997,0 5.803,0.407 8.421,1.222c2.615,0.814 4.788,2.152 6.524,4.016c1.734,1.861 2.939,4.305 3.614,7.332c0.677,3.025 0.633,6.72 -0.133,11.085l-27.068,-0c0.061,4.598 1.25,8.262 3.572,10.999c2.322,2.734 5.745,4.102 10.273,4.102c1.938,0 3.951,-0.291 6.038,-0.873c2.087,-0.581 3.718,-1.337 4.893,-2.27l1.676,1.747Zm-18.213,-32.385c-1.168,0 -2.205,0.205 -3.111,0.612c-0.905,0.407 -1.693,1.149 -2.366,2.224c-0.67,1.078 -1.212,2.532 -1.619,4.366c-0.41,1.833 -0.701,4.146 -0.878,6.938l14.108,0c0.412,-4.537 0.149,-8.03 -0.786,-10.473c-0.936,-2.445 -2.718,-3.667 -5.348,-3.667Z" style="fill-rule:nonzero;"/>
            <path d="M2.601,83.249c-2.585,6.879 -3.262,14.276 -1.947,21.563c0.386,2.139 0.94,4.228 1.645,6.25l30.351,-13.88l-30.049,-13.933Z" style="fill:#904ad2;fill-rule:nonzero;"/>
            <path d="M66.145,81.865l7.511,-3.434c0.672,-5.18 0.121,-10.39 -1.613,-15.295l-23.335,10.741l17.437,7.988Z" style="fill:#904ad2;fill-rule:nonzero;"/>
            <path d="M14.929,58.401l1.868,0.854l16.158,-7.329l-17.37,-8.2c-1.433,4.239 -1.773,8.751 -0.968,13.202c0.089,0.496 0.196,0.984 0.312,1.473Z" style="fill:#904ad2;fill-rule:nonzero;"/>
            <path d="M40.573,48.47l13.033,-5.912l-10.257,-13.787c-0.612,-0.824 -1.58,-1.31 -2.608,-1.31c-1.027,0 -1.995,0.486 -2.606,1.31l-10.136,13.626l12.628,5.961l-0.054,0.112Z" style="fill:#904ad2;fill-rule:nonzero;"/>
            <path d="M40.917,70.308l25.61,-11.791c0.128,-0.525 0.244,-1.054 0.342,-1.589c0.779,-4.33 0.481,-8.721 -0.854,-12.86l-41.388,18.775l16.29,7.465Z" style="fill:#904ad2;fill-rule:nonzero;"/>
            <path d="M40.431,93.625l17.903,-8.188l-48.864,-22.387c-1.766,4.956 -2.324,10.227 -1.631,15.462l32.592,15.113Z" style="fill:#904ad2;fill-rule:nonzero;"/>
        </g>
        <g>
            <path d="M446.36,11.523c-1.763,-7.928 -9.631,-12.933 -17.559,-11.169l-28.728,6.389c-7.928,1.764 -12.932,9.632 -11.169,17.559l6.39,28.728c1.763,7.928 9.631,12.933 17.559,11.17l28.728,-6.39c7.928,-1.764 12.932,-9.632 11.169,-17.559l-6.39,-28.728Z" style="fill:#0db3cc;"/>
            <path d="M411.753,20.937l0,13.848c0,1.584 0.357,2.794 1.07,3.632c0.712,0.837 1.748,1.255 3.105,1.255c1.358,0 2.393,-0.418 3.106,-1.255c0.712,-0.838 1.069,-2.048 1.069,-3.632l-0,-13.848l5.804,0l-0,13.848c-0,2.263 -0.442,4.169 -1.324,5.719c-0.882,1.55 -2.087,2.715 -3.615,3.496c-1.527,0.78 -3.252,1.171 -5.176,1.171c-1.923,-0 -3.62,-0.385 -5.091,-1.154c-1.47,-0.77 -2.624,-1.935 -3.462,-3.496c-0.837,-1.561 -1.255,-3.473 -1.255,-5.736l-0,-13.848l5.769,0Z" style="fill:#fff;fill-rule:nonzero;"/>
            <rect x="429.776" y="20.937" width="5.804" height="23.996" style="fill:#fff;fill-rule:nonzero;"/>
        </g>
    </g>
</svg>
